<?xml version="1.0" encoding="UTF-8" standalone="no"?>
<svg xmlns:inkscape="http://www.inkscape.org/namespaces/inkscape" xmlns:rdf="http://www.w3.org/1999/02/22-rdf-syntax-ns#" xmlns="http://www.w3.org/2000/svg" inkscape:version="0.48.3.1 r9886" height="16" width="16" version="1.1" xmlns:cc="http://creativecommons.org/ns#" xmlns:dc="http://purl.org/dc/elements/1.1/" sodipodi:docname="adblock-plus.svg" xmlns:sodipodi="http://sodipodi.sourceforge.net/DTD/sodipodi-0.dtd">
<metadata>
<rdf:RDF>
<cc:Work rdf:about="">
<dc:format>image/svg+xml</dc:format>
<dc:type rdf:resource="http://purl.org/dc/dcmitype/StillImage"/>
<dc:title>Gnome Symbolic Icon Theme</dc:title>
</cc:Work>
</rdf:RDF>
</metadata>
<sodipodi:namedview inkscape:zoom="22.627417" borderopacity="1" inkscape:current-layer="layer12" inkscape:cx="5.8752456" inkscape:cy="7.8150854" inkscape:snap-grids="true" inkscape:snap-bbox-midpoints="false" inkscape:object-paths="true" inkscape:window-maximized="1" inkscape:snap-bbox="true" showgrid="true" inkscape:snap-nodes="false" inkscape:guide-bbox="true" inkscape:snap-global="true" showguides="true" bordercolor="#666666" inkscape:window-x="0" guidetolerance="10" objecttolerance="10" inkscape:object-nodes="true" inkscape:window-y="-2" inkscape:window-width="1366" inkscape:pageopacity="1" inkscape:pageshadow="2" pagecolor="#555753" gridtolerance="10" inkscape:bbox-paths="false" inkscape:snap-to-guides="true" inkscape:window-height="741" showborder="false">
<inkscape:grid visible="true" enabled="true" spacingy="1px" spacingx="1px" snapvisiblegridlinesonly="true" type="xygrid" empspacing="2"/>
</sodipodi:namedview>
<title>Gnome Symbolic Icon Theme</title>
<g inkscape:label="actions" transform="translate(-220 -606)" inkscape:groupmode="layer">
<g fill="#2e3436" transform="matrix(1.0463 0 0 1.0211 276.7 -466.58)">
<path d="m-49.281 1052.4-3.9062 3.7187v5.2813l3.9062 3.7187h5.5312l3.9062-3.7187v-5.2813l-3.9062-3.7187zm-0.27442 3.9207h1.3605l1.745 4.8556h-1.1535l-0.35491-0.9542h-1.8337l-0.35491 0.9542h-1.1535zm3.9932 0.027h1.625c0.35362 0.0001 0.671 0.01 0.9375 0.054 0.26649 0.042 0.50812 0.1179 0.6875 0.2146 0.17937 0.095 0.28531 0.2194 0.375 0.3756 0.09225 0.154 0.15625 0.3369 0.15625 0.5634-0.000004 0.1364-0.02407 0.2836-0.0625 0.4023-0.03844 0.1189-0.08194 0.205-0.15625 0.2952-0.0743 0.09-0.17363 0.1798-0.28125 0.2414-0.10507 0.059-0.23663 0.087-0.375 0.1073v0.027c0.14093 0.027 0.28581 0.083 0.40625 0.1342 0.123 0.048 0.22281 0.1 0.3125 0.1877 0.09225 0.086 0.1675 0.2168 0.21875 0.3488 0.05381 0.1319 0.06249 0.2937 0.0625 0.4829-0.000005 0.2199-0.03532 0.4164-0.125 0.5901-0.08969 0.1716-0.20588 0.3083-0.375 0.4293-0.16657 0.1188-0.38413 0.2044-0.625 0.2682-0.23831 0.064-0.51014 0.1073-0.8125 0.1073h-1.9688v-4.8287zm-3.3129 0.6439c-0.0097 0.049-0.01259 0.1218-0.02962 0.1878-0.01458 0.066-0.03729 0.1398-0.05915 0.2146-0.0194 0.073-0.03729 0.1398-0.05915 0.2146-0.02186 0.075-0.03975 0.1486-0.05915 0.2146s-0.04221 0.1104-0.05915 0.161c-0.01458 0.051-0.02234 0.11-0.02962 0.1341l-0.35491 1.1245h1.3013l-0.32524-1.1243c-0.01458-0.04-0.0301-0.1244-0.05915-0.2146-0.02905-0.09-0.08433-0.1873-0.1183-0.2951-0.03152-0.11-0.05962-0.2119-0.08868-0.3219-0.02905-0.11-0.04704-0.2181-0.05915-0.2951zm4.2894 0.2927v0.9812h0.625c0.14848 0 0.27506-0.01 0.375-0.025 0.0999-0.022 0.15725-0.056 0.21875-0.098s0.13062-0.085 0.15625-0.1472c0.0282-0.064 0.0313-0.1608 0.0313-0.2453 0-0.1689-0.0829-0.271-0.21875-0.3435-0.13325-0.075-0.33295-0.1226-0.625-0.1226h-0.5625zm0.00005 1.9523v0.9855h0.6875c0.15626 0 0.30119-0.018 0.40625-0.042 0.10762-0.024 0.18593-0.039 0.25-0.084 0.0666-0.045 0.12806-0.104 0.15625-0.1677 0.0282-0.064 0.0313-0.1323 0.0313-0.2097 0-0.07-0.003-0.1319-0.0313-0.1887-0.0282-0.059-0.0871-0.1264-0.15625-0.1677-0.0666-0.041-0.17107-0.062-0.28125-0.084-0.11019-0.022-0.24225-0.042-0.40625-0.042h-0.65625v0.0006z" sodipodi:nodetypes="ccccccccccccccccccccccccccccccccccccscccccccccccccsccccccscscscsccccscccscccscac" inkscape:connector-curvature="0" fill="#2e3436"/>
</g>
</g>
</svg>
