<?xml version="1.0" encoding="UTF-8" standalone="no"?>
<!-- Created with Inkscape (http://www.inkscape.org/) -->

<svg xmlns:dc="http://purl.org/dc/elements/1.1/" xmlns:cc="http://creativecommons.org/ns#" xmlns:rdf="http://www.w3.org/1999/02/22-rdf-syntax-ns#" xmlns:svg="http://www.w3.org/2000/svg" xmlns="http://www.w3.org/2000/svg" xmlns:sodipodi="http://sodipodi.sourceforge.net/DTD/sodipodi-0.dtd" xmlns:inkscape="http://www.inkscape.org/namespaces/inkscape" width="16px" height="16px" id="svg2985" version="1.1" inkscape:version="0.48.4 r9939" sodipodi:docname="colorzilla.svg">
   <defs id="defs2987" />
   <sodipodi:namedview id="base" pagecolor="#ffffff" bordercolor="#666666" borderopacity="1.0" inkscape:pageopacity="0.0" inkscape:pageshadow="2" inkscape:zoom="22.197802" inkscape:cx="14.97549" inkscape:cy="7.8746444" inkscape:current-layer="layer1" showgrid="true" inkscape:grid-bbox="true" inkscape:document-units="px" inkscape:snap-page="false" inkscape:snap-bbox="true" inkscape:window-width="1366" inkscape:window-height="741" inkscape:window-x="0" inkscape:window-y="27" inkscape:window-maximized="1">
      <inkscape:grid type="xygrid" id="grid2993" />
   </sodipodi:namedview>
   <metadata id="metadata2990">
      <rdf:RDF>
         <cc:Work rdf:about="">
            <dc:format>image/svg+xml</dc:format>
            <dc:type rdf:resource="http://purl.org/dc/dcmitype/StillImage" />
            <dc:title />
         </cc:Work>
      </rdf:RDF>
   </metadata>
   <g id="layer1" inkscape:label="Layer 1" inkscape:groupmode="layer">
      <path style="fill:#ffffff;stroke:none;stroke-width:1px;stroke-linecap:butt;stroke-linejoin:miter;stroke-opacity:1;fill-opacity:1" d="m 7,4 2,0 0,8 -2,0 z" id="path3773" inkscape:connector-curvature="0" />
      <path style="fill:#ffffff;stroke:none;stroke-width:1px;stroke-linecap:butt;stroke-linejoin:miter;stroke-opacity:1;fill-opacity:1" d="m 4,7 0,2 8,0 0,-2 z" id="path3775" inkscape:connector-curvature="0" />
      <path style="fill:#2e3436;fill-opacity:1;stroke:none" d="m 13.316755,2.68355 c -0.45235,-0.4522 -1.04234,-0.7071 -1.63519,-0.7071 -0.59284,0 -1.20491,0.2327 -1.65728,0.685 -0.29888,0.2989 -0.45105,0.6575 -0.55243,1.0385 l -0.66291,-0.5745 c -0.4537,-0.4538 -1.11434,-0.4771 -1.54679,-0.044 l -0.13259,0.088 c -0.43244,0.4325 -0.40963,1.1373 0.0442,1.591 l 0.83969,0.7955 c 0,0 -3.31123,3.3111 -4.90556,4.9055 -0.61048,0.6104 -1.03796,1.6346 -0.83969,2.4749 l -0.11048,0.1105 c -0.21031,0.2103 -0.21029,0.5851 0,0.7955 0.21033,0.2102 0.54095,0.2102 0.7513,0 l 0.0884,-0.088 c 0.0246,0.011 0.0641,-0.01 0.0884,0 0.84027,0.1984 1.86435,-0.2292 2.47487,-0.8397 1.69923,-1.6993 4.90555,-4.9055 4.90555,-4.9055 l 0.83969,0.8397 c 0.45375,0.4538 1.13643,0.5003 1.5689,0.066 l 0.0884,-0.088 c 0.43242,-0.4324 0.38749,-1.1593 -0.0663,-1.6131 l -0.61872,-0.7071 c 0.38103,-0.1011 0.76177,-0.2315 1.06066,-0.5304 0.90474,-0.9047 0.88249,-2.3879 -0.0221,-3.2924 z m -4.81717,3.3587 1.41422,1.4142 -2.17129,2.1428 -2.77846,-0.021 z" id="rect8396-1-6" inkscape:connector-curvature="0" sodipodi:nodetypes="csccccccccccccccccccccccccccccc" />
   </g>
</svg>
