<?xml version="1.0" encoding="UTF-8" standalone="no"?>
<!-- Created with Inkscape (http://www.inkscape.org/) -->

<svg xmlns:dc="http://purl.org/dc/elements/1.1/" xmlns:cc="http://creativecommons.org/ns#" xmlns:rdf="http://www.w3.org/1999/02/22-rdf-syntax-ns#" xmlns:svg="http://www.w3.org/2000/svg" xmlns="http://www.w3.org/2000/svg" version="1.1" width="16" height="16" id="svg3317">
   <defs id="defs3319" />
   <metadata id="metadata3322">
      <rdf:RDF>
         <cc:Work rdf:about="">
            <dc:format>image/svg+xml</dc:format>
            <dc:type rdf:resource="http://purl.org/dc/dcmitype/StillImage" />
            <dc:title></dc:title>
         </cc:Work>
      </rdf:RDF>
   </metadata>
   <g id="layer1">
      <g transform="translate(-14.370384,0)" id="g3004">
         <path d="m 17.370384,0.99995 c -0.553993,-0.002756 -1,0.446 -1,1 l 0,1.96875 2,0 0,-1.96875 5,0 0,2 2,0 0,-2 c 0,-0.554 -0.321,-1 -1,-1 -2.66656,0 -4.683428,0.0115233 -7,0 z m -1,3.96875 0,1.03125 2,0 0,-1.03125 z m 10,-2.015625 0,2.046925 -5,-5e-5 0,2 5,5e-5 0,2.046825 3.046875,-3.046875 z m -10,4.046925 0,1 2,0 0,-1 z m 0,2 0,5 c 0,0.554 0.446,1 1,1 l 7,0 c 0.554,0 1,-0.446 1,-1 l 0,-6.00005 -2,0 0,2.00005 -5,0 0,-1 z m 1,2 1,0 0,1 -1,0 z m 2,0 1,0 0,1 -1,0 z m 2,0 1,0 0,1 -1,0 z m 2,0 1,0 0,1 -1,0 z m -6,2 1,0 0,1 -1,0 z m 2,0 1,0 0,1 -1,0 z m 2,0 1,0 0,1 -1,0 z m 2,0 1,0 0,1 -1,0 z" id="rect4054" style="fill:#4d4d4d;fill-opacity:1;stroke:none" />
      </g>
   </g>
</svg>
