<?xml version="1.0" encoding="UTF-8" standalone="no"?>
<!-- Created with Inkscape (http://www.inkscape.org/) -->

<svg
   xmlns:dc="http://purl.org/dc/elements/1.1/"
   xmlns:cc="http://creativecommons.org/ns#"
   xmlns:rdf="http://www.w3.org/1999/02/22-rdf-syntax-ns#"
   xmlns:svg="http://www.w3.org/2000/svg"
   xmlns="http://www.w3.org/2000/svg"
   xmlns:sodipodi="http://sodipodi.sourceforge.net/DTD/sodipodi-0.dtd"
   xmlns:inkscape="http://www.inkscape.org/namespaces/inkscape"
   width="16px"
   height="16px"
   id="svg3031"
   version="1.1"
   inkscape:version="0.48.2 r9819"
   sodipodi:docname="firebug.svg">
  <defs
     id="defs3033">
    <inkscape:path-effect
       is_visible="true"
       id="path-effect6736"
       effect="spiro" />
    <inkscape:path-effect
       effect="spiro"
       id="path-effect4093"
       is_visible="true" />
    <inkscape:path-effect
       effect="spiro"
       id="path-effect4089"
       is_visible="true" />
    <inkscape:path-effect
       is_visible="true"
       id="path-effect4048"
       effect="spiro" />
    <inkscape:path-effect
       effect="spiro"
       id="path-effect4035"
       is_visible="true" />
    <inkscape:path-effect
       is_visible="true"
       id="path-effect4031"
       effect="spiro" />
    <inkscape:path-effect
       is_visible="true"
       id="path-effect4027"
       effect="spiro" />
    <inkscape:path-effect
       is_visible="true"
       id="path-effect4023"
       effect="spiro" />
    <inkscape:path-effect
       effect="spiro"
       id="path-effect3980"
       is_visible="true" />
    <inkscape:path-effect
       is_visible="true"
       id="path-effect3958"
       effect="spiro" />
    <inkscape:path-effect
       effect="spiro"
       id="path-effect3944"
       is_visible="true" />
    <inkscape:path-effect
       is_visible="true"
       id="path-effect4048-5"
       effect="spiro" />
    <inkscape:path-effect
       effect="spiro"
       id="path-effect3944-8"
       is_visible="true" />
    <inkscape:path-effect
       effect="spiro"
       id="path-effect3980-7"
       is_visible="true" />
    <inkscape:path-effect
       effect="spiro"
       id="path-effect3980-7-6"
       is_visible="true" />
  </defs>
  <sodipodi:namedview
     id="base"
     pagecolor="#ffffff"
     bordercolor="#666666"
     borderopacity="1.0"
     inkscape:pageopacity="0.0"
     inkscape:pageshadow="2"
     inkscape:zoom="1"
     inkscape:cx="17.875222"
     inkscape:cy="8.0793723"
     inkscape:current-layer="layer1"
     showgrid="false"
     inkscape:grid-bbox="true"
     inkscape:document-units="px"
     inkscape:window-width="1920"
     inkscape:window-height="1020"
     inkscape:window-x="1366"
     inkscape:window-y="27"
     inkscape:window-maximized="1"
     inkscape:showpageshadow="false"
     inkscape:snap-nodes="false"
     inkscape:object-paths="true"
     inkscape:snap-intersection-paths="true"
     inkscape:snap-midpoints="true"
     inkscape:object-nodes="false"
     inkscape:snap-smooth-nodes="true"
     inkscape:snap-bbox="true"
     inkscape:bbox-paths="true"
     inkscape:bbox-nodes="true"
     inkscape:snap-global="false">
    <inkscape:grid
       type="xygrid"
       id="grid3039"
       empspacing="5"
       visible="true"
       enabled="true"
       snapvisiblegridlinesonly="true" />
  </sodipodi:namedview>
  <metadata
     id="metadata3036">
    <rdf:RDF>
      <cc:Work
         rdf:about="">
        <dc:format>image/svg+xml</dc:format>
        <dc:type
           rdf:resource="http://purl.org/dc/dcmitype/StillImage" />
        <dc:title />
      </cc:Work>
    </rdf:RDF>
  </metadata>
  <g
     id="layer1"
     inkscape:label="Layer 1"
     inkscape:groupmode="layer">
    <path
       style="fill:#2e3436;fill-opacity:1"
       d="m 954.1875,-137.90625 c -1.31819,-7.7e-4 -4.51212,1.29133 -11.46875,4.4375 -9.33999,4.22405 -10.40765,4.48296 -15.78125,3.875 -4.06658,-0.46008 -8.92167,-2.66161 -12.5,-5.28125 -0.44102,1.0865 -0.93859,2.13692 -1.4375,3.1875 l 0.34375,0.28125 c 5.54797,4.42922 15.84708,5.74941 25.03125,3.21875 9.49405,-2.61605 16.625,-6.46104 16.625,-8.96875 0,-0.48102 -0.21332,-0.74965 -0.8125,-0.75 z"
       id="path3998" />
    <path
       style="fill:#2e3436;fill-opacity:1"
       d="m 889.4375,-106.25 c -0.81789,0.19211 -0.60556,-1.57609 0.125,0.0937 0.73056,1.66979 3.67282,5.50794 4.25,9.90625 0.57718,4.398313 -0.7447,10.435002 -0.875,15.8125 -0.1303,5.377498 -2.32702,12.43472 0.0937,16.4375 2.42072,4.00278 2.21793,-7.496388 3.0625,-11.21875 0.84457,-3.722362 1.76893,-7.984798 2,-11.09375 0.23107,-3.108952 -0.24428,-4.720342 -0.625,-7.40625 -0.38072,-2.685908 -1.11353,-6.4279 -1.65625,-8.6875 -0.54272,-2.2596 -0.16875,-3.98457 -1.59375,-4.84375 -1.425,-0.85918 -3.96331,0.80794 -4.7812,1.00005 z"
       id="path3996"
       inkscape:connector-curvature="0"
       sodipodi:nodetypes="zzzzzzzzzzz" />
    <path
       style="fill:#2e3436;fill-opacity:1"
       d="m 817.8125,-114.59375 c -4.93947,-0.27416 -8.74559,3.10317 -12.61173,5.34739 -4.08422,0.28095 -8.10504,-1.06699 -12.15833,-1.48716 -5.24579,-0.7622 -10.66938,-1.74655 -15.93465,-0.83291 -3.47555,1.88953 -6.78521,4.088 -10.71106,4.98915 -3.19665,2.00138 -10.07044,0.74481 -11.11242,4.47051 3.96179,0.73083 -6.69549,5.741909 -0.3074,3.717299 4.05922,-1.708669 5.54296,1.48406 2.47034,4.083028 3.95314,-0.591012 8.31057,-6.621367 11.10058,-5.939207 1.61352,1.408625 5.17893,-3.87181 7.53525,-4.67397 9.16757,-1.59841 18.58421,-1.08014 27.79794,-0.21525 4.5308,0.91233 9.20271,0.53678 13.13232,-2.00869 3.46025,-1.23558 7.09176,1.816 10.55177,-0.16078 2.51305,-1.55802 9.29498,-3.59154 3.48653,-5.94816 -3.9628,0.003 -7.99532,0.84689 -11.74712,-1.24734 l -0.73277,-0.10243 -0.75925,0.009 0,0 z"
       id="path3994"
       inkscape:connector-curvature="0" />
    <path
       style="fill:#2e3436;fill-opacity:1"
       d="m 838.6875,-107.625 c -0.1881,2.06579 -0.59403,5.0501 -1.25,9.375 -0.5783,3.81281 -0.40008,4.30709 1.71875,5.125 1.2945,0.4997 3.46875,2.13069 4.84375,3.625 1.375,1.49432 6.775,5.77193 12,9.5 5.225,3.72807 10.625,8.00568 12,9.5 1.375,1.49431 3.47958,3.09571 4.6875,3.5625 1.53039,0.5914 2.38224,2.01162 2.8125,4.65625 0.3396,2.08736 1.04752,4.83037 1.5625,6.09375 0.51499,1.26338 0.9375,4.49583 0.9375,7.1875 0,2.69166 0.45,5.16008 1,5.5 0.55,0.33992 1,-0.30504 1,-1.4375 0,-2.83522 1.80863,-2.58881 3.1875,0.4375 1.4708,3.22806 2.68072,3.23401 2.0625,0 -0.39489,-2.06572 -0.17518,-2.42189 1.25,-1.875 1.45161,0.55704 1.61037,0.29062 1,-1.71875 -0.40118,-1.3207 -1.6744,-3.98125 -2.84375,-5.90625 -1.16936,-1.925 -2.01254,-4.1013 -1.84375,-4.84375 0.1688,-0.74244 -0.83828,-3.11673 -2.25,-5.25 -1.41173,-2.13326 -2.5625,-4.74356 -2.5625,-5.8125 0,-2.73955 -6.3455,-7.84169 -16.125,-12.96875 -4.59832,-2.41074 -10.51492,-5.74246 -13.125,-7.375 -4.68362,-2.92949 -4.72771,-2.99935 -4.09375,-7.09375 0.31204,-2.015319 1.21686,-4.1148 2.5625,-6.0625 -2.96381,-1.1498 -5.83337,-2.54693 -8.53125,-4.21875 z"
       id="path3978" />
    <path
       style="fill:#2e3436;fill-opacity:1;stroke:none"
       d="m 12.631549,7.4747867 c -0.154194,0.041147 -0.285251,0.1516842 -0.366859,0.2888306 -0.08161,0.1371464 -0.116222,0.2990145 -0.115545,0.4586031 0.0012,0.2898583 0.122484,0.5814379 0.341633,0.7711558 0.07415,0.064195 0.15828,0.1164344 0.247128,0.1579788 0.139762,0.065351 0.293395,0.1045982 0.447613,0.1000075 0.154217,-0.00459 0.308897,-0.054837 0.428064,-0.1528335 0.101309,-0.08331 0.174433,-0.1991366 0.211292,-0.3250154 0.03686,-0.1258788 0.03801,-0.261304 0.0086,-0.3891282 -0.05703,-0.2478793 -0.223497,-0.4574214 -0.412524,-0.6276146 -0.108341,-0.097547 -0.227079,-0.1861236 -0.3617,-0.2420739 -0.134621,-0.05595 -0.286842,-0.077498 -0.427698,-0.03991"
       id="path3931"
       inkscape:connector-curvature="0"
       inkscape:path-effect="#path-effect3944"
       inkscape:original-d="m 12.631549,7.4747867 c -0.256226,0.0963 -0.459867,0.4380696 -0.482404,0.7474337 -0.02096,0.2875747 0.167586,0.5635743 0.341633,0.7711558 0.06545,0.07806 0.155337,0.1335387 0.247128,0.1579788 0.284783,0.075827 0.641431,0.148548 0.875677,-0.052826 C 13.789312,8.9474595 13.86702,8.6339872 13.833471,8.3843854 13.798617,8.1250744 13.60744,7.9074655 13.420947,7.7567708 13.195412,7.5745297 12.893456,7.3763516 12.631549,7.4747867 z"
       sodipodi:nodetypes="aaaaaaaa" />
    <path
       style="fill:#eeeeec;fill-opacity:1;stroke:none"
       d="m 12.806489,7.8210428 c -0.06903,0.017788 -0.129429,0.063923 -0.168947,0.1232539 -0.03952,0.059331 -0.05871,0.131108 -0.05914,0.202394 -7.82e-4,0.1286117 0.06083,0.2559747 0.161531,0.3359822 0.03549,0.028199 0.07531,0.050665 0.116847,0.068829 0.06657,0.029111 0.138681,0.047429 0.211317,0.045926 0.07264,-0.0015 0.145842,-0.02374 0.202721,-0.068941 0.04516,-0.035885 0.07901,-0.085554 0.09694,-0.1403742 0.01793,-0.05482 0.02002,-0.1145726 0.007,-0.1707691 -0.01284,-0.055562 -0.04002,-0.1071799 -0.07455,-0.1525613 -0.03453,-0.045381 -0.07634,-0.084801 -0.120499,-0.1208825 -0.05267,-0.043035 -0.109625,-0.081968 -0.173124,-0.1063428 -0.0635,-0.024375 -0.134254,-0.033487 -0.200119,-0.016514"
       id="path3931-1"
       inkscape:connector-curvature="0"
       inkscape:path-effect="#path-effect3944-8"
       inkscape:original-d="m 12.806489,7.8210428 c -0.121149,0.041958 -0.217434,0.1908617 -0.22809,0.3256479 -0.0099,0.1252924 0.07924,0.245542 0.161531,0.3359822 0.03095,0.034009 0.07345,0.058181 0.116847,0.068829 0.134651,0.033036 0.303281,0.064721 0.414038,-0.023015 0.08309,-0.065819 0.11983,-0.2023953 0.103967,-0.3111433 -0.01648,-0.1129783 -0.106872,-0.2077874 -0.19505,-0.2734438 -0.106637,-0.0794 -0.249409,-0.165744 -0.373243,-0.122857 z"
       sodipodi:nodetypes="aaaaaaaa" />
    <g
       id="g4095"
       style="fill:#000000;fill-opacity:0;stroke-width:14.70840008;stroke-miterlimit:4;stroke-dasharray:none"
       transform="matrix(0.06798836,0,0,0.06798836,-35.183976,18.472745)">
      <path
         sodipodi:nodetypes="csc"
         inkscape:original-d="m 717.08317,-70.481555 c 0.73744,-4.738766 -0.4726,-10.565189 -1.9348,-15.1256 -1.46221,-4.560405 -3.17655,-7.854805 -8.56178,-11.933745"
         inkscape:path-effect="#path-effect4035"
         inkscape:connector-curvature="0"
         id="path4033"
         d="m 717.08317,-70.481555 c 0.64085,-5.097147 -0.0316,-10.353882 -1.9348,-15.1256 -1.83172,-4.592406 -4.79826,-8.727296 -8.56178,-11.933745"
         style="fill:#000000;fill-opacity:0;stroke:#2e3436;stroke-width:7.35419989;stroke-linecap:round;stroke-linejoin:round;stroke-miterlimit:4;stroke-opacity:1;stroke-dasharray:none" />
      <path
         style="fill:#000000;fill-opacity:0;stroke:#2e3436;stroke-width:7.35419989;stroke-linecap:round;stroke-linejoin:round;stroke-miterlimit:4;stroke-opacity:1;stroke-dasharray:none"
         d="m 718.52201,-120.18911 c 1.92145,1.62085 4.12971,2.90074 6.49126,3.76227 3.52726,1.2868 7.39489,1.62701 11.09263,0.97573 3.69774,-0.65128 7.2164,-2.29243 10.09175,-4.70692"
         id="path4029"
         inkscape:connector-curvature="0"
         inkscape:path-effect="#path-effect4031"
         inkscape:original-d="m 718.52201,-120.18911 c 4.39343,1.94986 1.88096,3.52541 6.49126,3.76227 4.61028,0.23687 16.34331,-0.86493 21.18438,-3.73119"
         sodipodi:nodetypes="csc" />
      <path
         sodipodi:nodetypes="cscsc"
         inkscape:original-d="m 612.47747,-116.6392 c -8.13516,2.33209 -16.3657,4.1088 -24.58022,4.56591 -8.21454,0.45709 -17.79198,5.11021 -25.86312,2.1638 -6.73638,0.46035 -11.60534,-2.81114 -17.78663,-0.27413 -6.1813,2.537 -10.34598,4.06681 -16.8161,5.69852"
         inkscape:path-effect="#path-effect4093"
         inkscape:connector-curvature="0"
         id="path4091"
         d="m 612.47747,-116.6392 c -8.11199,1.92352 -16.3186,3.44795 -24.58022,4.56591 -8.57675,1.16061 -17.21276,1.88313 -25.86312,2.1638 -5.85517,-1.10569 -11.90017,-1.19886 -17.78663,-0.27413 -5.87532,0.92298 -11.59006,2.85955 -16.8161,5.69852"
         style="fill:#000000;fill-opacity:0;stroke:#2e3436;stroke-width:14.70839977;stroke-linecap:square;stroke-linejoin:round;stroke-miterlimit:4;stroke-opacity:1;stroke-dasharray:none" />
      <path
         style="fill:#000000;fill-opacity:0;stroke:#2e3436;stroke-width:14.70839977;stroke-linecap:square;stroke-linejoin:round;stroke-miterlimit:4;stroke-opacity:1;stroke-dasharray:none"
         d="m 647.24962,-98.03058 c -6.7512,3.666529 -13.94821,6.511259 -21.38176,8.45147 -6.59939,1.722488 -13.38445,2.73265 -20.19939,3.00729 -6.18635,0.880106 -12.11723,3.490851 -16.94432,7.458812 -2.36783,1.946402 -4.47292,4.212024 -6.24037,6.716265"
         id="path6734"
         inkscape:connector-curvature="0"
         inkscape:path-effect="#path-effect6736"
         inkscape:original-d="m 647.24962,-98.03058 c -6.76089,4.79237 -13.82512,8.22472 -21.38176,8.45147 -7.55662,0.22666 -11.46892,11.037095 -20.19939,3.00729 -6.16398,0.39375 -12.10142,1.958082 -16.94432,7.458812 -4.84292,5.500749 -0.77746,9.422175 -6.24037,6.716265"
         sodipodi:nodetypes="cscsc" />
      <path
         style="fill:#000000;fill-opacity:0;stroke:#2e3436;stroke-width:14.70839977;stroke-linecap:square;stroke-linejoin:round;stroke-miterlimit:4;stroke-opacity:1;stroke-dasharray:none"
         d="m 741.69405,-176.95764 -10.16583,0.17242 -6.76515,-7.56664 -8.179,-7.9971 c -6.04353,-0.51856 -12.24223,0.96835 -17.39286,4.17212 -5.71001,3.55171 -10.08147,9.2022 -12.08523,15.62122"
         id="path4021"
         inkscape:connector-curvature="0"
         inkscape:path-effect="#path-effect4023"
         inkscape:original-d="m 741.69405,-176.95764 -10.16583,0.17242 -6.76515,-7.56664 c -5.44293,0.15759 -1.89057,-2.4147 -8.179,-7.9971 -4.43983,0.27374 -13.90458,0.34795 -17.39286,4.17212 -3.48828,3.82418 -8.15038,13.34831 -12.08523,15.62122"
         sodipodi:nodetypes="ccccsc" />
      <path
         sodipodi:nodetypes="csasc"
         inkscape:original-d="m 685.09621,-46.574759 -0.77325,-3.084729 c -1.62388,-6.478122 -9.5651,-8.036059 -13.72773,-12.666056 -5.27549,-5.867805 -14.34788,-11.940193 -14.1175,-19.001418 l 0.66184,-20.285808"
         inkscape:path-effect="#path-effect4089"
         inkscape:connector-curvature="0"
         id="path4087"
         d="m 685.09621,-46.574759 -0.77325,-3.084729 c -0.40591,-1.619315 -0.84275,-3.244123 -1.58401,-4.739946 -0.74125,-1.495824 -1.77856,-2.846719 -3.05221,-3.925962 -1.27364,-1.079243 -2.76377,-1.881906 -4.31788,-2.491566 -1.55412,-0.609659 -3.17226,-1.036806 -4.77363,-1.508582 -2.09866,-0.618284 -4.18321,-1.328965 -6.10703,-2.370859 -1.92383,-1.041894 -3.67701,-2.42834 -5.01563,-4.158876 -1.33861,-1.730536 -2.23551,-3.787814 -2.66786,-5.932511 -0.43235,-2.144697 -0.39832,-4.352493 -0.32698,-6.539172 l 0.66184,-20.285808"
         style="fill:#000000;fill-opacity:0;stroke:#2e3436;stroke-width:14.70839977;stroke-linecap:square;stroke-linejoin:round;stroke-miterlimit:4;stroke-opacity:1;stroke-dasharray:none" />
      <path
         style="fill:#000000;fill-opacity:0;stroke:#2e3436;stroke-width:14.70839977;stroke-linecap:square;stroke-linejoin:round;stroke-miterlimit:4;stroke-opacity:1;stroke-dasharray:none"
         d="m 646.62172,-201.02922 c -0.15904,-6.76987 -1.11913,-13.52058 -2.85386,-20.06636 -1.10033,-4.15194 -2.51141,-8.22149 -4.21756,-12.16337 -7.00623,1.37862 -13.82885,3.68736 -20.23253,6.84657 -2.79007,1.37646 -5.60588,2.94486 -8.70828,3.17776 -2.89929,0.21766 -5.87142,-0.824 -8.00051,-2.80396 -2.12908,-1.97997 -3.38343,-4.86878 -3.3765,-7.77622"
         id="path4025"
         inkscape:connector-curvature="0"
         inkscape:path-effect="#path-effect4027"
         inkscape:original-d="m 646.62172,-201.02922 c -3.30082,-8.47055 1.756,-12.95126 -2.85386,-20.06636 -4.60985,-7.11509 -0.33311,-8.96147 -4.21756,-12.16337 -1.97722,-3.13331 -13.35564,2.51834 -20.23253,6.84657 -6.07126,3.82117 -7.77363,6.46744 -8.70828,3.17776 -1.99333,-7.01589 -8.6017,-4.01232 -11.37701,-10.58018"
         sodipodi:nodetypes="cscssc" />
    </g>
    <path
       style="fill:#2e3436;fill-opacity:1"
       inkscape:path-effect="#path-effect3980"
       inkscape:original-d="m 11.83368,6.6716333 c -0.642367,0.081588 -1.208234,1.2814231 -1.620997,2.0479811 -0.329265,0.6114912 -0.5358446,1.2941276 -0.6521231,1.9788296 -0.047852,0.281774 -0.1335248,0.596977 -0.015514,0.857284 0.1957312,0.431743 0.6498973,0.732797 1.0863863,0.917703 0.533127,0.225844 1.158098,0.273878 1.728298,0.173367 0.352596,-0.06215 0.700875,-0.227398 0.967664,-0.466167 0.220612,-0.197442 0.414517,-0.462158 0.471546,-0.752676 C 13.994109,10.433719 13.358152,8.9212033 13.278699,8.4331753 13.172994,7.5046862 12.894082,6.728067 11.83368,6.6716333 z"
       id="path3952"
       d="M 11.83368,6.6716333 C 11.159244,7.2321093 10.6033,7.9344931 10.212683,8.7196144 9.9024134,9.3432407 9.6967913,10.01535 9.5605599,10.698444 c -0.056502,0.283313 -0.1005913,0.581203 -0.015514,0.857284 0.072471,0.235171 0.2351641,0.435637 0.4308235,0.584885 0.1956596,0.149248 0.4235096,0.250912 0.6555626,0.332818 0.552454,0.194995 1.153043,0.284314 1.728298,0.173367 0.35628,-0.06871 0.703351,-0.21758 0.967664,-0.466167 0.217741,-0.204786 0.37249,-0.470654 0.471546,-0.752676 0.173386,-0.493646 0.179778,-1.036578 0.07171,-1.5485066 C 13.762588,9.3675199 13.544052,8.884104 13.278699,8.4331753 12.891976,7.7759964 12.402565,7.1793819 11.83368,6.6716333"
       inkscape:connector-curvature="0"
       sodipodi:nodetypes="caaaaaaacc" />
    <path
       sodipodi:nodetypes="aaaassssssaaa"
       inkscape:original-d="m 5.8150139,3.2403121 c -1.2077412,0.066668 -2.5159487,0.3596945 -3.4481664,1.1304431 -0.6517153,0.538833 -1.2277834,1.3735152 -1.229271,2.219134 -0.00169,0.9620836 0.7185771,1.8403076 1.3896814,2.5296742 0.7207392,0.7403531 1.7033777,1.2153956 2.6757295,1.5648516 0.9212817,0.331102 1.6604008,0.725456 2.6438824,0.846648 0.5445616,0.0671 1.5905761,0.210009 2.0982921,0.02012 C 10.355658,11.397651 10.367136,10.425247 10.61631,10.064705 10.968054,9.5557481 11.030425,8.9524901 11.411835,8.4265737 11.810676,7.8766206 12.112315,7.8776241 12.07954,7.2368195 12.049276,6.6451168 11.077352,5.8017933 10.42962,5.2250909 9.7337705,4.6055463 8.9401532,4.0675414 8.0779887,3.7143915 7.364799,3.4222626 6.5845421,3.197833 5.8150139,3.2403121 z"
       inkscape:path-effect="#path-effect3958"
       inkscape:connector-curvature="0"
       id="path3956"
       d="M 5.8150139,3.2403121 C 4.5814556,3.2328433 3.3270919,3.5963828 2.3668475,4.3707552 2.0268373,4.6449505 1.724261,4.9699929 1.5030549,5.3466332 1.2818488,5.7232734 1.1440504,6.153142 1.1375765,6.5898892 c -0.00737,0.4969133 0.155244,0.9871348 0.4112514,1.4130894 0.2560073,0.4259546 0.6024553,0.7915923 0.97843,1.1165848 0.7855781,0.6790536 1.7069116,1.1911696 2.6757295,1.5648516 0.863567,0.333086 1.7644277,0.558111 2.6438824,0.846648 0.3473846,0.113972 0.6955238,0.238785 1.0593584,0.274704 0.1819173,0.01796 0.3669989,0.0132 0.5454825,-0.0263 0.1784836,-0.0395 0.3503822,-0.114495 0.4934512,-0.228283 0.2168321,-0.172454 0.3572461,-0.424654 0.4510591,-0.685337 0.09381,-0.260683 0.146047,-0.534169 0.220089,-0.801141 C 10.779436,9.4765236 11.050211,8.9183008 11.411835,8.4265737 11.548237,8.241097 11.697527,8.0648338 11.822941,7.8717571 11.948355,7.6786803 12.050468,7.4652096 12.07954,7.2368195 12.108605,7.0084861 12.062542,6.7738888 11.967003,6.5644773 11.871464,6.3550658 11.727946,6.1698438 11.56252,6.0097964 11.231668,5.6897018 10.818857,5.470892 10.42962,5.2250909 9.6408179,4.7269665 8.9265416,4.1020701 8.0779887,3.7143915 7.3717352,3.3917253 6.5914708,3.2450133 5.8150139,3.2403121"
       style="fill:#2e3436;fill-opacity:1" />
    <path
       sodipodi:nodetypes="aaaaaaaa"
       inkscape:original-d="m 10.586865,9.6023702 c -0.31473,0.1031067 -0.564866,0.4690338 -0.592548,0.8002648 -0.02574,0.307901 0.205849,0.603408 0.419636,0.825663 0.08039,0.08358 0.190803,0.142973 0.303552,0.169144 0.349804,0.08119 0.787884,0.159049 1.075613,-0.05655 0.215853,-0.161752 0.311302,-0.497383 0.270093,-0.764626 C 12.020398,10.298622 11.785572,10.065632 11.556498,9.9042857 11.279469,9.7091633 10.908569,9.4969774 10.586865,9.6023702 z"
       inkscape:path-effect="#path-effect4048"
       inkscape:connector-curvature="0"
       id="path4046"
       d="m 10.586865,9.6023702 c -0.173306,0.043063 -0.327818,0.1528123 -0.431968,0.2978717 -0.10415,0.1450591 -0.1584839,0.3238291 -0.16058,0.5023931 -0.00188,0.160179 0.03748,0.320339 0.110899,0.462713 0.07342,0.142374 0.180564,0.266865 0.308737,0.36295 0.09292,0.06966 0.196391,0.124393 0.303552,0.169144 0.173692,0.07254 0.360208,0.119598 0.548416,0.116758 0.188208,-0.0028 0.378418,-0.058 0.527197,-0.173308 0.112823,-0.08744 0.1995,-0.208075 0.246874,-0.342725 0.04737,-0.134649 0.05535,-0.282824 0.02322,-0.421901 -0.03223,-0.139509 -0.103593,-0.268002 -0.193813,-0.379186 -0.09022,-0.111184 -0.199047,-0.2059674 -0.3129,-0.2927943 -0.139314,-0.1062438 -0.288582,-0.202243 -0.453235,-0.2621229 -0.164653,-0.05988 -0.346365,-0.082042 -0.516398,-0.039793"
       style="fill:#2e3436;fill-opacity:1;stroke:#eeeeec;stroke-width:0.24999999;stroke-miterlimit:4;stroke-opacity:1;stroke-dasharray:none" />
    <path
       sodipodi:nodetypes="aaaaaaaa"
       inkscape:original-d="m 10.769285,9.6679438 c -0.185821,0.057709 -0.333507,0.2625181 -0.34985,0.4479072 -0.01518,0.172331 0.121532,0.337727 0.247759,0.462122 0.04747,0.04677 0.112659,0.08002 0.179223,0.09467 0.20653,0.04544 0.46518,0.08901 0.63506,-0.03166 0.127449,-0.09053 0.183798,-0.278381 0.159469,-0.427956 C 11.615664,10.057634 11.477022,9.9272304 11.341775,9.8369252 11.178211,9.7277148 10.959223,9.6089557 10.769285,9.6679438 z"
       inkscape:path-effect="#path-effect4048-5"
       inkscape:connector-curvature="0"
       id="path4046-2"
       d="m 10.769285,9.6679438 c -0.09923,0.023566 -0.189239,0.082919 -0.251512,0.1636854 -0.06227,0.080767 -0.0967,0.1822478 -0.09834,0.2842218 -0.0015,0.09091 0.02269,0.18172 0.06653,0.261373 0.04384,0.07965 0.107057,0.148169 0.181232,0.200749 0.05525,0.03916 0.116329,0.06956 0.179223,0.09467 0.102947,0.04111 0.212639,0.06855 0.323484,0.06742 0.110846,-0.0011 0.223126,-0.03226 0.311576,-0.09908 0.06422,-0.04851 0.114679,-0.115219 0.143058,-0.19053 0.02838,-0.07531 0.03446,-0.158997 0.01641,-0.237426 -0.01838,-0.07985 -0.06096,-0.152752 -0.114507,-0.2147702 -0.05355,-0.062018 -0.117912,-0.1138155 -0.184664,-0.1613316 -0.08362,-0.059525 -0.172446,-0.1133116 -0.269471,-0.1468095 -0.09703,-0.033498 -0.203152,-0.045891 -0.303019,-0.022172"
       style="fill:#eeeeec;fill-opacity:1;stroke:none" />
    <path
       style="fill:none;stroke:#eeeeec;stroke-width:0.5;stroke-linecap:round;stroke-linejoin:round;stroke-miterlimit:4;stroke-dasharray:none"
       inkscape:path-effect="#path-effect3980-7"
       inkscape:original-d="M 11.195482,6.5928187 C 10.481828,6.6715447 9.8157937,7.606205 9.3598764,8.267418 8.9634538,8.8423454 8.764567,9.5161468 8.6353845,10.176829 c -0.053162,0.27189 -0.1874466,0.5944 -0.017236,0.82721"
       id="path3952-7"
       d="M 11.195482,6.5928187 C 10.457934,6.9880281 9.8209441,7.5691455 9.3598764,8.267418 8.9814498,8.8405331 8.7203014,9.4953183 8.6353845,10.176829 c -0.034161,0.274166 -0.039948,0.551859 -0.017236,0.82721"
       inkscape:connector-curvature="0"
       sodipodi:nodetypes="cssc" />
    <path
       style="fill:none;stroke:#eeeeec;stroke-width:0.25;stroke-linecap:round;stroke-linejoin:round;stroke-miterlimit:4;stroke-dasharray:none"
       inkscape:path-effect="#path-effect3980-7-6"
       inkscape:original-d="M 9.6681344,7.6563871 C 9.5481378,6.9685663 8.1234996,6.3266415 7.1156579,5.8872277 6.239335,5.505155 5.2123057,5.3134676 4.2052735,5.1889613 3.7908501,5.1377237 3.2992706,5.0083 2.9444141,5.1723494"
       id="path3952-7-3"
       d="M 9.6681344,7.6563871 C 8.9438009,6.9074943 8.0711344,6.3026361 7.1156579,5.8872277 6.1964234,5.4875761 5.2048268,5.2638386 4.2052735,5.1889613 3.7858598,5.1575427 3.36451,5.1519914 2.9444141,5.1723494"
       inkscape:connector-curvature="0"
       sodipodi:nodetypes="cssc" />
  </g>
</svg>
