<?xml version="1.0" encoding="UTF-8" standalone="no"?>
<svg xmlns:dc="http://purl.org/dc/elements/1.1/" xmlns:cc="http://creativecommons.org/ns#" xmlns:rdf="http://www.w3.org/1999/02/22-rdf-syntax-ns#" xmlns:svg="http://www.w3.org/2000/svg" xmlns="http://www.w3.org/2000/svg" xmlns:sodipodi="http://sodipodi.sourceforge.net/DTD/sodipodi-0.dtd" xmlns:inkscape="http://www.inkscape.org/namespaces/inkscape" sodipodi:docname="flashgot-video.svg" height="16px" width="16px" version="1.1" inkscape:version="0.48+devel r" id="svg7543">
   <defs id="defs7555" />
   <sodipodi:namedview bordercolor="#666666" inkscape:pageshadow="2" inkscape:window-y="27" pagecolor="#ffffff" inkscape:window-height="712" inkscape:grid-bbox="true" inkscape:window-maximized="1" inkscape:zoom="15.696216" inkscape:window-x="0" showgrid="true" borderopacity="1.0" inkscape:current-layer="g7551" inkscape:cx="7.4796092" inkscape:cy="12.306063" inkscape:window-width="1366" inkscape:pageopacity="0.0" inkscape:document-units="px" id="namedview7545" inkscape:object-nodes="true">
      <inkscape:grid type="xygrid" id="grid7547" />
   </sodipodi:namedview>
   <metadata id="metadata7549">
      <rdf:RDF>
         <cc:Work rdf:about="">
            <dc:format>image/svg+xml</dc:format>
            <dc:type rdf:resource="http://purl.org/dc/dcmitype/StillImage" />
            <dc:title></dc:title>
         </cc:Work>
      </rdf:RDF>
   </metadata>
   <g inkscape:label="Layer 1" inkscape:groupmode="layer" id="g7551">
      <path style="fill:#f57900;fill-opacity:1;stroke:none" d="m 3.0000004,1.0000052 c -1.108,0 -2,0.892 -2,2 l 0,8.9999948 c 0,1.108 0.892,2 2,2 L 13,14 c 1.108,0 2,-0.892 2,-2 l 0,-8.9999948 c 0,-1.108 -0.892,-2 -2,-2 L 3.0000004,1.0000052 z m 0,2 3,0 3.9999996,0 3,0 L 13,12 l -1,0 -1,0 -1,0 -3.9999996,0 -1,0 -1,0 -1,0 L 3.0000004,3.0000052 z m 1,1 0,1 1,0 0,-1 L 4.0000004,4.0000052 z m 2,0 0,1 3.9999996,0 0,-1 L 6.0000004,4.0000052 z m 4.9999996,0 0,1 1,0 0,-1 L 11,4.0000052 z m -6.9999996,2 0,1 1,0 0,-1 L 4.0000004,6.0000052 z m 2,0 0,2 1,0 2,0 0.9999996,0 0,-2 -0.9999996,0 -2,0 L 6.0000004,6.0000052 z m 4.9999996,0 0,1 1,0 0,-1 L 11,6.0000052 z m -6.9999996,2 0,1 1,0 0,-1 L 4.0000004,8.0000052 z m 6.9999996,0 0,1 1,0 0,-1 L 11,8.0000052 z m -4.9999996,1 0,1.9999948 L 10,11 l 0,-1.9999948 -0.9999996,0 -2,0 L 6.0000004,9.0000052 z m -2,0.9999948 0,1 1,0 0,-1 L 4.0000004,10 Z M 11,10 l 0,1 1,0 0,-1 L 11,10 Z" id="rect3143" inkscape:connector-curvature="0" />
   </g>
</svg>
