<?xml version="1.0" encoding="UTF-8" standalone="no"?>
<!-- Created with Inkscape (http://www.inkscape.org/) -->

<svg
   xmlns:dc="http://purl.org/dc/elements/1.1/"
   xmlns:cc="http://creativecommons.org/ns#"
   xmlns:rdf="http://www.w3.org/1999/02/22-rdf-syntax-ns#"
   xmlns:svg="http://www.w3.org/2000/svg"
   xmlns="http://www.w3.org/2000/svg"
   xmlns:sodipodi="http://sodipodi.sourceforge.net/DTD/sodipodi-0.dtd"
   xmlns:inkscape="http://www.inkscape.org/namespaces/inkscape"
   width="16px"
   height="16px"
   id="svg3031"
   version="1.1"
   inkscape:version="0.48.2 r9819"
   sodipodi:docname="fox-to-phone.svg">
  <defs
     id="defs3033" />
  <sodipodi:namedview
     id="base"
     pagecolor="#ffffff"
     bordercolor="#666666"
     borderopacity="0.4627451"
     inkscape:pageopacity="0.0"
     inkscape:pageshadow="2"
     inkscape:zoom="1"
     inkscape:cx="7.4474796"
     inkscape:cy="5.0876733"
     inkscape:current-layer="layer1"
     showgrid="false"
     inkscape:grid-bbox="true"
     inkscape:document-units="px"
     inkscape:window-width="1920"
     inkscape:window-height="1020"
     inkscape:window-x="1366"
     inkscape:window-y="27"
     inkscape:window-maximized="1"
     inkscape:snap-global="false"
     inkscape:showpageshadow="false"
     showborder="true">
    <inkscape:grid
       type="xygrid"
       id="grid3039"
       empspacing="5"
       visible="true"
       enabled="true"
       snapvisiblegridlinesonly="true" />
  </sodipodi:namedview>
  <metadata
     id="metadata3036">
    <rdf:RDF>
      <cc:Work
         rdf:about="">
        <dc:format>image/svg+xml</dc:format>
        <dc:type
           rdf:resource="http://purl.org/dc/dcmitype/StillImage" />
        <dc:title />
      </cc:Work>
    </rdf:RDF>
  </metadata>
  <g
     id="layer1"
     inkscape:label="Layer 1"
     inkscape:groupmode="layer">
    <path
       style="fill:#2e3436;fill-opacity:1;stroke:#2e3436;stroke-width:1.5;stroke-linecap:round;stroke-linejoin:round;stroke-miterlimit:4;stroke-opacity:1;stroke-dasharray:none"
       d="M 4.7500001,5.25 C 3.7085709,3.75 3.7502287,3.75 3.7502287,3.75"
       id="path3012"
       inkscape:connector-curvature="0" />
    <path
       style="fill:#2e3436;fill-opacity:1;stroke:#2e3436;stroke-width:1.5;stroke-linecap:round;stroke-linejoin:round;stroke-miterlimit:4;stroke-opacity:1;stroke-dasharray:none"
       d="m 11.25,5.25 c 1.041426,-1.5 0.999771,-1.5 0.999771,-1.5"
       id="path3012-4"
       inkscape:connector-curvature="0" />
    <path
       id="path3010-1"
       transform="matrix(-0.16637807,0,0,0.12478355,66.794117,12.709346)"
       style="color:#000000;fill:#2e3436;fill-opacity:1;fill-rule:evenodd;stroke:none;stroke-width:0.44999999000000002;marker:none;visibility:visible;display:inline;overflow:visible;enable-background:accumulate"
       d="m 344.36099,-43.750523 c 0,3.319457 -2.69095,6.010408 -6.0104,6.010408 -3.31946,0 -6.01041,-2.690951 -6.01041,-6.010408 0,-3.319456 2.69095,-6.010407 6.01041,-6.010407 3.31945,0 6.0104,2.690951 6.0104,6.010407 z m 18.03122,0 c 0,3.319457 2.69095,6.010408 6.0104,6.010408 3.31946,0 6.01041,-2.690951 6.01041,-6.010408 0,-3.319456 -2.69095,-6.010407 -6.01041,-6.010407 -3.31945,0 -6.0104,2.690951 -6.0104,6.010407 z m -9.01561,-26.045103 c -19.64431,0 -35.61072,21.435199 -36.06244,48.083261 l 72.12489,0 c -0.45157,-26.64821 -16.41804,-48.083261 -36.06245,-48.083261 z" />
    <path
       style="color:#000000;fill:#2e3436;fill-opacity:1;fill-rule:evenodd;stroke:none;stroke-width:0.44999999;marker:none;visibility:visible;display:inline;overflow:visible;enable-background:accumulate"
       d="M 14,13.999995 14,11 2,11 2,14 z"
       id="path3003-0"
       inkscape:connector-curvature="0"
       sodipodi:nodetypes="ccccc" />
  </g>
</svg>
