<?xml version="1.0" encoding="UTF-8" standalone="no"?>
<svg xmlns:inkscape="http://www.inkscape.org/namespaces/inkscape" xmlns:rdf="http://www.w3.org/1999/02/22-rdf-syntax-ns#" xmlns="http://www.w3.org/2000/svg" sodipodi:docname="ghostery-showtrackers.svg" height="16px" width="16px" version="1.1" xmlns:cc="http://creativecommons.org/ns#" xmlns:dc="http://purl.org/dc/elements/1.1/" inkscape:version="0.48.3.1 r9886" xmlns:sodipodi="http://sodipodi.sourceforge.net/DTD/sodipodi-0.dtd">
<sodipodi:namedview bordercolor="#666666" inkscape:pageshadow="2" inkscape:window-y="27" pagecolor="#ffffff" inkscape:window-height="712" inkscape:grid-bbox="true" inkscape:window-maximized="1" inkscape:zoom="32" inkscape:window-x="0" showgrid="true" borderopacity="1.0" inkscape:current-layer="g5781" inkscape:cx="3.5132772" inkscape:cy="7.6908645" inkscape:window-width="1366" inkscape:pageopacity="0.0" inkscape:document-units="px">
<inkscape:grid type="xygrid"/>
</sodipodi:namedview>
<metadata>
<rdf:RDF>
<cc:Work rdf:about="">
<dc:format>image/svg+xml</dc:format>
<dc:type rdf:resource="http://purl.org/dc/dcmitype/StillImage"/>
<dc:title/>
</cc:Work>
</rdf:RDF>
</metadata>
<g inkscape:label="Layer 1" inkscape:groupmode="layer">
<g fill="#2bb2ff" transform="translate(175 -252.38)">
<path d="m-167 253.38c-5.9221 0-5.263 6.1979-6 10-0.44805 2.3115-1 3-1 3 2-1.0128 4-1.0128 7-1.0128 5 2 7 0 7 0s-1 0.0128-1-1.9872c0-3.3657-0.3125-10-6-10zm1.75 2.9872c0.60048-0.0657 1.16 0.55148 1.25 1.375s-0.33702 1.5281-0.9375 1.5938-1.16-0.55148-1.25-1.375 0.33702-1.5281 0.9375-1.5938zm-3.8906-0.0157c0.0817-0.004 0.16761 0.0142 0.25 0.0313 0.65916 0.13627 1.0427 0.87623 0.875 1.6875-0.16772 0.81127-0.84084 1.3863-1.5 1.25-0.65916-0.13627-1.0427-0.90748-0.875-1.7188 0.14675-0.70986 0.67782-1.2255 1.25-1.25zm-0.86 6.03s1-2 3-2 3 2 3 2-1-1-3-1-3 1-3 1z" sodipodi:nodetypes="sscccsssssssccsssccczczc" inkscape:connector-curvature="0" fill="#2bb2ff"/>
</g>
</g>
</svg>
