<?xml version="1.0" encoding="UTF-8" standalone="no"?>
<!-- Created with Inkscape (http://www.inkscape.org/) -->

<svg xmlns:dc="http://purl.org/dc/elements/1.1/" xmlns:cc="http://creativecommons.org/ns#" xmlns:rdf="http://www.w3.org/1999/02/22-rdf-syntax-ns#" xmlns:svg="http://www.w3.org/2000/svg" xmlns="http://www.w3.org/2000/svg" xmlns:sodipodi="http://sodipodi.sourceforge.net/DTD/sodipodi-0.dtd" xmlns:inkscape="http://www.inkscape.org/namespaces/inkscape" width="16px" height="16px" id="svg3079" version="1.1" inkscape:version="0.48.3.1 r9886" sodipodi:docname="ghostery.svg">
   <defs id="defs3081" />
   <sodipodi:namedview id="base" pagecolor="#ffffff" bordercolor="#666666" borderopacity="1.0" inkscape:pageopacity="0.0" inkscape:pageshadow="2" inkscape:zoom="1" inkscape:cx="8.1019833" inkscape:cy="10.688513" inkscape:current-layer="g5781" showgrid="false" inkscape:grid-bbox="true" inkscape:document-units="px" inkscape:window-width="1366" inkscape:window-height="741" inkscape:window-x="0" inkscape:window-y="-2" inkscape:window-maximized="1">
      <inkscape:grid type="xygrid" id="grid3096" />
   </sodipodi:namedview>
   <metadata id="metadata3084">
      <rdf:RDF>
         <cc:Work rdf:about="">
            <dc:format>image/svg+xml</dc:format>
            <dc:type rdf:resource="http://purl.org/dc/dcmitype/StillImage" />
            <dc:title />
         </cc:Work>
      </rdf:RDF>
   </metadata>
   <g id="layer1" inkscape:label="Layer 1" inkscape:groupmode="layer">
      <g id="g5781" transform="translate(175,-252.375)" style="fill:#2bb2ff">
         <path sodipodi:nodetypes="sscccsssssssccssscccscc" inkscape:connector-curvature="0" id="path5648" d="m -167,253.375 c -5.9221,0 -5.26301,6.1979 -6,10 -0.44805,2.31149 -1,3 -1,3 2,-1.01282 4,-1.01282 7,-1.01282 5,2 7,0 7,0 0,0 -1,0.0128 -1,-1.98718 0,-3.36573 -0.3125,-10 -6,-10 z m 1.75,3.01107 c 0.60048,-0.0657 1.15997,0.52759 1.25,1.35111 0.09,0.82352 -0.33702,1.55995 -0.9375,1.6256 -0.60048,0.0657 -1.15997,-0.58333 -1.25,-1.40685 -0.09,-0.82352 0.33702,-1.50421 0.9375,-1.56986 z m -3.89062,-0.003 c 0.0817,-0.004 0.16761,0.0142 0.25,0.0313 0.65916,0.13627 1.04272,0.83919 0.875,1.65046 -0.16772,0.81127 -0.84084,1.43405 -1.5,1.29778 -0.65916,-0.13627 -1.04272,-0.95526 -0.875,-1.76653 0.14675,-0.70986 0.67782,-1.18842 1.25,-1.21296 z M -171,260.375 c 0,0 7.54446,0 8,0 -0.16133,0.6021 -2,3 -4,3 -3,0 -4,-2.99999 -4,-3 z" style="fill:#2bb2ff;stroke:none" />
      </g>
   </g>
</svg>
