<?xml version="1.0" encoding="UTF-8" standalone="no"?>
<svg xmlns:inkscape="http://www.inkscape.org/namespaces/inkscape" xmlns:rdf="http://www.w3.org/1999/02/22-rdf-syntax-ns#" xmlns="http://www.w3.org/2000/svg" sodipodi:docname="ghostery.svg" height="16px" width="16px" version="1.1" xmlns:cc="http://creativecommons.org/ns#" xmlns:dc="http://purl.org/dc/elements/1.1/" inkscape:version="0.48.3.1 r9886" xmlns:sodipodi="http://sodipodi.sourceforge.net/DTD/sodipodi-0.dtd">
<sodipodi:namedview bordercolor="#666666" inkscape:pageshadow="2" inkscape:window-y="-2" pagecolor="#ffffff" inkscape:window-height="741" inkscape:grid-bbox="true" inkscape:window-maximized="1" inkscape:zoom="1" inkscape:window-x="0" showgrid="false" borderopacity="1.0" inkscape:current-layer="g5781" inkscape:cx="8.1019833" inkscape:cy="10.688513" inkscape:window-width="1366" inkscape:pageopacity="0.0" inkscape:document-units="px">
<inkscape:grid type="xygrid"/>
</sodipodi:namedview>
<metadata>
<rdf:RDF>
<cc:Work rdf:about="">
<dc:format>image/svg+xml</dc:format>
<dc:type rdf:resource="http://purl.org/dc/dcmitype/StillImage"/>
<dc:title/>
</cc:Work>
</rdf:RDF>
</metadata>
<g inkscape:label="Layer 1" inkscape:groupmode="layer">
<g fill="#2bb2ff" transform="translate(175 -252.38)">
<path d="m-167 253.38c-5.9221 0-5.263 6.1979-6 10-0.44805 2.3115-1 3-1 3 2-1.0128 4-1.0128 7-1.0128 5 2 7 0 7 0s-1 0.0128-1-1.9872c0-3.3657-0.3125-10-6-10zm1.75 3.0111c0.60048-0.0657 1.16 0.52759 1.25 1.3511 0.09 0.82352-0.33702 1.56-0.9375 1.6256-0.60048 0.0657-1.16-0.58333-1.25-1.4068-0.09-0.82352 0.33702-1.5042 0.9375-1.5699zm-3.8906-0.003c0.0817-0.004 0.16761 0.0142 0.25 0.0313 0.65916 0.13627 1.0427 0.83919 0.875 1.6505-0.16772 0.81127-0.84084 1.434-1.5 1.2978-0.65916-0.13627-1.0427-0.95526-0.875-1.7665 0.14675-0.70986 0.67782-1.1884 1.25-1.213zm-1.86 3.99h8c-0.16133 0.6021-2 3-4 3-3 0-4-3-4-3z" sodipodi:nodetypes="sscccsssssssccssscccscc" inkscape:connector-curvature="0" fill="#2bb2ff"/>
</g>
</g>
</svg>
