<?xml version="1.0" encoding="UTF-8" standalone="no"?>
<svg xmlns:dc="http://purl.org/dc/elements/1.1/" xmlns:cc="http://creativecommons.org/ns#" xmlns:rdf="http://www.w3.org/1999/02/22-rdf-syntax-ns#" xmlns:svg="http://www.w3.org/2000/svg" xmlns="http://www.w3.org/2000/svg" xmlns:sodipodi="http://sodipodi.sourceforge.net/DTD/sodipodi-0.dtd" xmlns:inkscape="http://www.inkscape.org/namespaces/inkscape" sodipodi:docname="ghostery-grayscale.svg" height="16px" width="16px" version="1.1" inkscape:version="0.48.4 r9939" id="svg8195">
   <defs id="defs8209" />
   <sodipodi:namedview bordercolor="#666666" inkscape:pageshadow="2" inkscape:window-y="1" pagecolor="#ffffff" inkscape:window-height="741" inkscape:grid-bbox="true" inkscape:window-maximized="1" inkscape:zoom="35.5" inkscape:window-x="0" showgrid="true" borderopacity="1.0" inkscape:current-layer="g8203" inkscape:cx="7.8591549" inkscape:cy="6.9295775" inkscape:window-width="1366" inkscape:pageopacity="0.0" inkscape:document-units="px" id="namedview8197" inkscape:object-nodes="true">
      <inkscape:grid type="xygrid" id="grid8199" />
   </sodipodi:namedview>
   <metadata id="metadata8201">
      <rdf:RDF>
         <cc:Work rdf:about="">
            <dc:format>image/svg+xml</dc:format>
            <dc:type rdf:resource="http://purl.org/dc/dcmitype/StillImage" />
            <dc:title />
         </cc:Work>
      </rdf:RDF>
   </metadata>
   <g inkscape:label="Layer 1" inkscape:groupmode="layer" id="g8203">
      <path style="fill:#2e3436;fill-opacity:1;stroke:none" d="m 7.9999995,0.9999995 c -5.9221,0 -5.26301,6.1979 -6,10.0000005 -0.44805,2.3115 -1,3 -1,3 C 3,14 6,13 8,12 c 2,1 7,2 7,2 0,0 -0.513992,-1.1862 -1,-3 C 13.128893,7.7489995 13.6875,0.9999995 7.9999995,0.9999995 z m 1.75,2.9872 c 0.6004805,-0.066 1.1599705,0.5515 1.2500005,1.375 0.09,0.8235 -0.33702,1.5281 -0.9375,1.5938 -0.6004805,0.066 -1.1599705,-0.5515 -1.2500005,-1.375 -0.09,-0.8236 0.33702,-1.5281 0.9375,-1.5938 z m -3.89062,-0.016 c 0.0817,0 0.16761,0.014 0.25,0.031 0.65916,0.1363 1.04272,0.8762 0.875,1.6875 -0.16772,0.8113 -0.84084,1.3863 -1.5,1.25 -0.65916,-0.1363 -1.04272,-0.9075 -0.875,-1.7187 0.14675,-0.7099 0.67782,-1.2255 1.25,-1.25 z M 11,7.9999995 C 11,7.9999995 11,11 7.9999995,11 c -3,0 -3,-3.0000005 -3,-3.0000005 z" id="path5648" inkscape:connector-curvature="0" sodipodi:nodetypes="sscccsssssssccssscccccc" />
   </g>
</svg>
