<?xml version="1.0" encoding="UTF-8" standalone="no"?>
<!-- Created with Inkscape (http://www.inkscape.org/) -->

<svg
   xmlns:dc="http://purl.org/dc/elements/1.1/"
   xmlns:cc="http://creativecommons.org/ns#"
   xmlns:rdf="http://www.w3.org/1999/02/22-rdf-syntax-ns#"
   xmlns:svg="http://www.w3.org/2000/svg"
   xmlns="http://www.w3.org/2000/svg"
   xmlns:sodipodi="http://sodipodi.sourceforge.net/DTD/sodipodi-0.dtd"
   xmlns:inkscape="http://www.inkscape.org/namespaces/inkscape"
   width="16px"
   height="16px"
   id="svg3031"
   version="1.1"
   inkscape:version="0.48.2 r9819"
   sodipodi:docname="gtranslator.svg">
  <defs
     id="defs3033" />
  <sodipodi:namedview
     id="base"
     pagecolor="#ffffff"
     bordercolor="#666666"
     borderopacity="1.0"
     inkscape:pageopacity="0.0"
     inkscape:pageshadow="2"
     inkscape:zoom="1"
     inkscape:cx="15.352931"
     inkscape:cy="8.3020306"
     inkscape:current-layer="text3076"
     showgrid="false"
     inkscape:grid-bbox="true"
     inkscape:document-units="px"
     inkscape:window-width="1920"
     inkscape:window-height="1020"
     inkscape:window-x="1366"
     inkscape:window-y="27"
     inkscape:window-maximized="1"
     inkscape:showpageshadow="false"
     showborder="true">
    <inkscape:grid
       type="xygrid"
       id="grid3039"
       empspacing="5"
       visible="true"
       enabled="true"
       snapvisiblegridlinesonly="true" />
  </sodipodi:namedview>
  <metadata
     id="metadata3036">
    <rdf:RDF>
      <cc:Work
         rdf:about="">
        <dc:format>image/svg+xml</dc:format>
        <dc:type
           rdf:resource="http://purl.org/dc/dcmitype/StillImage" />
        <dc:title />
      </cc:Work>
    </rdf:RDF>
  </metadata>
  <g
     id="layer1"
     inkscape:label="Layer 1"
     inkscape:groupmode="layer">
    <g
       style="font-size:6.27398013999999993px;font-style:normal;font-variant:normal;font-weight:bold;font-stretch:normal;text-align:start;line-height:125%;letter-spacing:0px;word-spacing:0px;writing-mode:lr-tb;text-anchor:start;fill:#4d4d4d;fill-opacity:1;stroke:none;font-family:Andale Mono;-inkscape-font-specification:Andale Mono Bold;opacity:0.75"
       id="text3084"
       transform="translate(0,1)">
      <path
         d="M 8,3 3,3 3,4 2,4 2,2 5,2 5,1.3073427 l 1,0 L 6,2 9,2 9,4 8,4 8,3 M 4,5 4,4 7,4 7,5 6,6 8,6 8,7 6,7 6,7.3202528 C 5.9999965,7.629769 5.5794669,8.4288946 5.5,8.5 5.4205263,8.5711047 5.030482,9.0156845 4.6875074,9.015685 4.541112,9.0156845 5.0165277,9.0052279 4.5062463,8.9843151 L 4.4937537,8 C 4.9747567,8.020913 4.4867152,8 4.6372932,8 4.7878659,8 4.8757016,7.5523901 4.9008004,7.5272941 4.9258934,7.5021981 4.9384414,7.4143626 4.9384444,7.263787 L 4.9384444,7 3,7 3,6 5,6 5,5.5 5.1831296,5.5 6,5 4,5"
         id="path4018"
         inkscape:connector-curvature="0"
         sodipodi:nodetypes="cccccccccccccccccccccccsccscccccccccc" />
    </g>
    <g
       style="font-size:10.73619652px;font-style:normal;font-variant:normal;font-weight:bold;font-stretch:normal;text-align:start;line-height:125%;letter-spacing:0px;word-spacing:0px;writing-mode:lr-tb;text-anchor:start;fill:#4d4d4d;fill-opacity:1;stroke:none;font-family:Source Sans Pro;-inkscape-font-specification:Source Sans Pro Bold"
       id="text3076"
       transform="matrix(0.95368114,0,0,1,0.60897117,0)">
      <path
         d="m 9.847137,11 0.984151,-3 0.04294,0 1.070046,3 -2.097137,0 m 2.883563,3 1.572853,0 -2.359279,-7.0000001 -2.097137,0 L 7.4878579,14 l 1.5728527,0 0.5242843,-2 2.6214211,0 0.524284,2"
         id="path4027"
         inkscape:connector-curvature="0"
         sodipodi:nodetypes="cccccccccccccc" />
    </g>
    <g
       id="g4002"
       transform="matrix(0,0.49998721,-0.49998721,0,16.027104,13.499999)">
      <g
         id="g4020">
        <path
           inkscape:connector-curvature="0"
           sodipodi:nodetypes="ccc"
           id="path4516-1"
           d="M -3.98852,21.01944 -1.96577,19.05467 0,21"
           style="fill:none;stroke:#4d4d4d;stroke-width:2;stroke-linecap:round;stroke-linejoin:miter;stroke-miterlimit:4;stroke-opacity:1;stroke-dasharray:none;display:inline" />
        <path
           sodipodi:nodetypes="cssc"
           inkscape:connector-curvature="0"
           id="path3991-4"
           d="M -7.0001771,25 -4.00927,25.0547 C -2.9039117,25.07492 -2.00961,24.10369 -2.00001,23 l 0.0343,-3.94533"
           style="fill:none;stroke:#4d4d4d;stroke-width:2;stroke-linecap:butt;stroke-linejoin:miter;stroke-miterlimit:4;stroke-opacity:1;stroke-dasharray:none;display:inline" />
        <rect
           style="color:#000000;fill:#4d4d4d;fill-opacity:1;fill-rule:nonzero;stroke:none;stroke-width:2;marker:none;visibility:visible;display:inline;overflow:visible;enable-background:accumulate"
           id="rect4723-8"
           width="0.99614793"
           height="0.99778008"
           x="21.072159"
           y="-4.697032"
           transform="matrix(-0.01374324,0.99990556,0.99990617,0.0136983,0,0)" />
        <rect
           style="color:#000000;fill:#4d4d4d;fill-opacity:1;fill-rule:nonzero;stroke:none;stroke-width:2;marker:none;visibility:visible;display:inline;overflow:visible;enable-background:accumulate"
           id="rect4723-0-9"
           width="0.99614793"
           height="0.99778008"
           x="20.984329"
           y="0.29076114"
           transform="matrix(-0.01374324,0.99990556,0.99990617,0.0136983,0,0)" />
      </g>
    </g>
    <rect
       y="10"
       x="-15.000017"
       height="16"
       width="16"
       id="rect5386-2"
       style="fill:none;stroke:none;display:inline" />
  </g>
</svg>
