<?xml version="1.0" encoding="UTF-8" standalone="no"?>
<svg xmlns:inkscape="http://www.inkscape.org/namespaces/inkscape" xmlns:rdf="http://www.w3.org/1999/02/22-rdf-syntax-ns#" xmlns="http://www.w3.org/2000/svg" inkscape:version="0.48.4 r9939" height="16" width="16" version="1.1" xmlns:cc="http://creativecommons.org/ns#" xmlns:dc="http://purl.org/dc/elements/1.1/" sodipodi:docname="https-everywhere.svg.2013_04_23_20_55_57.0.svg" xmlns:sodipodi="http://sodipodi.sourceforge.net/DTD/sodipodi-0.dtd">
<metadata>
<rdf:RDF>
<cc:Work rdf:about="">
<dc:format>image/svg+xml</dc:format>
<dc:type rdf:resource="http://purl.org/dc/dcmitype/StillImage"/>
<dc:title>Gnome Symbolic Icon Theme</dc:title>
</cc:Work>
</rdf:RDF>
</metadata>
<sodipodi:namedview inkscape:zoom="22.627417" borderopacity="1" inkscape:current-layer="g12" inkscape:cx="10.376677" inkscape:window-y="27" inkscape:snap-grids="true" inkscape:snap-bbox-midpoints="false" inkscape:object-paths="true" inkscape:window-maximized="1" inkscape:snap-bbox="true" showgrid="false" inkscape:snap-nodes="false" inkscape:guide-bbox="true" inkscape:snap-global="true" showguides="true" bordercolor="#666666" inkscape:window-x="0" guidetolerance="10" objecttolerance="10" inkscape:object-nodes="true" inkscape:window-width="1280" inkscape:pageopacity="1" inkscape:cy="5.3987905" inkscape:pageshadow="2" pagecolor="#ffffff" gridtolerance="10" inkscape:bbox-paths="false" inkscape:snap-to-guides="true" inkscape:window-height="965" showborder="true">
<inkscape:grid visible="true" enabled="true" spacingy="1px" spacingx="1px" snapvisiblegridlinesonly="true" type="xygrid" empspacing="2"/>
</sodipodi:namedview>
<title>Gnome Symbolic Icon Theme</title>
<g inkscape:label="status" transform="translate(-81 -397)" inkscape:groupmode="layer" fill="#2e3436">
<path d="m88.345 400.62c-2.6331 0-4.7677 2.1346-4.7677 4.7677s2.1346 4.7676 4.7677 4.7676 4.7677-2.1346 4.7677-4.7676c0-2.6331-2.1346-4.7677-4.7677-4.7677zm-0.5457 1.1488h1.0627c0.84916 0 1.5222 0.78942 1.5222 1.752v1.1776c0.28603 0 0.51697 0.25018 0.51697 0.57441v2.9295h-5.141v-2.9295c-0.09768-0.30473 0.23094-0.57441 0.51698-0.57441v-1.1776c0-0.96255 0.67304-1.752 1.5222-1.752zm0 1.1776c-0.29496 0-0.48825 0.24007-0.48825 0.57441v1.1776h2.0392v-1.1776c0-0.33434-0.19329-0.57441-0.48825-0.57441h-1.0627z" inkscape:connector-curvature="0"/>
<path sodipodi:nodetypes="cccccccc" inkscape:connector-curvature="0" d="m84.866 408.4-0.43812-0.89339-2.1715 1.097-0.5197-0.78726-0.49791 1.9556 2.0669 0.50168-0.44964-0.78885z"/>
<path sodipodi:nodetypes="cccccccc" inkscape:connector-curvature="0" d="m86.676 409.68-0.8252-0.556-1.3354 2.0336-0.84301-0.42333 0.54341 1.9435 2.0418-0.59561-0.78307-0.45964z"/>
<path sodipodi:nodetypes="cccccccc" inkscape:connector-curvature="0" d="m92.16 405.7-1.1132 2.0098 3.2318 2.0818-0.6419 1.1778 3.3339-0.67761-0.75337-3.5056-0.63605 1.1133z"/>
<path sodipodi:nodetypes="cccccccc" inkscape:connector-curvature="0" d="m90.845 401.5 1.1572 0.90095 2.1144-2.8957 1.1941 0.70566-0.63207-2.9344-3.0257 0.69666 1.1037 0.75404z"/>
<path sodipodi:nodetypes="cccccccc" inkscape:connector-curvature="0" d="m85.307 402.4 0.73565-1.0008-2.501-1.7222 0.56946-1.0274-2.4694 0.60381 0.66062 2.5452 0.61253-0.95203z"/>
</g>
</svg>
