<?xml version="1.0" encoding="UTF-8" standalone="no"?>
<svg xmlns:inkscape="http://www.inkscape.org/namespaces/inkscape" xmlns:rdf="http://www.w3.org/1999/02/22-rdf-syntax-ns#" xmlns="http://www.w3.org/2000/svg" sodipodi:docname="lastpass-password-manager.svg" height="16px" width="16px" version="1.1" xmlns:cc="http://creativecommons.org/ns#" xmlns:dc="http://purl.org/dc/elements/1.1/" inkscape:version="0.48.3.1 r9886" xmlns:sodipodi="http://sodipodi.sourceforge.net/DTD/sodipodi-0.dtd">
<sodipodi:namedview bordercolor="#666666" inkscape:pageshadow="2" inkscape:window-y="-2" pagecolor="#ffffff" inkscape:window-height="741" inkscape:grid-bbox="true" inkscape:window-maximized="1" inkscape:zoom="1" inkscape:window-x="0" showgrid="false" borderopacity="1.0" inkscape:current-layer="layer1" inkscape:cx="5.655759" inkscape:cy="7.2833169" inkscape:window-width="1366" inkscape:pageopacity="0.0" inkscape:document-units="px">
<inkscape:grid type="xygrid"/>
</sodipodi:namedview>
<metadata>
<rdf:RDF>
<cc:Work rdf:about="">
<dc:format>image/svg+xml</dc:format>
<dc:type rdf:resource="http://purl.org/dc/dcmitype/StillImage"/>
<dc:title/>
</cc:Work>
</rdf:RDF>
</metadata>
<g inkscape:label="Layer 1" inkscape:groupmode="layer">
<path d="m3.0524 1c-1.108 0-2 0.892-2 2v10c0 1.108 0.89199 2 2 2h10c1.108 0 2-0.892 2-2v-10c0-1.108-0.89199-2-2-2zm2.8821 2 2.0312 2.9375 2-2.9375 1.6873 0.9375-1.8123 3.0625h3.1593v1.9688h-3.1593l1.8125 3.0312-1.6875 0.9375-1.9687-3-2.0625 3-1.6562-0.9375 1.9062-3.0312h-3.1321v-1.9688h3.1321l-1.9062-3.0625z" sodipodi:nodetypes="sssssssssccccccccccccccccccc" inkscape:connector-curvature="0" fill="#2e3436"/>
</g>
</svg>
