<?xml version="1.0" encoding="UTF-8" standalone="no"?>
<svg xmlns:dc="http://purl.org/dc/elements/1.1/" xmlns:cc="http://creativecommons.org/ns#" xmlns:rdf="http://www.w3.org/1999/02/22-rdf-syntax-ns#" xmlns:svg="http://www.w3.org/2000/svg" xmlns="http://www.w3.org/2000/svg" xmlns:sodipodi="http://sodipodi.sourceforge.net/DTD/sodipodi-0.dtd" xmlns:inkscape="http://www.inkscape.org/namespaces/inkscape" sodipodi:docname="lastpass-password-manager.svg" height="16px" width="16px" version="1.1" inkscape:version="0.48.4 r9939" id="svg8317">
   <defs id="defs8329" />
   <sodipodi:namedview bordercolor="#666666" inkscape:pageshadow="2" inkscape:window-y="1" pagecolor="#ffffff" inkscape:window-height="741" inkscape:grid-bbox="true" inkscape:window-maximized="1" inkscape:zoom="22.627417" inkscape:window-x="0" showgrid="true" borderopacity="1.0" inkscape:current-layer="g8325" inkscape:cx="12.487823" inkscape:cy="5.1580637" inkscape:window-width="1366" inkscape:pageopacity="0.0" inkscape:document-units="px" id="namedview8319" showguides="true" inkscape:guide-bbox="true" inkscape:object-nodes="true" inkscape:snap-bbox="true">
      <inkscape:grid type="xygrid" id="grid8321" />
   </sodipodi:namedview>
   <metadata id="metadata8323">
      <rdf:RDF>
         <cc:Work rdf:about="">
            <dc:format>image/svg+xml</dc:format>
            <dc:type rdf:resource="http://purl.org/dc/dcmitype/StillImage" />
            <dc:title />
         </cc:Work>
      </rdf:RDF>
   </metadata>
   <g inkscape:label="Layer 1" inkscape:groupmode="layer" id="g8325">
      <path style="fill:#2e3436" d="M 3.09375 1.0625 C 1.994044 1.0625 1.09375 1.931544 1.09375 3.03125 L 1.09375 12.96875 C 1.09375 14.068457 1.9940342 14.9375 3.09375 14.9375 L 13 14.9375 C 14.099707 14.9375 15 14.068457 15 12.96875 L 15 3.03125 C 15 1.931544 14.099716 1.0625 13 1.0625 L 3.09375 1.0625 z M 6.375 3.15625 L 8 5.96875 L 9.625 3.15625 L 11.375 4.15625 L 9.75 7 L 13 7 L 13 9 L 9.75 9 L 11.375 11.84375 L 9.625 12.84375 L 8 10.03125 L 6.375 12.84375 L 4.625 11.84375 L 6.25 9 L 3 9 L 3 7 L 6.25 7 L 4.625 4.15625 L 6.375 3.15625 z " id="path8327" />
      <rect y="7" x="4" height="2" width="8" id="rect8355" style="fill:white;fill-opacity:1;stroke:none" />
   </g>
</svg>
