<?xml version="1.0" encoding="UTF-8" standalone="no"?>
<!-- Created with Inkscape (http://www.inkscape.org/) -->

<svg xmlns:dc="http://purl.org/dc/elements/1.1/" xmlns:cc="http://creativecommons.org/ns#" xmlns:rdf="http://www.w3.org/1999/02/22-rdf-syntax-ns#" xmlns:svg="http://www.w3.org/2000/svg" xmlns="http://www.w3.org/2000/svg" xmlns:sodipodi="http://sodipodi.sourceforge.net/DTD/sodipodi-0.dtd" xmlns:inkscape="http://www.inkscape.org/namespaces/inkscape" width="16px" height="16px" id="svg3444" version="1.1" inkscape:version="0.48.3.1 r9886" sodipodi:docname="lastpass-password-manager.svg">
   <defs id="defs3446" />
   <sodipodi:namedview id="base" pagecolor="#ffffff" bordercolor="#666666" borderopacity="1.0" inkscape:pageopacity="0.0" inkscape:pageshadow="2" inkscape:zoom="1" inkscape:cx="5.655759" inkscape:cy="7.2833169" inkscape:current-layer="layer1" showgrid="false" inkscape:grid-bbox="true" inkscape:document-units="px" inkscape:window-width="1366" inkscape:window-height="741" inkscape:window-x="0" inkscape:window-y="-2" inkscape:window-maximized="1">
      <inkscape:grid type="xygrid" id="grid3459" />
   </sodipodi:namedview>
   <metadata id="metadata3449">
      <rdf:RDF>
         <cc:Work rdf:about="">
            <dc:format>image/svg+xml</dc:format>
            <dc:type rdf:resource="http://purl.org/dc/dcmitype/StillImage" />
            <dc:title />
         </cc:Work>
      </rdf:RDF>
   </metadata>
   <g id="layer1" inkscape:label="Layer 1" inkscape:groupmode="layer">
      <path style="fill:#2e3436;fill-opacity:1;stroke:none" d="m 3.0523515,1 c -1.10801,0 -2,0.892 -2,2 l 0,10 c 0,1.108 0.89199,2 2,2 l 9.9999985,0 c 1.10801,0 2,-0.892 2,-2 l 0,-10 c 0,-1.108 -0.89199,-2 -2,-2 z M 5.9344774,3 7.9657274,5.93748 9.9657259,3 11.653226,3.93748 9.8407259,6.99998 13,6.99998 l 0,1.9688 -3.1592741,0 1.8125001,3.031201 -1.6875001,0.9375 -1.9687485,-3.0000005 -2.0625,3.0000005 -1.65625,-0.9375 1.90625,-3.031201 -3.1321259,0 0,-1.9688 3.1321259,0 -1.90625,-3.0625 z" id="path3254" inkscape:connector-curvature="0" sodipodi:nodetypes="sssssssssccccccccccccccccccc" />
   </g>
</svg>
