<?xml version="1.0" encoding="UTF-8" standalone="no"?>
<!-- Created with Inkscape (http://www.inkscape.org/) -->

<svg xmlns:dc="http://purl.org/dc/elements/1.1/" xmlns:cc="http://creativecommons.org/ns#" xmlns:rdf="http://www.w3.org/1999/02/22-rdf-syntax-ns#" xmlns:svg="http://www.w3.org/2000/svg" xmlns="http://www.w3.org/2000/svg" xmlns:sodipodi="http://sodipodi.sourceforge.net/DTD/sodipodi-0.dtd" xmlns:inkscape="http://www.inkscape.org/namespaces/inkscape" version="1.1" width="16" height="16" id="svg3136" inkscape:version="0.48.3.1 r9886" sodipodi:docname="pocket-added.svg">
   <sodipodi:namedview pagecolor="#ffffff" bordercolor="#666666" borderopacity="1" objecttolerance="10" gridtolerance="10" guidetolerance="10" inkscape:pageopacity="0" inkscape:pageshadow="2" inkscape:window-width="640" inkscape:window-height="480" id="namedview6291" showgrid="true" inkscape:zoom="41.7193" inkscape:cx="7.917601" inkscape:cy="4.3036284" inkscape:window-x="0" inkscape:window-y="27" inkscape:window-maximized="0" inkscape:current-layer="svg3136">
      <inkscape:grid type="xygrid" id="grid6311" />
   </sodipodi:namedview>
   <defs id="defs3138" />
   <metadata id="metadata3141">
      <rdf:RDF>
         <cc:Work rdf:about="">
            <dc:format>image/svg+xml</dc:format>
            <dc:type rdf:resource="http://purl.org/dc/dcmitype/StillImage" />
            <dc:title />
         </cc:Work>
      </rdf:RDF>
   </metadata>
   <path style="fill:#ee4257;fill-opacity:1;stroke:none" d="m 1,3 c 0,9.599991 2,12.000001 7,12.000001 5,0 7,-2.40001 7,-12.000001 L 8,3 z m 2.959372,3.99596 c 0.301442,-0.0625 0.629964,0.0233 0.862501,0.22501 L 8,9.62435 11.253128,7.22501 C 11.370381,7.11891 11.512995,7.04118 11.665629,7 12.546194,6.78861 13.235368,8.19692 12.52813,8.7625 L 9.021875,11.50312 C 8.55234,11.774201 8.263083,12.004381 8,12 7.736917,11.996001 7.345609,11.704481 6.996876,11.50312 L 3.546872,8.75846 c -0.583884,-0.47225 -0.32032,-1.5984 0.4125,-1.7625 z" id="path3215-5" inkscape:connector-curvature="0" sodipodi:nodetypes="cscccccccccczccc" />
</svg>
