<?xml version="1.0" encoding="UTF-8" standalone="no"?>
<!-- Created with Inkscape (http://www.inkscape.org/) -->

<svg xmlns:dc="http://purl.org/dc/elements/1.1/" xmlns:cc="http://creativecommons.org/ns#" xmlns:rdf="http://www.w3.org/1999/02/22-rdf-syntax-ns#" xmlns:svg="http://www.w3.org/2000/svg" xmlns="http://www.w3.org/2000/svg" xmlns:sodipodi="http://sodipodi.sourceforge.net/DTD/sodipodi-0.dtd" xmlns:inkscape="http://www.inkscape.org/namespaces/inkscape" width="16px" height="16px" id="svg3136" version="1.1" inkscape:version="0.48.3.1 r9886" sodipodi:docname="pocket.svg">
   <defs id="defs3138" />
   <sodipodi:namedview id="base" pagecolor="#ffffff" bordercolor="#666666" borderopacity="1.0" inkscape:pageopacity="0.0" inkscape:pageshadow="2" inkscape:zoom="31.392433" inkscape:cx="6.0895837" inkscape:cy="7.4340491" inkscape:current-layer="layer1" showgrid="true" inkscape:grid-bbox="true" inkscape:document-units="px" inkscape:window-width="1366" inkscape:window-height="741" inkscape:window-x="0" inkscape:window-y="-2" inkscape:window-maximized="1">
      <inkscape:grid type="xygrid" id="grid3144" />
   </sodipodi:namedview>
   <metadata id="metadata3141">
      <rdf:RDF>
         <cc:Work rdf:about="">
            <dc:format>image/svg+xml</dc:format>
            <dc:type rdf:resource="http://purl.org/dc/dcmitype/StillImage" />
            <dc:title />
         </cc:Work>
      </rdf:RDF>
   </metadata>
   <g id="layer1" inkscape:label="Layer 1" inkscape:groupmode="layer">
      <path style="fill:#4d4d4d;fill-opacity:1;stroke:none" d="m 1,3 c 0,9.59999 2,12 7,12 5,0 7,-2.40001 7,-12 L 8,3 z m 2.959372,3.99596 c 0.301442,-0.0625 0.629964,0.0233 0.862501,0.22501 L 8,9.62435 11.253128,7.22501 C 11.370381,7.11891 11.512995,7.04118 11.665629,7 12.546194,6.78861 13.235368,8.19692 12.52813,8.7625 L 9.021875,11.50312 C 8.55234,11.7742 8.263083,12.00438 8,12 7.736917,11.996 7.345609,11.70448 6.996876,11.50312 L 3.546872,8.75846 c -0.583884,-0.47225 -0.32032,-1.5984 0.4125,-1.7625 z" id="path3215-5" inkscape:connector-curvature="0" sodipodi:nodetypes="cscccccccccczccc" />
   </g>
</svg>
