<?xml version="1.0" encoding="UTF-8" standalone="no"?>
<svg xmlns:inkscape="http://www.inkscape.org/namespaces/inkscape" xmlns:rdf="http://www.w3.org/1999/02/22-rdf-syntax-ns#" xmlns="http://www.w3.org/2000/svg" sodipodi:docname="stylish.svg" height="16px" width="16px" version="1.1" xmlns:cc="http://creativecommons.org/ns#" xmlns:dc="http://purl.org/dc/elements/1.1/" inkscape:version="0.48.3.1 r9886" xmlns:sodipodi="http://sodipodi.sourceforge.net/DTD/sodipodi-0.dtd">
<sodipodi:namedview bordercolor="#666666" inkscape:pageshadow="2" inkscape:window-y="-2" pagecolor="#ffffff" inkscape:window-height="741" inkscape:grid-bbox="true" inkscape:window-maximized="1" inkscape:zoom="22.627417" inkscape:window-x="0" showgrid="true" borderopacity="1.0" inkscape:current-layer="layer1" inkscape:cx="-0.3987869" inkscape:cy="9.8067352" inkscape:window-width="1366" inkscape:pageopacity="0.0" inkscape:document-units="px">
<inkscape:grid type="xygrid"/>
</sodipodi:namedview>
<metadata>
<rdf:RDF>
<cc:Work rdf:about="">
<dc:format>image/svg+xml</dc:format>
<dc:type rdf:resource="http://purl.org/dc/dcmitype/StillImage"/>
<dc:title/>
</cc:Work>
</rdf:RDF>
</metadata>
<g inkscape:label="Layer 1" inkscape:groupmode="layer">
<path d="m3.8532 1.04c-0.99698 0-1.7939 0.797-1.7939 1.794v9.3934c0 0.997 0.79691 1.794 1.7939 1.794h8.3497c0.99698 0 1.7939-0.797 1.7939-1.794v-9.3934c0-0.997-0.79691-1.794-1.7939-1.794zm4.3936 1.6782c0.23617 0 0.46785 0 0.71875 0.031 0.24413 0.03 0.46586 0.073 0.6875 0.125 0.25664 0.06 0.47862 0.1479 0.6875 0.2187 0.21363 0.073 0.49163 0.1726 0.75 0.2813 0.03494 0.014 0.06702 0.035 0.09375 0.062 0.03074 0.036 0.05243 0.079 0.0625 0.125 0.01128 0.064 0.000055 0.131-0.03125 0.1876l-0.65625 1.4374c-0.05092 0.102-0.16776 0.1669-0.28125 0.1563-0.03273 0-0.06462-0.015-0.09375-0.031-0.19581-0.082-0.35951-0.1248-0.53125-0.1874-0.15454-0.057-0.33232-0.1119-0.5-0.1563-0.14817-0.039-0.31723-0.075-0.46875-0.094-0.1377-0.021-0.28526-0.031-0.4375-0.031-0.30305 0-0.46279 0.071-0.59375 0.1875-0.13899 0.124-0.21875 0.2519-0.21875 0.4375-0.000001 0.096 0.0238 0.1977 0.0625 0.2813 0.01727 0.033 0.08762 0.079 0.21875 0.1874 0.13891 0.1111 0.25353 0.2302 0.40625 0.3126 0.18241 0.096 0.43779 0.2105 0.71875 0.3437 0.33691 0.1603 0.64317 0.2939 0.9375 0.4687 0.292 0.1696 0.52729 0.4039 0.75 0.625 0.0056 0.01 0.02575-0.01 0.03125 0 0.22535 0.2237 0.4106 0.4748 0.53125 0.75 0.13095 0.2991 0.18749 0.6328 0.1875 1-0.000009 0.4229-0.07564 0.8262-0.25 1.1876-0.16585 0.3493-0.39209 0.6554-0.71875 0.9062-0.32413 0.2486-0.75733 0.438-1.1875 0.5625h-0.03125c-0.43298 0.1219-0.91578 0.1875-1.4688 0.1875-0.48873 0-0.97373-0.034-1.4375-0.125-0.46382-0.092-0.88884-0.2542-1.2812-0.4375-0.09219-0.047-0.15476-0.1467-0.15625-0.25v-1.7187c0.000725-0.043 0.0115-0.086 0.03125-0.125 0.0143-0.035 0.03569-0.067 0.0625-0.094 0.03559-0.031 0.07898-0.053 0.125-0.063 0.06359-0.011 0.13095-0.0002 0.1875 0.031 0.21853 0.094 0.41455 0.1969 0.625 0.2812v-0.031c0.18622 0.071 0.41109 0.1131 0.65625 0.1874 0.23462 0.07 0.46334 0.1532 0.65625 0.1876 0.21714 0.038 0.38945 0.062 0.59375 0.062 0.2133 0 0.41239-0.029 0.53125-0.062 0.11254-0.032 0.20406-0.094 0.28125-0.1563 0.07917-0.065 0.13171-0.095 0.15625-0.1563-0.000563-0.01-0.000563-0.021 0-0.031 0.02771-0.065 0.03125-0.1334 0.03125-0.25-0.000005-0.1479-0.02009-0.1849-0.0625-0.25-0.05266-0.088-0.13816-0.2283-0.25-0.3125-0.01041 0.0006-0.02084 0.0006-0.03125 0-0.12195-0.098-0.28754-0.2191-0.46875-0.3125-0.18316-0.097-0.40619-0.195-0.65625-0.3125-0.20983-0.098-0.42854-0.2062-0.6875-0.3437-0.26638-0.1419-0.56025-0.3108-0.8125-0.5313-0.25474-0.2316-0.43422-0.5154-0.59375-0.8125-0.18014-0.34-0.25-0.7261-0.25-1.1562-0.000001-0.4273 0.08673-0.8372 0.25-1.1876 0.1659-0.3495 0.3869-0.6384 0.6875-0.875 0.28796-0.2311 0.61249-0.4395 1.0312-0.5624 0.4225-0.1228 0.91475-0.1563 1.4062-0.1563z" sodipodi:nodetypes="sssssssssccccccccccccccscccccccccccccccsccccccccccccscccccccccccccsccccc" inkscape:connector-curvature="0" fill="#2e3436"/>
</g>
</svg>
