<?xml version="1.0" encoding="UTF-8" standalone="no"?>
<!-- Created with Inkscape (http://www.inkscape.org/) -->

<svg xmlns:dc="http://purl.org/dc/elements/1.1/" xmlns:cc="http://creativecommons.org/ns#" xmlns:rdf="http://www.w3.org/1999/02/22-rdf-syntax-ns#" xmlns:svg="http://www.w3.org/2000/svg" xmlns="http://www.w3.org/2000/svg" xmlns:sodipodi="http://sodipodi.sourceforge.net/DTD/sodipodi-0.dtd" xmlns:inkscape="http://www.inkscape.org/namespaces/inkscape" width="16px" height="16px" id="svg3031" version="1.1" inkscape:version="0.48.3.1 r9886" sodipodi:docname="stylish.svg">
   <defs id="defs3033" />
   <sodipodi:namedview id="base" pagecolor="#ffffff" bordercolor="#666666" borderopacity="1.0" inkscape:pageopacity="0.0" inkscape:pageshadow="2" inkscape:zoom="22.627417" inkscape:cx="-0.3987869" inkscape:cy="9.8067352" inkscape:current-layer="layer1" showgrid="true" inkscape:grid-bbox="true" inkscape:document-units="px" inkscape:window-width="1366" inkscape:window-height="741" inkscape:window-x="0" inkscape:window-y="-2" inkscape:window-maximized="1">
      <inkscape:grid type="xygrid" id="grid3039" />
   </sodipodi:namedview>
   <metadata id="metadata3036">
      <rdf:RDF>
         <cc:Work rdf:about="">
            <dc:format>image/svg+xml</dc:format>
            <dc:type rdf:resource="http://purl.org/dc/dcmitype/StillImage" />
            <dc:title />
         </cc:Work>
      </rdf:RDF>
   </metadata>
   <g id="layer1" inkscape:label="Layer 1" inkscape:groupmode="layer">
      <path style="fill:#2e3436;fill-opacity:1;stroke:none" d="m 3.8532464,1.04003 c -0.996976,0 -1.793887,0.7970004 -1.793887,1.7940004 l 0,9.3933976 c 0,0.997 0.796911,1.794 1.793887,1.794 l 8.3497246,0 c 0.996976,0 1.793887,-0.797 1.793887,-1.794 l 0,-9.3933976 c 0,-0.997 -0.796911,-1.7940004 -1.793887,-1.7940004 z m 4.393613,1.6782004 c 0.236166,0 0.467853,0 0.71875,0.031 0.244129,0.03 0.465859,0.073 0.6875,0.125 0.256645,0.06 0.4786206,0.1479 0.6874986,0.2187 0.213632,0.073 0.491631,0.1726 0.75,0.2813 0.03494,0.014 0.06702,0.035 0.09375,0.062 0.03074,0.036 0.05243,0.079 0.0625,0.125 0.01128,0.064 5.5e-5,0.131 -0.03125,0.1876 l -0.65625,1.4374 c -0.05092,0.102 -0.167763,0.1669 -0.28125,0.1563 -0.03273,0 -0.06462,-0.015 -0.09375,-0.031 -0.195811,-0.082 -0.35951,-0.1248 -0.531249,-0.1874 -0.154541,-0.057 -0.332316,-0.1119 -0.5,-0.1563 -0.148169,-0.039 -0.317227,-0.075 -0.46875,-0.094 -0.137695,-0.021 -0.285264,-0.031 -0.4375,-0.031 -0.303047,0 -0.462788,0.071 -0.59375,0.1875 -0.138989,0.124 -0.218751,0.2519 -0.21875,0.4375 -1e-6,0.096 0.0238,0.1977 0.0625,0.2813 0.01727,0.033 0.08762,0.079 0.21875,0.1874 0.13891,0.1111 0.253526,0.2302 0.40625,0.3126 0.182411,0.096 0.437788,0.2105 0.71875,0.3437 0.336909,0.1603 0.643173,0.2939 0.9375,0.4687 0.292005,0.1696 0.527293,0.4039 0.749999,0.625 0.0056,0.01 0.02575,-0.01 0.03125,0 0.225352,0.2237 0.410595,0.4748 0.53125,0.75 0.130948,0.2991 0.187491,0.6328 0.1875,1 -9e-6,0.4229 -0.07564,0.8261986 -0.25,1.1875976 -0.16585,0.3493 -0.392092,0.6554 -0.71875,0.9062 -0.324128,0.2486 -0.757333,0.438 -1.187499,0.5625 -0.0093,0 -0.02194,0 -0.03125,0 -0.43298,0.1219 -0.915782,0.1875 -1.46875,0.1875 -0.488733,0 -0.973726,-0.034 -1.4375,-0.125 -0.46382,-0.092 -0.888844,-0.2542 -1.28125,-0.4375 -0.09219,-0.047 -0.154761,-0.1467 -0.15625,-0.25 l 0,-1.7186976 c 7.25e-4,-0.043 0.0115,-0.086 0.03125,-0.125 0.0143,-0.035 0.03569,-0.067 0.0625,-0.094 0.03559,-0.031 0.07898,-0.053 0.125,-0.063 0.06359,-0.011 0.130947,-2e-4 0.1875,0.031 0.218529,0.094 0.414546,0.1969 0.625,0.2812 l 0,-0.031 c 0.186225,0.071 0.411094,0.1131 0.65625,0.1874 0.234623,0.07 0.463335,0.1531996 0.65625,0.1875996 0.217145,0.038 0.389453,0.062 0.59375,0.062 0.213295,0 0.412391,-0.029 0.53125,-0.062 0.112545,-0.032 0.204057,-0.094 0.28125,-0.1562996 0.07917,-0.065 0.131714,-0.095 0.15625,-0.1563 -5.63e-4,-0.01 -5.63e-4,-0.021 0,-0.031 0.02771,-0.065 0.03125,-0.1334 0.03125,-0.25 -5e-6,-0.1479 -0.02009,-0.1849 -0.0625,-0.25 -0.05266,-0.088 -0.138156,-0.2283 -0.25,-0.3125 -0.01041,6e-4 -0.02084,6e-4 -0.03125,0 -0.121948,-0.098 -0.28754,-0.2191 -0.46875,-0.3125 -0.183165,-0.097 -0.406192,-0.195 -0.65625,-0.3125 -0.209827,-0.098 -0.428537,-0.2062 -0.6875,-0.3437 -0.266377,-0.1419 -0.560247,-0.3108 -0.8125,-0.5313 -0.254744,-0.2316 -0.434218,-0.5154 -0.59375,-0.8125 -0.180139,-0.34 -0.250001,-0.7261 -0.25,-1.1562 -1e-6,-0.4273 0.08673,-0.8372 0.25,-1.1876 0.165898,-0.3495 0.386897,-0.6384 0.6875,-0.875 0.287957,-0.2311 0.612488,-0.4395 1.03125,-0.5624 0.422504,-0.1228 0.914751,-0.1563 1.40625,-0.1563 z" id="path3118" inkscape:connector-curvature="0" sodipodi:nodetypes="sssssssssccccccccccccccscccccccccccccccsccccccccccccscccccccccccccsccccc" />
   </g>
</svg>
