<?xml version="1.0" encoding="UTF-8" standalone="no"?>
<svg xmlns:dc="http://purl.org/dc/elements/1.1/" xmlns:cc="http://creativecommons.org/ns#" xmlns:rdf="http://www.w3.org/1999/02/22-rdf-syntax-ns#" xmlns:svg="http://www.w3.org/2000/svg" xmlns="http://www.w3.org/2000/svg" xmlns:sodipodi="http://sodipodi.sourceforge.net/DTD/sodipodi-0.dtd" xmlns:inkscape="http://www.inkscape.org/namespaces/inkscape" sodipodi:docname="stylish-stopped.svg" height="16px" width="16px" version="1.1" inkscape:version="0.48+devel r" id="svg7656">
   <defs id="defs7668" />
   <sodipodi:namedview bordercolor="#666666" inkscape:pageshadow="2" inkscape:window-y="27" pagecolor="#ffffff" inkscape:window-height="712" inkscape:grid-bbox="true" inkscape:window-maximized="1" inkscape:zoom="1" inkscape:window-x="0" showgrid="false" borderopacity="1.0" inkscape:current-layer="g7664" inkscape:cx="7.359073" inkscape:cy="4.8029696" inkscape:window-width="1366" inkscape:pageopacity="0.0" inkscape:document-units="px" id="namedview7658" inkscape:object-nodes="true">
      <inkscape:grid type="xygrid" id="grid7660" />
   </sodipodi:namedview>
   <metadata id="metadata7662">
      <rdf:RDF>
         <cc:Work rdf:about="">
            <dc:format>image/svg+xml</dc:format>
            <dc:type rdf:resource="http://purl.org/dc/dcmitype/StillImage" />
            <dc:title></dc:title>
         </cc:Work>
      </rdf:RDF>
   </metadata>
   <g inkscape:label="Layer 1" inkscape:groupmode="layer" id="g7664">
      <path d="M 3.84375 1.03125 C 2.84677 1.03125 2.0625 1.84675 2.0625 2.84375 L 2.0625 12.21875 C 2.0625 13.21575 2.84676 14.03125 3.84375 14.03125 L 7.6875 14.03125 C 7.7410451 13.617732 7.9236042 13.273605 8.15625 13.03125 L 8.1875 13.03125 L 9.09375 12.09375 C 8.66077 12.21565 8.17802 12.28125 7.625 12.28125 C 7.13627 12.28125 6.65127 12.24725 6.1875 12.15625 C 5.72368 12.06425 5.29861 11.90205 4.90625 11.71875 C 4.81406 11.67175 4.75149 11.57205 4.75 11.46875 L 4.75 9.75 C 4.750725 9.707 4.7615 9.664 4.78125 9.625 C 4.79555 9.59 4.81694 9.55825 4.84375 9.53125 C 4.87934 9.50025 4.92273 9.47875 4.96875 9.46875 C 5.03234 9.45775 5.0997 9.4688 5.15625 9.5 C 5.37478 9.594 5.5708 9.69695 5.78125 9.78125 L 5.78125 9.75 C 5.96747 9.821 6.19234 9.8632 6.4375 9.9375 C 6.67212 10.0075 6.90084 10.0906 7.09375 10.125 C 7.31089 10.163 7.4832 10.1875 7.6875 10.1875 C 7.6619164 10.071449 7.65625 9.9403678 7.65625 9.8125 L 7.65625 9.09375 L 7.65625 8.5625 C 7.5163863 8.495463 7.3869974 8.4228073 7.21875 8.34375 C 7.00892 8.24575 6.79021 8.1375 6.53125 8 C 6.26487 7.8581 5.971 7.68925 5.71875 7.46875 C 5.46401 7.23715 5.28453 6.95335 5.125 6.65625 C 4.94486 6.31625 4.875 5.9301 4.875 5.5 C 4.874999 5.0727 4.96173 4.6629 5.125 4.3125 C 5.2909 3.963 5.5119 3.6741 5.8125 3.4375 C 6.10046 3.2064 6.42504 2.9979 6.84375 2.875 C 7.26625 2.7522 7.75855 2.71875 8.25 2.71875 C 8.48617 2.71875 8.71785 2.719 8.96875 2.75 C 9.21288 2.78 9.43461 2.823 9.65625 2.875 C 9.91289 2.935 10.13487 3.02295 10.34375 3.09375 C 10.55738 3.16675 10.83538 3.2663 11.09375 3.375 C 11.12869 3.389 11.16077 3.4105 11.1875 3.4375 C 11.21824 3.4735 11.23993 3.5165 11.25 3.5625 C 11.26128 3.6265 11.250055 3.6934 11.21875 3.75 L 10.5625 5.1875 C 10.51158 5.2895 10.39474 5.35435 10.28125 5.34375 C 10.24852 5.34375 10.21663 5.3285 10.1875 5.3125 C 9.99169 5.2305 9.82799 5.1876 9.65625 5.125 C 9.50171 5.068 9.32393 5.01315 9.15625 4.96875 C 9.00808 4.92975 8.83902 4.894 8.6875 4.875 C 8.5498 4.854 8.40224 4.84375 8.25 4.84375 C 7.94695 4.84375 7.78721 4.91475 7.65625 5.03125 C 7.51726 5.15525 7.4375 5.28315 7.4375 5.46875 C 7.437499 5.56475 7.4613 5.6664 7.5 5.75 C 7.51727 5.783 7.58762 5.8291 7.71875 5.9375 C 7.85766 6.0486 7.97228 6.1676 8.125 6.25 C 8.30741 6.346 8.56279 6.46055 8.84375 6.59375 C 9.18066 6.75405 9.48692 6.8877 9.78125 7.0625 C 10.07325 7.2321 10.30854 7.4664 10.53125 7.6875 C 10.53685 7.6975 10.557 7.6775 10.5625 7.6875 C 10.78785 7.9112 10.9731 8.1623 11.09375 8.4375 C 11.193862 8.6661635 11.228879 8.9188828 11.25 9.1875 L 11.84375 9.78125 L 13 8.625 L 13 8.59375 C 13.257839 8.3446612 13.618904 8.1809194 14 8.125 L 14 2.84375 C 14 1.84675 13.18449 1.03125 12.1875 1.03125 L 3.84375 1.03125 z " id="path7666" />
      <path style="font-size:xx-small;font-style:normal;font-variant:normal;font-weight:normal;font-stretch:normal;text-indent:0;text-align:start;text-decoration:none;line-height:normal;letter-spacing:normal;word-spacing:normal;text-transform:none;direction:ltr;block-progression:tb;writing-mode:lr-tb;text-anchor:start;color:#bebebe;fill:#ef2929;fill-opacity:1;stroke:none;stroke-width:2;marker:none;visibility:visible;display:inline;overflow:visible;enable-background:accumulate;font-family:Bitstream Vera Sans;-inkscape-font-specification:Bitstream Vera Sans" d="m 8.6633184,9.0876506 0,0.7355097 c 0,0.1895497 0.09153,0.3687797 0.22631,0.5091997 l 1.6690366,1.69732 -1.6690366,1.69733 c -0.134785,0.14041 -0.22631,0.31965 -0.22631,0.50919 l 0,0.73551 0.735508,0 c 0.228331,0 0.391626,-0.0571 0.537486,-0.19802 l 1.8670576,-1.89535 1.895347,1.92364 C 13.844577,14.94288 14.036161,15 14.264492,15 L 15,15 15,14.26449 c 0,-0.18955 -0.09152,-0.39707 -0.22631,-0.53748 L 13.076364,12.05797 14.77369,10.36064 C 14.908475,10.22023 15,10.01271 15,9.8231603 l 0,-0.7355097 -0.735508,0 c -0.228331,0 -0.419915,0.0854 -0.565775,0.22631 L 11.831659,11.20931 9.9363124,9.2856706 c -0.14586,-0.1409 -0.309155,-0.19802 -0.537486,-0.19802 L 8.6633184,9.0876506 Z" id="path7591" inkscape:connector-curvature="0" />
   </g>
</svg>
