<?xml version="1.0" encoding="UTF-8" standalone="no"?>
<!-- Created with Inkscape (http://www.inkscape.org/) -->

<svg
   xmlns:dc="http://purl.org/dc/elements/1.1/"
   xmlns:cc="http://creativecommons.org/ns#"
   xmlns:rdf="http://www.w3.org/1999/02/22-rdf-syntax-ns#"
   xmlns:svg="http://www.w3.org/2000/svg"
   xmlns="http://www.w3.org/2000/svg"
   xmlns:sodipodi="http://sodipodi.sourceforge.net/DTD/sodipodi-0.dtd"
   xmlns:inkscape="http://www.inkscape.org/namespaces/inkscape"
   width="16px"
   height="16px"
   id="svg3031"
   version="1.1"
   inkscape:version="0.48.3.1 r9886"
   sodipodi:docname="New document 4">
  <defs
     id="defs3033" />
  <sodipodi:namedview
     id="base"
     pagecolor="#ffffff"
     bordercolor="#666666"
     borderopacity="1.0"
     inkscape:pageopacity="0.0"
     inkscape:pageshadow="2"
     inkscape:zoom="22.627417"
     inkscape:cx="-0.3987869"
     inkscape:cy="9.8067352"
     inkscape:current-layer="layer1"
     showgrid="true"
     inkscape:grid-bbox="true"
     inkscape:document-units="px"
     inkscape:window-width="1366"
     inkscape:window-height="712"
     inkscape:window-x="0"
     inkscape:window-y="27"
     inkscape:window-maximized="1">
    <inkscape:grid
       type="xygrid"
       id="grid3039" />
  </sodipodi:namedview>
  <metadata
     id="metadata3036">
    <rdf:RDF>
      <cc:Work
         rdf:about="">
        <dc:format>image/svg+xml</dc:format>
        <dc:type
           rdf:resource="http://purl.org/dc/dcmitype/StillImage" />
        <dc:title></dc:title>
      </cc:Work>
    </rdf:RDF>
  </metadata>
  <g
     id="layer1"
     inkscape:label="Layer 1"
     inkscape:groupmode="layer">
    <path
       style="fill:#4d4d4d;fill-opacity:1;stroke:none"
       d="m 3.9999999,1.0040563 c -1.10801,0 -2.0000001,0.8919999 -2.0000001,2 l 0,8.9999997 c 0,1.108 0.8919901,2 2.0000001,2 l 8.0000001,0 c 1.10801,0 2,-0.892 2,-2 l 0,-8.9999998 c 0,-1.108 -0.89199,-2 -2,-2 z m 4.1875001,2.2188 c 0.200983,0 0.4041358,0 0.59375,0.031 0.193398,0.027 0.376678,0.076 0.5625,0.125 0.1896059,0.049 0.372885,0.1155 0.5625,0.1875 0.189605,0.072 0.392758,0.1552 0.59375,0.25 L 9.9375,5.1913562 c -0.1706542,-0.08 -0.3208591,-0.1581 -0.46875,-0.2187 -0.1479,-0.061 -0.2971931,-0.1146 -0.4375,-0.1563 -0.1403161,-0.042 -0.3009852,-0.075 -0.4375,-0.094 -0.132731,-0.023 -0.269734,-0.031 -0.40625,-0.031 -0.2957952,0 -0.4969802,0.091 -0.6562502,0.25 -0.155483,0.1555 -0.250002,0.3633 -0.25,0.625 -2e-6,0.1403 0.01699,0.265 0.0625,0.375 0.0493,0.1062001 0.147608,0.1865 0.25,0.2813 0.106179,0.095 0.243182,0.2139 0.40625,0.3125 0.1668541,0.099 0.3586301,0.2186001 0.5937502,0.3437 0.284411,0.1517 0.5423369,0.2782 0.78125,0.4375 0.2389039,0.1555 0.4543458,0.3379001 0.625,0.5313 0.174436,0.1896001 0.31144,0.4135 0.40625,0.6562001 0.0948,0.2426999 0.124994,0.5176 0.125,0.8438 -6e-6,0.3716 -0.05857,0.7003997 -0.1875,0.9999997 -0.125148,0.2957 -0.316012,0.5688 -0.5625,0.7812 -0.2427061,0.2086 -0.5497871,0.355 -0.90625,0.4688 -0.3526791,0.1137 -0.7598971,0.1875 -1.2187502,0.1875 -0.401976,0 -0.780824,-0.042 -1.15625,-0.125 -0.371637,-0.083 -0.712706,-0.2082 -1.03125,-0.375 l 0,-1.6562997 c 0.1820251,0.087 0.376681,0.1978 0.5625,0.2813 0.185817,0.08 0.372888,0.1229997 0.5625,0.1874997 0.193401,0.064 0.372888,0.1183 0.5625,0.1562 0.1934,0.038 0.3728871,0.063 0.5625,0.063 0.1933991,0 0.3634771,-0.021 0.5000002,-0.063 0.1403078,-0.045 0.2603179,-0.1117 0.34375,-0.1875 0.08722,-0.08 0.1495739,-0.1750997 0.1875,-0.2811997 0.04171,-0.11 0.0625,-0.2149 0.0625,-0.3438 -4.1e-6,-0.1555 -0.02549,-0.2887 -0.09375,-0.4062 -0.06447,-0.1214 -0.159903,-0.2414 -0.28125,-0.3438 -0.117562,-0.1062 -0.2668541,-0.2139 -0.4375002,-0.3125 -0.16686,-0.099 -0.353932,-0.2025 -0.5625,-0.3125 -0.174444,-0.091 -0.3775959,-0.1836001 -0.59375,-0.3125001 -0.216157,-0.1288999 -0.431599,-0.3104 -0.625,-0.5 -0.189611,-0.1934 -0.339816,-0.4181999 -0.46875,-0.6875 -0.128936,-0.2729999 -0.187501,-0.5895 -0.1875,-0.9687 -1e-6,-0.3717 0.06615,-0.708 0.1875,-1 0.1251421,-0.2958 0.303717,-0.5491 0.53125,-0.7499999 0.227531,-0.2048 0.490161,-0.3626 0.8125,-0.4688 0.326127,-0.1062001 0.6917731,-0.1562 1.0937502,-0.1562 z"
       id="path3016"
       inkscape:connector-curvature="0"
       sodipodi:nodetypes="ssssssssscccccccccccccccccccccccsccccccccccccccccccscccc" />
  </g>
</svg>
