<?xml version="1.0"?>
<svg width="16" height="16" xmlns="http://www.w3.org/2000/svg">
 <metadata id="metadata90">image/svg+xmlGnome Symbolic Icon Theme</metadata>
 <title>Gnome Symbolic Icon Theme</title>

 <g>
  <title>Gnome Symbolic Icon Theme</title>
  <path fill="#2e3436" id="path44084" d="m12.300674,2.001343c-0.771301,0.043091 -1.333122,0.684631 -1.816116,1.222229c-0.466728,0.601868 -0.942505,1.259155 -1.073868,2.025574c-0.000648,0.229065 0.284119,0.340332 0.408424,0.518433c0.470779,0.423462 0.955544,1.067566 0.65625,1.726379c-0.421745,0.837036 -1.218025,1.392212 -1.832466,2.078857c-0.497658,0.499451 -1.134758,1.178772 -1.911797,0.890808c-0.576309,-0.218811 -0.915482,-0.750488 -1.364807,-1.112854c-0.621681,0.048096 -1.170166,0.434021 -1.690216,0.752686c-0.666451,0.483276 -1.35672,1.076965 -1.59848,1.893188c-0.142136,0.649719 0.540253,0.998535 0.96225,1.340515c1.054214,0.763672 2.470375,0.864624 3.675217,0.427368c1.940483,-0.689209 3.504204,-2.123474 4.881287,-3.60907c1.176987,-1.338562 2.300858,-2.90802 2.451729,-4.739746c0.103348,-1.288147 -0.553116,-2.565308 -1.545692,-3.35675l-0.099808,-0.039368l-0.101898,-0.018188l-0.000008,-0.000061z"/>
 </g>
</svg>
