<?xml version="1.0" encoding="UTF-8" standalone="no"?>
<svg xmlns:inkscape="http://www.inkscape.org/namespaces/inkscape" xmlns:rdf="http://www.w3.org/1999/02/22-rdf-syntax-ns#" xmlns="http://www.w3.org/2000/svg" sodipodi:docname="document-save-as-symbolic.svg" height="16" width="16" version="1.1" xmlns:cc="http://creativecommons.org/ns#" xmlns:sodipodi="http://sodipodi.sourceforge.net/DTD/sodipodi-0.dtd" inkscape:version="0.48.1 r9760" xmlns:dc="http://purl.org/dc/elements/1.1/">
<metadata>
<rdf:RDF>
<cc:Work rdf:about="">
<dc:format>image/svg+xml</dc:format>
<dc:type rdf:resource="http://purl.org/dc/dcmitype/StillImage"/>
<dc:title>Gnome Symbolic Icon Theme</dc:title>
</cc:Work>
</rdf:RDF>
</metadata>
<sodipodi:namedview inkscape:zoom="32" borderopacity="1" inkscape:current-layer="layer12" inkscape:cx="10.86986" inkscape:window-y="354" inkscape:snap-grids="true" inkscape:snap-bbox-midpoints="false" inkscape:object-paths="false" inkscape:window-maximized="0" inkscape:snap-bbox="true" showgrid="false" inkscape:snap-nodes="true" inkscape:snap-global="true" showguides="true" bordercolor="#666666" inkscape:window-x="2571" inkscape:guide-bbox="true" objecttolerance="10" inkscape:object-nodes="false" inkscape:snap-others="false" inkscape:window-width="1226" inkscape:pageopacity="1" inkscape:snap-to-guides="true" inkscape:pageshadow="2" guidetolerance="10" pagecolor="#555753" gridtolerance="10" inkscape:bbox-paths="false" inkscape:cy="11.18857" inkscape:window-height="967" showborder="false">
<inkscape:grid visible="true" enabled="true" spacingy="1px" spacingx="1px" snapvisiblegridlinesonly="true" type="xygrid" empspacing="2"/>
</sodipodi:namedview>
<title>Gnome Symbolic Icon Theme</title>
<g inkscape:label="actions" transform="translate(-101 -647)" inkscape:groupmode="layer" fill="#2e3436">
<path style="block-progression:tb;color:#000000;text-transform:none;text-indent:0" d="m105 652v1c0.00001 0.2653 0.0931 0.53058 0.28125 0.71875l3 3 0.28125 0.28125h0.875l0.28125-0.28125 3-3c0.18819-0.18817 0.28124-0.45345 0.28125-0.71875v-1h-1c-0.2653 0.00001-0.53059 0.0931-0.71875 0.28125l-2.2812 2.2812-2.2812-2.2812c-0.19-0.19-0.45-0.28-0.72-0.28h-1z" inkscape:connector-curvature="0"/>
<path style="block-progression:tb;color:#000000;text-transform:none;text-indent:0" d="m108 650v5h2v-5h-2z" inkscape:connector-curvature="0"/>
<path sodipodi:nodetypes="ccccccsccccsccccccc" style="color:#000000" inkscape:connector-curvature="0" d="m104 658v4h10v-4zm3.3438 1.4375c0.0208-0.001 0.0417-0.001 0.0625 0 0.29096-0.0556 0.59898 0.20383 0.59375 0.5v0.0625h2v-0.0625c-0.004-0.26416 0.23582-0.50712 0.5-0.50712s0.50373 0.24296 0.5 0.50712v0.0625c0 0.54535-0.45465 1-1 1h-2c-0.54535 0-1-0.45465-1-1v-0.0625c-0.0108-0.21706 0.13723-0.43234 0.34375-0.5z" fill-rule="evenodd"/>
<path style="block-progression:tb;color:#2e3436;text-transform:none;text-indent:0" d="m104 647c-0.54535 0-1 0.45465-1 1v2c0 0.54535 0.45465 1 1 1h10c0.54535 0 1-0.45465 1-1v-2c0-0.54535-0.45465-1-1-1h-10zm0 1h10v2h-10v-2z" inkscape:connector-curvature="0"/>
<path style="block-progression:tb;color:#2e3436;text-transform:none;text-indent:0" d="m105.41 656a0.50005 0.50005 0 0 0 -0.3125 0.21875l-1 1.5a0.50005 0.50005 0 1 0 0.8125 0.5625l1-1.5a0.50005 0.50005 0 0 0 -0.5 -0.78125zm7 0a0.50005 0.50005 0 0 0 -0.3125 0.78125l1 1.5a0.50005 0.50005 0 1 0 0.8125 -0.5625l-1-1.5a0.50005 0.50005 0 0 0 -0.5 -0.21875z" inkscape:connector-curvature="0"/>
</g>
</svg>
