<?xml version="1.0" encoding="UTF-8" standalone="no"?>
<svg xmlns:rdf="http://www.w3.org/1999/02/22-rdf-syntax-ns#" xmlns="http://www.w3.org/2000/svg" height="16" width="16" version="1.1" xmlns:cc="http://creativecommons.org/ns#" xmlns:dc="http://purl.org/dc/elements/1.1/">
<title>Gnome Symbolic Icon Theme</title>
<metadata>
<rdf:RDF>
<cc:Work rdf:about="">
<dc:format>image/svg+xml</dc:format>
<dc:type rdf:resource="http://purl.org/dc/dcmitype/StillImage"/>
<dc:title>Gnome Symbolic Icon Theme</dc:title>
</cc:Work>
</rdf:RDF>
</metadata>
<g transform="translate(-228 -997)">
<rect style="color:#2e3436" height="16" width="16" y="996" x="228" fill="none"/>
</g>
<g transform="translate(-208 -997)">
<path d="m210 999c-1.001 0-0.94915 0.71087-0.94915 1v10c0 0.9765 0.4641 1 1 1h11.949c0.53589 0 1-0.074 1-1v-5c0-1-0.41426-1-1-1h-10v4c0 0.277 0.0508 1-0.44915 1-0.5 0-0.5-0.723-0.5-1l-0.0508-4c0-1 0.44334-1 1-1h9v-1c0-0.5984 0-1-1-1h-6v-1c0-0.28915-0.0244-1-1-1z" fill="#2e3436"/>
<rect style="color:#2e3436" height="16" width="16" y="996" x="208" fill="none"/>
<rect rx="0" ry="0" height="1" width="5" y="1006" x="216" fill="#fff"/>
<rect rx="0" ry="0" height="1" width="5" y="1008" x="216" fill="#fff"/>
<rect rx="0" ry="0" height="1" width="1" y="1006" x="213" fill="#fff"/>
<rect rx="0" ry="0" height="1" width="1" y="1008" x="213" fill="#fff"/>
</g>
</svg>
