<?xml version="1.0" encoding="UTF-8" standalone="no"?>
<svg xmlns:inkscape="http://www.inkscape.org/namespaces/inkscape" xmlns:rdf="http://www.w3.org/1999/02/22-rdf-syntax-ns#" xmlns="http://www.w3.org/2000/svg" sodipodi:docname="mail-unread-symbolic.svg" height="16" width="16" version="1.1" xmlns:cc="http://creativecommons.org/ns#" xmlns:sodipodi="http://sodipodi.sourceforge.net/DTD/sodipodi-0.dtd" inkscape:version="0.47 r22583" xmlns:dc="http://purl.org/dc/elements/1.1/">
<metadata>
<rdf:RDF>
<cc:Work rdf:about="">
<dc:format>image/svg+xml</dc:format>
<dc:type rdf:resource="http://purl.org/dc/dcmitype/StillImage"/>
<dc:title>Gnome Symbolic Icon Theme</dc:title>
</cc:Work>
</rdf:RDF>
</metadata>
<sodipodi:namedview inkscape:zoom="1" borderopacity="1" inkscape:current-layer="layer9" inkscape:cx="315.82499" inkscape:window-y="25" inkscape:snap-grids="true" inkscape:window-maximized="0" inkscape:snap-bbox="true" showgrid="false" inkscape:snap-nodes="true" inkscape:guide-bbox="true" inkscape:snap-global="true" showguides="true" bordercolor="#666666" inkscape:window-x="54" guidetolerance="10" objecttolerance="10" inkscape:object-nodes="true" inkscape:window-width="1310" inkscape:pageopacity="1" inkscape:cy="-166.8292" inkscape:pageshadow="2" pagecolor="#555753" gridtolerance="10" inkscape:bbox-paths="false" inkscape:snap-to-guides="true" inkscape:window-height="690" showborder="false">
<inkscape:grid spacingx="1px" enabled="true" spacingy="1px" visible="true" snapvisiblegridlinesonly="true" type="xygrid" empspacing="2"/>
</sodipodi:namedview>
<title>Gnome Symbolic Icon Theme</title>
<g inkscape:label="status" transform="translate(-41 -297)" inkscape:groupmode="layer" fill="#2e3436">
<path style="block-progression:tb;color:#000000;text-transform:none;text-indent:0" d="m43.781 301a1.0001 1.0001 0 0 0 -0.40625 1.7812l5 4 0.625 0.5 0.625-0.5 5-4a1.0005 1.0005 0 1 0 -1.25 -1.5625l-4.375 3.5-4.375-3.5a1.0001 1.0001 0 0 0 -0.844 -0.22z"/>
<path style="block-progression:tb;color:#000000;text-transform:none;text-indent:0" d="m42.906 300a1.0001 1.0001 0 0 0 -0.906 1v9a1.0001 1.0001 0 0 0 1 1h12a1.0001 1.0001 0 0 0 1 -1v-9a1.0001 1.0001 0 0 0 -1 -1h-12a1.0001 1.0001 0 0 0 -0.09375 0zm1.094 2h10v7h-10v-7z"/>
</g>
</svg>
