<?xml version="1.0" encoding="UTF-8" standalone="no"?>
<svg xmlns:dc="http://purl.org/dc/elements/1.1/" xmlns:cc="http://creativecommons.org/ns#" xmlns:rdf="http://www.w3.org/1999/02/22-rdf-syntax-ns#" xmlns:svg="http://www.w3.org/2000/svg" xmlns="http://www.w3.org/2000/svg" xmlns:sodipodi="http://sodipodi.sourceforge.net/DTD/sodipodi-0.dtd" xmlns:inkscape="http://www.inkscape.org/namespaces/inkscape" inkscape:version="0.48.4 r9939" height="16" width="16" version="1.1" sodipodi:docname="bookmarks.svg" id="svg7361">
   <defs id="defs7375" />
   <metadata id="metadata7363">
      <rdf:RDF>
         <cc:Work rdf:about="">
            <dc:format>image/svg+xml</dc:format>
            <dc:type rdf:resource="http://purl.org/dc/dcmitype/StillImage" />
            <dc:title>Gnome Symbolic Icon Theme</dc:title>
         </cc:Work>
      </rdf:RDF>
   </metadata>
   <sodipodi:namedview inkscape:zoom="16" borderopacity="1" inkscape:current-layer="g7371" inkscape:cx="15.187979" guidetolerance="10" inkscape:snap-grids="true" inkscape:window-maximized="0" inkscape:snap-bbox="true" showgrid="true" inkscape:snap-nodes="false" inkscape:snap-global="true" showguides="true" bordercolor="#666666" inkscape:window-x="52" inkscape:guide-bbox="true" objecttolerance="10" inkscape:object-nodes="true" inkscape:window-y="27" inkscape:window-width="1310" inkscape:pageopacity="1" inkscape:snap-to-guides="true" inkscape:pageshadow="2" pagecolor="#555753" gridtolerance="10" inkscape:bbox-paths="false" inkscape:cy="8.0246122" inkscape:window-height="690" showborder="true" id="namedview7365" inkscape:showpageshadow="false">
      <inkscape:grid visible="true" enabled="true" spacingy="1px" spacingx="1px" snapvisiblegridlinesonly="true" type="xygrid" empspacing="2" id="grid7367" />
   </sodipodi:namedview>
   <title id="title7369">Gnome Symbolic Icon Theme</title>
   <g inkscape:label="places" transform="translate(-522,-176)" inkscape:groupmode="layer" id="g7371">
      <path style="fill:#2e3436;fill-opacity:1;stroke:none" d="m 523,181 c 0,2 0,6 4,6 2,0 2.9915,-0.9994 3,-1 0.009,6e-4 1,1 3,1 4,0 4,-4 4,-6 -1,1 -2,1 -4,1 -2,0 -3,1 -3,1 0,0 -1,-1 -3,-1 -2,0 -3,0 -4,-1 z m 3.59375,2.5313 c 0.2233,-0.015 0.46162,-0.023 0.71875,0 0.67298,0.061 0.8125,0.5514 1.6875,1.0312 -1,0.4516 -1.03796,0.5938 -2,0.5938 -0.96204,0 -1,-0.7047 -2,-1.1563 0.40038,-0.2192 0.92384,-0.4223 1.59375,-0.4687 z m 6.09375,0 c 1.02853,-0.093 1.77867,0.1764 2.3125,0.4687 -1,0.4516 -1.03796,1.1563 -2,1.1563 -0.96204,0 -1,-0.1422 -2,-0.5938 0.875,-0.4798 1.01452,-0.9705 1.6875,-1.0312 z" id="path7204" inkscape:connector-curvature="0" sodipodi:nodetypes="cscscscscsccscsscscs" />
   </g>
</svg>
