<?xml version="1.0" encoding="UTF-8" standalone="no"?>
<!-- Created with Inkscape (http://www.inkscape.org/) -->

<svg xmlns:dc="http://purl.org/dc/elements/1.1/" xmlns:cc="http://creativecommons.org/ns#" xmlns:rdf="http://www.w3.org/1999/02/22-rdf-syntax-ns#" xmlns:svg="http://www.w3.org/2000/svg" xmlns="http://www.w3.org/2000/svg" xmlns:sodipodi="http://sodipodi.sourceforge.net/DTD/sodipodi-0.dtd" xmlns:inkscape="http://www.inkscape.org/namespaces/inkscape" id="svg7384" version="1.1" height="16" width="16" inkscape:version="0.48.3.1 r9886" sodipodi:docname="Download.svg">
   <sodipodi:namedview pagecolor="#ffffff" bordercolor="#666666" borderopacity="1" objecttolerance="10" gridtolerance="10" guidetolerance="10" inkscape:pageopacity="0" inkscape:pageshadow="2" inkscape:window-width="682" inkscape:window-height="719" id="namedview10663" showgrid="false" inkscape:zoom="14.75" inkscape:cx="6.6779661" inkscape:cy="6.9152542" inkscape:window-x="0" inkscape:window-y="23" inkscape:window-maximized="0" inkscape:current-layer="svg7384" />
   <title id="title9167">Gnome Symbolic Icon Theme</title>
   <metadata id="metadata90">
      <rdf:RDF>
         <cc:Work rdf:about="">
            <dc:format>image/svg+xml</dc:format>
            <dc:type rdf:resource="http://purl.org/dc/dcmitype/StillImage" />
            <dc:title>Gnome Symbolic Icon Theme</dc:title>
         </cc:Work>
      </rdf:RDF>
   </metadata>
   <defs id="defs7386" />
   <g transform="translate(-260,-518)" id="layer9" style="display:inline" />
   <g transform="translate(-260,-518)" id="layer10" />
   <g transform="translate(-260,-518)" id="layer11" />
   <g transform="translate(-260,-518)" id="layer13" />
   <g transform="translate(-260,-518)" id="layer14" />
   <g transform="translate(-260,-518)" id="layer15" />
   <g style="display:inline" transform="translate(-227.9998,-996)" inkscape:label="non-starred" id="g5514">
      <g id="g5516" inkscape:label="folder-remote">
         <rect style="color:#bebebe;fill:none;stroke:none;stroke-width:2;marker:none;visibility:visible;display:inline;overflow:visible;enable-background:accumulate" id="rect5518" width="16" height="16" x="227.9998" y="996" />
      </g>
   </g>
   <g style="display:inline" id="g4561" transform="translate(-160,-538)" inkscape:label="document-save">
      <path style="color:#bebebe;fill:none;stroke:#4d4d4d;stroke-width:1;stroke-linecap:round;stroke-linejoin:round;stroke-miterlimit:4;stroke-opacity:1;stroke-dashoffset:0;marker:none;visibility:visible;display:inline;overflow:visible;enable-background:accumulate" d="m 163.5,549 1,-1.5 m 7,0 1,1.5" id="rect4390-9" inkscape:connector-curvature="0" sodipodi:nodetypes="cccc" />
      <rect transform="matrix(0,1,1,0,0,0)" style="color:#bebebe;fill:none;stroke:none;stroke-width:1;marker:none;visibility:visible;display:inline;overflow:visible;enable-background:new" id="rect10837-5-8-4-4-4-1" y="160" x="538" height="16" width="16" />
      <g id="g4555">
         <path style="font-size:medium;font-style:normal;font-variant:normal;font-weight:normal;font-stretch:normal;text-indent:0;text-align:start;text-decoration:none;line-height:normal;letter-spacing:normal;word-spacing:normal;text-transform:none;direction:ltr;block-progression:tb;writing-mode:lr-tb;text-anchor:start;color:black;fill:#4d4d4d;fill-opacity:1;stroke:none;stroke-width:2;marker:none;visibility:visible;display:inline;overflow:visible;enable-background:accumulate;font-family:Bitstream Vera Sans;-inkscape-font-specification:Bitstream Vera Sans" d="m 167,539 0,5.5625 -1.28125,-1.28125 C 165.53059,543.0931 165.2653,543.00001 165,543 l -1,0 0,1 c 1e-5,0.2653 0.0931,0.53058 0.28125,0.71875 l 3,3 0.28125,0.28125 0.875,0 0.28125,-0.28125 3,-3 C 171.90694,544.53058 171.99999,544.2653 172,544 l 0,-1 -1,0 c -0.2653,10e-6 -0.53059,0.0931 -0.71875,0.28125 L 169,544.5625 169,539 z" id="path3613" inkscape:connector-curvature="0" sodipodi:nodetypes="ccccccccccccccccccc" />
         <path style="color:black;fill:#4d4d4d;fill-opacity:1;fill-rule:evenodd;stroke:none;stroke-width:1;marker:none;visibility:visible;display:inline;overflow:visible;enable-background:accumulate" d="m 163,549 0,4 10,0 0,-4 z m 3.34375,1.4375 c 0.0208,-10e-4 0.0417,-10e-4 0.0625,0 0.29096,-0.0556 0.59898,0.20383 0.59375,0.5 l 0,0.0625 2,0 0,-0.0625 c -0.004,-0.26416 0.23582,-0.50712 0.5,-0.50712 0.26418,0 0.50373,0.24296 0.5,0.50712 L 170,551 c 0,0.54535 -0.45465,1 -1,1 l -2,0 c -0.54535,0 -1,-0.45465 -1,-1 l 0,-0.0625 c -0.0108,-0.21706 0.13723,-0.43234 0.34375,-0.5 z" id="rect11668-7-5" sodipodi:nodetypes="ccccccsccccsccccccc" inkscape:connector-curvature="0" />
      </g>
   </g>
</svg>
