<?xml version="1.0" encoding="UTF-8" standalone="no"?>
<!-- Created with Inkscape (http://www.inkscape.org/) -->

<svg xmlns:dc="http://purl.org/dc/elements/1.1/" xmlns:cc="http://creativecommons.org/ns#" xmlns:rdf="http://www.w3.org/1999/02/22-rdf-syntax-ns#" xmlns:svg="http://www.w3.org/2000/svg" xmlns="http://www.w3.org/2000/svg" xmlns:sodipodi="http://sodipodi.sourceforge.net/DTD/sodipodi-0.dtd" xmlns:inkscape="http://www.inkscape.org/namespaces/inkscape" width="16" height="16" id="svg2" version="1.1" inkscape:version="0.48.3.1 r9886" sodipodi:docname="GNOME Firefox Symbolic Iconssvg.svg">
   <defs id="defs4" />
   <sodipodi:namedview id="base" pagecolor="#454545" bordercolor="#666666" borderopacity="1.0" inkscape:pageopacity="1" inkscape:pageshadow="2" inkscape:zoom="5.6568542" inkscape:cx="-41.439116" inkscape:cy="-4.481096" inkscape:document-units="px" inkscape:current-layer="layer1" showgrid="true" showborder="true" inkscape:showpageshadow="false" inkscape:snap-global="true" inkscape:window-width="1366" inkscape:window-height="741" inkscape:window-x="0" inkscape:window-y="-2" inkscape:window-maximized="1" showguides="false" inkscape:guide-bbox="true">
      <inkscape:grid type="xygrid" id="grid2985" empspacing="5" visible="true" enabled="true" snapvisiblegridlinesonly="true" />
      <sodipodi:guide orientation="0,1" position="21,15" id="guide3003" />
      <sodipodi:guide orientation="0,1" position="8,2" id="guide3005" />
   </sodipodi:namedview>
   <metadata id="metadata7">
      <rdf:RDF>
         <cc:Work rdf:about="">
            <dc:format>image/svg+xml</dc:format>
            <dc:type rdf:resource="http://purl.org/dc/dcmitype/StillImage" />
            <dc:title />
         </cc:Work>
      </rdf:RDF>
   </metadata>
   <g inkscape:label="Layer 1" inkscape:groupmode="layer" id="layer1" transform="translate(0,-1036.3622)">
      <g id="g5781" transform="translate(-2,784)">
         <path sodipodi:nodetypes="sscccsssssssccssscccsccc" inkscape:connector-curvature="0" id="path5648" d="m -167,253.375 c -5.9221,0 -5.26301,6.1979 -6,10 -0.44805,2.31149 -1,3 -1,3 2,-1.01282 4,-1.01282 7,-1.01282 5,2 7,0 7,0 0,0 -1,0.0128 -1,-1.98718 0,-3.36573 -0.3125,-10 -6,-10 z m 1.75,2.98718 c 0.60048,-0.0657 1.15997,0.55148 1.25,1.375 0.09,0.82352 -0.33702,1.5281 -0.9375,1.59375 -0.60048,0.0657 -1.15997,-0.55148 -1.25,-1.375 -0.09,-0.82352 0.33702,-1.5281 0.9375,-1.59375 z m -3.89062,-0.0157 c 0.0817,-0.004 0.16761,0.0142 0.25,0.0313 0.65916,0.13627 1.04272,0.87623 0.875,1.6875 -0.16772,0.81127 -0.84084,1.38627 -1.5,1.25 -0.65916,-0.13627 -1.04272,-0.90748 -0.875,-1.71875 0.14675,-0.70986 0.67782,-1.22546 1.25,-1.25 z m -1.45313,3.99724 c 0,0 6.35696,0.0313 6.8125,0.0313 -0.16133,0.6021 -1.01683,2.96875 -3.46875,2.96875 -2.45192,0 -3.34375,-2.99999 -3.34375,-3 z" style="fill:white;stroke:none" />
      </g>
      <path style="fill:white;fill-opacity:1;stroke:none" d="m -143.96875,1037.4062 c -0.51124,0 -1.01451,0.2021 -1.40625,0.5938 l -4.96875,4.9375 c -0.78347,0.7835 -0.78347,2.0603 0,2.8437 l 4.625,4.5938 3.5,0 4.625,-4.5938 c 0.78347,-0.7834 0.78347,-2.0602 0,-2.8437 L -142.5625,1038 c -0.39174,-0.3917 -0.89501,-0.5938 -1.40625,-0.5938 z m -1.125,2.2813 1.4375,1.4375 -4.4375,4.4375 -1.4375,-1.4375 4.4375,-4.4375 z m 0.25,3.875 1.4375,1.4375 -2.625,2.625 -1.4375,-1.4375 2.625,-2.625 z m 0.90625,3.2812 1.4375,1.4375 -1.4375,1.4375 -1.4375,-1.4375 1.4375,-1.4375 z" id="rect5793" inkscape:connector-curvature="0" />
      <path style="fill:white;fill-opacity:1;stroke:none" d="m -120,1047.3622 c -2.20914,0 -4,0.8008 -4,1.7886 0,0.4867 0.44841,0.9158 1.15385,1.2382 l 5.30769,0 c 0.12719,0 0.24023,0.01 0.35897,0.017 0.72386,-0.3236 1.17949,-0.7615 1.17949,-1.2554 0,-0.9878 -1.79086,-1.7886 -4,-1.7886 z" id="path5839" inkscape:connector-curvature="0" />
      <path style="fill:none;stroke:#fefefe;stroke-width:1.5;stroke-linecap:round;stroke-linejoin:round;stroke-opacity:1" d="m -122,1048.3622 -2,-7 4,-3" id="path5844" inkscape:connector-curvature="0" sodipodi:nodetypes="ccc" />
      <path sodipodi:type="arc" style="fill:none;stroke:white;stroke-width:1;stroke-linecap:round;stroke-linejoin:round;stroke-miterlimit:3.29999995;stroke-opacity:1;stroke-dasharray:none;stroke-dashoffset:0" id="path5860" sodipodi:cx="-123.375" sodipodi:cy="273.64343" sodipodi:rx="3.90625" sodipodi:ry="1.90625" d="m -119.46875,273.64343 a 3.90625,1.90625 0 1 1 -7.8125,0 3.90625,1.90625 0 1 1 7.8125,0 z" transform="matrix(0.8660254,-0.5,0.5,0.8660254,-147.77394,742.51042)" />
      <path style="fill:white;stroke:none" d="m -119.41716,1038.3758 c -2.12242,1.2254 -3.20569,3.3226 -2.41097,4.6991 0.25953,0.4495 0.69197,0.7525 1.22327,0.9312 -0.058,-0.053 -0.12632,-0.094 -0.16535,-0.1614 -0.46839,-0.8112 -0.0816,-2.5609 2.25357,-3.9092 2.33517,-1.3482 4.04386,-0.8083 4.51225,0 0.039,0.068 0.0398,0.147 0.0571,0.2239 0.11082,-0.5495 0.0647,-1.0754 -0.19486,-1.525 -0.79472,-1.3765 -3.15259,-1.4869 -5.27501,-0.2615 z" id="path5862" inkscape:connector-curvature="0" sodipodi:nodetypes="sscszscss" />
      <rect style="fill:white;fill-opacity:1;stroke:none" id="rect5873" width="2.1611516" height="2.1245401" x="-623.68658" y="838.08582" rx="0.70201904" ry="0.70201904" transform="matrix(0.8660254,-0.5,0.5,0.8660254,0,0)" />
      <path style="fill:white;fill-opacity:1;stroke:none" d="m -176,1063.3622 c -0.554,0 -1,0.446 -1,1 l 0,4 c 0,0.554 0.446,1 1,1 l 6,0 c 0.554,0 1,-0.446 1,-1 l 0,-4 c 0,-0.554 -0.446,-1 -1,-1 l -6,0 z m 10,0 c -0.554,0 -1,0.446 -1,1 l 0,4 c 0,0.554 0.446,1 1,1 l 2,0 c 0.554,0 1,-0.446 1,-1 l 0,-4 c 0,-0.554 -0.446,-1 -1,-1 l -2,0 z m -10,8 c -0.554,0 -1,0.446 -1,1 l 0,3 c 0,0.554 0.446,1 1,1 l 3,0 c 0.554,0 1,-0.446 1,-1 l 0,-3 c 0,-0.554 -0.446,-1 -1,-1 l -3,0 z m 7,0 c -0.554,0 -1,0.446 -1,1 l 0,3 c 0,0.554 0.446,1 1,1 l 5,0 c 0.554,0 1,-0.446 1,-1 l 0,-3 c 0,-0.554 -0.446,-1 -1,-1 l -5,0 z" id="rect5875" inkscape:connector-curvature="0" />
      <g id="g5898" transform="translate(-49,-14.999997)">
         <path style="fill:white;fill-opacity:1;stroke:none" d="m -49.28125,1052.375 -3.90625,3.7187 0,5.2813 3.90625,3.7187 5.53125,0 3.90625,-3.7187 0,-5.2813 -3.90625,-3.7187 -5.53125,0 z m -0.28125,3.5312 1.4375,0 1.84375,5.6563 -1.21875,0 -0.375,-1.3438 -1.9375,0 -0.375,1.3438 -1.21875,0 1.84375,-5.6563 z m 4,0.031 1.625,0 c 0.35362,10e-5 0.671,0.011 0.9375,0.063 0.26649,0.049 0.50812,0.1373 0.6875,0.25 0.17937,0.1102 0.28531,0.2556 0.375,0.4375 0.09225,0.1794 0.156246,0.3924 0.15625,0.6563 -4e-6,0.1589 -0.02407,0.3304 -0.0625,0.4687 -0.03844,0.1384 -0.08194,0.2387 -0.15625,0.3438 -0.0743,0.1051 -0.17363,0.2095 -0.28125,0.2812 -0.10507,0.069 -0.23663,0.102 -0.375,0.125 l 0,0.031 c 0.14093,0.031 0.28581,0.097 0.40625,0.1563 0.123,0.056 0.22281,0.1162 0.3125,0.2187 0.09225,0.1 0.167496,0.2526 0.21875,0.4063 0.05381,0.1537 0.06249,0.3421 0.0625,0.5625 -5e-6,0.2562 -0.03532,0.4851 -0.125,0.6875 -0.08969,0.1999 -0.205881,0.3591 -0.375,0.5 -0.16657,0.1384 -0.38413,0.2382 -0.625,0.3125 -0.23831,0.074 -0.51013,0.125 -0.8125,0.125 l -1.96875,0 0,-5.625 z m -3.28125,0.75 c -0.0102,0.057 -0.0133,0.1419 -0.0313,0.2188 -0.0154,0.077 -0.0394,0.1629 -0.0625,0.25 -0.0205,0.085 -0.0394,0.1629 -0.0625,0.25 -0.0231,0.087 -0.042,0.1731 -0.0625,0.25 -0.0205,0.077 -0.0446,0.1286 -0.0625,0.1875 -0.0154,0.059 -0.0236,0.1281 -0.0313,0.1562 l -0.375,1.2188 1.375,0 L -48.5,1058 c -0.0154,-0.046 -0.0318,-0.1449 -0.0625,-0.25 -0.0307,-0.1051 -0.0891,-0.2182 -0.125,-0.3438 -0.0333,-0.1281 -0.063,-0.2468 -0.0937,-0.375 -0.0307,-0.1281 -0.0497,-0.254 -0.0625,-0.3437 z m 4.46875,0.2188 0,1.25 0.625,0 c 0.14862,0 0.27506,-0.01 0.375,-0.031 0.0999,-0.028 0.15725,-0.071 0.21875,-0.125 0.0615,-0.054 0.13062,-0.1081 0.15625,-0.1875 0.0282,-0.082 0.0313,-0.2049 0.0313,-0.3125 0,-0.2152 -0.0829,-0.3452 -0.21875,-0.4375 -0.13325,-0.095 -0.33288,-0.1563 -0.625,-0.1563 l -0.5625,0 z m 0,2.1875 0,1.4687 0.6875,0 c 0.15631,0 0.30119,-0.027 0.40625,-0.063 0.10762,-0.036 0.18593,-0.058 0.25,-0.125 0.0666,-0.067 0.12806,-0.1551 0.15625,-0.25 0.0282,-0.095 0.0313,-0.1971 0.0313,-0.3125 0,-0.105 -0.003,-0.1966 -0.0313,-0.2812 -0.0282,-0.087 -0.0871,-0.1885 -0.15625,-0.25 -0.0666,-0.062 -0.17107,-0.092 -0.28125,-0.125 -0.11019,-0.033 -0.24225,-0.063 -0.40625,-0.063 l -0.65625,0 z" id="path5906" inkscape:connector-curvature="0" />
      </g>
      <path style="fill:white;fill-opacity:1;stroke:none" d="m -75,1037.3622 c -1.10801,0 -2,0.892 -2,2 l 0,9 c 0,1.108 0.89199,2 2,2 l 10,0 c 1.10801,0 2,-0.892 2,-2 l 0,-9 c 0,-1.108 -0.89199,-2 -2,-2 z m -1,1 6,5.1563 6,-5.1563 -1,3 0,1 -4,2 3,2 0,1 1,2 -5,-4 -5,4 1,-2 0,-1 3,-2 -4,-2 0,-1 z" id="rect3011" inkscape:connector-curvature="0" sodipodi:nodetypes="sssssssssccccccccccccccccc" />
      <path style="fill:white;fill-opacity:1;stroke:none" d="m -48,1037.3622 c -1.10801,0 -2,0.892 -2,2 l 0,9 c 0,1.108 0.89199,2 2,2 l 8,0 c 1.10801,0 2,-0.892 2,-2 l 0,-9 c 0,-1.108 -0.89199,-2 -2,-2 z m 4.1875,2.2188 c 0.200983,0 0.404136,0 0.59375,0.031 0.193398,0.027 0.376678,0.076 0.5625,0.125 0.189606,0.049 0.372885,0.1155 0.5625,0.1875 0.189605,0.072 0.392758,0.1552 0.59375,0.25 l -0.5625,1.375 c -0.170654,-0.08 -0.320859,-0.1581 -0.46875,-0.2187 -0.1479,-0.061 -0.297193,-0.1146 -0.4375,-0.1563 -0.140316,-0.042 -0.300985,-0.075 -0.4375,-0.094 -0.132731,-0.023 -0.269734,-0.031 -0.40625,-0.031 -0.295795,0 -0.49698,0.091 -0.65625,0.25 -0.155483,0.1555 -0.250002,0.3633 -0.25,0.625 -2e-6,0.1403 0.01699,0.265 0.0625,0.375 0.0493,0.1062 0.147608,0.1865 0.25,0.2813 0.106179,0.095 0.243182,0.2139 0.40625,0.3125 0.166854,0.099 0.35863,0.2186 0.59375,0.3437 0.284411,0.1517 0.542337,0.2782 0.78125,0.4375 0.238904,0.1555 0.454346,0.3379 0.625,0.5313 0.174436,0.1896 0.31144,0.4135 0.40625,0.6562 0.0948,0.2427 0.124994,0.5176 0.125,0.8438 -6e-6,0.3716 -0.05857,0.7004 -0.1875,1 -0.125148,0.2957 -0.316012,0.5688 -0.5625,0.7812 -0.242706,0.2086 -0.549787,0.355 -0.90625,0.4688 -0.352679,0.1137 -0.759897,0.1875 -1.21875,0.1875 -0.401976,0 -0.780824,-0.042 -1.15625,-0.125 -0.371637,-0.083 -0.712706,-0.2082 -1.03125,-0.375 l 0,-1.6563 c 0.182025,0.087 0.376681,0.1978 0.5625,0.2813 0.185817,0.08 0.372888,0.123 0.5625,0.1875 0.193401,0.064 0.372888,0.1183 0.5625,0.1562 0.1934,0.038 0.372887,0.063 0.5625,0.063 0.193399,0 0.363477,-0.021 0.5,-0.063 0.140308,-0.045 0.260318,-0.1117 0.34375,-0.1875 0.08722,-0.08 0.149574,-0.1751 0.1875,-0.2812 0.04171,-0.11 0.0625,-0.2149 0.0625,-0.3438 -4e-6,-0.1555 -0.02549,-0.2887 -0.09375,-0.4062 -0.06447,-0.1214 -0.159903,-0.2414 -0.28125,-0.3438 -0.117562,-0.1062 -0.266854,-0.2139 -0.4375,-0.3125 -0.16686,-0.099 -0.353932,-0.2025 -0.5625,-0.3125 -0.174444,-0.091 -0.377596,-0.1836 -0.59375,-0.3125 -0.216157,-0.1289 -0.431599,-0.3104 -0.625,-0.5 -0.189611,-0.1934 -0.339816,-0.4182 -0.46875,-0.6875 -0.128936,-0.273 -0.187501,-0.5895 -0.1875,-0.9687 -10e-7,-0.3717 0.06615,-0.708 0.1875,-1 0.125142,-0.2958 0.303717,-0.5491 0.53125,-0.75 0.227531,-0.2048 0.490161,-0.3626 0.8125,-0.4688 0.326127,-0.1062 0.691773,-0.1562 1.09375,-0.1562 z" id="path3016" inkscape:connector-curvature="0" sodipodi:nodetypes="ssssssssscccccccccccccccccccccccsccccccccccccccccccscccc" />
   </g>
</svg>
