<?xml version="1.0" encoding="UTF-8" standalone="no"?>
<!-- Created with Inkscape (http://www.inkscape.org/) -->

<svg xmlns:dc="http://purl.org/dc/elements/1.1/" xmlns:cc="http://creativecommons.org/ns#" xmlns:rdf="http://www.w3.org/1999/02/22-rdf-syntax-ns#" xmlns:svg="http://www.w3.org/2000/svg" xmlns="http://www.w3.org/2000/svg" xmlns:sodipodi="http://sodipodi.sourceforge.net/DTD/sodipodi-0.dtd" xmlns:inkscape="http://www.inkscape.org/namespaces/inkscape" width="16" height="16" id="svg2" version="1.1" inkscape:version="0.48.3.1 r9886" sodipodi:docname="extensions.svg">
   <defs id="defs4" />
   <sodipodi:namedview id="base" pagecolor="#454545" bordercolor="#666666" borderopacity="1.0" inkscape:pageopacity="1" inkscape:pageshadow="2" inkscape:zoom="1" inkscape:cx="-34.150721" inkscape:cy="9.7032234" inkscape:document-units="px" inkscape:current-layer="g7816" showgrid="false" showborder="true" inkscape:showpageshadow="false" inkscape:snap-global="true" inkscape:window-width="1366" inkscape:window-height="741" inkscape:window-x="0" inkscape:window-y="-2" inkscape:window-maximized="1" showguides="false" inkscape:guide-bbox="true">
      <inkscape:grid type="xygrid" id="grid2985" empspacing="5" visible="true" enabled="true" snapvisiblegridlinesonly="true" />
      <sodipodi:guide orientation="0,1" position="21,15" id="guide3003" />
      <sodipodi:guide orientation="0,1" position="8,2" id="guide3005" />
   </sodipodi:namedview>
   <metadata id="metadata7">
      <rdf:RDF>
         <cc:Work rdf:about="">
            <dc:format>image/svg+xml</dc:format>
            <dc:type rdf:resource="http://purl.org/dc/dcmitype/StillImage" />
            <dc:title />
         </cc:Work>
      </rdf:RDF>
   </metadata>
   <g inkscape:label="Layer 1" inkscape:groupmode="layer" id="layer1" transform="translate(0,-1036.3622)">
      <g id="g5781" transform="translate(-2,784)">
         <path sodipodi:nodetypes="sscccsssssssccssscccsccc" inkscape:connector-curvature="0" id="path5648" d="m -167,253.375 c -5.9221,0 -5.26301,6.1979 -6,10 -0.44805,2.31149 -1,3 -1,3 2,-1.01282 4,-1.01282 7,-1.01282 5,2 7,0 7,0 0,0 -1,0.0128 -1,-1.98718 0,-3.36573 -0.3125,-10 -6,-10 z m 1.75,2.98718 c 0.60048,-0.0657 1.15997,0.55148 1.25,1.375 0.09,0.82352 -0.33702,1.5281 -0.9375,1.59375 -0.60048,0.0657 -1.15997,-0.55148 -1.25,-1.375 -0.09,-0.82352 0.33702,-1.5281 0.9375,-1.59375 z m -3.89062,-0.0157 c 0.0817,-0.004 0.16761,0.0142 0.25,0.0313 0.65916,0.13627 1.04272,0.87623 0.875,1.6875 -0.16772,0.81127 -0.84084,1.38627 -1.5,1.25 -0.65916,-0.13627 -1.04272,-0.90748 -0.875,-1.71875 0.14675,-0.70986 0.67782,-1.22546 1.25,-1.25 z m -1.45313,3.99724 c 0,0 6.35696,0.0313 6.8125,0.0313 -0.16133,0.6021 -1.01683,2.96875 -3.46875,2.96875 -2.45192,0 -3.34375,-2.99999 -3.34375,-3 z" style="fill:white;stroke:none" />
      </g>
      <path style="fill:white;fill-opacity:1;stroke:none" d="m -143.96875,1037.4062 c -0.51124,0 -1.01451,0.2021 -1.40625,0.5938 l -4.96875,4.9375 c -0.78347,0.7835 -0.78347,2.0603 0,2.8437 l 4.625,4.5938 3.5,0 4.625,-4.5938 c 0.78347,-0.7834 0.78347,-2.0602 0,-2.8437 L -142.5625,1038 c -0.39174,-0.3917 -0.89501,-0.5938 -1.40625,-0.5938 z m -1.125,2.2813 1.4375,1.4375 -4.4375,4.4375 -1.4375,-1.4375 4.4375,-4.4375 z m 0.25,3.875 1.4375,1.4375 -2.625,2.625 -1.4375,-1.4375 2.625,-2.625 z m 0.90625,3.2812 1.4375,1.4375 -1.4375,1.4375 -1.4375,-1.4375 1.4375,-1.4375 z" id="rect5793" inkscape:connector-curvature="0" />
      <path style="fill:white;fill-opacity:1;stroke:none" d="m -120,1047.3622 c -2.20914,0 -4,0.8008 -4,1.7886 0,0.4867 0.44841,0.9158 1.15385,1.2382 l 5.30769,0 c 0.12719,0 0.24023,0.01 0.35897,0.017 0.72386,-0.3236 1.17949,-0.7615 1.17949,-1.2554 0,-0.9878 -1.79086,-1.7886 -4,-1.7886 z" id="path5839" inkscape:connector-curvature="0" />
      <path style="fill:none;stroke:#fefefe;stroke-width:1.5;stroke-linecap:round;stroke-linejoin:round;stroke-opacity:1" d="m -122,1048.3622 -2,-7 4,-3" id="path5844" inkscape:connector-curvature="0" sodipodi:nodetypes="ccc" />
      <path sodipodi:type="arc" style="fill:none;stroke:white;stroke-width:1;stroke-linecap:round;stroke-linejoin:round;stroke-miterlimit:3.29999995;stroke-opacity:1;stroke-dasharray:none;stroke-dashoffset:0" id="path5860" sodipodi:cx="-123.375" sodipodi:cy="273.64343" sodipodi:rx="3.90625" sodipodi:ry="1.90625" d="m -119.46875,273.64343 c 0,1.0528 -1.74889,1.90625 -3.90625,1.90625 -2.15736,0 -3.90625,-0.85345 -3.90625,-1.90625 0,-1.05279 1.74889,-1.90625 3.90625,-1.90625 2.15736,0 3.90625,0.85346 3.90625,1.90625 z" transform="matrix(0.8660254,-0.5,0.5,0.8660254,-147.77394,742.51042)" />
      <path style="fill:white;stroke:none" d="m -119.41716,1038.3758 c -2.12242,1.2254 -3.20569,3.3226 -2.41097,4.6991 0.25953,0.4495 0.69197,0.7525 1.22327,0.9312 -0.058,-0.053 -0.12632,-0.094 -0.16535,-0.1614 -0.46839,-0.8112 -0.0816,-2.5609 2.25357,-3.9092 2.33517,-1.3482 4.04386,-0.8083 4.51225,0 0.039,0.068 0.0398,0.147 0.0571,0.2239 0.11082,-0.5495 0.0647,-1.0754 -0.19486,-1.525 -0.79472,-1.3765 -3.15259,-1.4869 -5.27501,-0.2615 z" id="path5862" inkscape:connector-curvature="0" sodipodi:nodetypes="sscszscss" />
      <rect style="fill:white;fill-opacity:1;stroke:none" id="rect5873" width="2.1611516" height="2.1245401" x="-623.68658" y="838.08582" rx="0.70201904" ry="0.70201904" transform="matrix(0.8660254,-0.5,0.5,0.8660254,0,0)" />
      <path style="fill:white;fill-opacity:1;stroke:none" d="m -176,1063.3622 c -0.554,0 -1,0.446 -1,1 l 0,4 c 0,0.554 0.446,1 1,1 l 6,0 c 0.554,0 1,-0.446 1,-1 l 0,-4 c 0,-0.554 -0.446,-1 -1,-1 l -6,0 z m 10,0 c -0.554,0 -1,0.446 -1,1 l 0,4 c 0,0.554 0.446,1 1,1 l 2,0 c 0.554,0 1,-0.446 1,-1 l 0,-4 c 0,-0.554 -0.446,-1 -1,-1 l -2,0 z m -10,8 c -0.554,0 -1,0.446 -1,1 l 0,3 c 0,0.554 0.446,1 1,1 l 3,0 c 0.554,0 1,-0.446 1,-1 l 0,-3 c 0,-0.554 -0.446,-1 -1,-1 l -3,0 z m 7,0 c -0.554,0 -1,0.446 -1,1 l 0,3 c 0,0.554 0.446,1 1,1 l 5,0 c 0.554,0 1,-0.446 1,-1 l 0,-3 c 0,-0.554 -0.446,-1 -1,-1 l -5,0 z" id="rect5875" inkscape:connector-curvature="0" />
      <g id="g5898" transform="matrix(1.0463216,0,0,1.0211104,-47.348772,-37.216067)">
         <path style="fill:white;fill-opacity:1;stroke:none" d="m -49.28125,1052.375 -3.90625,3.7187 0,5.2813 3.90625,3.7187 5.53125,0 3.90625,-3.7187 0,-5.2813 -3.90625,-3.7187 z m -0.274425,3.9207 1.360494,0 1.74498,4.8556 -1.153462,0 -0.354911,-0.9542 -1.833709,0 -0.354911,0.9542 -1.153462,0 z m 3.993175,0.027 1.625,0 c 0.35362,10e-5 0.671,0.01 0.9375,0.054 0.26649,0.042 0.50812,0.1179 0.6875,0.2146 0.17937,0.095 0.28531,0.2194 0.375,0.3756 0.09225,0.154 0.156246,0.3369 0.15625,0.5634 -4e-6,0.1364 -0.02407,0.2836 -0.0625,0.4023 -0.03844,0.1189 -0.08194,0.205 -0.15625,0.2952 -0.0743,0.09 -0.17363,0.1798 -0.28125,0.2414 -0.10507,0.059 -0.23663,0.087 -0.375,0.1073 l 0,0.027 c 0.14093,0.027 0.28581,0.083 0.40625,0.1342 0.123,0.048 0.22281,0.1 0.3125,0.1877 0.09225,0.086 0.167496,0.2168 0.21875,0.3488 0.05381,0.1319 0.06249,0.2937 0.0625,0.4829 -5e-6,0.2199 -0.03532,0.4164 -0.125,0.5901 -0.08969,0.1716 -0.205881,0.3083 -0.375,0.4293 -0.16657,0.1188 -0.38413,0.2044 -0.625,0.2682 -0.23831,0.064 -0.510135,0.1073 -0.8125,0.1073 l -1.96875,0 0,-4.8287 z m -3.312928,0.6439 c -0.0097,0.049 -0.01259,0.1218 -0.02962,0.1878 -0.01458,0.066 -0.03729,0.1398 -0.05915,0.2146 -0.0194,0.073 -0.03729,0.1398 -0.05915,0.2146 -0.02186,0.075 -0.03975,0.1486 -0.05915,0.2146 -0.0194,0.066 -0.04221,0.1104 -0.05915,0.161 -0.01458,0.051 -0.02234,0.11 -0.02962,0.1341 l -0.354912,1.1245 1.301342,0 -0.325241,-1.1243 c -0.01458,-0.04 -0.0301,-0.1244 -0.05915,-0.2146 -0.02905,-0.09 -0.08433,-0.1873 -0.118304,-0.2951 -0.03152,-0.11 -0.05962,-0.2119 -0.08868,-0.3219 -0.02905,-0.11 -0.04704,-0.2181 -0.05915,-0.2951 z m 4.289442,0.2927 0,0.9812 0.625,0 c 0.148475,0 0.27506,-0.01 0.375,-0.025 0.0999,-0.022 0.15725,-0.056 0.21875,-0.098 0.0615,-0.042 0.13062,-0.085 0.15625,-0.1472 0.0282,-0.064 0.0313,-0.1608 0.0313,-0.2453 0,-0.1689 -0.0829,-0.271 -0.21875,-0.3435 -0.13325,-0.075 -0.33295,-0.1226 -0.625,-0.1226 l -0.5625,0 z m 5e-5,1.9523 c 0,0.3285 0,0.9855 0,0.9855 l 0.6875,0 c 0.156256,0 0.30119,-0.018 0.40625,-0.042 0.10762,-0.024 0.18593,-0.039 0.25,-0.084 0.0666,-0.045 0.12806,-0.104 0.15625,-0.1677 0.0282,-0.064 0.0313,-0.1323 0.0313,-0.2097 0,-0.07 -0.003,-0.1319 -0.0313,-0.1887 -0.0282,-0.059 -0.0871,-0.1264 -0.15625,-0.1677 -0.0666,-0.041 -0.17107,-0.062 -0.28125,-0.084 -0.11019,-0.022 -0.242249,-0.042 -0.40625,-0.042 l -0.65625,0 0,6e-4 z" id="path5906" inkscape:connector-curvature="0" sodipodi:nodetypes="ccccccccccccccccccccccccccccccccccccscccccccccccccsccccccscscscsccccscccscccscac" />
      </g>
      <path style="fill:white;fill-opacity:1;stroke:none" d="m -75,1037.3622 c -1.10801,0 -2,0.892 -2,2 l 0,9 c 0,1.108 0.89199,2 2,2 l 10,0 c 1.10801,0 2,-0.892 2,-2 l 0,-9 c 0,-1.108 -0.89199,-2 -2,-2 z m -1,1 6,5.1563 6,-5.1563 -1,3 0,1 -4,2 3,2 0,1 1,2 -5,-4 -5,4 1,-2 0,-1 3,-2 -4,-2 0,-1 z" id="rect3011" inkscape:connector-curvature="0" sodipodi:nodetypes="sssssssssccccccccccccccccc" />
      <path style="fill:white;fill-opacity:1;stroke:none" d="m -48,1037.3622 c -1.10801,0 -2,0.892 -2,2 l 0,9 c 0,1.108 0.89199,2 2,2 l 8,0 c 1.10801,0 2,-0.892 2,-2 l 0,-9 c 0,-1.108 -0.89199,-2 -2,-2 z m 4.203125,2.0313 c 0.23448,0 0.471492,0 0.692708,0.032 0.225631,0.028 0.439458,0.079 0.65625,0.13 0.221207,0.051 0.435033,0.1201 0.65625,0.195 0.221206,0.075 0.458218,0.1614 0.692709,0.26 l -0.65625,1.4302 c -0.199097,-0.083 -0.374336,-0.1644 -0.546875,-0.2274 -0.17255,-0.063 -0.346725,-0.1192 -0.510417,-0.1626 -0.163702,-0.044 -0.351149,-0.078 -0.510417,-0.098 -0.154852,-0.024 -0.314689,-0.032 -0.473958,-0.032 -0.345094,0 -0.57981,0.095 -0.765625,0.26 -0.181397,0.1617 -0.291669,0.3779 -0.291667,0.6501 -2e-6,0.1459 0.01982,0.2756 0.07292,0.39 0.05752,0.1105 0.172209,0.194 0.291667,0.2926 0.123875,0.099 0.283712,0.2225 0.473958,0.3251 0.194663,0.103 0.418402,0.2274 0.692708,0.3575 0.331813,0.1578 0.632727,0.2894 0.911459,0.455 0.278721,0.1618 0.53007,0.3515 0.729166,0.5527 0.203509,0.1972 0.363347,0.4301 0.473959,0.6825 0.1106,0.2525 0.145826,0.5384 0.145833,0.8777 -7e-6,0.3865 -0.06833,0.7285 -0.21875,1.0401 -0.146006,0.3076 -0.368681,0.5917 -0.65625,0.8126 -0.283157,0.217 -0.641418,0.3693 -1.057292,0.4876 -0.411458,0.1183 -0.886546,0.1951 -1.421875,0.1951 -0.468972,0 -0.910961,-0.044 -1.348958,-0.1301 -0.433577,-0.086 -0.83149,-0.2165 -1.203125,-0.39 l 0,-1.7228 c 0.212362,0.091 0.439461,0.2057 0.65625,0.2926 0.216786,0.083 0.435036,0.1279 0.65625,0.195 0.225634,0.067 0.435036,0.1231 0.65625,0.1625 0.225633,0.04 0.435035,0.066 0.65625,0.066 0.225632,0 0.424056,-0.022 0.583333,-0.066 0.163693,-0.047 0.303705,-0.1162 0.401042,-0.1951 0.101757,-0.083 0.174503,-0.1821 0.21875,-0.2924 0.04866,-0.1145 0.07292,-0.2236 0.07292,-0.3576 -5e-6,-0.1618 -0.02974,-0.3003 -0.109375,-0.4226 -0.07522,-0.1262 -0.186554,-0.251 -0.328125,-0.3576 -0.137156,-0.1104 -0.31133,-0.2224 -0.510417,-0.325 -0.19467,-0.103 -0.412921,-0.2106 -0.65625,-0.325 -0.203518,-0.095 -0.440529,-0.191 -0.692708,-0.3251 -0.252184,-0.1341 -0.503533,-0.3229 -0.729167,-0.5201 -0.221213,-0.2011 -0.396452,-0.435 -0.546875,-0.7151 -0.150425,-0.2839 -0.218751,-0.6131 -0.21875,-1.0076 -10e-7,-0.3866 0.07717,-0.7364 0.21875,-1.0401 0.145999,-0.3077 0.354336,-0.5711 0.619792,-0.7801 0.265452,-0.213 0.571854,-0.3772 0.947916,-0.4876 0.380482,-0.1105 0.807069,-0.1625 1.276042,-0.1625 z" id="path3016" inkscape:connector-curvature="0" sodipodi:nodetypes="ssssssssscccccccccccccccccccccccsccccccccccccccccccsccccc" />
      <g id="g3841" transform="translate(-0.22097085,0)">
         <path id="path3071" d="m -149.37294,1063.8553 c -0.48437,0 -0.87432,0.3727 -0.87432,0.8356 l 0,3.3427 c 0,0.4628 0.38995,0.8355 0.87432,0.8355 l 5.24588,0 c 0.48437,0 0.87431,-0.3727 0.87431,-0.8355 l 0,-3.3427 c 0,-0.4629 -0.38994,-0.8356 -0.87431,-0.8356 l -5.24588,0 z" style="fill:none;stroke:white;stroke-width:1.00000012" inkscape:connector-curvature="0" />
         <path id="path3069" d="m -139.75,1063.3622 c -0.554,0 -1,0.446 -1,1 l 0,4 c 0,0.554 0.446,1 1,1 l 2,0 c 0.554,0 1,-0.446 1,-1 l 0,-4 c 0,-0.554 -0.446,-1 -1,-1 l -2,0 z" style="fill:white;fill-opacity:1;stroke:none" inkscape:connector-curvature="0" />
         <path id="path3067" d="m -149.75,1071.3622 c -0.554,0 -1,0.446 -1,1 l 0,3 c 0,0.554 0.446,1 1,1 l 3,0 c 0.554,0 1,-0.446 1,-1 l 0,-3 c 0,-0.554 -0.446,-1 -1,-1 l -3,0 z" style="fill:white;fill-opacity:1;stroke:none" inkscape:connector-curvature="0" />
         <path id="path3043" d="m -142.75,1071.3622 c -0.554,0 -1,0.446 -1,1 l 0,3 c 0,0.554 0.446,1 1,1 l 5,0 c 0.554,0 1,-0.446 1,-1 l 0,-3 c 0,-0.554 -0.446,-1 -1,-1 l -5,0 z" style="fill:white;fill-opacity:1;stroke:none" inkscape:connector-curvature="0" />
      </g>
      <path inkscape:connector-curvature="0" style="fill:none;stroke:white;stroke-width:0.99999994" d="m -125.60637,1063.8704 c -0.48667,0 -0.87846,0.3689 -0.87846,0.827 l 0,3.3076 c 0,0.4581 0.39179,0.8269 0.87846,0.8269 l 5.2708,0 c 0.48667,0 0.87846,-0.3688 0.87846,-0.8269 l 0,-3.3076 c 0,-0.4581 -0.39179,-0.827 -0.87846,-0.827 l -5.2708,0 z" id="path3063" />
      <path inkscape:connector-curvature="0" style="fill:none;stroke:white;stroke-width:1" d="m -115.71685,1063.8925 c -0.41322,0 -0.74589,0.3672 -0.74589,0.8233 l 0,3.2928 c 0,0.4561 0.33267,0.8233 0.74589,0.8233 l 1.49176,0 c 0.41322,0 0.74589,-0.3672 0.74589,-0.8233 l 0,-3.2928 c 0,-0.4561 -0.33267,-0.8233 -0.74589,-0.8233 l -1.49176,0 z" id="path3061" />
      <path inkscape:connector-curvature="0" style="fill:white;fill-opacity:1;stroke:none" d="m -125.97097,1071.3622 c -0.554,0 -1,0.446 -1,1 l 0,3 c 0,0.554 0.446,1 1,1 l 3,0 c 0.554,0 1,-0.446 1,-1 l 0,-3 c 0,-0.554 -0.446,-1 -1,-1 l -3,0 z" id="path3059" />
      <path inkscape:connector-curvature="0" style="fill:white;fill-opacity:1;stroke:none" d="m -118.97097,1071.3622 c -0.554,0 -1,0.446 -1,1 l 0,3 c 0,0.554 0.446,1 1,1 l 5,0 c 0.554,0 1,-0.446 1,-1 l 0,-3 c 0,-0.554 -0.446,-1 -1,-1 l -5,0 z" id="path3045" />
      <g id="g3863">
         <path inkscape:connector-curvature="0" id="path3047" d="m -94.013864,1071.3622 c -0.554,0 -1,0.446 -1,1 l 0,3 c 0,0.554 0.446,1 1,1 l 5,0 c 0.554,0 1,-0.446 1,-1 l 0,-3 c 0,-0.554 -0.446,-1 -1,-1 l -5,0 z" style="fill:white;fill-opacity:1;stroke:none" />
         <path inkscape:connector-curvature="0" style="fill:none;stroke:white;stroke-width:0.99999994" d="m -100.59246,1063.8704 c -0.48667,0 -0.87846,0.3689 -0.87846,0.827 l 0,3.3076 c 0,0.4581 0.39179,0.8269 0.87846,0.8269 l 5.270793,0 c 0.48667,0 0.87846,-0.3688 0.87846,-0.8269 l 0,-3.3076 c 0,-0.4581 -0.39179,-0.827 -0.87846,-0.827 l -5.270793,0 z" id="path3857" />
         <path inkscape:connector-curvature="0" style="fill:none;stroke:white;stroke-width:1" d="m -90.702947,1063.8925 c -0.41322,0 -0.74589,0.3672 -0.74589,0.8233 l 0,3.2928 c 0,0.4561 0.33267,0.8233 0.74589,0.8233 l 1.49176,0 c 0.41322,0 0.74589,-0.3672 0.74589,-0.8233 l 0,-3.2928 c 0,-0.4561 -0.33267,-0.8233 -0.74589,-0.8233 l -1.49176,0 z" id="path3859" />
         <path sodipodi:nodetypes="sssssssss" id="path3861" d="m -100.59246,1071.8973 c -0.48667,0 -0.87846,0.3689 -0.87846,0.827 l 0,2.3076 c 0,0.4581 0.39179,0.8269 0.87846,0.8269 l 2.208293,0 c 0.48667,0 0.87846,-0.3688 0.87846,-0.8269 l 0,-2.3076 c 0,-0.4581 -0.39179,-0.827 -0.87846,-0.827 z" style="fill:none;stroke:white;stroke-width:0.99999994" inkscape:connector-curvature="0" />
      </g>
      <g id="g7806" transform="translate(-3,0)">
         <path id="path3873" d="m -72.59246,1063.8704 c -0.48667,0 -0.87846,0.3689 -0.87846,0.827 l 0,3.3076 c 0,0.4581 0.39179,0.8269 0.87846,0.8269 l 5.270793,0 c 0.48667,0 0.87846,-0.3688 0.87846,-0.8269 l 0,-3.3076 c 0,-0.4581 -0.39179,-0.827 -0.87846,-0.827 l -5.270793,0 z" style="fill:none;stroke:white;stroke-width:0.99999994" inkscape:connector-curvature="0" />
         <path id="path3875" d="m -62.702947,1063.8925 c -0.41322,0 -0.74589,0.3672 -0.74589,0.8233 l 0,3.2928 c 0,0.4561 0.33267,0.8233 0.74589,0.8233 l 1.49176,0 c 0.41322,0 0.74589,-0.3672 0.74589,-0.8233 l 0,-3.2928 c 0,-0.4561 -0.33267,-0.8233 -0.74589,-0.8233 l -1.49176,0 z" style="fill:none;stroke:white;stroke-width:1" inkscape:connector-curvature="0" />
         <path inkscape:connector-curvature="0" style="fill:none;stroke:white;stroke-width:0.99999994" d="m -72.59246,1071.8973 c -0.48667,0 -0.87846,0.3689 -0.87846,0.827 l 0,2.3076 c 0,0.4581 0.39179,0.8269 0.87846,0.8269 l 2.208293,0 c 0.48667,0 0.87846,-0.3688 0.87846,-0.8269 l 0,-2.3076 c 0,-0.4581 -0.39179,-0.827 -0.87846,-0.827 z" id="path3877" sodipodi:nodetypes="sssssssss" />
         <path inkscape:connector-curvature="0" style="fill:none;stroke:white;stroke-width:0.99999994" d="m -65.59246,1071.8899 c -0.48667,0 -0.87846,0.3689 -0.87846,0.827 l 0,2.3076 c 0,0.4581 0.39179,0.8269 0.87846,0.8269 l 4.208293,0 c 0.48667,0 0.87846,-0.3688 0.87846,-0.8269 l 0,-2.3076 c 0,-0.4581 -0.39179,-0.827 -0.87846,-0.827 z" id="path3879" sodipodi:nodetypes="sssssssss" />
      </g>
      <rect transform="scale(-1,1)" style="color:#bebebe;fill:none;stroke:none;stroke-width:1;marker:none;visibility:visible;display:inline;overflow:visible;enable-background:new" id="rect12099" y="1058.3622" x="36.000011" height="16" width="16" />
      <g id="g7816" transform="translate(2,2)">
         <path sodipodi:nodetypes="cccccccccccccccccccccccccccccccccc" inkscape:connector-curvature="0" id="rect13039" d="m -51.21875,1065.3622 c -0.447154,0.1001 -0.79228,0.5419 -0.78125,1 l 0,1.7188 c -0.0015,0.031 -0.0015,0.063 0,0.094 -0.02358,0.1235 -0.02358,0.2515 0,0.375 l 0,4.8125 c -0.0015,0.031 -0.0015,0.063 0,0.094 l 0,0.9062 0.84375,0 0.15625,0 8,0 c 0.03123,0 0.06252,0 0.09375,0 l 0.90625,0 0,-0.8437 c 0.0041,-0.052 0.0041,-0.1043 0,-0.1563 l 0,-4.8437 c 0.0041,-0.052 0.0041,-0.1043 0,-0.1563 l -1.5,0 -0.5,0 0,-0.5 0,-1.5 -1.5,0 -0.5,0 0,-0.5 0,-0.5 -5,0 c -0.07263,-0.01 -0.146125,-0.01 -0.21875,0 z m 6.21875,3 0,1.0018 1,0 0,3 -6,0 0,-4" style="font-size:medium;font-style:normal;font-variant:normal;font-weight:normal;font-stretch:normal;text-indent:0;text-align:start;text-decoration:none;line-height:normal;letter-spacing:normal;word-spacing:normal;text-transform:none;direction:ltr;block-progression:tb;writing-mode:lr-tb;text-anchor:start;baseline-shift:baseline;color:black;fill:white;fill-opacity:1;stroke:none;stroke-width:2;marker:none;visibility:visible;display:inline;overflow:visible;enable-background:new;font-family:Sans;-inkscape-font-specification:Sans" />
         <path inkscape:connector-curvature="0" style="color:#bebebe;fill:white;fill-opacity:1;stroke:none;stroke-width:2;marker:none;visibility:visible;display:inline;overflow:visible" d="m -43,1061.3622 2,0 0,2 2,0 0,2 -2,0 0,2 -2,0 0,-2 -2,0 0,-2 2,0 z" id="rect11749-5-0-1-8-2-0-5" sodipodi:nodetypes="ccccccccccccc" />
         <path style="font-size:medium;font-style:normal;font-variant:normal;font-weight:normal;font-stretch:normal;text-indent:0;text-align:start;text-decoration:none;line-height:normal;letter-spacing:normal;word-spacing:normal;text-transform:none;direction:ltr;block-progression:tb;writing-mode:lr-tb;text-anchor:start;baseline-shift:baseline;color:black;fill:white;fill-opacity:1;stroke:none;stroke-width:2;marker:none;visibility:visible;display:inline;overflow:visible;enable-background:accumulate;font-family:Sans;-inkscape-font-specification:Sans" d="m -27.442572,1036.3622 -2.006324,1.1465 2.43625,3.8535 -4.983594,0 0,1.9985 4.983594,0 -2.43625,3.855 2.006324,1.1465 2.436249,-3.855 2.436249,3.855 2.006324,-1.1465 -2.43625,-3.855 5,0 0,-1.9985 -5,0 2.43625,-3.8535 -2.006324,-1.1465 -2.436249,3.5591 z" id="path3029" inkscape:connector-curvature="0" sodipodi:nodetypes="ccccccccccccccccccc" />
      </g>
   </g>
</svg>
