<?xml version="1.0" encoding="UTF-8" standalone="no"?>
<!-- Created with Inkscape (http://www.inkscape.org/) -->

<svg xmlns:dc="http://purl.org/dc/elements/1.1/" xmlns:cc="http://creativecommons.org/ns#" xmlns:rdf="http://www.w3.org/1999/02/22-rdf-syntax-ns#" xmlns:svg="http://www.w3.org/2000/svg" xmlns="http://www.w3.org/2000/svg" xmlns:sodipodi="http://sodipodi.sourceforge.net/DTD/sodipodi-0.dtd" xmlns:inkscape="http://www.inkscape.org/namespaces/inkscape" id="svg7384" sodipodi:docname="gear.svg" version="1.1" inkscape:version="0.48.3.1 r9886" height="16" width="16">
   <metadata id="metadata90">
      <rdf:RDF>
         <cc:Work rdf:about="">
            <dc:format>image/svg+xml</dc:format>
            <dc:type rdf:resource="http://purl.org/dc/dcmitype/StillImage" />
            <dc:title>Gnome Symbolic Icon Theme</dc:title>
         </cc:Work>
      </rdf:RDF>
   </metadata>
   <sodipodi:namedview inkscape:cy="6.7737165" pagecolor="#555753" borderopacity="1" showborder="false" inkscape:bbox-paths="false" guidetolerance="10" inkscape:object-paths="true" inkscape:window-width="1239" showguides="true" inkscape:object-nodes="true" inkscape:snap-bbox="true" inkscape:pageshadow="2" inkscape:guide-bbox="true" inkscape:snap-nodes="true" bordercolor="#666666" objecttolerance="10" id="namedview88" showgrid="false" inkscape:window-maximized="0" inkscape:window-x="204" inkscape:snap-global="true" inkscape:window-y="53" gridtolerance="10" inkscape:window-height="708" inkscape:snap-others="false" inkscape:snap-to-guides="true" inkscape:current-layer="layer15" inkscape:snap-bbox-midpoints="false" inkscape:zoom="32" inkscape:cx="11.154751" inkscape:snap-grids="true" inkscape:pageopacity="1">
      <inkscape:grid spacingx="1px" spacingy="1px" id="grid4866" empspacing="2" enabled="true" type="xygrid" snapvisiblegridlinesonly="true" visible="true" />
   </sodipodi:namedview>
   <title id="title9167">Gnome Symbolic Icon Theme</title>
   <defs id="defs7386" />
   <g inkscape:label="status" transform="translate(-442,-401.99997)" inkscape:groupmode="layer" id="layer9" style="display:inline" />
   <g inkscape:label="devices" transform="translate(-442,-401.99997)" inkscape:groupmode="layer" id="layer10" />
   <g inkscape:label="apps" transform="translate(-442,-401.99997)" inkscape:groupmode="layer" id="layer11" />
   <g inkscape:label="places" transform="translate(-442,-401.99997)" inkscape:groupmode="layer" id="layer13" />
   <g inkscape:label="mimetypes" transform="translate(-442,-401.99997)" inkscape:groupmode="layer" id="layer14" />
   <g inkscape:label="emblems" transform="translate(-442,-401.99997)" inkscape:groupmode="layer" id="layer15" style="display:inline">
      <path inkscape:connector-curvature="0" d="m 450.0002,403 c -0.22065,0 -0.44081,0.0113 -0.65625,0.0312 l -0.40625,2.09375 c -0.33446,0.0733 -0.66305,0.17589 -0.96875,0.3125 l -1.53125,-1.46875 c -0.38863,0.23011 -0.72695,0.51408 -1.0625,0.8125 l 0.90625,1.90625 c -0.22242,0.24899 -0.42425,0.5225 -0.59375,0.8125 l -2.09375,-0.28125 c -0.17772,0.40877 -0.30872,0.83637 -0.40625,1.28125 l 1.84375,1 c -0.0171,0.16809 -0.0312,0.3274 -0.0312,0.5 0,0.1726 0.0142,0.33191 0.0312,0.5 l -1.84375,1 c 0.0975,0.44488 0.22853,0.87248 0.40625,1.28125 l 2.09375,-0.28125 c 0.1695,0.29 0.37133,0.56351 0.59375,0.8125 l -0.90625,1.90625 c 0.33555,0.29842 0.67387,0.58239 1.0625,0.8125 l 1.53125,-1.46875 c 0.3057,0.13661 0.63429,0.23916 0.96875,0.3125 l 0.40625,2.09375 c 0.21544,0.02 0.4356,0.0312 0.65625,0.0312 0.22065,0 0.44081,-0.0113 0.65625,-0.0312 l 0.40625,-2.09375 c 0.33446,-0.0733 0.66305,-0.17589 0.96875,-0.3125 l 1.53125,1.46875 c 0.38863,-0.23011 0.72695,-0.51408 1.0625,-0.8125 l -0.90625,-1.90625 c 0.22242,-0.24899 0.42425,-0.5225 0.59375,-0.8125 l 2.09375,0.28125 c 0.17772,-0.40877 0.30872,-0.83637 0.40625,-1.28125 l -1.84375,-1 c 0.0171,-0.16809 0.0312,-0.3274 0.0312,-0.5 0,-0.1726 -0.0142,-0.33191 -0.0312,-0.5 l 1.84375,-1 c -0.0975,-0.44488 -0.22853,-0.87248 -0.40625,-1.28125 l -2.09375,0.28125 c -0.1695,-0.29 -0.37133,-0.56351 -0.59375,-0.8125 l 0.90625,-1.90625 c -0.33555,-0.29842 -0.67387,-0.58239 -1.0625,-0.8125 l -1.53125,1.46875 c -0.3057,-0.13661 -0.63429,-0.23916 -0.96875,-0.3125 l -0.40625,-2.09375 C 450.44101,403.0112 450.22085,403 450.0002,403 z m 0,4 c 1.65685,0 3,1.34315 3,3 0,1.65685 -1.34315,3 -3,3 -1.65685,0 -3,-1.34315 -3,-3 0,-1.65685 1.34315,-3 3,-3 z" id="path35543-6-4" style="color:black;fill:#333;fill-opacity:1;fill-rule:nonzero;stroke:none;marker:none;visibility:visible;display:inline;overflow:visible;enable-background:accumulate" sodipodi:nodetypes="sccccccccccsccccccccccsccccccccccsccccccccccssssss" />
   </g>
   <g inkscape:label="emotes" transform="translate(-442,-401.99997)" inkscape:groupmode="layer" id="g71291" style="display:inline" />
   <g inkscape:label="categories" transform="translate(-442,-401.99997)" inkscape:groupmode="layer" id="g4953" style="display:inline" />
   <g inkscape:label="actions" transform="translate(-442,-401.99997)" inkscape:groupmode="layer" id="layer12" style="display:inline" />
</svg>
