<?xml version="1.0" encoding="UTF-8" standalone="no"?>
<!-- Created with Inkscape (http://www.inkscape.org/) -->

<svg xmlns:dc="http://purl.org/dc/elements/1.1/" xmlns:cc="http://creativecommons.org/ns#" xmlns:rdf="http://www.w3.org/1999/02/22-rdf-syntax-ns#" xmlns:svg="http://www.w3.org/2000/svg" xmlns="http://www.w3.org/2000/svg" xmlns:sodipodi="http://sodipodi.sourceforge.net/DTD/sodipodi-0.dtd" xmlns:inkscape="http://www.inkscape.org/namespaces/inkscape" id="svg7384" version="1.1" height="16" width="16" inkscape:version="0.48.3.1 r9886" sodipodi:docname="stop.svg">
   <sodipodi:namedview pagecolor="#ffffff" bordercolor="#666666" borderopacity="1" objecttolerance="10" gridtolerance="10" guidetolerance="10" inkscape:pageopacity="0" inkscape:pageshadow="2" inkscape:window-width="1366" inkscape:window-height="715" id="namedview10663" showgrid="true" inkscape:zoom="41.7193" inkscape:cx="8.0046262" inkscape:cy="4.9176154" inkscape:window-x="0" inkscape:window-y="27" inkscape:window-maximized="1" inkscape:current-layer="svg7384">
      <inkscape:grid type="xygrid" id="grid2991" />
   </sodipodi:namedview>
   <title id="title9167">Gnome Symbolic Icon Theme</title>
   <metadata id="metadata90">
      <rdf:RDF>
         <cc:Work rdf:about="">
            <dc:format>image/svg+xml</dc:format>
            <dc:type rdf:resource="http://purl.org/dc/dcmitype/StillImage" />
            <dc:title>Gnome Symbolic Icon Theme</dc:title>
         </cc:Work>
      </rdf:RDF>
   </metadata>
   <defs id="defs7386" />
   <g transform="translate(-260,-518)" id="layer9" style="display:inline" />
   <g transform="translate(-260,-518)" id="layer10" />
   <g transform="translate(-260,-518)" id="layer11" />
   <g transform="translate(-260,-517)" id="layer12" style="fill:#4d4d4d;fill-opacity:1;stroke:none">
      <path inkscape:connector-curvature="0" d="m 265,519 -0.3125,0.28125 -3.40625,3.375 -0.28125,0.3125 0,0.40625 0,4.1875 0,0.40625 0.28125,0.3125 3.40625,3.4375 L 265,532 l 0.40625,0 4.1875,0 0.4375,0 0.28125,-0.28125 3.40625,-3.4375 0.28125,-0.3125 0,-0.40625 0,-4.1875 0,-0.40625 -0.28125,-0.3125 -3.40625,-3.375 L 270,519 l -0.40625,0 -4.1875,0 L 265,519 z m 0.8125,2 3.375,0 2.8125,2.8125 0,3.34375 -2.84375,2.84375 -3.3125,0 L 263,527.15625 263,523.8125 265.8125,521 z" id="rect4631" style="font-size:medium;font-style:normal;font-variant:normal;font-weight:normal;font-stretch:normal;text-indent:0;text-align:start;text-decoration:none;line-height:normal;letter-spacing:normal;word-spacing:normal;text-transform:none;direction:ltr;block-progression:tb;writing-mode:lr-tb;text-anchor:start;color:#bebebe;fill:#4d4d4d;fill-opacity:1;stroke:none;stroke-width:2;marker:none;visibility:visible;display:inline;overflow:visible;enable-background:accumulate;font-family:Sans;-inkscape-font-specification:Sans" />
      <path inkscape:connector-curvature="0" d="M 266.16563,522 264,524.14574 l 0,2.67074 2.16563,2.18352 2.67074,0 2.16363,-2.18352 0,-2.67074 -2.16363,-2.14574 -2.67074,0 z" id="rect4631-4" style="color:#bebebe;fill:#4d4d4d;fill-opacity:1;stroke:none;stroke-width:2;marker:none;visibility:visible;display:inline;overflow:visible;enable-background:accumulate" />
   </g>
   <g transform="translate(-260,-518)" id="layer13" />
   <g transform="translate(-260,-518)" id="layer14" />
   <g transform="translate(-260,-518)" id="layer15" />
</svg>
