<?xml version="1.0" encoding="UTF-8" standalone="no"?>
<!-- Created with Inkscape (http://www.inkscape.org/) -->

<svg xmlns:dc="http://purl.org/dc/elements/1.1/" xmlns:cc="http://creativecommons.org/ns#" xmlns:rdf="http://www.w3.org/1999/02/22-rdf-syntax-ns#" xmlns:svg="http://www.w3.org/2000/svg" xmlns="http://www.w3.org/2000/svg" xmlns:sodipodi="http://sodipodi.sourceforge.net/DTD/sodipodi-0.dtd" xmlns:inkscape="http://www.inkscape.org/namespaces/inkscape" id="svg7384" version="1.1" height="16" width="16" inkscape:version="0.48.3.1 r9886" sodipodi:docname="tab-new.svg">
   <sodipodi:namedview pagecolor="#ffffff" bordercolor="#666666" borderopacity="1" objecttolerance="10" gridtolerance="10" guidetolerance="10" inkscape:pageopacity="0" inkscape:pageshadow="2" inkscape:window-width="682" inkscape:window-height="719" id="namedview10663" showgrid="true" inkscape:zoom="32.125" inkscape:cx="7.3403088" inkscape:cy="4.4494134" inkscape:window-x="0" inkscape:window-y="23" inkscape:window-maximized="0" inkscape:current-layer="svg7384">
      <inkscape:grid type="xygrid" id="grid2991" />
   </sodipodi:namedview>
   <title id="title9167">Gnome Symbolic Icon Theme</title>
   <metadata id="metadata90">
      <rdf:RDF>
         <cc:Work rdf:about="">
            <dc:format>image/svg+xml</dc:format>
            <dc:type rdf:resource="http://purl.org/dc/dcmitype/StillImage" />
            <dc:title>Gnome Symbolic Icon Theme</dc:title>
         </cc:Work>
      </rdf:RDF>
   </metadata>
   <defs id="defs7386" />
   <g transform="translate(-260,-518)" id="layer9" style="display:inline" />
   <g transform="translate(-260,-518)" id="layer10" />
   <g transform="translate(-260,-518)" id="layer11" />
   <g transform="translate(-260,-518)" id="layer13" />
   <g transform="translate(-260,-518)" id="layer14" />
   <g transform="translate(-260,-518)" id="layer15" />
   <g style="display:inline" transform="translate(-207.9998,-996)" inkscape:label="folder-saved-search" id="g12901">
      <g id="g12903">
         <path inkscape:connector-curvature="0" style="fill:#f57900;fill-opacity:1;stroke:none;display:inline" d="M 442.53125,197 C 442.24212,197 442,197.24212 442,197.53125 l 0,13.9375 c 0,0.2985 0.23264,0.53125 0.53125,0.53125 l 14.9375,0 C 457.76735,212 458,211.76735 458,211.46875 l 0,-8.9375 C 458,202.24215 457.75788,202 457.46875,202 L 445,202 l 0,7.5 c 0,0.277 -0.223,0.5 -0.5,0.5 -0.277,0 -0.5,-0.223 -0.5,-0.5 l 0,-8 c 0,-0.277 0.223,-0.5 0.5,-0.5 l 2.96875,0 8.53125,0 0,-1.40625 C 456,199.26655 455.73334,199 455.40625,199 L 448,199 l 0,-1.46875 C 448,197.2421 447.75788,197 447.46875,197 l -4.9375,0 z m 8,6 c 1.92115,0 3.46875,1.61015 3.46875,3.53125 0,0.59543 -0.17515,1.1363 -0.4375,1.625 l 1.1875,1.1875 a 1.0001,1.0001 0 1 1 -1.40625,1.40625 l -1.1875,-1.1875 C 451.66755,209.82485 451.12666,210 450.53125,210 448.61009,210 447,208.45245 447,206.53125 447,204.61015 448.61009,203 450.53125,203 z m 0,2 C 449.69097,205 449,205.69095 449,206.53125 c 0,0.8403 0.69097,1.46875 1.53125,1.46875 0.37613,0 0.71487,-0.12926 0.96875,-0.34375 a 1.0001,1.0001 0 0 1 0.125,-0.0937 c 0.0103,-0.011 0.0213,-0.0199 0.0312,-0.0312 0.22493,-0.25623 0.34375,-0.61392 0.34375,-1 C 452,205.69095 451.37152,205 450.53125,205 z" transform="translate(-234.0002,800)" id="path12905" />
         <rect transform="translate(165.9998,420)" y="576" x="42" height="16" width="16" id="rect12907" style="color:#bebebe;fill:none;stroke:none;stroke-width:2;marker:none;visibility:visible;display:inline;overflow:visible;enable-background:accumulate" />
      </g>
   </g>
</svg>
