<?xml version="1.0" encoding="UTF-8" standalone="no"?>
<!-- Created with Inkscape (http://www.inkscape.org/) -->

<svg xmlns:dc="http://purl.org/dc/elements/1.1/" xmlns:cc="http://creativecommons.org/ns#" xmlns:rdf="http://www.w3.org/1999/02/22-rdf-syntax-ns#" xmlns:svg="http://www.w3.org/2000/svg" xmlns="http://www.w3.org/2000/svg" xmlns:sodipodi="http://sodipodi.sourceforge.net/DTD/sodipodi-0.dtd" xmlns:inkscape="http://www.inkscape.org/namespaces/inkscape" id="svg7384" version="1.1" height="16" width="16" inkscape:version="0.48.3.1 r9886" sodipodi:docname="Unstarred.svg">
   <sodipodi:namedview pagecolor="#ffffff" bordercolor="#666666" borderopacity="1" objecttolerance="10" gridtolerance="10" guidetolerance="10" inkscape:pageopacity="0" inkscape:pageshadow="2" inkscape:window-width="682" inkscape:window-height="719" id="namedview10663" showgrid="false" inkscape:zoom="14.75" inkscape:cx="6.6779661" inkscape:cy="6.9152542" inkscape:window-x="0" inkscape:window-y="23" inkscape:window-maximized="0" inkscape:current-layer="svg7384" />
   <title id="title9167">Gnome Symbolic Icon Theme</title>
   <metadata id="metadata90">
      <rdf:RDF>
         <cc:Work rdf:about="">
            <dc:format>image/svg+xml</dc:format>
            <dc:type rdf:resource="http://purl.org/dc/dcmitype/StillImage" />
            <dc:title>Gnome Symbolic Icon Theme</dc:title>
         </cc:Work>
      </rdf:RDF>
   </metadata>
   <defs id="defs7386" />
   <g transform="translate(-260,-518)" id="layer9" style="display:inline" />
   <g transform="translate(-260,-518)" id="layer10" />
   <g transform="translate(-260,-518)" id="layer11" />
   <g transform="translate(-260,-518)" id="layer13" />
   <g transform="translate(-260,-518)" id="layer14" />
   <g transform="translate(-260,-518)" id="layer15" />
   <g style="display:inline" transform="translate(-227.9998,-996)" inkscape:label="non-starred" id="g5514">
      <g id="g5516" inkscape:label="folder-remote">
         <rect style="color:#bebebe;fill:none;stroke:none;stroke-width:2;marker:none;visibility:visible;display:inline;overflow:visible;enable-background:accumulate" id="rect5518" width="16" height="16" x="227.9998" y="996" />
      </g>
      <path inkscape:transform-center-y="-0.62095852" inkscape:transform-center-x="-0.0087922894" transform="matrix(0.96977421,-0.00778823,0.00807134,0.935758,-276.43773,838.84297)" d="m 530.9488,186.70897 c -0.77941,0.55189 -3.15759,-1.90601 -4.11253,-1.9179 -0.95532,-0.0119 -3.39494,2.38585 -4.16096,1.8149 -0.76573,-0.57072 0.83698,-3.59203 0.55319,-4.50391 -0.2839,-0.91223 -3.31818,-2.49151 -3.01189,-3.39647 0.30617,-0.90461 3.67487,-0.31399 4.45442,-0.86567 0.77986,-0.5519 1.3442,-3.92569 2.29952,-3.91404 0.95494,0.0116 1.43421,3.39798 2.19979,3.9689 0.76588,0.57114 4.14893,0.0653 4.43307,0.97746 0.28402,0.9118 -2.78848,2.41405 -3.09488,3.31858 -0.30652,0.90489 1.21999,3.96605 0.44027,4.51815 z" inkscape:randomized="0" inkscape:rounded="0.2104596" inkscape:flatsided="false" sodipodi:arg2="1.5829876" sodipodi:arg1="0.95492637" sodipodi:r2="3.8276224" sodipodi:r1="7.0383992" sodipodi:cy="180.96373" sodipodi:cx="526.88293" sodipodi:sides="5" id="path5520" style="color:black;fill:none;stroke:#4d4d4d;stroke-width:1.04970645999999990;stroke-miterlimit:4;stroke-opacity:1;stroke-dasharray:none;marker:none;visibility:visible;display:inline;overflow:visible;enable-background:accumulate" sodipodi:type="star" />
   </g>
</svg>
