<?xml version="1.0" encoding="UTF-8" standalone="no"?>
<svg xmlns:inkscape="http://www.inkscape.org/namespaces/inkscape" xmlns:rdf="http://www.w3.org/1999/02/22-rdf-syntax-ns#" xmlns="http://www.w3.org/2000/svg" sodipodi:docname="add-bookmark.svg" height="16" width="16" version="1.1" xmlns:cc="http://creativecommons.org/ns#" xmlns:dc="http://purl.org/dc/elements/1.1/" inkscape:version="0.48.3.1 r9886" xmlns:sodipodi="http://sodipodi.sourceforge.net/DTD/sodipodi-0.dtd">
<metadata>
<rdf:RDF>
<cc:Work rdf:about="">
<dc:format>image/svg+xml</dc:format>
<dc:type rdf:resource="http://purl.org/dc/dcmitype/StillImage"/>
<dc:title>Gnome Symbolic Icon Theme</dc:title>
</cc:Work>
</rdf:RDF>
</metadata>
<sodipodi:namedview inkscape:zoom="1" borderopacity="1" inkscape:current-layer="layer12" inkscape:cx="-189.55772" guidetolerance="10" inkscape:snap-grids="true" inkscape:snap-bbox-midpoints="false" inkscape:object-paths="true" inkscape:window-maximized="1" inkscape:snap-bbox="true" showgrid="false" inkscape:snap-nodes="true" inkscape:snap-global="true" showguides="true" bordercolor="#666666" inkscape:window-x="0" inkscape:guide-bbox="true" objecttolerance="10" inkscape:object-nodes="true" inkscape:window-y="27" inkscape:snap-others="false" inkscape:window-width="1366" inkscape:pageopacity="1" inkscape:snap-to-guides="true" inkscape:pageshadow="2" pagecolor="#555753" gridtolerance="10" inkscape:bbox-paths="false" inkscape:cy="-9.48056" inkscape:window-height="712" showborder="false">
<inkscape:grid spacingx="1px" enabled="true" spacingy="1px" visible="true" snapvisiblegridlinesonly="true" type="xygrid" empspacing="2"/>
</sodipodi:namedview>
<title>Gnome Symbolic Icon Theme</title>
<g inkscape:label="actions" transform="translate(-261 -647)" inkscape:groupmode="layer">
<path style="color:#000000" inkscape:connector-curvature="0" fill="#2e3436" d="m269 647.69c-1.0005-0.004-1.5631 3.5402-2.375 4.125-0.81155 0.58452-4.3435-0.0125-4.6562 0.9375-0.31286 0.95036 2.8822 2.5784 3.1875 3.5312 0.30513 0.95245-1.3381 4.1278-0.53125 4.7188 0.80717 0.59122 3.3432-1.9416 4.3438-1.9375 1.0001 0.004 3.5011 2.5847 4.3125 2 0.81172-0.58496-0.81311-3.7997-0.5-4.75 0.31298-0.9499 3.5241-2.5476 3.2188-3.5-0.3055-0.95275-3.8492-0.37732-4.6562-0.96875-0.8067-0.5912-1.3436-4.1524-2.3438-4.1562zm-1 4.3125h2v2h2v2h-2v2h-2v-2h-2v-2h2z" sodipodi:nodetypes="ssssscsssssccccccccccccc"/>
</g>
</svg>
