<?xml version="1.0" encoding="UTF-8" standalone="no"?>
<svg xmlns:inkscape="http://www.inkscape.org/namespaces/inkscape" xmlns:rdf="http://www.w3.org/1999/02/22-rdf-syntax-ns#" xmlns="http://www.w3.org/2000/svg" height="16" width="16" version="1.1" xmlns:cc="http://creativecommons.org/ns#" xmlns:dc="http://purl.org/dc/elements/1.1/">
<title>Gnome Symbolic Icon Theme</title>
<metadata>
<rdf:RDF>
<cc:Work rdf:about="">
<dc:format>image/svg+xml</dc:format>
<dc:type rdf:resource="http://purl.org/dc/dcmitype/StillImage"/>
<dc:title>Gnome Symbolic Icon Theme</dc:title>
</cc:Work>
</rdf:RDF>
</metadata>
<g transform="translate(-42 -782)">
<g transform="translate(-304.19 -181.18)" fill="#2e3436">
<path d="m-187.03 412.63a8.4853 8.0433 0 1 1 -16.971 0 8.4853 8.0433 0 1 1 16.971 0z" transform="matrix(.47140 0 0 .49731 442.36 762.98)"/>
<path d="m-187.03 412.63a8.4853 8.0433 0 1 1 -16.971 0 8.4853 8.0433 0 1 1 16.971 0z" transform="matrix(.47140 0 0 .49731 450.36 762.98)"/>
<path d="m346.95 970.46 7.3697-2.1428 6.8501 2.536-7.0269 7.357-7.1929-7.7502z" inkscape:connector-curvature="0"/>
</g>
</g>
</svg>
