<?xml version="1.0" encoding="UTF-8" standalone="no"?>
<svg xmlns:inkscape="http://www.inkscape.org/namespaces/inkscape" xmlns:rdf="http://www.w3.org/1999/02/22-rdf-syntax-ns#" xmlns="http://www.w3.org/2000/svg" inkscape:version="0.48.3.1 r9886" height="16" width="16" version="1.1" xmlns:cc="http://creativecommons.org/ns#" xmlns:dc="http://purl.org/dc/elements/1.1/" sodipodi:docname="bookmarks.svg" xmlns:sodipodi="http://sodipodi.sourceforge.net/DTD/sodipodi-0.dtd">
<metadata>
<rdf:RDF>
<cc:Work rdf:about="">
<dc:format>image/svg+xml</dc:format>
<dc:type rdf:resource="http://purl.org/dc/dcmitype/StillImage"/>
<dc:title>Gnome Symbolic Icon Theme</dc:title>
</cc:Work>
</rdf:RDF>
</metadata>
<sodipodi:namedview inkscape:zoom="16" borderopacity="1" inkscape:current-layer="layer13" inkscape:cx="15.187979" guidetolerance="10" inkscape:snap-grids="true" inkscape:window-maximized="0" inkscape:snap-bbox="true" showgrid="false" inkscape:snap-nodes="false" inkscape:snap-global="true" showguides="true" bordercolor="#666666" inkscape:window-x="52" inkscape:guide-bbox="true" objecttolerance="10" inkscape:object-nodes="true" inkscape:window-y="26" inkscape:window-width="1310" inkscape:pageopacity="1" inkscape:snap-to-guides="true" inkscape:pageshadow="2" pagecolor="#555753" gridtolerance="10" inkscape:bbox-paths="false" inkscape:cy="8.0246122" inkscape:window-height="690" showborder="false">
<inkscape:grid visible="true" enabled="true" spacingy="1px" spacingx="1px" snapvisiblegridlinesonly="true" type="xygrid" empspacing="2"/>
</sodipodi:namedview>
<title>Gnome Symbolic Icon Theme</title>
<g inkscape:label="places" transform="translate(-522,-176)" inkscape:groupmode="layer">
<path style="color:#000000" sodipodi:type="star" sodipodi:sides="5" inkscape:transform-center-x="-0.0094346789" sodipodi:r1="7.0383992" inkscape:flatsided="false" inkscape:transform-center-y="-0.69491065" transform="matrix(1.0472 -.0087158 .0087158 1.0472 -23.355 -.84575)" sodipodi:arg2="1.5829876" sodipodi:arg1="0.95492637" inkscape:randomized="0" d="m530.95 186.71c-0.77941 0.55189-3.1576-1.906-4.1125-1.9179-0.95532-0.0119-3.3949 2.3858-4.161 1.8149-0.76573-0.57072 0.83698-3.592 0.55319-4.5039-0.2839-0.91223-3.3182-2.4915-3.0119-3.3965 0.30617-0.90461 3.6749-0.31399 4.4544-0.86567 0.77986-0.5519 1.3442-3.9257 2.2995-3.914 0.95494 0.0116 1.4342 3.398 2.1998 3.9689 0.76588 0.57114 4.1489 0.0653 4.4331 0.97746 0.28402 0.9118-2.7885 2.414-3.0949 3.3186-0.30652 0.90489 1.22 3.966 0.44027 4.5182z" sodipodi:cy="180.96373" sodipodi:cx="526.88293" inkscape:rounded="0.2104596" sodipodi:r2="3.8276224" fill="#2e3436"/>
</g>
</svg>
