<?xml version="1.0" encoding="UTF-8" standalone="no"?>
<!-- Created with Inkscape (http://www.inkscape.org/) -->

<svg
   xmlns:dc="http://purl.org/dc/elements/1.1/"
   xmlns:cc="http://creativecommons.org/ns#"
   xmlns:rdf="http://www.w3.org/1999/02/22-rdf-syntax-ns#"
   xmlns:svg="http://www.w3.org/2000/svg"
   xmlns="http://www.w3.org/2000/svg"
   xmlns:sodipodi="http://sodipodi.sourceforge.net/DTD/sodipodi-0.dtd"
   xmlns:inkscape="http://www.inkscape.org/namespaces/inkscape"
   width="16px"
   height="16px"
   id="svg3107"
   version="1.1"
   inkscape:version="0.48.3.1 r9886"
   sodipodi:docname="download-noarrow.svg">
  <defs
     id="defs3109" />
  <sodipodi:namedview
     id="base"
     pagecolor="#ffffff"
     bordercolor="#666666"
     borderopacity="1.0"
     inkscape:pageopacity="0.0"
     inkscape:pageshadow="2"
     inkscape:zoom="31.392433"
     inkscape:cx="3.6926008"
     inkscape:cy="9.3152796"
     inkscape:current-layer="g3137"
     showgrid="true"
     inkscape:grid-bbox="true"
     inkscape:document-units="px"
     inkscape:window-width="1366"
     inkscape:window-height="712"
     inkscape:window-x="0"
     inkscape:window-y="27"
     inkscape:window-maximized="1">
    <inkscape:grid
       type="xygrid"
       id="grid3896" />
  </sodipodi:namedview>
  <metadata
     id="metadata3112">
    <rdf:RDF>
      <cc:Work
         rdf:about="">
        <dc:format>image/svg+xml</dc:format>
        <dc:type
           rdf:resource="http://purl.org/dc/dcmitype/StillImage" />
        <dc:title></dc:title>
      </cc:Work>
    </rdf:RDF>
  </metadata>
  <g
     id="layer1"
     inkscape:label="Layer 1"
     inkscape:groupmode="layer">
    <g
       id="g3137"
       transform="translate(-1.2876237,-1038.6379)">
      <path
         id="rect3093"
         d="m 3.2876237,1039.6379 c -0.554,0 -1,0.446 -1,1 l 0,5 c 0,0.554 0.446,1 1,1 l 6.0000005,0 c 0,-1 0,-1 0,-2 l -5.0000005,0 c -0.5540096,0 -1,-0.446 -1,-1 l 0,-1 c 0,-0.554 0.4459904,-1 1,-1 l 10.0000003,0 c 0.55401,0 1,0.446 1,1 l 0,1 c 0,0.554 -0.44599,1 -1,1 l -4.9999998,0 c 1e-6,0.6667 5e-7,1.3333 0,2 l 5.9999998,0 c 0.554,0 0.999999,-0.446 0.999999,-1 l 0,-5 c 0,-0.554 -0.445999,-1 -0.999999,-1 z"
         style="fill:#2e3436;fill-opacity:1;stroke:none"
         inkscape:connector-curvature="0"
         sodipodi:nodetypes="ssssccssssssssccsssss" />
    </g>
  </g>
</svg>
