<?xml version="1.0" encoding="UTF-8" standalone="no"?>
<!-- Created with Inkscape (http://www.inkscape.org/) -->

<svg
   xmlns:dc="http://purl.org/dc/elements/1.1/"
   xmlns:cc="http://creativecommons.org/ns#"
   xmlns:rdf="http://www.w3.org/1999/02/22-rdf-syntax-ns#"
   xmlns:svg="http://www.w3.org/2000/svg"
   xmlns="http://www.w3.org/2000/svg"
   xmlns:sodipodi="http://sodipodi.sourceforge.net/DTD/sodipodi-0.dtd"
   xmlns:inkscape="http://www.inkscape.org/namespaces/inkscape"
   width="16px"
   height="16px"
   id="svg3107"
   version="1.1"
   inkscape:version="0.48.3.1 r9886"
   sodipodi:docname="download.svg">
  <defs
     id="defs3109" />
  <sodipodi:namedview
     id="base"
     pagecolor="#ffffff"
     bordercolor="#666666"
     borderopacity="1.0"
     inkscape:pageopacity="0.0"
     inkscape:pageshadow="2"
     inkscape:zoom="22.197802"
     inkscape:cx="1.847672"
     inkscape:cy="6.3500204"
     inkscape:current-layer="g3137"
     showgrid="true"
     inkscape:grid-bbox="true"
     inkscape:document-units="px"
     inkscape:window-width="1366"
     inkscape:window-height="712"
     inkscape:window-x="0"
     inkscape:window-y="27"
     inkscape:window-maximized="1">
    <inkscape:grid
       type="xygrid"
       id="grid3896" />
  </sodipodi:namedview>
  <metadata
     id="metadata3112">
    <rdf:RDF>
      <cc:Work
         rdf:about="">
        <dc:format>image/svg+xml</dc:format>
        <dc:type
           rdf:resource="http://purl.org/dc/dcmitype/StillImage" />
        <dc:title />
      </cc:Work>
    </rdf:RDF>
  </metadata>
  <g
     id="layer1"
     inkscape:label="Layer 1"
     inkscape:groupmode="layer">
    <g
       id="g3137"
       transform="translate(-1.2876237,-1038.6379)">
      <path
         id="rect3093"
         d="m 3.2876239,1039.6379 c -0.554,0 -1,0.446 -1,1 l 0,5 c 0,0.554 0.446,1 1,1 l 4,0 0,-1 0,-1 -3,0 c -0.5540096,0 -1,-0.446 -1,-1 l 0,-1 c 0,-0.554 0.4459904,-1 1,-1 l 10.0000001,0 c 0.55401,0 1,0.446 1,1 l 0,1 c 0,0.554 -0.44599,1 -1,1 l -3,0 0,1 0,1 4,0 c 0.554,0 1,-0.446 1,-1 l 0,-5 c 0,-0.554 -0.446,-1 -1,-1 l -12.0000001,0 z m 5,6 0,1 2.0000001,0 0,-1 -2.0000001,0 z"
         style="fill:#2e3436;fill-opacity:1;stroke:none"
         inkscape:connector-curvature="0" />
      <path
         sodipodi:nodetypes="cccccccc"
         inkscape:connector-curvature="0"
         id="path3123"
         d="m 12.287624,1049.6379 -2,0 0,-5 -2.0000001,0 0,5 -2,0 3,3 z"
         style="fill:#2e3436;fill-opacity:1;stroke:none" />
      <rect
         style="fill:#d25116;fill-opacity:1;stroke:none"
         id="rect3154"
         width="10"
         height="1.015926"
         x="4.2876239"
         y="1042.6379"
         rx="0.50002611"
         ry="0.47744757" />
    </g>
  </g>
</svg>
