<?xml version="1.0" encoding="UTF-8" standalone="no"?>
<svg xmlns:inkscape="http://www.inkscape.org/namespaces/inkscape" xmlns:rdf="http://www.w3.org/1999/02/22-rdf-syntax-ns#" xmlns="http://www.w3.org/2000/svg" inkscape:version="0.48.3.1 r9886" height="16px" width="16px" version="1.1" xmlns:cc="http://creativecommons.org/ns#" xmlns:dc="http://purl.org/dc/elements/1.1/" sodipodi:docname="download-empty.svg" xmlns:sodipodi="http://sodipodi.sourceforge.net/DTD/sodipodi-0.dtd">
<sodipodi:namedview bordercolor="#666666" inkscape:pageshadow="2" inkscape:window-y="27" pagecolor="#ffffff" inkscape:zoom="22.197802" inkscape:grid-bbox="true" inkscape:window-maximized="1" inkscape:window-x="0" showgrid="true" borderopacity="1.0" inkscape:current-layer="g3137" inkscape:cx="2.9288598" inkscape:cy="6.3500204" inkscape:window-height="712" inkscape:pageopacity="0.0" inkscape:window-width="1366" inkscape:document-units="px">
<inkscape:grid type="xygrid"/>
</sodipodi:namedview>
<metadata>
<rdf:RDF>
<cc:Work rdf:about="">
<dc:format>image/svg+xml</dc:format>
<dc:type rdf:resource="http://purl.org/dc/dcmitype/StillImage"/>
<dc:title/>
</cc:Work>
</rdf:RDF>
</metadata>
<g inkscape:label="Layer 1" inkscape:groupmode="layer">
<g transform="translate(-1.2876 -1038.6)" fill="#2e3436">
<path d="m3.2876 1039.6c-0.554 0-1 0.446-1 1v5c0 0.554 0.446 1 1 1h4v-2h-3c-0.55401 0-1-0.446-1-1v-1c0-0.554 0.44599-1 1-1h10c0.55401 0 1 0.446 1 1v1c0 0.554-0.44599 1-1 1h-3v2h4c0.554 0 1-0.446 1-1v-5c0-0.554-0.446-1-1-1h-12zm5 6v1h2v-1h-2z" inkscape:connector-curvature="0"/>
<path sodipodi:nodetypes="cccccccc" d="m12.288 1049.6h-2v-5h-2v5h-2l3 3z" inkscape:connector-curvature="0"/>
</g>
</g>
</svg>
