<?xml version="1.0" encoding="UTF-8" standalone="no"?>
<svg xmlns:inkscape="http://www.inkscape.org/namespaces/inkscape" xmlns:rdf="http://www.w3.org/1999/02/22-rdf-syntax-ns#" xmlns="http://www.w3.org/2000/svg" inkscape:version="0.48.3.1 r9886" height="16px" width="16px" version="1.1" xmlns:cc="http://creativecommons.org/ns#" xmlns:dc="http://purl.org/dc/elements/1.1/" sodipodi:docname="download-noarrow.svg" xmlns:sodipodi="http://sodipodi.sourceforge.net/DTD/sodipodi-0.dtd">
<sodipodi:namedview bordercolor="#666666" inkscape:pageshadow="2" inkscape:window-y="27" pagecolor="#ffffff" inkscape:zoom="31.392433" inkscape:grid-bbox="true" inkscape:window-maximized="1" inkscape:window-x="0" showgrid="true" borderopacity="1.0" inkscape:current-layer="g3137" inkscape:cx="3.6926008" inkscape:cy="9.3152796" inkscape:window-height="712" inkscape:pageopacity="0.0" inkscape:window-width="1366" inkscape:document-units="px">
<inkscape:grid type="xygrid"/>
</sodipodi:namedview>
<metadata>
<rdf:RDF>
<cc:Work rdf:about="">
<dc:format>image/svg+xml</dc:format>
<dc:type rdf:resource="http://purl.org/dc/dcmitype/StillImage"/>
<dc:title/>
</cc:Work>
</rdf:RDF>
</metadata>
<g inkscape:label="Layer 1" inkscape:groupmode="layer">
<g transform="translate(-1.2876 -1038.6)">
<path sodipodi:nodetypes="ssssccssssssssccsssss" fill="#2e3436" d="m3.2876 1039.6c-0.554 0-1 0.446-1 1v5c0 0.554 0.446 1 1 1h6v-2h-5c-0.55401 0-1-0.446-1-1v-1c0-0.554 0.44599-1 1-1h10c0.55401 0 1 0.446 1 1v1c0 0.554-0.44599 1-1 1h-5c0.000001 0.6667 5e-7 1.3333 0 2h6c0.554 0 1-0.446 1-1v-5c0-0.554-0.446-1-1-1z" inkscape:connector-curvature="0"/>
</g>
</g>
</svg>
