<?xml version="1.0" encoding="UTF-8" standalone="no"?>
<svg xmlns:inkscape="http://www.inkscape.org/namespaces/inkscape" xmlns:rdf="http://www.w3.org/1999/02/22-rdf-syntax-ns#" xmlns="http://www.w3.org/2000/svg" inkscape:version="0.48.3.1 r9886" height="16" width="16" version="1.1" xmlns:cc="http://creativecommons.org/ns#" xmlns:dc="http://purl.org/dc/elements/1.1/" sodipodi:docname="clear.svg" xmlns:sodipodi="http://sodipodi.sourceforge.net/DTD/sodipodi-0.dtd">
<metadata>
<rdf:RDF>
<cc:Work rdf:about="">
<dc:format>image/svg+xml</dc:format>
<dc:type rdf:resource="http://purl.org/dc/dcmitype/StillImage"/>
<dc:title>Gnome Symbolic Icon Theme</dc:title>
</cc:Work>
</rdf:RDF>
</metadata>
<sodipodi:namedview inkscape:zoom="1" borderopacity="1" inkscape:current-layer="layer12" inkscape:cx="-177.82725" guidetolerance="10" inkscape:snap-grids="true" inkscape:window-maximized="0" inkscape:snap-bbox="true" showgrid="false" inkscape:snap-nodes="true" inkscape:snap-global="true" showguides="true" bordercolor="#666666" inkscape:window-x="54" inkscape:guide-bbox="true" objecttolerance="10" inkscape:object-nodes="true" inkscape:window-y="26" inkscape:window-width="1310" inkscape:pageopacity="1" inkscape:snap-to-guides="true" inkscape:pageshadow="2" pagecolor="#555753" gridtolerance="10" inkscape:bbox-paths="false" inkscape:cy="0.99928" inkscape:window-height="690" showborder="false">
<inkscape:grid visible="true" enabled="true" spacingy="1px" spacingx="1px" snapvisiblegridlinesonly="true" type="xygrid" empspacing="2"/>
</sodipodi:namedview>
<title>Gnome Symbolic Icon Theme</title>
<g inkscape:label="actions" transform="translate(-120,-538)" inkscape:groupmode="layer">
<g transform="translate(79,-222)" fill="#2e3436">
<path style="color:#000000" transform="translate(-79,222)" fill="#2e3436" d="m126 540-6 6 6 6h9.0353c0.53-0.02 0.96-0.49 0.96-1v-10c0-0.53079-0.34561-1-1.0089-1h-8.99zm1 3h1c0.0104-0.00012 0.0208-0.00046 0.0313 0 0.25495 0.0112 0.50987 0.12858 0.6875 0.3125l1.2812 1.2812 1.3125-1.2812c0.27-0.23 0.45-0.3 0.69-0.31h1v1c0 0.28647-0.0343 0.55065-0.25 0.75l-1.2812 1.2812 1.25 1.25c0.19 0.19 0.28 0.45 0.28 0.72v1h-1c-0.2653-0.00001-0.53059-0.0931-0.71875-0.28125l-1.28-1.28-1.2812 1.2812c-0.19 0.19-0.45 0.28-0.72 0.28h-1v-1c0-0.26529 0.0931-0.53058 0.28125-0.71875l1.2812-1.25-1.2812-1.2812c-0.21-0.19-0.3-0.47-0.28-0.75v-1z" sodipodi:nodetypes="ccccccccccsccccccccccccccccccccccc"/>
</g>
</g>
</svg>
