<?xml version="1.0" encoding="UTF-8" standalone="no"?>
<svg xmlns:inkscape="http://www.inkscape.org/namespaces/inkscape" xmlns:rdf="http://www.w3.org/1999/02/22-rdf-syntax-ns#" xmlns="http://www.w3.org/2000/svg" sodipodi:docname="gear.svg" height="16" width="16" version="1.1" xmlns:cc="http://creativecommons.org/ns#" xmlns:dc="http://purl.org/dc/elements/1.1/" inkscape:version="0.48.3.1 r9886" xmlns:sodipodi="http://sodipodi.sourceforge.net/DTD/sodipodi-0.dtd">
<metadata>
<rdf:RDF>
<cc:Work rdf:about="">
<dc:format>image/svg+xml</dc:format>
<dc:type rdf:resource="http://purl.org/dc/dcmitype/StillImage"/>
<dc:title>Gnome Symbolic Icon Theme</dc:title>
</cc:Work>
</rdf:RDF>
</metadata>
<sodipodi:namedview inkscape:zoom="1" borderopacity="1" inkscape:current-layer="layer15" inkscape:cx="9.30971" inkscape:window-y="27" inkscape:snap-grids="true" inkscape:snap-bbox-midpoints="false" inkscape:object-paths="false" inkscape:window-maximized="0" inkscape:snap-bbox="true" showgrid="false" inkscape:snap-nodes="true" inkscape:guide-bbox="true" inkscape:snap-global="true" showguides="true" bordercolor="#666666" inkscape:window-x="138" guidetolerance="10" objecttolerance="10" inkscape:object-nodes="false" inkscape:snap-others="false" inkscape:window-width="1226" inkscape:pageopacity="1" inkscape:snap-to-guides="true" inkscape:pageshadow="2" pagecolor="#555753" gridtolerance="10" inkscape:bbox-paths="false" inkscape:cy="-0.23089111" inkscape:window-height="711" showborder="false">
<inkscape:grid visible="true" enabled="true" spacingy="1px" spacingx="1px" snapvisiblegridlinesonly="true" type="xygrid" empspacing="2"/>
</sodipodi:namedview>
<title>Gnome Symbolic Icon Theme</title>
<g inkscape:label="emblems" transform="translate(-441 -401)" inkscape:groupmode="layer">
<path style="color:#000000" inkscape:connector-curvature="0" fill="#2e3436" d="m449 402c-0.22065 0-0.44081 0.0113-0.65625 0.0312l-0.40625 2.0938c-0.33446 0.0733-0.66305 0.17589-0.96875 0.3125l-1.5312-1.4688c-0.38863 0.23011-0.72695 0.51408-1.0625 0.8125l0.90625 1.9062c-0.22242 0.24899-0.42425 0.5225-0.59375 0.8125l-2.0938-0.28125c-0.17772 0.40877-0.30872 0.83637-0.40625 1.2812l1.8438 1c-0.0171 0.16809-0.0312 0.3274-0.0312 0.5s0.0142 0.33191 0.0312 0.5l-1.8438 1c0.0975 0.44488 0.22853 0.87248 0.40625 1.2812l2.0938-0.28125c0.1695 0.29 0.37133 0.56351 0.59375 0.8125l-0.90625 1.9062c0.33555 0.29842 0.67387 0.58239 1.0625 0.8125l1.5312-1.4688c0.3057 0.13661 0.63429 0.23916 0.96875 0.3125l0.40625 2.0938c0.21544 0.02 0.4356 0.0312 0.65625 0.0312s0.44081-0.0113 0.65625-0.0312l0.40625-2.0938c0.33446-0.0733 0.66305-0.17589 0.96875-0.3125l1.5312 1.4688c0.38863-0.23011 0.72695-0.51408 1.0625-0.8125l-0.90625-1.9062c0.22242-0.24899 0.42425-0.5225 0.59375-0.8125l2.0938 0.28125c0.17772-0.40877 0.30872-0.83637 0.40625-1.2812l-1.8438-1c0.0171-0.16809 0.0312-0.3274 0.0312-0.5s-0.0142-0.33191-0.0312-0.5l1.8438-1c-0.0975-0.44488-0.22853-0.87248-0.40625-1.2812l-2.0938 0.28125c-0.1695-0.29-0.37133-0.56351-0.59375-0.8125l0.90625-1.9062c-0.33555-0.29842-0.67387-0.58239-1.0625-0.8125l-1.5312 1.4688c-0.3057-0.13661-0.63429-0.23916-0.96875-0.3125l-0.40625-2.0938c-0.21544-0.02-0.4356-0.0312-0.65625-0.0312zm0 4c1.6568 0 3 1.3432 3 3s-1.3432 3-3 3-3-1.3432-3-3 1.3432-3 3-3z" sodipodi:nodetypes="sccccccccccsccccccccccsccccccccccsccccccccccssssss"/>
</g>
</svg>
