<?xml version="1.0" encoding="UTF-8" standalone="no"?>
<svg xmlns:inkscape="http://www.inkscape.org/namespaces/inkscape" xmlns:rdf="http://www.w3.org/1999/02/22-rdf-syntax-ns#" xmlns="http://www.w3.org/2000/svg" sodipodi:docname="firefox.svg" height="16px" width="16px" version="1.1" xmlns:cc="http://creativecommons.org/ns#" xmlns:dc="http://purl.org/dc/elements/1.1/" inkscape:version="0.48.4 r9939" xmlns:sodipodi="http://sodipodi.sourceforge.net/DTD/sodipodi-0.dtd">
<sodipodi:namedview inkscape:document-units="px"/>
<metadata>
<rdf:RDF>
<cc:Work rdf:about="">
<dc:format>image/svg+xml</dc:format>
<dc:type rdf:resource="http://purl.org/dc/dcmitype/StillImage"/>
<dc:title/>
</cc:Work>
</rdf:RDF>
</metadata>
<g inkscape:label="Layer 1" inkscape:groupmode="layer">
<g transform="matrix(.12609 0 0 .12609 -.57459 -.18966)" stroke-opacity="0" fill="#2e3436">
<g fill="#2e3436" transform="matrix(1.0416 0 0 1.0416 2.1122 -2.7011)">
<path d="m10.469 0.8125c-0.4711-0.02016-0.7225 0.05823-0.719 0.0625 0.0071 0.00867 1.94 0.3123 2.281 0.7812 0 0-0.811 0.0156-1.625 0.25-0.023 0.0068 1.227 0.1539 2.282 1.0626 0.589 0.5079 1.09 1.258 1.312 2.3437 0 0-0.339-0.6948-0.75-0.8125 0.27 0.8219 0.226 2.3811-0.031 3.1562-0.033 0.0997-0.087-0.4277-0.594-0.6562 0.162 1.1632-0.005 2.9917-0.813 3.5-0.062 0.04 0.517-1.8132 0.126-1.0938-2.3379 3.5838-5.1234 1.4478-6.2505 0.6878 0.9046 0.221 1.8499 0.067 2.4063-0.3128 0.5614-0.3837 0.9204-0.66 1.2187-0.5937 0.2981 0.0666 0.4815-0.2346 0.25-0.5-0.2318-0.266-0.801-0.6367-1.5625-0.4375-0.537 0.1407-1.2029 0.7266-2.2188 0.125-0.8666-0.5135-0.8437-0.9218-0.8437-1.1875 0-0.2658 0.226-0.6601 0.6563-0.5937 0.0963 0.0148 0.1458 0.0102 0.1874 0 0.0092 0.0019 0.0223-0.0021 0.0313 0 0.2094 0.0467 0.3969 0.1177 0.5937 0.2187 0.0094-0.2423 0.009-0.7342-0.125-1.125 0.0435-0.1961 1.2255-0.9035 1.3126-0.9687 0.0868-0.0655 0.3059-0.1966 0.2812-0.6563-0.008-0.151-0.0392-0.1925-1.2812-0.1875-0.5371 0.0022-0.8207-0.4986-0.9063-0.6875 0.1266-0.7034 0.4902-1.2228 1.0937-1.5625 0.0591-0.0333-0.217-0.0317-0.625 0.0625-0.0295 0.0068-0.0631 0.0234-0.0937 0.0313-0.1157 0.0223-0.2096 0.0526-0.3437 0.0937-0.3997 0.1223-0.8378 0.3315-1.1563 0.6875-0.7853-0.1764-1.431-0.0872-1.9687 0.125-0.2507-0.2544-0.877-0.831-0.9063-1.5938 0 0-0.95605 0.7406-0.8125 2.75-0.00189 0.1665-0.01681 0.2648-0.03125 0.375-0.03974 0.0675-0.06705 0.1027-0.09375 0.1563-0.01298 0.0223-0.01821 0.0387-0.03125 0.0625-0.05187 0.1132-0.08451 0.1775-0.0625 0.1562-0.0825 0.1662-0.16866 0.3611-0.25 0.5938-0.00918 0.0258-0.02281 0.0323-0.03125 0.0625-0.01963 0.0714-0.03864 0.127-0.03125 0.1875-0.11955 0.3835-0.24196 0.8329-0.34375 1.4062 0 0 0.17003-0.4282 0.4375-0.9062-0.20046 0.5994-0.4044 1.5143-0.3125 2.9375 0 0 0.04092-0.239 0.09375-0.5625 0.05377 0.8863 0.2775 1.932 0.93745 3.062 1.6554 2.836 4.43 4.088 7.3126 3.844 0.5041-0.033 1.0245-0.096 1.5312-0.218 6.716-1.624 5.969-9.7505 5.969-9.7505l-0.188 1.2187s-0.265-2.2307-0.593-3.0624c-0.378-0.9559-0.601-1.194-0.688-1.25 0.318 0.8289 0.25 1.2812 0.25 1.2812s-0.609-1.6074-2.188-2.125c-0.934-0.30634-1.622-0.41734-2.093-0.4375z" transform="matrix(7.6141 0 0 7.6141 2.3471 4.0373)"/>
</g>
</g>
</g>
</svg>
