<?xml version="1.0" encoding="UTF-8" standalone="no"?>
<svg xmlns:inkscape="http://www.inkscape.org/namespaces/inkscape" xmlns:rdf="http://www.w3.org/1999/02/22-rdf-syntax-ns#" xmlns="http://www.w3.org/2000/svg" inkscape:export-ydpi="90" inkscape:version="0.48.3.1 r9886" inkscape:export-filename="/home/alex/Documents/Projects/firefox-theme-adwaitans/.tmp/1.png" height="16px" width="16px" inkscape:export-xdpi="90" version="1.1" xmlns:cc="http://creativecommons.org/ns#" xmlns:dc="http://purl.org/dc/elements/1.1/" sodipodi:docname="firefox.svg" xmlns:sodipodi="http://sodipodi.sourceforge.net/DTD/sodipodi-0.dtd">
<sodipodi:namedview bordercolor="#666666" inkscape:pageshadow="2" inkscape:window-y="27" pagecolor="#ffffff" inkscape:zoom="16" inkscape:grid-bbox="true" inkscape:window-maximized="1" inkscape:window-x="0" showgrid="true" borderopacity="1.0" inkscape:current-layer="g3779" inkscape:cx="-10.878703" inkscape:cy="6.1989024" inkscape:window-height="712" inkscape:pageopacity="0.0" inkscape:window-width="1366" inkscape:document-units="px"/>
<metadata>
<rdf:RDF>
<cc:Work rdf:about="">
<dc:format>image/svg+xml</dc:format>
<dc:type rdf:resource="http://purl.org/dc/dcmitype/StillImage"/>
<dc:title/>
</cc:Work>
</rdf:RDF>
</metadata>
<g inkscape:label="Layer 1" inkscape:groupmode="layer">
<g transform="matrix(.12609 0 0 .12609 -.57459 -.18966)" stroke-opacity="0" fill="#2e3436">
<g transform="translate(4.743 -.0000020887)">
<g transform="matrix(1.0416 0 0 1.0416 -2.6308 -2.7011)" fill="#2e3436">
<path d="m123.99 43.558-1.426 9.15s-2.039-16.94-4.538-23.273c-3.83-9.704-5.534-9.626-5.545-9.612 2.565 6.519 2.1 10.021 2.1 10.021s-4.545-12.387-16.562-16.328c-14.232-4.665-21.482-2.979-21.428-2.914 0.054 0.066 14.709 2.562 17.308 6.133 0 0-6.225 0-12.42 1.785-0.28 0.08 22.793 2.882 27.51 25.938 0 0-2.529-5.277-5.657-6.173 2.057 6.258 1.529 18.133-0.43 24.035-0.252 0.759-0.51-3.281-4.369-5.021 1.236 8.857-0.074 22.905-6.219 26.775-0.479 0.301 3.852-13.868 0.871-8.39-17.797 27.287-38.956 11.04-47.538 5.249 6.888 1.688 14.205 0.472 18.441-2.423 4.275-2.922 6.804-5.058 9.075-4.553 2.27 0.507 3.781-1.771 2.018-3.792-1.765-2.025-6.051-4.808-11.849-3.291-4.089 1.071-9.156 5.595-16.891 1.014-6.599-3.91-6.554-7.085-6.554-9.108 0-2.024 1.8-5.1 5.076-4.595 2.934 0.453 1.388-1.27 4.545 0 0.86 0.346-0.086-4.129-1.31-6.996 2.357-4.919 10.004-6.381 10.575-6.812 1.034-0.782 0.465-1.172 0.818-2.35 0.33-1.097 0.541-4.062-8.017-3.243-3.938 0.377-6.443-4.726-7.264-5.965 0.266-1.577 0.693-3.018 1.271-4.338 0.587-1.203 1.228-2.305 1.868-3.139 0.2-0.261 0.374-0.49 0.532-0.703 1.276-1.488 2.842-2.76 4.722-3.818 0.981-0.554-10.969-0.035-16.346 6.974-1.443 0.188-3.423-0.228-5.636-0.228-2.774 0-4.953 0.303-6.97 0.81-0.323 0.081-0.844 0.037-1.481-0.115-1.775-1.839-6.797-6.259-7.027-12.254 0 0-7.302 5.612-6.209 20.912-0.096 8.461-2.594 6.042-3.879 10.634-0.598 2.176 0.899 3.815 0.899 3.879-0.002 0.033 1.796-1.946 1.796-1.946s-11.323 19.617 3.3 44.66c12.604 21.589 33.755 31.13 55.703 29.272 3.839-0.25 7.706-0.822 11.564-1.754 51.133-12.363 45.573-74.107 45.573-74.107z" inkscape:connector-curvature="0"/>
<path d="m45.469 27.61s2.21 6.039 7.167 6.019c9.457-0.038 9.646 0.093 9.707 1.243 0.188 3.5-1.54 4.647-2.201 5.145-0.663 0.497-9.668 5.718-9.999 7.211-0.331 1.492-10.391-14.198-10.391-14.198l5.717-5.42z" inkscape:connector-curvature="0"/>
<path d="m50.601 17.239s-7.145 7.257-7.092 7.282c0.054 0.026 0.205 9.315 0.438 11.948 0.856 1.011 3.524 7.588 1.482 6.128-2.086-1.49-0.582-1.522-0.4-0.765 0.005 0.025 0.005 0.037 0 0.037-0.138 0.064-5.185-10.923 5.572-24.63z" inkscape:connector-curvature="0"/>
<path d="m35.328 29.122 11.406 14.185c-3.291-13.93-0.761-22.288 7.34-26.847 1.199-0.676-16.925 0.243-18.746 12.662z" inkscape:connector-curvature="0"/>
<path d="m51.09 55.865c0.1-2.59-0.081-8.881-2.774-11.611-2.057-2.085-2.54-4.474-2.816-7.201-22.363 8.353-25.556 19.272-23.32 18.917 17.886-2.835 22.914-3.182 28.91-0.105z" inkscape:connector-curvature="0"/>
<path d="m3.411 71.171s1.554-20.192 11.661-27.582c7.935-5.805 1.773-3.696-1.291-3.456-3.231 0.256-4.954 2.221-4.331 1.498 0.027-0.03 0.036-0.047 0.031-0.055-0.106-0.125-7.584 6.15-6.07 29.595z" inkscape:connector-curvature="0"/>
<path d="m2.347 55.658s5.416-17.192 16.362-17.047c7.259 0.097 1.501-6.134-0.695-7.081-2.291-0.981-2.839-0.943-3.374-0.469-0.802 0.71-8.004 0.436-12.293 24.597z" inkscape:connector-curvature="0"/>
<path d="m4.508 61.453s3.201-16.621 12.293-21.801c7.138-4.069 1.823-2.901-0.745-2.991-2.708-0.093-4.324 1.375-3.738 0.834 0.025-0.022 0.033-0.037 0.03-0.042-0.076-0.115-6.878 4.389-7.84 24z" inkscape:connector-curvature="0"/>
<path d="m37.802 23.206-3.625 5.833s-14.496-2.273-26.785 9.616c-1.016 0.982 8.038-21.023 30.41-15.449z" inkscape:connector-curvature="0"/>
<path d="m123.18 53.737s0.6266 14.05-18.891 33.568c-2.1691 2.1683-13.946 13.202-13.532 16.512 0.14547 1.1695 30.9-4.7178 32.422-50.08z" inkscape:connector-curvature="0"/>
<path d="m99.014 26.692s14.718 3.068 14.864 26.42c0.10321 16.529 2.5527 6.205 4.9827 2.4901 2.0952-3.2086 0.66317-7.1193 0.61278-7.1096-0.008 0.0024-1.0606-3.042-0.35109-1.7522 0.0317 0.05689-0.98825-0.84034-0.98094-0.84115 0.16335-0.02438-0.56646-16.784-19.128-19.208z" inkscape:connector-curvature="0"/>
<path d="m115.59 29.856s5.2867 13.771-0.31614 20.619c-1.8286 2.2349-2.0334 13.685 0.20074 12.634 2.2398-1.0533 1.753 6.0799 1.4596 6.8918-0.007 0.01544-0.008 0.02276-0.005 0.02519 0.14629 0.09021 11.046-17.603-1.3393-40.17z" inkscape:connector-curvature="0"/>
</g>
</g>
</g>
</g>
</svg>
