<?xml version="1.0" encoding="UTF-8" standalone="no"?>
<!-- Created with Inkscape (http://www.inkscape.org/) -->

<svg
   xmlns:dc="http://purl.org/dc/elements/1.1/"
   xmlns:cc="http://creativecommons.org/ns#"
   xmlns:rdf="http://www.w3.org/1999/02/22-rdf-syntax-ns#"
   xmlns:svg="http://www.w3.org/2000/svg"
   xmlns="http://www.w3.org/2000/svg"
   xmlns:sodipodi="http://sodipodi.sourceforge.net/DTD/sodipodi-0.dtd"
   xmlns:inkscape="http://www.inkscape.org/namespaces/inkscape"
   id="svg7384"
   version="1.1"
   height="16"
   width="16"
   inkscape:version="0.48.2 r9819"
   sodipodi:docname="folder.svg">
  <sodipodi:namedview
     pagecolor="#ffffff"
     bordercolor="#666666"
     borderopacity="1"
     objecttolerance="10"
     gridtolerance="10"
     guidetolerance="10"
     inkscape:pageopacity="0"
     inkscape:pageshadow="2"
     inkscape:window-width="1221"
     inkscape:window-height="734"
     id="namedview10663"
     showgrid="false"
     inkscape:zoom="14.75"
     inkscape:cx="6.6779661"
     inkscape:cy="6.9152542"
     inkscape:window-x="1592"
     inkscape:window-y="149"
     inkscape:window-maximized="0"
     inkscape:current-layer="svg7384" />
  <title
     id="title9167">Gnome Symbolic Icon Theme</title>
  <metadata
     id="metadata90">
    <rdf:RDF>
      <cc:Work
         rdf:about="">
        <dc:format>image/svg+xml</dc:format>
        <dc:type
           rdf:resource="http://purl.org/dc/dcmitype/StillImage" />
        <dc:title>Gnome Symbolic Icon Theme</dc:title>
      </cc:Work>
    </rdf:RDF>
  </metadata>
  <defs
     id="defs7386" />
  <g
     transform="translate(-260,-518)"
     id="layer9"
     style="display:inline" />
  <g
     transform="translate(-260,-518)"
     id="layer10" />
  <g
     transform="translate(-260,-518)"
     id="layer11" />
  <g
     transform="translate(-260,-518)"
     id="layer13" />
  <g
     transform="translate(-260,-518)"
     id="layer14" />
  <g
     transform="translate(-260,-518)"
     id="layer15" />
  <g
     style="display:inline"
     transform="translate(-227.9998,-997)"
     inkscape:label="non-starred"
     id="g5514">
    <g
       id="g5516"
       inkscape:label="folder-remote">
      <rect
         style="color:#bebebe;fill:none;stroke:none;stroke-width:2;marker:none;visibility:visible;display:inline;overflow:visible;enable-background:accumulate"
         id="rect5518"
         width="16"
         height="16"
         x="227.9998"
         y="996" />
    </g>
  </g>
  <g
     id="g4958"
     inkscape:label="folder"
     transform="translate(-207.9998,-997)"
     style="display:inline">
    <path
       sodipodi:nodetypes="ccccccccccsccccccccccc"
       id="rect3845"
       d="m 208.53105,997 c -0.28913,0 -0.53125,0.24212 -0.53125,0.53125 l 0,13.93755 c 0,0.2985 0.23264,0.5312 0.53125,0.5312 l 14.9375,0 c 0.2986,0 0.53125,-0.2326 0.53125,-0.5312 l 0,-8.9376 c 0,-0.2891 -0.24212,-0.5312 -0.53125,-0.5312 l -12.46875,0 0,7.5 c 0,0.277 -0.223,0.5 -0.5,0.5 -0.277,0 -0.5,-0.223 -0.5,-0.5 l 0,-8 c 0,-0.277 0.223,-0.5 0.5,-0.5 l 2.96875,0 8.53125,0 0,-1.4062 c 0,-0.3272 -0.26666,-0.5938 -0.59375,-0.5938 l -7.40625,0 0,-1.46875 C 213.9998,997.2421 213.75768,997 213.46855,997 z"
       style="fill:#4d4d4d;fill-opacity:1;stroke:none;display:inline"
       inkscape:connector-curvature="0" />
    <rect
       y="996"
       x="207.9998"
       height="16"
       width="16"
       id="rect14152"
       style="color:#bebebe;fill:none;stroke:none;stroke-width:2;marker:none;visibility:visible;display:inline;overflow:visible;enable-background:accumulate" />
  </g>
</svg>
