<?xml version="1.0" encoding="UTF-8" standalone="no"?>
<!-- Created with Inkscape (http://www.inkscape.org/) -->

<svg xmlns:dc="http://purl.org/dc/elements/1.1/" xmlns:cc="http://creativecommons.org/ns#" xmlns:rdf="http://www.w3.org/1999/02/22-rdf-syntax-ns#" xmlns:svg="http://www.w3.org/2000/svg" xmlns="http://www.w3.org/2000/svg" xmlns:sodipodi="http://sodipodi.sourceforge.net/DTD/sodipodi-0.dtd" xmlns:inkscape="http://www.inkscape.org/namespaces/inkscape" width="16" height="16" sodipodi:docname="fullscreen.svg" inkscape:version="0.48.3.1 r9886" version="1.1" id="svg7384">
   <metadata id="metadata90">
      <rdf:RDF>
         <cc:Work rdf:about="">
            <dc:format>image/svg+xml</dc:format>
            <dc:type rdf:resource="http://purl.org/dc/dcmitype/StillImage" />
            <dc:title>Gnome Symbolic Icon Theme</dc:title>
         </cc:Work>
      </rdf:RDF>
   </metadata>
   <sodipodi:namedview inkscape:cx="-2.9173002" inkscape:cy="6.9973635" gridtolerance="10" inkscape:snap-nodes="true" inkscape:snap-to-guides="true" inkscape:pageshadow="2" showguides="true" inkscape:zoom="11.313708" bordercolor="#666666" inkscape:window-width="1366" inkscape:window-height="710" guidetolerance="10" inkscape:snap-grids="true" inkscape:current-layer="layer12" showgrid="true" inkscape:snap-bbox-midpoints="false" inkscape:object-paths="false" inkscape:guide-bbox="true" borderopacity="1" inkscape:snap-global="true" inkscape:pageopacity="1" inkscape:window-maximized="0" inkscape:snap-bbox="true" pagecolor="#555753" objecttolerance="10" id="namedview88" showborder="true" inkscape:object-nodes="false" inkscape:window-x="0" inkscape:window-y="25" inkscape:snap-others="false" inkscape:bbox-paths="false">
      <inkscape:grid enabled="true" snapvisiblegridlinesonly="true" visible="true" spacingx="1px" spacingy="1px" type="xygrid" id="grid4866" empspacing="2" />
   </sodipodi:namedview>
   <title id="title9167">Gnome Symbolic Icon Theme</title>
   <defs id="defs7386" />
   <g inkscape:groupmode="layer" inkscape:label="status" id="layer9" style="display:inline" transform="translate(-40.983734,-647.01646)" />
   <g inkscape:groupmode="layer" inkscape:label="devices" id="layer10" transform="translate(-40.983734,-647.01646)" />
   <g inkscape:groupmode="layer" inkscape:label="apps" id="layer11" transform="translate(-40.983734,-647.01646)" />
   <g inkscape:groupmode="layer" inkscape:label="places" id="layer13" transform="translate(-40.983734,-647.01646)" />
   <g inkscape:groupmode="layer" inkscape:label="mimetypes" id="layer14" transform="translate(-40.983734,-647.01646)" />
   <g inkscape:groupmode="layer" inkscape:label="emblems" id="layer15" style="display:inline" transform="translate(-40.983734,-647.01646)" />
   <g inkscape:groupmode="layer" inkscape:label="emotes" style="display:inline" id="g71291" transform="translate(-40.983734,-647.01646)" />
   <g inkscape:groupmode="layer" inkscape:label="categories" style="display:inline" id="g4953" transform="translate(-40.983734,-647.01646)" />
   <g inkscape:groupmode="layer" inkscape:label="actions" id="layer12" style="display:inline" transform="translate(-40.983734,-647.01646)">
      <g id="g3177" transform="translate(21.702484,0.73521)">
         <path inkscape:connector-curvature="0" id="path12113" d="M 41.78125,657 A 1.0001,1.0001 0 0 0 41,658 l 0,4 a 1.0001,1.0001 0 0 0 1,1 l 4,0 a 1.0001,1.0001 0 1 0 0,-2 l -3,0 0,-3 a 1.0001,1.0001 0 0 0 -1.21875,-1 z" style="font-size:medium;font-style:normal;font-variant:normal;font-weight:normal;font-stretch:normal;text-indent:0;text-align:start;text-decoration:none;line-height:normal;letter-spacing:normal;word-spacing:normal;text-transform:none;direction:ltr;block-progression:tb;writing-mode:lr-tb;text-anchor:start;baseline-shift:baseline;color:black;fill:#4d4d4d;fill-opacity:1;stroke:none;stroke-width:2;marker:none;visibility:visible;display:inline;overflow:visible;enable-background:new;font-family:Sans;-inkscape-font-specification:Sans" />
         <path inkscape:connector-curvature="0" id="path12147" d="m 46.875,656 a 1.0001,1.0001 0 0 0 -0.59375,0.28125 l -5,5 a 1.016466,1.016466 0 1 0 1.4375,1.4375 l 5,-5 A 1.0001,1.0001 0 0 0 46.875,656 z" style="font-size:medium;font-style:normal;font-variant:normal;font-weight:normal;font-stretch:normal;text-indent:0;text-align:start;text-decoration:none;line-height:normal;letter-spacing:normal;word-spacing:normal;text-transform:none;direction:ltr;block-progression:tb;writing-mode:lr-tb;text-anchor:start;baseline-shift:baseline;color:black;fill:#4d4d4d;fill-opacity:1;stroke:none;stroke-width:2;marker:none;visibility:visible;display:inline;overflow:visible;enable-background:new;font-family:Sans;-inkscape-font-specification:Sans" />
         <rect y="662" x="41.000198" id="rect12919" style="color:black;fill:#4d4d4d;fill-opacity:1;stroke:none;stroke-width:2;marker:none;visibility:visible;display:inline;overflow:visible;enable-background:new" height="1" width="1" />
         <path inkscape:connector-curvature="0" id="path12111" d="M 51.90625,647 A 1.001098,1.001098 0 1 0 52,649 l 3,0 0,3 a 1.0001,1.0001 0 1 0 2,0 l 0,-4 a 1.0001,1.0001 0 0 0 -1,-1 l -4,0 a 1.0001,1.0001 0 0 0 -0.09375,0 z" style="font-size:medium;font-style:normal;font-variant:normal;font-weight:normal;font-stretch:normal;text-indent:0;text-align:start;text-decoration:none;line-height:normal;letter-spacing:normal;word-spacing:normal;text-transform:none;direction:ltr;block-progression:tb;writing-mode:lr-tb;text-anchor:start;baseline-shift:baseline;color:black;fill:#4d4d4d;fill-opacity:1;stroke:none;stroke-width:2;marker:none;visibility:visible;display:inline;overflow:visible;enable-background:new;font-family:Sans;-inkscape-font-specification:Sans" />
         <rect y="647" x="56.000198" id="rect12923" style="color:black;fill:#4d4d4d;fill-opacity:1;stroke:none;stroke-width:2;marker:none;visibility:visible;display:inline;overflow:visible;enable-background:new" height="1" width="1" />
         <path inkscape:connector-curvature="0" id="path12925" d="m 55.875,647 a 1.0001,1.0001 0 0 0 -0.59375,0.28125 l -5,5 a 1.016466,1.016466 0 1 0 1.4375,1.4375 l 5,-5 A 1.0001,1.0001 0 0 0 55.875,647 z" style="font-size:medium;font-style:normal;font-variant:normal;font-weight:normal;font-stretch:normal;text-indent:0;text-align:start;text-decoration:none;line-height:normal;letter-spacing:normal;word-spacing:normal;text-transform:none;direction:ltr;block-progression:tb;writing-mode:lr-tb;text-anchor:start;baseline-shift:baseline;color:black;fill:#4d4d4d;fill-opacity:1;stroke:none;stroke-width:2;marker:none;visibility:visible;display:inline;overflow:visible;enable-background:new;font-family:Sans;-inkscape-font-specification:Sans" />
         <rect style="color:black;fill:#4d4d4d;fill-opacity:1;fill-rule:nonzero;stroke:none;stroke-width:2;marker:none;visibility:visible;display:inline;overflow:visible;enable-background:accumulate" id="rect4479-2" x="41.000198" y="657" height="1" width="1" />
         <rect style="color:black;fill:#4d4d4d;fill-opacity:1;fill-rule:nonzero;stroke:none;stroke-width:2;marker:none;visibility:visible;display:inline;overflow:visible;enable-background:accumulate" id="rect4479-2-9" x="46.000198" y="662" height="1" width="1" />
         <rect style="color:black;fill:#4d4d4d;fill-opacity:1;fill-rule:nonzero;stroke:none;stroke-width:2;marker:none;visibility:visible;display:inline;overflow:visible;enable-background:accumulate" id="rect4479-2-9-9-0-8" x="56.000198" y="652" height="1" width="1" />
         <rect style="color:black;fill:#4d4d4d;fill-opacity:1;fill-rule:nonzero;stroke:none;stroke-width:2;marker:none;visibility:visible;display:inline;overflow:visible;enable-background:accumulate" id="rect4479-2-9-9-0-8-1" x="51.000198" y="647" height="1" width="1" />
      </g>
      <g id="g3260" transform="translate(40.983734,-389.34574)" style="fill:#4d4d4d;fill-opacity:1">
         <path id="rect3137" transform="translate(0,1036.3622)" d="M 9,2 C 8.4477153,2 8,2.4477153 8,3 8,3.5522847 8.4477153,4 9,4 L 10.5625,4 8.28125,6.28125 9.71875,7.6875 12,5.40625 12,7 c 0,0.5522847 0.447715,1 1,1 0.552285,0 1,-0.4477153 1,-1 L 14,2 9,2 z" style="fill:#4d4d4d;fill-opacity:1;stroke:none" inkscape:connector-curvature="0" />
         <path id="path3142" transform="translate(0,1036.3622)" d="M 3,8 C 2.4477153,8 2,8.4477153 2,9 l 0,5 5,0 C 7.5522847,14 8,13.552285 8,13 8,12.447715 7.5522847,12 7,12 L 5.40625,12 7.71875,9.6875 7,9 6.28125,8.28125 4,10.5625 4,9 C 4,8.4477153 3.5522847,8 3,8 z" style="fill:#4d4d4d;fill-opacity:1;stroke:none" inkscape:connector-curvature="0" />
         <path inkscape:connector-curvature="0" id="path3168" d="m 9.7174261,1044.0394 c -0.3869501,0.3941 -1.0200888,0.3999 -1.4141549,0.013 -0.3940661,-0.3869 -0.3998347,-1.0201 -0.012885,-1.4141 0,0 0,0 0,0 l 0.7135201,0.7005 z" style="fill:#4d4d4d;fill-opacity:1;stroke:none" />
         <path style="fill:#4d4d4d;fill-opacity:1;stroke:none" d="m 6.2747613,1044.6577 c 0.3869501,-0.3941 1.0200888,-0.3999 1.4141549,-0.013 0.3940661,0.3869 0.3998347,1.0201 0.012885,1.4141 0,0 0,0 0,0 l -0.7135201,-0.7005 z" id="path3175" inkscape:connector-curvature="0" />
      </g>
   </g>
</svg>
