<?xml version="1.0" encoding="UTF-8" standalone="no"?>
<svg xmlns:inkscape="http://www.inkscape.org/namespaces/inkscape" xmlns:rdf="http://www.w3.org/1999/02/22-rdf-syntax-ns#" xmlns="http://www.w3.org/2000/svg" inkscape:version="0.48.3.1 r9886" height="16px" width="16px" version="1.1" xmlns:cc="http://creativecommons.org/ns#" xmlns:dc="http://purl.org/dc/elements/1.1/" sodipodi:docname="New document 2" xmlns:sodipodi="http://sodipodi.sourceforge.net/DTD/sodipodi-0.dtd">
<sodipodi:namedview bordercolor="#666666" inkscape:pageshadow="2" inkscape:window-y="27" pagecolor="#ffffff" inkscape:zoom="31.392433" inkscape:grid-bbox="true" inkscape:window-maximized="1" inkscape:window-x="0" showgrid="true" borderopacity="1.0" inkscape:current-layer="layer1" inkscape:cx="2.6886834" inkscape:cy="9.2654009" inkscape:window-height="712" inkscape:pageopacity="0.0" inkscape:window-width="1366" inkscape:document-units="px">
<inkscape:grid type="xygrid"/>
</sodipodi:namedview>
<metadata>
<rdf:RDF>
<cc:Work rdf:about="">
<dc:format>image/svg+xml</dc:format>
<dc:type rdf:resource="http://purl.org/dc/dcmitype/StillImage"/>
<dc:title/>
</cc:Work>
</rdf:RDF>
</metadata>
<g inkscape:label="Layer 1" inkscape:groupmode="layer">
<path style="block-progression:tb;color:#000000;text-transform:none;text-indent:0" fill="#2e3436" d="m8 1c-3.8537 0-7 3.1464-7 7 0 3.8537 3.1463 7 7 7s7-3.1463 7-7c0-3.8536-3.146-7-7-7zm-1 2.125v2.875h2v-2.875c1.956 0.3961 3.479 1.9191 3.875 3.875h-2.875v2h2.875c-0.396 1.956-1.919 3.479-3.875 3.875v-2.875h-2v2.875c-1.9558-0.396-3.4789-1.919-3.875-3.875h2.875v-2h-2.875c0.3961-1.9559 1.9192-3.4789 3.875-3.875zm1 3.875c-0.554 0-1 0.446-1 1s0.446 1 1 1 1-0.446 1-1-0.446-1-1-1z" inkscape:connector-curvature="0"/>
</g>
</svg>
