<?xml version="1.0" encoding="UTF-8" standalone="no"?>
<!-- Created with Inkscape (http://www.inkscape.org/) -->

<svg xmlns:dc="http://purl.org/dc/elements/1.1/" xmlns:cc="http://creativecommons.org/ns#" xmlns:rdf="http://www.w3.org/1999/02/22-rdf-syntax-ns#" xmlns:svg="http://www.w3.org/2000/svg" xmlns="http://www.w3.org/2000/svg" xmlns:xlink="http://www.w3.org/1999/xlink" xmlns:sodipodi="http://sodipodi.sourceforge.net/DTD/sodipodi-0.dtd" xmlns:inkscape="http://www.inkscape.org/namespaces/inkscape" id="svg7384" sodipodi:docname="highlight.svg" version="1.1" inkscape:version="0.48.3.1 r9886" height="16" width="16">
   <metadata id="metadata90">
      <rdf:RDF>
         <cc:Work rdf:about="">
            <dc:format>image/svg+xml</dc:format>
            <dc:type rdf:resource="http://purl.org/dc/dcmitype/StillImage" />
            <dc:title>Gnome Symbolic Icon Theme</dc:title>
         </cc:Work>
      </rdf:RDF>
   </metadata>
   <sodipodi:namedview inkscape:cy="6.8116146" pagecolor="#555753" borderopacity="1" showborder="true" inkscape:bbox-paths="false" guidetolerance="10" inkscape:object-paths="true" inkscape:window-width="1366" showguides="true" inkscape:object-nodes="true" inkscape:snap-bbox="true" inkscape:pageshadow="2" inkscape:guide-bbox="true" inkscape:snap-nodes="false" bordercolor="#666666" objecttolerance="10" id="namedview88" showgrid="true" inkscape:window-maximized="1" inkscape:window-x="0" inkscape:snap-global="true" inkscape:window-y="-2" gridtolerance="10" inkscape:window-height="741" inkscape:snap-to-guides="true" inkscape:current-layer="layer12" inkscape:snap-bbox-midpoints="false" inkscape:zoom="22.627417" inkscape:cx="13.244502" inkscape:snap-grids="true" inkscape:pageopacity="1" inkscape:showpageshadow="false">
      <inkscape:grid spacingx="1px" spacingy="1px" id="grid4866" empspacing="2" enabled="true" type="xygrid" snapvisiblegridlinesonly="true" visible="true" />
   </sodipodi:namedview>
   <title id="title9167">Gnome Symbolic Icon Theme</title>
   <defs id="defs7386">
      <linearGradient inkscape:collect="always" xlink:href="#linearGradient6292" id="linearGradient7078" gradientUnits="userSpaceOnUse" x1="1" y1="8" x2="15" y2="8" gradientTransform="translate(200.90625,966.3622)" />
      <linearGradient inkscape:collect="always" id="linearGradient6292">
         <stop style="stop-color:yellow;stop-opacity:1;" offset="0" id="stop6294" />
         <stop id="stop7068" offset="0.20636338" style="stop-color:yellow;stop-opacity:1;" />
         <stop style="stop-color:yellow;stop-opacity:1" offset="1" id="stop6296" />
      </linearGradient>
      <linearGradient y2="8" x2="15" y1="8" x1="1" gradientTransform="translate(180,626)" gradientUnits="userSpaceOnUse" id="linearGradient7096" xlink:href="#linearGradient6292" inkscape:collect="always" />
   </defs>
   <g inkscape:label="status" transform="translate(-180,-626)" inkscape:groupmode="layer" id="layer9" style="display:inline" />
   <g inkscape:label="devices" transform="translate(-180,-626)" inkscape:groupmode="layer" id="layer10" />
   <g inkscape:label="apps" transform="translate(-180,-626)" inkscape:groupmode="layer" id="layer11" />
   <g inkscape:label="actions" transform="translate(-180,-626)" inkscape:groupmode="layer" id="layer12">
      <path sodipodi:nodetypes="ccccc" inkscape:connector-curvature="0" id="path6286" d="m 181,629 0,10 14,0 0,-10 z" style="fill:#2e3436;fill-opacity:1;stroke:none" />
      <path style="fill:url(#linearGradient7096);fill-opacity:1;stroke:none" d="m 181,629 0,10 14,0 0,-10 z m 7.25,0.75 c 0.48756,8e-5 0.89627,0.0562 1.25,0.15625 0.3585,0.0957 0.6768,0.25362 0.90625,0.46875 0.23422,0.21031 0.38527,0.48264 0.5,0.8125 0.11471,0.32978 0.18749,0.719 0.1875,1.1875 l 0,5.625 -1.0625,0 -0.28125,-1.09375 -0.0625,0 c -0.15775,0.21512 -0.31101,0.40478 -0.46875,0.5625 -0.15775,0.15298 -0.31358,0.27461 -0.5,0.375 -0.18643,0.10039 -0.39556,0.17096 -0.625,0.21875 -0.22945,0.0481 -0.51136,0.0937 -0.8125,0.0937 -0.32983,0 -0.62901,-0.061 -0.90625,-0.15625 -0.27725,-0.0908 -0.51321,-0.2151 -0.71875,-0.40625 -0.20076,-0.19604 -0.35403,-0.45838 -0.46875,-0.75 -0.11472,-0.2963 -0.1875,-0.62973 -0.1875,-1.0312 0,-0.78393 0.29404,-1.39187 0.84375,-1.8125 0.55449,-0.42071 1.3719,-0.64925 2.5,-0.6875 l 1.34375,-0.0625 0,-0.5 c -1e-5,-0.32032 -0.0533,-0.56612 -0.125,-0.78125 -0.0669,-0.21513 -0.14741,-0.40224 -0.28125,-0.53125 -0.12907,-0.1339 -0.30402,-0.22392 -0.5,-0.28125 -0.19121,-0.0577 -0.40769,-0.0937 -0.65625,-0.0937 -0.39675,0 -0.78084,0.0732 -1.125,0.1875 -0.33939,0.11474 -0.65327,0.24372 -0.96875,0.40625 l -0.34375,-1.21875 c 0.35372,-0.19115 0.75251,-0.33485 1.1875,-0.46875 0.43498,-0.13382 0.89699,-0.21867 1.375,-0.21875 z m 1.34375,4.26563 -1.03125,0.0317 c -0.43021,0.0195 -0.77092,0.0807 -1.0625,0.15875 -0.29159,0.0774 -0.54189,0.17664 -0.71875,0.31748 -0.17209,0.13596 -0.29852,0.30889 -0.375,0.50798 -0.0765,0.1942 -0.0937,0.41908 -0.0937,0.66672 0,0.44681 0.1143,0.77535 0.34375,0.98421 0.23422,0.20879 0.52862,0.31749 0.90625,0.31749 0.29158,0 0.56393,-0.035 0.8125,-0.12699 0.24856,-0.0923 0.4746,-0.25998 0.65625,-0.44449 0.18164,-0.18939 0.30586,-0.30758 0.40625,-0.58477 0.10516,-0.28208 0.15624,-0.71423 0.15625,-1.09791 z" id="rect6277" inkscape:connector-curvature="0" sodipodi:nodetypes="cccccccccccccccccscccscccccccsccccccccccccsccccc" />
   </g>
   <g inkscape:label="places" transform="translate(-180,-626)" inkscape:groupmode="layer" id="layer13" />
   <g inkscape:label="mimetypes" transform="translate(-180,-626)" inkscape:groupmode="layer" id="layer14" />
   <g inkscape:label="emblems" transform="translate(-180,-626)" inkscape:groupmode="layer" id="layer15" style="display:inline" />
   <g inkscape:label="categories" transform="translate(-180,-626)" inkscape:groupmode="layer" id="g4953" style="display:inline" />
</svg>
