<?xml version="1.0" encoding="UTF-8" standalone="no"?>
<svg xmlns:inkscape="http://www.inkscape.org/namespaces/inkscape" xmlns:rdf="http://www.w3.org/1999/02/22-rdf-syntax-ns#" xmlns="http://www.w3.org/2000/svg" sodipodi:docname="highlight.svg" height="16" xmlns:dc="http://purl.org/dc/elements/1.1/" width="16" version="1.1" xmlns:cc="http://creativecommons.org/ns#" xmlns:xlink="http://www.w3.org/1999/xlink" inkscape:version="0.48.3.1 r9886" xmlns:sodipodi="http://sodipodi.sourceforge.net/DTD/sodipodi-0.dtd">
<metadata>
<rdf:RDF>
<cc:Work rdf:about="">
<dc:format>image/svg+xml</dc:format>
<dc:type rdf:resource="http://purl.org/dc/dcmitype/StillImage"/>
<dc:title>Gnome Symbolic Icon Theme</dc:title>
</cc:Work>
</rdf:RDF>
</metadata>
<sodipodi:namedview inkscape:showpageshadow="false" inkscape:zoom="22.627417" borderopacity="1" inkscape:current-layer="layer12" inkscape:cx="13.244502" guidetolerance="10" inkscape:snap-grids="true" inkscape:snap-bbox-midpoints="false" inkscape:object-paths="true" inkscape:window-maximized="1" inkscape:snap-bbox="true" showgrid="true" inkscape:snap-nodes="false" inkscape:snap-global="true" showguides="true" bordercolor="#666666" inkscape:window-x="0" inkscape:guide-bbox="true" objecttolerance="10" inkscape:object-nodes="true" inkscape:window-y="-2" inkscape:window-width="1366" inkscape:pageopacity="1" inkscape:snap-to-guides="true" inkscape:pageshadow="2" pagecolor="#555753" gridtolerance="10" inkscape:bbox-paths="false" inkscape:cy="6.8116146" inkscape:window-height="741" showborder="true">
<inkscape:grid spacingx="1px" enabled="true" spacingy="1px" visible="true" snapvisiblegridlinesonly="true" type="xygrid" empspacing="2"/>
</sodipodi:namedview>
<title>Gnome Symbolic Icon Theme</title>
<defs>
<linearGradient id="a" x1="1" gradientUnits="userSpaceOnUse" x2="15" gradientTransform="translate(180,626)" y1="8" y2="8" inkscape:collect="always">
<stop stop-color="#ff0" offset="0"/>
<stop stop-color="#ff0" offset=".20636"/>
<stop stop-color="#ff0" offset="1"/>
</linearGradient>
</defs>
<g inkscape:label="actions" transform="translate(-180,-626)" inkscape:groupmode="layer">
<path sodipodi:nodetypes="ccccc" fill="#2e3436" d="m181 629v10h14v-10z" inkscape:connector-curvature="0"/>
<path sodipodi:nodetypes="cccccccccccccccccscccscccccccsccccccccccccsccccc" fill="url(#a)" d="m181 629v10h14v-10zm7.25 0.75c0.48756 0.00008 0.89627 0.0562 1.25 0.15625 0.3585 0.0957 0.6768 0.25362 0.90625 0.46875 0.23422 0.21031 0.38527 0.48264 0.5 0.8125 0.11471 0.32978 0.18749 0.719 0.1875 1.1875v5.625h-1.0625l-0.28125-1.0938h-0.0625c-0.15775 0.21512-0.31101 0.40478-0.46875 0.5625-0.15775 0.15298-0.31358 0.27461-0.5 0.375-0.18643 0.10039-0.39556 0.17096-0.625 0.21875-0.22945 0.0481-0.51136 0.0937-0.8125 0.0937-0.32983 0-0.62901-0.061-0.90625-0.15625-0.27725-0.0908-0.51321-0.2151-0.71875-0.40625-0.20076-0.19604-0.35403-0.45838-0.46875-0.75-0.11472-0.2963-0.1875-0.62973-0.1875-1.0312 0-0.78393 0.29404-1.3919 0.84375-1.8125 0.55449-0.42071 1.3719-0.64925 2.5-0.6875l1.3438-0.0625v-0.5c-0.00001-0.32032-0.0533-0.56612-0.125-0.78125-0.0669-0.21513-0.14741-0.40224-0.28125-0.53125-0.12907-0.1339-0.30402-0.22392-0.5-0.28125-0.19121-0.0577-0.40769-0.0937-0.65625-0.0937-0.39675 0-0.78084 0.0732-1.125 0.1875-0.33939 0.11474-0.65327 0.24372-0.96875 0.40625l-0.34375-1.2188c0.35372-0.19115 0.75251-0.33485 1.1875-0.46875 0.43498-0.13382 0.89699-0.21867 1.375-0.21875zm1.3438 4.2656-1.0312 0.0317c-0.43021 0.0195-0.77092 0.0807-1.0625 0.15875-0.29159 0.0774-0.54189 0.17664-0.71875 0.31748-0.17209 0.13596-0.29852 0.30889-0.375 0.50798-0.0765 0.1942-0.0937 0.41908-0.0937 0.66672 0 0.44681 0.1143 0.77535 0.34375 0.98421 0.23422 0.20879 0.52862 0.31749 0.90625 0.31749 0.29158 0 0.56393-0.035 0.8125-0.12699 0.24856-0.0923 0.4746-0.25998 0.65625-0.44449 0.18164-0.18939 0.30586-0.30758 0.40625-0.58477 0.10516-0.28208 0.15624-0.71423 0.15625-1.0979z" inkscape:connector-curvature="0"/>
</g>
</svg>
