<?xml version="1.0" encoding="UTF-8" standalone="no"?>
<svg xmlns:inkscape="http://www.inkscape.org/namespaces/inkscape" xmlns:rdf="http://www.w3.org/1999/02/22-rdf-syntax-ns#" xmlns="http://www.w3.org/2000/svg" sodipodi:docname="identity-icons-https-ev.svg" height="16" width="16" version="1.1" xmlns:cc="http://creativecommons.org/ns#" xmlns:dc="http://purl.org/dc/elements/1.1/" inkscape:version="0.48.3.1 r9886" xmlns:sodipodi="http://sodipodi.sourceforge.net/DTD/sodipodi-0.dtd">
<metadata>
<rdf:RDF>
<cc:Work rdf:about="">
<dc:format>image/svg+xml</dc:format>
<dc:type rdf:resource="http://purl.org/dc/dcmitype/StillImage"/>
<dc:title>Gnome Symbolic Icon Theme</dc:title>
</cc:Work>
</rdf:RDF>
</metadata>
<sodipodi:namedview inkscape:zoom="16" borderopacity="1" inkscape:current-layer="layer9" inkscape:cx="-6.499581" guidetolerance="10" inkscape:snap-grids="true" inkscape:snap-bbox-midpoints="false" inkscape:object-paths="true" inkscape:window-maximized="0" inkscape:snap-bbox="true" showgrid="false" inkscape:snap-nodes="false" inkscape:snap-global="true" showguides="true" bordercolor="#666666" inkscape:window-x="0" inkscape:guide-bbox="true" objecttolerance="10" inkscape:object-nodes="true" inkscape:window-y="27" inkscape:window-width="1364" inkscape:pageopacity="1" inkscape:snap-to-guides="true" inkscape:pageshadow="2" pagecolor="#ffffff" gridtolerance="10" inkscape:bbox-paths="false" inkscape:cy="4.0878003" inkscape:window-height="711" showborder="true">
<inkscape:grid spacingx="1px" enabled="true" spacingy="1px" visible="true" snapvisiblegridlinesonly="true" type="xygrid" empspacing="2"/>
</sodipodi:namedview>
<title>Gnome Symbolic Icon Theme</title>
<g inkscape:label="status" transform="translate(-81 -397)" inkscape:groupmode="layer" fill="#0a0">
<path style="color:#bebebe" inkscape:connector-curvature="0" d="m85 404c-0.554 0-1.1892 0.47931-1 1v5h10v-5c0-0.554-0.446-1-1-1z" sodipodi:nodetypes="csccccscc"/>
<path style="block-progression:tb;color:#bebebe;text-transform:none;text-indent:0" d="m88 399c-1.6447 0-3 1.3553-3 3v4c0 1.6447 1.3553 3 3 3h2c1.6447 0 3-1.3553 3-3v-4c0-1.6447-1.3553-3-3-3h-2zm0 2h2c0.5713 0 1 0.4287 1 1v4c0 0.5713-0.4287 1-1 1h-2c-0.5713 0-1-0.4287-1-1v-4c0-0.5713 0.4287-1 1-1z" inkscape:connector-curvature="0"/>
</g>
</svg>
