<?xml version="1.0" encoding="UTF-8" standalone="no"?>
<svg
   xmlns:dc="http://purl.org/dc/elements/1.1/"
   xmlns:cc="http://creativecommons.org/ns#"
   xmlns:rdf="http://www.w3.org/1999/02/22-rdf-syntax-ns#"
   xmlns:svg="http://www.w3.org/2000/svg"
   xmlns="http://www.w3.org/2000/svg"
   xmlns:sodipodi="http://sodipodi.sourceforge.net/DTD/sodipodi-0.dtd"
   xmlns:inkscape="http://www.inkscape.org/namespaces/inkscape"
   version="1.1"
   id="Globe"
   x="0px"
   y="0px"
   width="16"
   height="16"
   viewBox="0 0 16 16"
   enable-background="new 0 0 100 100"
   xml:space="preserve"
   inkscape:version="0.48.3.1 r9886"
   sodipodi:docname="earth.svg"><metadata
   id="metadata13"><rdf:RDF><cc:Work
       rdf:about=""><dc:format>image/svg+xml</dc:format><dc:type
         rdf:resource="http://purl.org/dc/dcmitype/StillImage" /><dc:title></dc:title></cc:Work></rdf:RDF></metadata><defs
   id="defs11" /><sodipodi:namedview
   pagecolor="#ffffff"
   bordercolor="#666666"
   borderopacity="1"
   objecttolerance="10"
   gridtolerance="10"
   guidetolerance="10"
   inkscape:pageopacity="0"
   inkscape:pageshadow="2"
   inkscape:window-width="1366"
   inkscape:window-height="712"
   id="namedview9"
   showgrid="true"
   showguides="false"
   inkscape:zoom="26.700352"
   inkscape:cx="6.6796006"
   inkscape:cy="7.3992747"
   inkscape:window-x="0"
   inkscape:window-y="27"
   inkscape:window-maximized="1"
   inkscape:current-layer="Globe"><inkscape:grid
     type="xygrid"
     id="grid3758"
     empspacing="5"
     visible="true"
     enabled="true"
     snapvisiblegridlinesonly="true" /></sodipodi:namedview>
<polygon
   id="Islands_4_"
   clip-rule="evenodd"
   points="39.888,39.438 42.023,38.316 41.349,37.191 40.562,34.943 41.124,34.27 40.786,32.697 38.764,34.27 39.214,35.619 39.775,37.752 38.764,37.752 38.764,38.763 "
   style="fill:#2e3436;fill-opacity:1;fill-rule:evenodd"
   transform="scale(0.15,0.15)" />
<polygon
   id="Islands_3_"
   clip-rule="evenodd"
   points="35.955,36.741 36.293,38.316 37.978,37.529 38.426,36.18 37.753,35.507 "
   style="fill:#2e3436;fill-opacity:1;fill-rule:evenodd"
   transform="scale(0.15,0.15)" />
<polygon
   id="Islands_2_"
   clip-rule="evenodd"
   points="38.09,27.866 38.426,26.967 37.529,26.068 35.73,25.957 35.843,27.303 "
   style="fill:#2e3436;fill-opacity:1;fill-rule:evenodd"
   transform="scale(0.15,0.15)" />
<polygon
   id="Islands_1_"
   clip-rule="evenodd"
   points="50.338,17.978 50.785,16.855 48.764,17.978 49.55,19.662 50.338,18.989 50.899,19.212 51.011,18.316 "
   style="fill:#2e3436;fill-opacity:1;fill-rule:evenodd"
   transform="scale(0.15,0.15)" />
<polygon
   id="Islands"
   clip-rule="evenodd"
   points="53.37,15.957 54.831,16.18 55.28,15.73 54.158,15.169 "
   style="fill:#2e3436;fill-opacity:1;fill-rule:evenodd"
   transform="scale(0.15,0.15)" />
<path
   id="Earth"
   clip-rule="evenodd"
   d="M 8,1 C 4.13404,1 1,4.13404 1,8 c 0,3.86596 3.13404,7 7,7 3.86596,0 7,-3.13404 7,-7 C 15,4.13404 11.86596,1 8,1 z M 1.9674,8 c 0,-1.27918 0.39928,-2.46442 1.07842,-3.4405 L 3.12366,4.61788 3.07662,4.80674 3.24952,4.85406 3.21802,4.60234 3.35956,4.58666 V 4.25626 H 3.5011 c 0,0 0.02492,0.06412 0.0511,0.13132 0.0287,0.07392 0.05908,0.15176 0.05908,0.15176 L 3.7685,4.71252 c 0,0 -0.18872,0.0469 -0.25158,0.0469 -0.06286,0 -0.0315,0.25172 -0.0315,0.25172 L 3.7055,5.08968 3.84774,4.82704 4.17744,4.46066 4.33466,3.97318 4.63356,3.68982 4.46052,3.56438 4.64938,3.43852 4.66506,3.26534 4.11458,3.42256 4.09722,3.40184 C 4.39696,3.14718 4.72162,2.92122 5.06756,2.72844 l 0.25816,0.11242 -0.1729,0.3304 H 4.8066 L 4.7436,3.46988 H 5.02682 L 5.43576,3.21816 5.71898,2.93522 5.76602,2.66782 5.35708,2.63646 5.64016,2.4476 5.90756,2.49492 5.86052,2.77786 6.22228,2.55736 6.28528,2.73054 6.36396,2.98226 6.15942,3.23398 5.9392,3.43838 5.6088,3.39106 5.76616,3.72132 5.46726,3.67414 4.96396,4.19326 5.08982,4.36644 5.49876,4.3348 5.84484,4.22448 6.28542,4.17758 6.48982,4.1304 c 0,0 0,-0.12586 -0.01582,-0.2044 C 6.45846,3.84732 6.63136,3.94154 6.63136,3.94154 L 6.82022,3.83164 6.96176,3.39106 7.48074,3.15488 7.4022,3.0293 7.52806,2.8718 7.11912,2.8088 7.22916,2.65158 6.71004,2.4784 H 6.44264 L 6.537,2.24264 6.64704,2.13232 6.63822,2.1235 C 7.076,2.02256 7.53142,1.9674 8,1.9674 c 0.73024,0 1.42996,0.12978 2.07774,0.3675 L 10.06206,2.372 9.80012,2.3545 V 2.512 L 9.90498,2.58186 V 2.72158 L 9.9922,2.8438 9.6779,2.65172 9.46832,2.75658 l 0.10486,0.24486 0.05236,0.27944 0.13972,0.1575 0.3318,0.05236 -0.06986,0.13972 -0.06986,0.21 0.29722,0.19208 L 10.23706,4.1199 9.6779,3.64796 9.64304,3.82296 9.88748,4.06754 10.0272,4.1199 9.7129,4.18976 9.6779,4.34726 9.45096,4.11976 9.31082,3.82282 9.25846,3.5256 9.11832,3.70032 9.22346,4.11976 9.39818,4.2424 9.32832,4.64406 9.22346,4.59156 l 0.0175,0.21 -0.1575,-0.0175 -0.15722,-0.2275 H 8.73416 L 8.45444,4.52156 8.17458,4.53906 7.91264,4.74906 7.73778,5.046 7.3707,5.32572 7.3357,5.48294 v 0.1925 L 7.42306,5.86752 7.59792,5.7278 7.65028,5.83252 7.73778,5.98974 7.75528,6.02502 7.84264,6.12988 8,6.02516 7.9825,5.64058 8.17458,5.39572 c 0,0 0.0098,-0.04144 0.02072,-0.08918 0.01484,-0.0637 0.03178,-0.1379 0.03178,-0.1379 L 8.2968,4.97614 8.41944,4.99364 8.38458,5.15114 8.3143,5.50044 8.6468,5.46544 8.76916,5.50044 8.5068,5.57058 8.54166,5.7453 8.24444,5.93738 8.26194,6.12988 8,6.19988 7.94764,6.3396 7.73778,6.26974 H 7.59792 V 5.97252 L 7.44056,6.0253 V 6.18252 L 7.00362,6.53224 6.7589,6.6196 6.65404,6.74182 6.30432,6.65446 6.28682,6.81168 6.51404,6.89932 6.49654,7.21362 5.86724,7.19612 5.77988,7.33584 5.69252,7.5807 5.58752,7.7907 5.74488,7.96542 5.91974,8.175 6.47946,8 6.51446,7.79042 6.63696,7.68528 6.84668,7.61542 6.82918,7.4757 7.02154,7.4232 7.30112,7.37084 7.47598,7.58042 7.79056,7.80792 7.93042,8.03486 V 8.13972 L 8.105,8.03486 8.01778,7.87778 8.05264,7.70278 7.89542,7.63292 7.75556,7.44084 7.84292,7.16098 8,7.38834 8.22708,7.56306 8.3143,7.87778 8.54166,8.05236 8.59444,8.24486 8.6993,8.0175 8.6643,7.91264 8.71666,7.82528 9.04846,7.54556 9.11832,7.19584 9.25846,7.09098 9.43304,7.10848 9.6954,6.84612 l 0.0175,0.21 0.38416,0.12222 v 0.1925 H 9.78276 L 9.31082,7.61528 8.92624,7.82528 9.0311,8.05236 9.38068,8.12222 9.57318,8.20958 9.78276,8.06986 9.80012,8.6643 9.20568,8.78652 8.57708,8.61152 8.33222,8.80402 8.43694,8.90874 8.24444,8.87388 7.63292,8.64652 7.4582,8.6643 7.31834,8.43694 V 8.15722 H 7.00362 L 6.8289,8.12222 6.26946,8.24486 5.83252,8.20958 5.6403,8.31472 5.51794,8.33222 5.44794,8.55916 5.046,8.83902 4.48656,9.25846 l -0.035,0.54166 -0.15736,0.34972 0.0175,0.20944 0.13986,0.24486 0.40208,0.68152 0.41944,0.19236 0.69916,0.0525 -0.035,-0.29736 -0.15736,-0.08722 0.06986,-0.15722 0.1225,0.13972 0.12222,0.36708 0.52444,0.035 0.20972,0.20944 0.29708,0.12264 0.035,0.5068 0.31472,0.40208 0.29708,0.52416 -0.26208,0.31472 0.26768,0.4165 C 4.54956,13.9101 1.9674,11.25724 1.9674,8 z m 8.0997,5.66888 0.72926,-0.53018 -0.26194,-0.64694 0.83902,-1.10082 0.26194,-0.6993 0.12222,-0.38458 -0.43652,0.21 -0.26236,0.05236 L 10.4122,10.16734 10.21984,9.7304 9.97498,9.48554 9.66054,8.78666 l 0.26194,0.20958 0.48972,0.5418 0.17472,0.24486 0.34916,0.17458 0.10514,0.45444 0.41958,-0.27944 0.5068,-0.62944 0.24472,-0.64652 -0.19236,-0.15708 -0.10486,-0.1925 -0.1225,0.22736 -0.24458,0.27944 -0.34958,-0.38458 -0.10472,-0.2968 0.24472,0.05236 0.24458,0.12222 0.34958,-0.12222 0.21,0.06986 0.55874,-0.38458 0.31514,0.175 0.19208,-0.10514 0.4179,0.658 0.20706,-0.1974 0.0041,-0.25074 0.01736,-0.75166 0.12852,-0.35616 c 0.03122,0.2485 0.04914,0.5012 0.04914,0.75824 0,2.60526 -1.65186,4.82496 -3.9655,5.66874 z"
   style="fill:#2e3436;fill-opacity:1;fill-rule:evenodd"
   inkscape:connector-curvature="0" />
</svg>