<?xml version="1.0" encoding="UTF-8" standalone="no"?>
<svg xmlns:rdf="http://www.w3.org/1999/02/22-rdf-syntax-ns#" xmlns="http://www.w3.org/2000/svg" height="16" width="16" version="1.1" xmlns:cc="http://creativecommons.org/ns#" xmlns:dc="http://purl.org/dc/elements/1.1/">
<title>Gnome Symbolic Icon Theme</title>
<metadata>
<rdf:RDF>
<cc:Work rdf:about="">
<dc:format>image/svg+xml</dc:format>
<dc:type rdf:resource="http://purl.org/dc/dcmitype/StillImage"/>
<dc:title>Gnome Symbolic Icon Theme</dc:title>
</cc:Work>
</rdf:RDF>
</metadata>
<g transform="translate(-220 -606)">
<path style="block-progression:tb;color:black;enable-background:new;text-transform:none;text-indent:0" d="m221.93 607.98c-0.44716 0.1001-0.79228 0.5419-0.78125 1-0.008 3.0147 0 8 0 8h4.0938c-0.0666-0.3255-0.0937-0.6548-0.0937-1s0.0272-0.6745 0.0937-1h-2.0938v-4h6v0.094c0.32549-0.067 0.65482-0.094 1-0.094s0.67451 0.027 1 0.094c-0.002-0.7186 0.008-1.536 0-2.0938 0-0.5523-0.44772-1-1-1h-8c-0.0726-0.01-0.14613-0.01-0.21875 0zm9.0584 4c-1.0237 0-2.0627 0.37519-2.8438 1.1563-1.5621 1.5621-1.5621 4.1254 0 5.6875s4.1254 1.5621 5.6875 0 1.5621-4.1254 0-5.6875c-0.78105-0.78111-1.8201-1.1563-2.8438-1.1563zm0 1.5c0.49216 0 0.9797 0.1339 1.4062 0.4063l-3.5625 3.4375c-0.65714-0.9624-0.53244-2.2779 0.34375-3.125 0.50067-0.4843 1.1563-0.7188 1.8125-0.7188zm2.125 1.0938c0.68125 0.9652 0.57326 2.2686-0.3125 3.125-0.88134 0.8524-2.2531 0.9918-3.25 0.3437z" fill="#2e3436"/>
</g>
</svg>
