<?xml version="1.0" encoding="UTF-8" standalone="no"?>
<!-- Created with Inkscape (http://www.inkscape.org/) -->

<svg xmlns:dc="http://purl.org/dc/elements/1.1/" xmlns:cc="http://creativecommons.org/ns#" xmlns:rdf="http://www.w3.org/1999/02/22-rdf-syntax-ns#" xmlns:svg="http://www.w3.org/2000/svg" xmlns="http://www.w3.org/2000/svg" version="1.1" width="16" height="16" id="svg7384">
   <title id="title9167">Gnome Symbolic Icon Theme</title>
   <metadata id="metadata90">
      <rdf:RDF>
         <cc:Work rdf:about="">
            <dc:format>image/svg+xml</dc:format>
            <dc:type rdf:resource="http://purl.org/dc/dcmitype/StillImage" />
            <dc:title>Gnome Symbolic Icon Theme</dc:title>
         </cc:Work>
      </rdf:RDF>
   </metadata>
   <defs id="defs7386" />
   <g transform="translate(-219.99995,-606)" id="layer9" style="display:inline" />
   <g transform="translate(-219.99995,-606)" id="layer10" />
   <g transform="translate(-219.99995,-606)" id="layer11" />
   <g transform="translate(-219.99995,-606)" id="layer12">
      <path d="m 221.92619,607.98463 c -0.44716,0.1001 -0.79228,0.5419 -0.78125,1 -0.008,3.01469 0,8 0,8 l 4.09375,0 c -0.0666,-0.3255 -0.0937,-0.6548 -0.0937,-1 0,-0.3452 0.0272,-0.6745 0.0937,-1 l -2.09375,0 0,-4 6,0 0,0.094 c 0.32549,-0.067 0.65482,-0.094 1,-0.094 0.34518,0 0.67451,0.027 1,0.094 -0.002,-0.7186 0.008,-1.536 0,-2.0938 0,-0.5523 -0.44772,-1 -1,-1 l -8,0 c -0.0726,-0.01 -0.14613,-0.01 -0.21875,0 z m 9.05844,4 c -1.02369,0 -2.0627,0.37519 -2.84375,1.1563 -1.5621,1.5621 -1.5621,4.1254 0,5.6875 1.56209,1.5621 4.1254,1.5621 5.6875,0 1.56209,-1.5621 1.56209,-4.1254 0,-5.6875 -0.78105,-0.78111 -1.82007,-1.1563 -2.84375,-1.1563 z m 0,1.5 c 0.49216,0 0.9797,0.1339 1.40625,0.4063 l -3.5625,3.4375 c -0.65714,-0.9624 -0.53244,-2.27791 0.34375,-3.125 0.50067,-0.4843 1.15628,-0.7188 1.8125,-0.7188 z m 2.125,1.0938 c 0.68125,0.9652 0.57326,2.2686 -0.3125,3.125 -0.88134,0.8524 -2.25313,0.9918 -3.25,0.3437 z" id="path3287" style="font-size:medium;font-style:normal;font-variant:normal;font-weight:normal;font-stretch:normal;text-indent:0;text-align:start;text-decoration:none;line-height:normal;letter-spacing:normal;word-spacing:normal;text-transform:none;direction:ltr;block-progression:tb;writing-mode:lr-tb;text-anchor:start;baseline-shift:baseline;color:black;fill:#4d4d4d;fill-opacity:1;stroke:none;stroke-width:2;marker:none;visibility:visible;display:inline;overflow:visible;enable-background:new;font-family:Sans;-inkscape-font-specification:Sans" />
   </g>
   <g transform="translate(-219.99995,-606)" id="layer13" />
   <g transform="translate(-219.99995,-606)" id="layer14" />
   <g transform="translate(-219.99995,-606)" id="layer15" style="display:inline" />
   <g transform="translate(-219.99995,-606)" id="g4953" style="display:inline" />
</svg>
