<?xml version="1.0" encoding="UTF-8" standalone="no"?>
<svg xmlns:dc="http://purl.org/dc/elements/1.1/" xmlns:cc="http://creativecommons.org/ns#" xmlns:rdf="http://www.w3.org/1999/02/22-rdf-syntax-ns#" xmlns:svg="http://www.w3.org/2000/svg" xmlns="http://www.w3.org/2000/svg" xmlns:sodipodi="http://sodipodi.sourceforge.net/DTD/sodipodi-0.dtd" xmlns:inkscape="http://www.inkscape.org/namespaces/inkscape" inkscape:version="0.48.4 r9939" height="16px" width="16px" version="1.1" sodipodi:docname="webRTC-sharingDevice.svg" id="svg6494">
   <defs id="defs6508" />
   <sodipodi:namedview bordercolor="#666666" inkscape:pageshadow="2" inkscape:window-y="27" pagecolor="#ffffff" inkscape:zoom="32" inkscape:grid-bbox="true" inkscape:window-maximized="1" inkscape:window-x="0" showgrid="true" borderopacity="1.0" inkscape:current-layer="g6502" inkscape:cx="14.850654" inkscape:cy="8.1547918" inkscape:window-height="741" inkscape:pageopacity="0.0" inkscape:window-width="1366" inkscape:document-units="px" id="namedview6496" inkscape:object-nodes="true">
      <inkscape:grid type="xygrid" id="grid6498" />
   </sodipodi:namedview>
   <metadata id="metadata6500">
      <rdf:RDF>
         <cc:Work rdf:about="">
            <dc:format>image/svg+xml</dc:format>
            <dc:type rdf:resource="http://purl.org/dc/dcmitype/StillImage" />
            <dc:title></dc:title>
         </cc:Work>
      </rdf:RDF>
   </metadata>
   <g inkscape:label="Layer 1" inkscape:groupmode="layer" id="g6502">
      <path style="color:black;fill:#2e3436;fill-opacity:1;fill-rule:nonzero;stroke:none;stroke-width:4;marker:none;visibility:visible;display:inline;overflow:visible;enable-background:accumulate" d="M 8,1 5,2 2,3 C 2,3 2.37567,4.11164 2.46875,4.46875 2.97353,6.40526 2.875,10 2.875,10 3.0012,11.00962 3.36934,11.22964 4,11.59375 L 8,14 12.0625,11.5625 c 0.63557,-0.36695 0.94097,-0.55899 1.0625,-1.53125 0,0 -0.10204,-3.61396 0.40625,-5.5625 C 13.6244,4.11166 14,3 14,3 L 11,2 z m 0,2 0,9.21875 -3.13258,-2.08617 c -0.21989,-0.1849 -0.52065,-0.533 -0.46875,-1 C 4.28326,7.29026 4.38367,6.02707 3.98012,4.53661 L 5.3125,3.9375 7,3.375 z" id="rect6693" inkscape:connector-curvature="0" sodipodi:nodetypes="cccscccccsccccccccccc" />
   </g>
</svg>
