<?xml version="1.0" encoding="UTF-8" standalone="no"?>
<svg xmlns:inkscape="http://www.inkscape.org/namespaces/inkscape" xmlns:rdf="http://www.w3.org/1999/02/22-rdf-syntax-ns#" xmlns="http://www.w3.org/2000/svg" inkscape:version="0.48.3.1 r9886" height="16px" width="16px" version="1.1" xmlns:cc="http://creativecommons.org/ns#" xmlns:dc="http://purl.org/dc/elements/1.1/" sodipodi:docname="new-window.svg" xmlns:sodipodi="http://sodipodi.sourceforge.net/DTD/sodipodi-0.dtd">
<sodipodi:namedview bordercolor="#666666" inkscape:pageshadow="2" inkscape:window-y="27" pagecolor="#ffffff" inkscape:zoom="22.197802" inkscape:grid-bbox="true" inkscape:window-maximized="1" inkscape:window-x="0" showgrid="true" borderopacity="1.0" inkscape:current-layer="layer1" inkscape:cx="5.1843907" inkscape:cy="8.7608098" inkscape:window-height="712" inkscape:snap-midpoints="true" inkscape:pageopacity="0.0" inkscape:window-width="1366" inkscape:document-units="px">
<inkscape:grid type="xygrid"/>
</sodipodi:namedview>
<metadata>
<rdf:RDF>
<cc:Work rdf:about="">
<dc:format>image/svg+xml</dc:format>
<dc:type rdf:resource="http://purl.org/dc/dcmitype/StillImage"/>
<dc:title/>
</cc:Work>
</rdf:RDF>
</metadata>
<g inkscape:label="Layer 1" inkscape:groupmode="layer" fill="#2e3436">
<path style="block-progression:tb;color:#000000;enable-background:new;text-transform:none;text-indent:0" inkscape:connector-curvature="0" d="m2.7812 4.9995c-0.4471 0.1001-0.7922 0.5419-0.7812 1v1.7188c-0.0015 0.031-0.0015 0.063 0 0.094-0.02358 0.1235-0.02358 0.2515 0 0.375v4.8125c-0.0015 0.031-0.0015 0.063 0 0.094v0.906h9.9998v-0.844c0.004-0.052 0.004-0.104 0-0.156v-4.8437c0.004-0.052 0.004-0.1043 0-0.1563h-2v-2h-2v-1h-5c-0.0726-0.01-0.1461-0.01-0.2188 0zm6.2188 3v1.0018h1v3h-6v-4" sodipodi:nodetypes="cccccccccccccccccccccccccccccccccc"/>
<path style="color:#2e3436" inkscape:connector-curvature="0" d="m11 0.9995h2v2h2v2h-2v2h-2v-2h-2v-2h2z" sodipodi:nodetypes="ccccccccccccc"/>
</g>
</svg>
