<?xml version="1.0" encoding="UTF-8" standalone="no"?>
<svg xmlns:dc="http://purl.org/dc/elements/1.1/" xmlns:cc="http://creativecommons.org/ns#" xmlns:rdf="http://www.w3.org/1999/02/22-rdf-syntax-ns#" xmlns:svg="http://www.w3.org/2000/svg" xmlns="http://www.w3.org/2000/svg" xmlns:sodipodi="http://sodipodi.sourceforge.net/DTD/sodipodi-0.dtd" xmlns:inkscape="http://www.inkscape.org/namespaces/inkscape" inkscape:version="0.48.4 r9939" height="16px" width="16px" version="1.1" sodipodi:docname="mixed-content-blocked.svg" id="svg6494">
   <defs id="defs6508" />
   <sodipodi:namedview bordercolor="#666666" inkscape:pageshadow="2" inkscape:window-y="27" pagecolor="#ffffff" inkscape:zoom="32" inkscape:grid-bbox="true" inkscape:window-maximized="1" inkscape:window-x="0" showgrid="true" borderopacity="1.0" inkscape:current-layer="g6502" inkscape:cx="14.850654" inkscape:cy="8.1547918" inkscape:window-height="741" inkscape:pageopacity="0.0" inkscape:window-width="1366" inkscape:document-units="px" id="namedview6496" inkscape:object-nodes="true">
      <inkscape:grid type="xygrid" id="grid6498" />
   </sodipodi:namedview>
   <metadata id="metadata6500">
      <rdf:RDF>
         <cc:Work rdf:about="">
            <dc:format>image/svg+xml</dc:format>
            <dc:type rdf:resource="http://purl.org/dc/dcmitype/StillImage" />
            <dc:title></dc:title>
         </cc:Work>
      </rdf:RDF>
   </metadata>
   <g inkscape:label="Layer 1" inkscape:groupmode="layer" id="g6502">
      <g id="g6394" transform="translate(0,-1036.3622)">
         <path id="rect6357" transform="translate(0,1036.3622)" d="M 3,3 C 1.892,3 1,3.892 1,5 l 0,4 c 0,1.108 0.892,2 2,2 l 10,0 c 1.108,0 2,-0.892 2,-2 L 15,8.4375 C 14.410912,8.7790164 13.72993,9 13,9 10.790861,9 9,7.209139 9,5 9,4.2700695 9.2209836,3.5890884 9.5625,3 L 3,3 z" style="color:black;fill:white;fill-opacity:1;fill-rule:nonzero;stroke:none;stroke-width:4;marker:none;visibility:visible;display:inline;overflow:visible;enable-background:accumulate" inkscape:connector-curvature="0" />
         <rect ry="0" rx="0" transform="matrix(0.70710678,-0.70710678,0.70710678,0.70710678,0,0)" y="743.87506" x="-737.14716" height="3" width="3" id="rect6359" style="color:black;fill:white;fill-opacity:1;fill-rule:nonzero;stroke:none;stroke-width:4;marker:none;visibility:visible;display:inline;overflow:visible;enable-background:accumulate" />
         <path sodipodi:nodetypes="sssssccccccc" inkscape:connector-curvature="0" id="path6373" d="m 13,1038.3622 c -1.656853,0 -3,1.3431 -3,3 0,1.6569 1.343147,3 3,3 1.656854,0 3,-1.3431 3,-3 0,-1.6569 -1.343146,-3 -3,-3 z m 0,1 1,0 0,4 -1,0 0,-3 -1,0 z" style="color:black;fill:#ef2929;fill-opacity:1;fill-rule:nonzero;stroke:none;stroke-width:4;marker:none;visibility:visible;display:inline;overflow:visible;enable-background:accumulate" />
         <path transform="translate(0,1036.3622)" style="color:black;fill:#2e3436;fill-opacity:1;fill-rule:nonzero;stroke:none;stroke-width:4;marker:none;visibility:visible;display:inline;overflow:visible;enable-background:accumulate" d="M 3,3 C 1.892,3 1,3.892 1,5 l 0,4 c 0,1.108 0.892,2 2,2 l 10,0 c 1.108,0 2,-0.892 2,-2 L 15,8.4375 C 14.410912,8.7790164 13.72993,9 13,9 10.790861,9 9,7.209139 9,5 9,4.2700695 9.2209836,3.5890884 9.5625,3 L 3,3 z" id="path6388" inkscape:connector-curvature="0" />
         <rect style="color:black;fill:#2e3436;fill-opacity:1;fill-rule:nonzero;stroke:none;stroke-width:4;marker:none;visibility:visible;display:inline;overflow:visible;enable-background:accumulate" id="rect6390" width="3" height="3" x="-737.14716" y="743.87506" transform="matrix(0.70710678,-0.70710678,0.70710678,0.70710678,0,0)" rx="0" ry="0" />
         <path style="color:black;fill:#ef2929;fill-opacity:1;fill-rule:nonzero;stroke:none;stroke-width:4;marker:none;visibility:visible;display:inline;overflow:visible;enable-background:accumulate" d="m 13,1038.3622 c -1.656853,0 -3,1.3431 -3,3 0,1.6569 1.343147,3 3,3 1.656854,0 3,-1.3431 3,-3 0,-1.6569 -1.343146,-3 -3,-3 z m 0,1 1,0 0,4 -1,0 0,-3 -1,0 z" id="path6392" inkscape:connector-curvature="0" sodipodi:nodetypes="sssssccccccc" />
      </g>
   </g>
</svg>
