<?xml version="1.0" encoding="UTF-8" standalone="no"?>
<svg xmlns:dc="http://purl.org/dc/elements/1.1/" xmlns:cc="http://creativecommons.org/ns#" xmlns:rdf="http://www.w3.org/1999/02/22-rdf-syntax-ns#" xmlns:svg="http://www.w3.org/2000/svg" xmlns="http://www.w3.org/2000/svg" xmlns:sodipodi="http://sodipodi.sourceforge.net/DTD/sodipodi-0.dtd" xmlns:inkscape="http://www.inkscape.org/namespaces/inkscape" inkscape:version="0.48.4 r9939" height="16px" width="16px" version="1.1" sodipodi:docname="notification.svg" id="svg6494">
   <defs id="defs6508" />
   <sodipodi:namedview bordercolor="#666666" inkscape:pageshadow="2" inkscape:window-y="27" pagecolor="#ffffff" inkscape:zoom="32" inkscape:grid-bbox="true" inkscape:window-maximized="1" inkscape:window-x="0" showgrid="true" borderopacity="1.0" inkscape:current-layer="g6394" inkscape:cx="14.850654" inkscape:cy="8.1547918" inkscape:window-height="741" inkscape:pageopacity="0.0" inkscape:window-width="1366" inkscape:document-units="px" id="namedview6496" inkscape:object-nodes="true" inkscape:snap-global="true">
      <inkscape:grid type="xygrid" id="grid6498" />
   </sodipodi:namedview>
   <metadata id="metadata6500">
      <rdf:RDF>
         <cc:Work rdf:about="">
            <dc:format>image/svg+xml</dc:format>
            <dc:type rdf:resource="http://purl.org/dc/dcmitype/StillImage" />
            <dc:title />
         </cc:Work>
      </rdf:RDF>
   </metadata>
   <g inkscape:label="Layer 1" inkscape:groupmode="layer" id="g6502">
      <g id="g6394" transform="translate(0,-1036.3622)">
         <g id="g7009">
            <rect ry="0" rx="0" transform="matrix(0.70710678,-0.70710678,0.70710678,0.70710678,0,0)" y="743.96088" x="-739.88983" height="3" width="3" id="rect6390" style="color:black;fill:#2e3436;fill-opacity:1;fill-rule:nonzero;stroke:none;stroke-width:4;marker:none;visibility:visible;display:inline;overflow:visible;enable-background:accumulate" />
            <path style="color:black;fill:#ef2929;fill-opacity:1;fill-rule:nonzero;stroke:none;stroke-width:4;marker:none;visibility:visible;display:inline;overflow:visible;enable-background:accumulate" d="m 12.14375,1038.3622 c -2.126295,0 -3.85,1.7236 -3.85,3.85 0,2.1264 1.723705,3.85 3.85,3.85 2.126296,0 3.85,-1.7236 3.85,-3.85 0,-2.1264 -1.723704,-3.85 -3.85,-3.85 z m -0.14375,1 1,0 0,5 -1,0 0,-4 -1,0 z" id="path6373" inkscape:connector-curvature="0" sodipodi:nodetypes="sssssccccccc" />
            <path sodipodi:nodetypes="sssssscsscs" inkscape:connector-curvature="0" id="path6388" d="M 3,3 C 1.892,3 1,3.892 1,5 l 0,6 c 0,1.108 0.892,2 2,2 l 10,0 c 1.108,0 2,-0.892 2,-2 l 0,-1 c -0.763974,0.442904 -1.649367,0.71609 -2.59375,0.78125 C 9.1478334,11.006073 7.0484532,8.5560396 7.21875,5.59375 7.2730803,4.6486818 7.5570959,3.763974 8,3 z" style="color:black;fill:#2e3436;fill-opacity:1;fill-rule:nonzero;stroke:none;stroke-width:4;marker:none;visibility:visible;display:inline;overflow:visible;enable-background:accumulate" transform="translate(0,1036.3622)" />
         </g>
      </g>
   </g>
</svg>
