<?xml version="1.0" encoding="UTF-8" standalone="no"?>
<svg xmlns:dc="http://purl.org/dc/elements/1.1/" xmlns:cc="http://creativecommons.org/ns#" xmlns:rdf="http://www.w3.org/1999/02/22-rdf-syntax-ns#" xmlns:svg="http://www.w3.org/2000/svg" xmlns="http://www.w3.org/2000/svg" xmlns:sodipodi="http://sodipodi.sourceforge.net/DTD/sodipodi-0.dtd" xmlns:inkscape="http://www.inkscape.org/namespaces/inkscape" inkscape:version="0.48.4 r9939" height="16px" width="16px" version="1.1" sodipodi:docname="pluginInstall.svg" id="svg6494">
   <defs id="defs6508" />
   <sodipodi:namedview bordercolor="#666666" inkscape:pageshadow="2" inkscape:window-y="27" pagecolor="#ffffff" inkscape:zoom="16" inkscape:grid-bbox="true" inkscape:window-maximized="1" inkscape:window-x="0" showgrid="true" borderopacity="1.0" inkscape:current-layer="g6502" inkscape:cx="24.421591" inkscape:cy="3.0728058" inkscape:window-height="741" inkscape:pageopacity="0.0" inkscape:window-width="1366" inkscape:document-units="px" id="namedview6496" inkscape:object-nodes="false" inkscape:snap-bbox="true">
      <inkscape:grid type="xygrid" id="grid6498" />
   </sodipodi:namedview>
   <metadata id="metadata6500">
      <rdf:RDF>
         <cc:Work rdf:about="">
            <dc:format>image/svg+xml</dc:format>
            <dc:type rdf:resource="http://purl.org/dc/dcmitype/StillImage" />
            <dc:title />
         </cc:Work>
      </rdf:RDF>
   </metadata>
   <g inkscape:label="Layer 1" inkscape:groupmode="layer" id="g6502">
      <path style="fill:#2e3436;fill-opacity:1;stroke:none" d="m 3.9375,3 0,1 2,0 0,-1 z m 6,0 0,1 2,0 0,-1 z m -8,1 -1,3 14,0 -1,-3 -1,0 0,2 -1,0 0,-1 -2,0 0,1 -1,0 0,-2 -2,0 0,2 -1,0 0,-1 -2,0 0,1 -1,0 0,-2 z M 1,8 l 0,6 14,0 0,-6 z m 6,0 2,0 0,2 2,0 -1,1 -2,2 -2,-2 -1,-1 2,0 z" id="path6725" inkscape:connector-curvature="0" sodipodi:nodetypes="cccccccccccccccccccccccccccccccccccccccccccccc" />
   </g>
</svg>
