<?xml version="1.0" encoding="UTF-8" standalone="no"?>
<svg xmlns:inkscape="http://www.inkscape.org/namespaces/inkscape" xmlns:rdf="http://www.w3.org/1999/02/22-rdf-syntax-ns#" xmlns="http://www.w3.org/2000/svg" sodipodi:docname="printer-symbolic.svg" height="16" width="16" version="1.1" xmlns:cc="http://creativecommons.org/ns#" xmlns:sodipodi="http://sodipodi.sourceforge.net/DTD/sodipodi-0.dtd" inkscape:version="0.47+devel r9385 custom" xmlns:dc="http://purl.org/dc/elements/1.1/">
<metadata>
<rdf:RDF>
<cc:Work rdf:about="">
<dc:format>image/svg+xml</dc:format>
<dc:type rdf:resource="http://purl.org/dc/dcmitype/StillImage"/>
<dc:title>Gnome Symbolic Icon Theme</dc:title>
</cc:Work>
</rdf:RDF>
</metadata>
<sodipodi:namedview inkscape:zoom="1" borderopacity="1" inkscape:current-layer="layer10" inkscape:cx="66.65058" guidetolerance="10" inkscape:window-maximized="0" inkscape:snap-bbox="true" showgrid="false" inkscape:snap-nodes="true" showguides="true" bordercolor="#666666" inkscape:window-x="1700" inkscape:guide-bbox="true" objecttolerance="10" inkscape:window-y="68" inkscape:window-width="1310" inkscape:pageopacity="1" inkscape:pageshadow="2" pagecolor="#555753" gridtolerance="10" inkscape:bbox-paths="false" inkscape:cy="72.4546" inkscape:window-height="920" showborder="false">
<inkscape:grid spacingx="1px" enabled="true" spacingy="1px" visible="true" snapvisiblegridlinesonly="true" type="xygrid" empspacing="2"/>
</sodipodi:namedview>
<title>Gnome Symbolic Icon Theme</title>
<g inkscape:label="devices" transform="translate(-142,-338)" inkscape:groupmode="layer">
<g inkscape:label="Layer 1" transform="translate(142,338)" fill="#2e3436">
<path sodipodi:nodetypes="ccccccccccccc" d="m2 4c-0.5 0-1 0.5-1 1v4c0 0.5 0.5 1 1 1h1v-2h10v2h1c0.5 0 1-0.5 1-1v-4c0-0.5-0.5-1-1-1h-12z" inkscape:connector-curvature="0"/>
<path sodipodi:nodetypes="ccccc" d="m4 1v2h8v-2h-8z" inkscape:connector-curvature="0"/>
<path sodipodi:nodetypes="ccccccccccccccc" d="m4 9v5h8v-5l-8 1e-7zm1 1h6v1h-6v-1zm0 2h5v1h-5v-1z" inkscape:connector-curvature="0"/>
</g>
</g>
</svg>
