<?xml version="1.0" encoding="UTF-8" standalone="no"?>
<svg xmlns:inkscape="http://www.inkscape.org/namespaces/inkscape" xmlns:rdf="http://www.w3.org/1999/02/22-rdf-syntax-ns#" xmlns="http://www.w3.org/2000/svg" inkscape:version="0.48.3.1 r9886" height="16" width="16" version="1.1" xmlns:cc="http://creativecommons.org/ns#" xmlns:dc="http://purl.org/dc/elements/1.1/" sodipodi:docname="question.svg" xmlns:sodipodi="http://sodipodi.sourceforge.net/DTD/sodipodi-0.dtd">
<metadata>
<rdf:RDF>
<cc:Work rdf:about="">
<dc:format>image/svg+xml</dc:format>
<dc:type rdf:resource="http://purl.org/dc/dcmitype/StillImage"/>
<dc:title>Gnome Symbolic Icon Theme</dc:title>
</cc:Work>
</rdf:RDF>
</metadata>
<sodipodi:namedview inkscape:zoom="1" borderopacity="1" inkscape:current-layer="layer9" inkscape:cx="7.13198" guidetolerance="10" inkscape:snap-grids="true" inkscape:window-maximized="0" inkscape:snap-bbox="true" showgrid="false" inkscape:snap-nodes="true" inkscape:snap-global="true" showguides="true" bordercolor="#666666" inkscape:window-x="54" inkscape:guide-bbox="true" objecttolerance="10" inkscape:object-nodes="true" inkscape:window-y="48" inkscape:window-width="1310" inkscape:pageopacity="1" inkscape:snap-to-guides="true" inkscape:pageshadow="2" pagecolor="#555753" gridtolerance="10" inkscape:bbox-paths="false" inkscape:cy="5.594091" inkscape:window-height="690" showborder="false">
<inkscape:grid visible="true" enabled="true" spacingy="1px" spacingx="1px" snapvisiblegridlinesonly="true" type="xygrid" empspacing="2"/>
</sodipodi:namedview>
<title>Gnome Symbolic Icon Theme</title>
<g inkscape:label="status" transform="translate(-281 -257)" inkscape:groupmode="layer">
<path style="color:#2e3436" d="m289 257.03c-0.40018 0-0.81534 0.15911-1.125 0.46875l-6.375 6.375c-0.61932 0.61929-0.61932 1.6307 0 2.25l6.375 6.375c0.61931 0.61929 1.6307 0.61929 2.25 0l6.375-6.375c0.61932-0.61929 0.61931-1.6307 0-2.25l-6.375-6.375c-0.30966-0.30964-0.72482-0.46875-1.125-0.46875zm-0.19 2.97c1.6424-0.092 3.0955 1.1701 3.1875 2.8125-0.0001 1.4014-0.37771 1.9218-1.5938 2.8438-0.19093 0.14364-0.3256 0.2506-0.375 0.3125-0.05 0.06-0.03 0.03-0.03 0.03 0.007 0.52831-0.47163 1-1 1s-1.007-0.47169-1-1c0-0.50239 0.22424-0.94342 0.46875-1.25 0.24451-0.30663 0.4913-0.51638 0.71875-0.6875 0.20405-0.16056 0.46083-0.38454 0.6875-0.65625 0.0935-0.1121 0.129-0.30766 0.125-0.4375v-0.0313c-0.0316-0.56324-0.49926-0.9691-1.0625-0.9375s-0.9691 0.43676-0.9375 1h-2c-0.092-1.6424 1.1701-2.9079 2.8125-3zm0.19 8c0.55228 0 1 0.44772 1 1s-0.44772 1-1 1-1-0.44772-1-1 0.44772-1 1-1z" fill="#2e3436"/>
</g>
</svg>
