<?xml version="1.0" encoding="UTF-8" standalone="no"?>
<!-- Created with Inkscape (http://www.inkscape.org/) -->

<svg xmlns:dc="http://purl.org/dc/elements/1.1/" xmlns:cc="http://creativecommons.org/ns#" xmlns:rdf="http://www.w3.org/1999/02/22-rdf-syntax-ns#" xmlns:svg="http://www.w3.org/2000/svg" xmlns="http://www.w3.org/2000/svg" version="1.1" width="16" height="16" id="svg7384">
   <title id="title9167">Gnome Symbolic Icon Theme</title>
   <metadata id="metadata90">
      <rdf:RDF>
         <cc:Work rdf:about="">
            <dc:format>image/svg+xml</dc:format>
            <dc:type rdf:resource="http://purl.org/dc/dcmitype/StillImage" />
            <dc:title>Gnome Symbolic Icon Theme</dc:title>
         </cc:Work>
      </rdf:RDF>
   </metadata>
   <defs id="defs7386" />
   <g transform="translate(-40.983734,-647.01646)" id="layer9" style="display:inline" />
   <g transform="translate(-40.983734,-647.01646)" id="layer10" />
   <g transform="translate(-40.983734,-647.01646)" id="layer11" />
   <g transform="translate(-40.983734,-647.01646)" id="layer13" />
   <g transform="translate(-40.983734,-647.01646)" id="layer14" />
   <g transform="translate(-40.983734,-647.01646)" id="layer15" style="display:inline" />
   <g transform="translate(-40.983734,-647.01646)" id="g71291" style="display:inline" />
   <g transform="translate(-40.983734,-647.01646)" id="g4953" style="display:inline" />
   <g transform="translate(-40.983734,-647.01646)" id="layer12" style="display:inline">
      <g transform="translate(40.98764,-389.33788)" id="g3288" style="fill:#2e3436;fill-opacity:1">
         <g transform="matrix(-1,0,0,-1,22,2082.7244)" id="g3280" style="fill:#2e3436;fill-opacity:1">
            <path d="m 9,1038.3622 c -0.5522847,0 -1,0.4477 -1,1 0,0.5523 0.4477153,1 1,1 l 1.5625,0 -2.28125,2.2813 1.4375,1.4062 2.28125,-2.2812 0,1.5937 c 0,0.5523 0.447715,1 1,1 0.552285,0 1,-0.4477 1,-1 l 0,-5 -5,0 z" id="path3268" style="fill:#2e3436;fill-opacity:1;stroke:none" />
            <path d="m 9.7174261,1044.0394 c -0.3869501,0.3941 -1.0200888,0.3999 -1.4141549,0.013 -0.3940661,-0.3869 -0.3998347,-1.0201 -0.012885,-1.4141 0,0 0,0 0,0 l 0.7135201,0.7005 z" id="path3272" style="fill:#2e3436;fill-opacity:1;stroke:none" />
         </g>
         <g transform="matrix(-1,0,0,-1,10,2094.7205)" id="g3284" style="fill:#2e3436;fill-opacity:1">
            <path d="m 3,1044.3622 c -0.5522847,0 -1,0.4477 -1,1 l 0,5 5,0 c 0.5522847,0 1,-0.4477 1,-1 0,-0.5523 -0.4477153,-1 -1,-1 l -1.59375,0 2.3125,-2.3125 L 7,1045.3622 6.28125,1044.6435 4,1046.9247 l 0,-1.5625 c 0,-0.5523 -0.4477153,-1 -1,-1 z" id="path3270" style="fill:#2e3436;fill-opacity:1;stroke:none" />
            <path d="m 6.2747613,1044.6577 c 0.3869501,-0.3941 1.0200888,-0.3999 1.4141549,-0.013 0.3940661,0.3869 0.3998347,1.0201 0.012885,1.4141 0,0 0,0 0,0 l -0.7135201,-0.7005 z" id="path3274" style="fill:#2e3436;fill-opacity:1;stroke:none" />
         </g>
      </g>
   </g>
</svg>
