<?xml version="1.0" encoding="UTF-8" standalone="no"?>
<svg xmlns:dc="http://purl.org/dc/elements/1.1/" xmlns:cc="http://creativecommons.org/ns#" xmlns:rdf="http://www.w3.org/1999/02/22-rdf-syntax-ns#" xmlns:svg="http://www.w3.org/2000/svg" xmlns="http://www.w3.org/2000/svg" xmlns:sodipodi="http://sodipodi.sourceforge.net/DTD/sodipodi-0.dtd" xmlns:inkscape="http://www.inkscape.org/namespaces/inkscape" inkscape:version="0.48.3.1 r9886" height="16" width="16" version="1.1" sodipodi:docname="folder.svg" id="svg13236">
   <defs id="defs13258" />
   <sodipodi:namedview bordercolor="#666666" inkscape:pageshadow="2" guidetolerance="10" pagecolor="#ffffff" gridtolerance="10" inkscape:zoom="22.627417" inkscape:window-maximized="0" objecttolerance="10" showgrid="true" borderopacity="1" inkscape:current-layer="svg13236" inkscape:cx="2.7151987" inkscape:cy="8.4137552" inkscape:window-y="27" inkscape:window-x="143" inkscape:window-width="1221" inkscape:pageopacity="0" inkscape:window-height="708" id="namedview13238">
      <inkscape:grid type="xygrid" id="grid13240" />
   </sodipodi:namedview>
   <title id="title13242">Gnome Symbolic Icon Theme</title>
   <metadata id="metadata13244">
      <rdf:RDF>
         <cc:Work rdf:about="">
            <dc:format>image/svg+xml</dc:format>
            <dc:type rdf:resource="http://purl.org/dc/dcmitype/StillImage" />
            <dc:title>Gnome Symbolic Icon Theme</dc:title>
         </cc:Work>
      </rdf:RDF>
   </metadata>
   <g inkscape:label="non-starred" transform="translate(-228 -997)" id="g13246">
      <g inkscape:label="folder-remote" id="g13248">
         <rect style="color:#2e3436" height="16" width="16" y="996" x="228" fill="none" id="rect13250" />
      </g>
   </g>
   <path style="fill:#2e3436;fill-opacity:1;stroke:none;display:inline" d="M 3,1 C 1.892,1 1,1.892 1,3 l 0,9 c 0,1.108 0.892,2 2,2 l 10,0 c 1.108,0 2,-0.892 2,-2 L 15,3 C 15,1.892 14.108,1 13,1 z M 3,2 C 4.423534,2 5.840575,2.258166 7.1562498,2.75 8.4719253,3.2418341 9.6809089,3.9705323 10.6875,5 11.694091,6.0294678 12.487354,7.2767901 13.03125,8.625 13.473098,9.720254 14,11.309739 14,13 l -2,0 C 12,11.835291 11.611092,10.54732 11.125,9.46875 10.638908,8.3901817 9.961522,7.3860741 9.15625,6.5625 8.3509774,5.7389259 7.3947458,5.0991491 6.34375,4.65625 5.292755,4.2133509 4.138828,4 3,4 z M 3,6 C 3.913385,6 4.898698,6.2602277 5.71875,6.625 6.538802,6.9897721 7.2695398,7.5496595 7.90625,8.1875 8.5429609,8.8253405 9.10539,9.555795 9.46875,10.375 9.8321102,11.194205 10,12.091134 10,13 L 8,13 C 8,12.357526 7.886652,11.740136 7.6249998,11.15625 7.3633478,10.572363 6.987731,10.019779 6.53125,9.5625 6.074769,9.105221 5.521986,8.7314002 4.9375,8.46875 4.353014,8.2060997 3.645668,8 3,8 z m 1.482416,4 c 0.413316,0 0.801526,0.170712 1.072385,0.441571 0.270859,0.270859 0.441571,0.659068 0.441571,1.072385 0,0.413315 -0.170712,0.769986 -0.441571,1.040845 -0.270859,0.270858 -0.659069,0.44157 -1.072385,0.44157 -0.413317,0 -0.769986,-0.170712 -1.040845,-0.44157 C 3.170712,12.283942 3,11.927271 3,11.513956 3,11.100639 3.170712,10.71243 3.441571,10.441571 3.71243,10.170712 4.069099,10 4.482416,10 z" id="rect12363" inkscape:connector-curvature="0" sodipodi:nodetypes="ssssssssscsssccssscccsssccsssccsssssssss" />
</svg>
