<?xml version="1.0" encoding="UTF-8" standalone="no"?>
<!-- Created with Inkscape (http://www.inkscape.org/) -->

<svg
   xmlns:dc="http://purl.org/dc/elements/1.1/"
   xmlns:cc="http://creativecommons.org/ns#"
   xmlns:rdf="http://www.w3.org/1999/02/22-rdf-syntax-ns#"
   xmlns:svg="http://www.w3.org/2000/svg"
   xmlns="http://www.w3.org/2000/svg"
   xmlns:sodipodi="http://sodipodi.sourceforge.net/DTD/sodipodi-0.dtd"
   xmlns:inkscape="http://www.inkscape.org/namespaces/inkscape"
   width="16px"
   height="16px"
   id="svg3762"
   version="1.1"
   inkscape:version="0.48.2 r9819"
   sodipodi:docname="rss.svg">
  <defs
     id="defs3764">
    <clipPath
       clipPathUnits="userSpaceOnUse"
       id="clipPath3934">
      <rect
         style="color:#000000;fill:#eeeeec;fill-opacity:1;fill-rule:evenodd;stroke:none;stroke-width:2;marker:none;visibility:visible;display:inline;overflow:visible;enable-background:accumulate"
         id="rect3936"
         width="19.273458"
         height="19.273458"
         x="4.3632712"
         y="-7.6367283" />
    </clipPath>
  </defs>
  <sodipodi:namedview
     id="base"
     pagecolor="#ffffff"
     bordercolor="#666666"
     borderopacity="1.0"
     inkscape:pageopacity="0.0"
     inkscape:pageshadow="2"
     inkscape:zoom="32"
     inkscape:cx="4.3604648"
     inkscape:cy="10.131143"
     inkscape:current-layer="layer1"
     showgrid="true"
     inkscape:grid-bbox="true"
     inkscape:document-units="px"
     inkscape:window-width="1920"
     inkscape:window-height="1020"
     inkscape:window-x="1366"
     inkscape:window-y="27"
     inkscape:window-maximized="1"
     showborder="true"
     inkscape:showpageshadow="false">
    <inkscape:grid
       type="xygrid"
       id="grid3781"
       empspacing="5"
       visible="true"
       enabled="true"
       snapvisiblegridlinesonly="true" />
  </sodipodi:namedview>
  <metadata
     id="metadata3767">
    <rdf:RDF>
      <cc:Work
         rdf:about="">
        <dc:format>image/svg+xml</dc:format>
        <dc:type
           rdf:resource="http://purl.org/dc/dcmitype/StillImage" />
        <dc:title />
      </cc:Work>
    </rdf:RDF>
  </metadata>
  <g
     id="layer1"
     inkscape:label="Layer 1"
     inkscape:groupmode="layer">
    <circle
       style="fill:#2e3436;fill-opacity:1"
       sodipodi:ry="24"
       sodipodi:rx="24"
       sodipodi:cy="189"
       sodipodi:cx="68"
       transform="matrix(0.08333331,0,0,0.08333331,-1.666665,-3.7499941)"
       cx="68"
       cy="189"
       r="24"
       id="circle26" />
    <text
       xml:space="preserve"
       style="font-size:40px;font-style:normal;font-weight:normal;line-height:125%;letter-spacing:0px;word-spacing:0px;fill:#000000;fill-opacity:1;stroke:none;font-family:Sans"
       x="26.4375"
       y="4.75"
       id="text3923"
       sodipodi:linespacing="125%"><tspan
         sodipodi:role="line"
         id="tspan3925"
         x="26.4375"
         y="4.75"> </tspan></text>
    <path
       id="path3021-7-7"
       transform="matrix(0.72638757,0,0,0.72638757,-1.1694259,5.5472246)"
       style="color:#000000;fill:#2e3436;fill-opacity:1;fill-rule:evenodd;stroke:none;stroke-width:0.33556464;marker:none;visibility:visible;display:inline;overflow:visible;enable-background:accumulate"
       d="m 14,10.948391 c 0,4.94206 -4.0063311,8.948391 -8.948391,8.948391 -4.94205982,0 -8.9483909,-4.006331 -8.9483909,-8.948391 C -3.8967819,6.0063311 0.10954918,2 5.051609,2 9.9936689,2 14,6.0063311 14,10.948391 z m 2.753351,10e-7 c 0,6.462694 -5.239048,11.701742 -11.7017421,11.701742 -6.4626937,0 -11.7017422,-5.239048 -11.7017422,-11.701742 0,-6.4626942 5.2390485,-11.70174269 11.7017422,-11.70174269 6.4626941,0 11.7017421,5.23904849 11.7017421,11.70174269 z m 2.753351,-10e-7 c 0,7.983328 -6.471766,14.455093 -14.4550932,14.455093 -7.9833273,0 -14.4550929,-6.471765 -14.4550929,-14.455093 0,-7.9833273 6.4717656,-14.4550929 14.4550929,-14.4550929 7.9833272,0 14.4550932,6.4717656 14.4550932,14.4550929 z m 2.753352,10e-7 c 0,9.503962 -7.704483,17.208445 -17.208445,17.208445 -9.5039614,0 -17.208444,-7.704483 -17.208444,-17.208445 0,-9.5039614 7.7044826,-17.2084445 17.208444,-17.2084445 9.503962,0 17.208445,7.7044831 17.208445,17.2084445 z"
       clip-path="url(#clipPath3934)"
       inkscape:connector-curvature="0" />
  </g>
</svg>
