<?xml version="1.0" encoding="UTF-8" standalone="no"?>
<svg xmlns:inkscape="http://www.inkscape.org/namespaces/inkscape" xmlns:rdf="http://www.w3.org/1999/02/22-rdf-syntax-ns#" xmlns="http://www.w3.org/2000/svg" inkscape:version="0.48.2 r9819" height="16px" width="16px" version="1.1" xmlns:cc="http://creativecommons.org/ns#" xmlns:dc="http://purl.org/dc/elements/1.1/" sodipodi:docname="rss.svg" xmlns:sodipodi="http://sodipodi.sourceforge.net/DTD/sodipodi-0.dtd">
<defs>
<clipPath id="a" clipPathUnits="userSpaceOnUse">
<rect style="color:#000000" fill-rule="evenodd" height="19.273" width="19.273" y="-7.6367" x="4.3633" fill="#eeeeec"/>
</clipPath>
</defs>
<sodipodi:namedview bordercolor="#666666" inkscape:pageshadow="2" inkscape:window-y="27" pagecolor="#ffffff" inkscape:zoom="32" inkscape:grid-bbox="true" inkscape:window-maximized="1" inkscape:window-x="1366" showgrid="true" borderopacity="1.0" inkscape:current-layer="layer1" inkscape:cx="4.3604648" inkscape:cy="10.131143" inkscape:showpageshadow="false" inkscape:window-height="1020" showborder="true" inkscape:pageopacity="0.0" inkscape:window-width="1920" inkscape:document-units="px">
<inkscape:grid visible="true" empspacing="5" enabled="true" snapvisiblegridlinesonly="true" type="xygrid"/>
</sodipodi:namedview>
<metadata>
<rdf:RDF>
<cc:Work rdf:about="">
<dc:format>image/svg+xml</dc:format>
<dc:type rdf:resource="http://purl.org/dc/dcmitype/StillImage"/>
<dc:title/>
</cc:Work>
</rdf:RDF>
</metadata>
<g inkscape:label="Layer 1" inkscape:groupmode="layer">
<circle sodipodi:rx="24" sodipodi:ry="24" fill="#2e3436" sodipodi:cy="189" transform="matrix(.083333 0 0 .083333 -1.6667 -3.75)" cy="189" cx="68" r="24" sodipodi:cx="68"/>
<text style="word-spacing:0px;letter-spacing:0px" xml:space="preserve" font-size="40px" sodipodi:linespacing="125%" y="4.75" x="26.4375" font-family="Sans" line-height="125%" fill="#000000"><tspan sodipodi:role="line" x="26.4375" y="4.75"> </tspan></text>
<path style="color:#000000" d="m14 10.948c0 4.9421-4.0063 8.9484-8.9484 8.9484s-8.9484-4.0063-8.9484-8.9484c0.0002-4.9417 4.0066-8.948 8.9486-8.948 4.9421 0 8.9484 4.0063 8.9484 8.948zm2.7534 0.000001c0 6.4627-5.239 11.702-11.702 11.702-6.4627 0-11.702-5.239-11.702-11.702 0-6.4627 5.239-11.702 11.702-11.702 6.4627 0 11.702 5.239 11.702 11.702zm2.7534-0.000001c0 7.9833-6.4718 14.455-14.455 14.455-7.9833 0-14.455-6.4718-14.455-14.455 0-7.9833 6.4718-14.455 14.455-14.455 7.9833 0 14.455 6.4718 14.455 14.455zm2.7534 0.000001c0 9.504-7.7045 17.208-17.208 17.208-9.504 0-17.208-7.7045-17.208-17.208 0-9.504 7.7045-17.208 17.208-17.208 9.504 0 17.208 7.7045 17.208 17.208z" fill-rule="evenodd" clip-path="url(#a)" inkscape:connector-curvature="0" transform="matrix(.72639 0 0 .72639 -1.1694 5.5472)" fill="#2e3436"/>
</g>
</svg>
