<?xml version="1.0" encoding="UTF-8" standalone="no"?>
<svg xmlns:inkscape="http://www.inkscape.org/namespaces/inkscape" xmlns:rdf="http://www.w3.org/1999/02/22-rdf-syntax-ns#" xmlns="http://www.w3.org/2000/svg" inkscape:version="0.48.3.1 r9886" height="16" width="16" version="1.1" xmlns:cc="http://creativecommons.org/ns#" xmlns:dc="http://purl.org/dc/elements/1.1/" sodipodi:docname="stop.svg" xmlns:sodipodi="http://sodipodi.sourceforge.net/DTD/sodipodi-0.dtd">
<sodipodi:namedview bordercolor="#666666" inkscape:pageshadow="2" guidetolerance="10" pagecolor="#ffffff" gridtolerance="10" inkscape:zoom="41.7193" inkscape:window-maximized="1" objecttolerance="10" showgrid="true" borderopacity="1" inkscape:current-layer="svg7384" inkscape:cx="8.0046262" inkscape:cy="4.9176154" inkscape:window-y="27" inkscape:window-x="0" inkscape:window-width="1366" inkscape:pageopacity="0" inkscape:window-height="715">
<inkscape:grid type="xygrid"/>
</sodipodi:namedview>
<title>Gnome Symbolic Icon Theme</title>
<metadata>
<rdf:RDF>
<cc:Work rdf:about="">
<dc:format>image/svg+xml</dc:format>
<dc:type rdf:resource="http://purl.org/dc/dcmitype/StillImage"/>
<dc:title>Gnome Symbolic Icon Theme</dc:title>
</cc:Work>
</rdf:RDF>
</metadata>
<g transform="translate(-260,-517)" fill="#2e3436">
<path style="color:#2e3436;text-transform:none;text-indent:0" d="m265 519-0.3125 0.28125-3.4062 3.375-0.28125 0.3125v5l0.28125 0.3125 3.4062 3.4375 0.31 0.27h5.0313l0.28125-0.28125 3.4062-3.4375 0.28125-0.3125v-5l-0.28125-0.3125-3.4062-3.375-0.31-0.28h-5.0038zm0.8125 2h3.375l2.8125 2.8125v3.3438l-2.8438 2.8438h-3.3125l-2.84-2.83v-3.35l2.81-2.81z" inkscape:connector-curvature="0"/>
<path style="color:#2e3436" d="m266.17 522-2.17 2.15v2.6707l2.1656 2.1835h2.6707l2.1636-2.1835v-2.6707l-2.1636-2.1457h-2.6707z" inkscape:connector-curvature="0"/>
</g>
</svg>
