<?xml version="1.0" encoding="UTF-8" standalone="no"?>
<svg xmlns:rdf="http://www.w3.org/1999/02/22-rdf-syntax-ns#" xmlns="http://www.w3.org/2000/svg" height="16.062" width="16.05" version="1.1" xmlns:cc="http://creativecommons.org/ns#" xmlns:dc="http://purl.org/dc/elements/1.1/">
<title>Gnome Symbolic Icon Theme</title>
<metadata>
<rdf:RDF>
<cc:Work rdf:about="">
<dc:format>image/svg+xml</dc:format>
<dc:type rdf:resource="http://purl.org/dc/dcmitype/StillImage"/>
<dc:title>Gnome Symbolic Icon Theme</dc:title>
</cc:Work>
</rdf:RDF>
</metadata>
<g transform="translate(-501.95 -381.94)">
<g transform="translate(425.86 -583.36)" fill="#2a7fff">
<path style="block-progression:tb;color:black;text-transform:none;text-indent:0" d="m84.094 967.36c-2.965 0-5.4314 2.1652-5.9062 5h2.0625c0.44228-1.7288 1.9706-3 3.8438-3s3.4015 1.2712 3.8438 3h2.0625c-0.47482-2.8348-2.9413-5-5.9062-5zm-5.9062 7c0.47482 2.8348 2.9413 5 5.9062 5 2.965 0 5.4314-2.1652 5.9062-5h-2.0625c-0.44228 1.7288-1.9706 3-3.8438 3s-3.4015-1.2712-3.8438-3h-2.0625z"/>
<path d="m78.094 974.36h5l-5 5z"/>
<path d="m90.094 972.36h-5l5-5z"/>
</g>
</g>
</svg>
