<?xml version="1.0" encoding="UTF-8" standalone="no"?>
<!-- Created with Inkscape (http://www.inkscape.org/) -->

<svg
   xmlns:dc="http://purl.org/dc/elements/1.1/"
   xmlns:cc="http://creativecommons.org/ns#"
   xmlns:rdf="http://www.w3.org/1999/02/22-rdf-syntax-ns#"
   xmlns:svg="http://www.w3.org/2000/svg"
   xmlns="http://www.w3.org/2000/svg"
   xmlns:sodipodi="http://sodipodi.sourceforge.net/DTD/sodipodi-0.dtd"
   xmlns:inkscape="http://www.inkscape.org/namespaces/inkscape"
   width="16px"
   height="16px"
   id="svg3763"
   version="1.1"
   inkscape:version="0.48.3.1 r9886"
   sodipodi:docname="tabview.svg">
  <defs
     id="defs3765" />
  <sodipodi:namedview
     id="base"
     pagecolor="#ffffff"
     bordercolor="#666666"
     borderopacity="1.0"
     inkscape:pageopacity="0.0"
     inkscape:pageshadow="2"
     inkscape:zoom="22.627417"
     inkscape:cx="-3.175151"
     inkscape:cy="13.047139"
     inkscape:current-layer="layer1"
     showgrid="true"
     inkscape:grid-bbox="true"
     inkscape:document-units="px"
     inkscape:window-width="1280"
     inkscape:window-height="995"
     inkscape:window-x="0"
     inkscape:window-y="0"
     inkscape:window-maximized="1">
    <inkscape:grid
       type="xygrid"
       id="grid3780" />
  </sodipodi:namedview>
  <metadata
     id="metadata3768">
    <rdf:RDF>
      <cc:Work
         rdf:about="">
        <dc:format>image/svg+xml</dc:format>
        <dc:type
           rdf:resource="http://purl.org/dc/dcmitype/StillImage" />
        <dc:title></dc:title>
      </cc:Work>
    </rdf:RDF>
  </metadata>
  <g
     id="layer1"
     inkscape:label="Layer 1"
     inkscape:groupmode="layer">
    <g
       id="g7806"
       transform="translate(74.967258,-1062.3674)"
       style="fill:none;stroke:#4d4d4d;stroke-opacity:1">
      <path
         id="path3873"
         d="m -72.59246,1063.8704 c -0.48667,0 -0.87846,0.3689 -0.87846,0.827 l 0,3.3076 c 0,0.4581 0.39179,0.8269 0.87846,0.8269 l 5.270793,0 c 0.48667,0 0.87846,-0.3688 0.87846,-0.8269 l 0,-3.3076 c 0,-0.4581 -0.39179,-0.827 -0.87846,-0.827 l -5.270793,0 z"
         style="fill:none;stroke:#4d4d4d;stroke-width:0.99999994;stroke-opacity:1"
         inkscape:connector-curvature="0" />
      <path
         id="path3875"
         d="m -62.702947,1063.8925 c -0.41322,0 -0.74589,0.3672 -0.74589,0.8233 l 0,3.2928 c 0,0.4561 0.33267,0.8233 0.74589,0.8233 l 1.49176,0 c 0.41322,0 0.74589,-0.3672 0.74589,-0.8233 l 0,-3.2928 c 0,-0.4561 -0.33267,-0.8233 -0.74589,-0.8233 l -1.49176,0 z"
         style="fill:none;stroke:#4d4d4d;stroke-width:1;stroke-opacity:1"
         inkscape:connector-curvature="0" />
      <path
         inkscape:connector-curvature="0"
         style="fill:none;stroke:#4d4d4d;stroke-width:0.99999994;stroke-opacity:1"
         d="m -72.59246,1071.8973 c -0.48667,0 -0.87846,0.3689 -0.87846,0.827 l 0,2.3076 c 0,0.4581 0.39179,0.8269 0.87846,0.8269 l 2.208293,0 c 0.48667,0 0.87846,-0.3688 0.87846,-0.8269 l 0,-2.3076 c 0,-0.4581 -0.39179,-0.827 -0.87846,-0.827 z"
         id="path3877"
         sodipodi:nodetypes="sssssssss" />
      <path
         inkscape:connector-curvature="0"
         style="fill:none;stroke:#4d4d4d;stroke-width:0.99999994;stroke-opacity:1"
         d="m -65.59246,1071.8899 c -0.48667,0 -0.87846,0.3689 -0.87846,0.827 l 0,2.3076 c 0,0.4581 0.39179,0.8269 0.87846,0.8269 l 4.208293,0 c 0.48667,0 0.87846,-0.3688 0.87846,-0.8269 l 0,-2.3076 c 0,-0.4581 -0.39179,-0.827 -0.87846,-0.827 z"
         id="path3879"
         sodipodi:nodetypes="sssssssss" />
    </g>
  </g>
</svg>
