<?xml version="1.0" encoding="UTF-8" standalone="no"?>
<!-- Created with Inkscape (http://www.inkscape.org/) -->

<svg
   xmlns:dc="http://purl.org/dc/elements/1.1/"
   xmlns:cc="http://creativecommons.org/ns#"
   xmlns:rdf="http://www.w3.org/1999/02/22-rdf-syntax-ns#"
   xmlns:svg="http://www.w3.org/2000/svg"
   xmlns="http://www.w3.org/2000/svg"
   xmlns:sodipodi="http://sodipodi.sourceforge.net/DTD/sodipodi-0.dtd"
   xmlns:inkscape="http://www.inkscape.org/namespaces/inkscape"
   width="16px"
   height="16px"
   id="svg3763"
   version="1.1"
   inkscape:version="0.48.3.1 r9886"
   sodipodi:docname="tabview-2.svg">
  <defs
     id="defs3765" />
  <sodipodi:namedview
     id="base"
     pagecolor="#ffffff"
     bordercolor="#666666"
     borderopacity="1.0"
     inkscape:pageopacity="0.0"
     inkscape:pageshadow="2"
     inkscape:zoom="22.197802"
     inkscape:cx="3.9580069"
     inkscape:cy="10.85338"
     inkscape:current-layer="layer1"
     showgrid="true"
     inkscape:grid-bbox="true"
     inkscape:document-units="px"
     inkscape:window-width="1280"
     inkscape:window-height="995"
     inkscape:window-x="0"
     inkscape:window-y="0"
     inkscape:window-maximized="1">
    <inkscape:grid
       type="xygrid"
       id="grid3780" />
  </sodipodi:namedview>
  <metadata
     id="metadata3768">
    <rdf:RDF>
      <cc:Work
         rdf:about="">
        <dc:format>image/svg+xml</dc:format>
        <dc:type
           rdf:resource="http://purl.org/dc/dcmitype/StillImage" />
        <dc:title />
      </cc:Work>
    </rdf:RDF>
  </metadata>
  <g
     id="layer1"
     inkscape:label="Layer 1"
     inkscape:groupmode="layer">
    <g
       id="g3949"
       transform="translate(0,18)">
      <path
         id="path3063"
         d="m 2.3646,-16.4918 c -0.48667,0 -0.87846,0.3689 -0.87846,0.827 l 0,3.3076 c 0,0.4581 0.39179,0.8269 0.87846,0.8269 l 5.2708,0 c 0.48667,0 0.87846,-0.3688 0.87846,-0.8269 l 0,-3.3076 c 0,-0.4581 -0.39179,-0.827 -0.87846,-0.827 l -5.2708,0 z"
         style="fill:none;stroke:#4d4d4d;stroke-width:0.99999994;stroke-opacity:1"
         inkscape:connector-curvature="0" />
      <path
         id="path3061"
         d="m 12.25412,-16.4697 c -0.41322,0 -0.74589,0.3672 -0.74589,0.8233 l 0,3.2928 c 0,0.4561 0.33267,0.8233 0.74589,0.8233 l 1.49176,0 c 0.41322,0 0.74589,-0.3672 0.74589,-0.8233 l 0,-3.2928 c 0,-0.4561 -0.33267,-0.8233 -0.74589,-0.8233 l -1.49176,0 z"
         style="fill:none;stroke:#4d4d4d;stroke-width:1;stroke-opacity:1"
         inkscape:connector-curvature="0" />
      <path
         id="path3059"
         d="m 2,-9 c -0.554,0 -1,0.446 -1,1 l 0,3 c 0,0.554 0.446,1 1,1 l 3,0 c 0.554,0 1,-0.446 1,-1 L 6,-8 C 6,-8.554 5.554,-9 5,-9 l -3,0 z"
         style="fill:#4d4d4d;fill-opacity:1;stroke:none"
         inkscape:connector-curvature="0" />
      <path
         id="path3045"
         d="m 9,-9 c -0.554,0 -1,0.446 -1,1 l 0,3 c 0,0.554 0.446,1 1,1 l 5,0 c 0.554,0 1,-0.446 1,-1 l 0,-3 c 0,-0.554 -0.446,-1 -1,-1 l -5,0 z"
         style="fill:#4d4d4d;fill-opacity:1;stroke:none"
         inkscape:connector-curvature="0" />
    </g>
  </g>
</svg>
