<?xml version="1.0" encoding="UTF-8" standalone="no"?>
<svg xmlns:inkscape="http://www.inkscape.org/namespaces/inkscape" xmlns:rdf="http://www.w3.org/1999/02/22-rdf-syntax-ns#" xmlns="http://www.w3.org/2000/svg" inkscape:version="0.48.3.1 r9886" height="16px" width="16px" version="1.1" xmlns:cc="http://creativecommons.org/ns#" xmlns:dc="http://purl.org/dc/elements/1.1/" sodipodi:docname="tag.svg" xmlns:sodipodi="http://sodipodi.sourceforge.net/DTD/sodipodi-0.dtd">
<sodipodi:namedview bordercolor="#666666" inkscape:pageshadow="2" inkscape:window-y="-2" pagecolor="#ffffff" inkscape:zoom="31.392433" inkscape:grid-bbox="true" inkscape:window-maximized="1" inkscape:window-x="0" showgrid="true" borderopacity="1.0" inkscape:current-layer="layer1" inkscape:cx="6.7049314" inkscape:cy="7.4444112" inkscape:pageopacity="0.0" inkscape:window-height="741" inkscape:snap-global="true" inkscape:window-width="1366" inkscape:document-units="px">
<inkscape:grid type="xygrid"/>
</sodipodi:namedview>
<metadata>
<rdf:RDF>
<cc:Work rdf:about="">
<dc:format>image/svg+xml</dc:format>
<dc:type rdf:resource="http://purl.org/dc/dcmitype/StillImage"/>
<dc:title/>
</cc:Work>
</rdf:RDF>
</metadata>
<g inkscape:label="Layer 1" inkscape:groupmode="layer">
<path sodipodi:nodetypes="cccssscccccccccc" fill="#2e3436" d="m5.5 2c-0.5745 0-0.817 0.4862-1.0741 1l-1.4259 3-0.037 6.9631c-0.003 0.575 0.4626 1.034 1.037 1.037l6.963 0.037c0.574 0 1.037-0.462 1.037-1.037v-7l-1.5-3c-0.272-0.5448-0.425-1.0001-1-1zm1.9999 0.9984c1.1133-0.0001 2.0157 0.8954 2.0157 2.0009-0.0001 1.105-0.9025 2.0007-2.0156 2.0007-1.1134 0.0001-2.0158-0.8957-2.0157-2.0008 0-1.1053 0.9023-2.0009 2.0156-2.0008z" inkscape:connector-curvature="0"/>
</g>
</svg>
