<?xml version="1.0" encoding="UTF-8" standalone="no"?>
<!-- Created with Inkscape (http://www.inkscape.org/) -->

<svg xmlns:dc="http://purl.org/dc/elements/1.1/" xmlns:cc="http://creativecommons.org/ns#" xmlns:rdf="http://www.w3.org/1999/02/22-rdf-syntax-ns#" xmlns:svg="http://www.w3.org/2000/svg" xmlns="http://www.w3.org/2000/svg" xmlns:sodipodi="http://sodipodi.sourceforge.net/DTD/sodipodi-0.dtd" xmlns:inkscape="http://www.inkscape.org/namespaces/inkscape" width="16px" height="16px" id="svg3135" version="1.1" inkscape:version="0.48.3.1 r9886" sodipodi:docname="tag.svg">
   <defs id="defs3137" />
   <sodipodi:namedview id="base" pagecolor="#ffffff" bordercolor="#666666" borderopacity="1.0" inkscape:pageopacity="0.0" inkscape:pageshadow="2" inkscape:zoom="31.392433" inkscape:cx="6.8960603" inkscape:cy="8.3363459" inkscape:current-layer="layer1" showgrid="true" inkscape:grid-bbox="true" inkscape:document-units="px" inkscape:window-width="1366" inkscape:window-height="741" inkscape:window-x="0" inkscape:window-y="-2" inkscape:window-maximized="1" inkscape:snap-global="true">
      <inkscape:grid type="xygrid" id="grid3143" />
   </sodipodi:namedview>
   <metadata id="metadata3140">
      <rdf:RDF>
         <cc:Work rdf:about="">
            <dc:format>image/svg+xml</dc:format>
            <dc:type rdf:resource="http://purl.org/dc/dcmitype/StillImage" />
            <dc:title />
         </cc:Work>
      </rdf:RDF>
   </metadata>
   <g id="layer1" inkscape:label="Layer 1" inkscape:groupmode="layer">
      <path sodipodi:nodetypes="cccssscccccccccc" inkscape:connector-curvature="0" id="rect3381-8" d="m 5.0740599,1.9999994 c -0.57446,0 -0.81701,0.4862 -1.07407,1 l -1,3 -0.037,6.9631006 c -0.003,0.5744 0.46256,1.0339 1.03701,1.037 l 6.9629801,0.037 C 11.53738,14.0371 11.99997,13.5746 12,13 l 0,-7.0000006 -1,-3 c -0.27241,-0.5448 -0.42549,-1.0001 -1,-1 z m 2.42582,0.9984 c 1.11336,-10e-5 2.01574,0.8954 2.01567,2.0009 -2e-5,1.105 -0.90244,2.0007 -2.01555,2.0007 -1.11336,10e-5 -2.01583,-0.8957 -2.01567,-2.0008 -6e-5,-1.1053 0.90227,-2.0009 2.01555,-2.0008 z" style="fill:#4d4d4d;fill-opacity:1;stroke:none" />
   </g>
</svg>
