<?xml version="1.0" encoding="UTF-8"?>
<!-- This Source Code Form is subject to the terms of the Mozilla Public
   - License, v. 2.0. If a copy of the MPL was not distributed with this
   - file, You can obtain one at http://mozilla.org/MPL/2.0/. -->

<svg xmlns="http://www.w3.org/2000/svg"
     xmlns:xlink="http://www.w3.org/1999/xlink"
     xmlns:sodipodi="http://sodipodi.sourceforge.net/DTD/sodipodi-0.dtd"
     x="0px" y="0px"
     width="16" height="16" 
     viewBox="0 0 16 16"
     enable-background="new 0 0 16 16">

  <defs>
    <style type="text/css"><![CDATA[
      g:not(:target) {
        display: none;
      }
      
      .generic {
        fill: ButtonText;
      }

      .white {
        fill: #ffffff;
      }
      
      .light-theme {
        opacity: 0.6;
      }
      
      .dark-theme {
        opacity: 0.8;
      }
      
      .green {
        fill: #55d400;
      }

    ]]></style>

    <path
       id="full-sign"
       transform="translate(-220,-606)"
       d="m 225.13729,608.02564 -4.08706,3.79716 v 5.39274 l 4.08706,3.79716 h 5.78729 l 4.08706,-3.79716 v -5.39274 l -4.08706,-3.79716 z m -0.28713,4.00343 h 1.4235 l 1.82579,4.95805 h -1.20691 l -0.37134,-0.97433 h -1.9186 l -0.37134,0.97433 h -1.20691 z m 4.17809,0.0276 h 1.70024 c 0.36999,10e-5 0.70206,0.0102 0.9809,0.0551 0.27883,0.0429 0.53165,0.12038 0.71933,0.21912 0.18768,0.097 0.29852,0.22403 0.39237,0.38353 0.0965,0.15725 0.16348,0.34401 0.16348,0.57529 0,0.13927 -0.0252,0.28958 -0.0654,0.41079 -0.0402,0.1214 -0.0857,0.20932 -0.16349,0.30142 -0.0777,0.0919 -0.18167,0.1836 -0.29427,0.2465 -0.10993,0.0602 -0.24758,0.0888 -0.39236,0.10956 v 0.0276 c 0.14745,0.0276 0.29904,0.0847 0.42506,0.13703 0.12869,0.049 0.23312,0.10211 0.32697,0.19166 0.0965,0.0878 0.17525,0.22138 0.22887,0.35616 0.0563,0.13469 0.0654,0.2999 0.0654,0.49309 -1e-5,0.22454 -0.037,0.42519 -0.13079,0.60255 -0.0938,0.17522 -0.21541,0.31481 -0.39236,0.43836 -0.17428,0.12131 -0.40192,0.20871 -0.65394,0.27386 -0.24934,0.0653 -0.53376,0.10956 -0.85012,0.10956 h -2.05995 v -4.93058 z m -3.46629,0.65748 c -0.0102,0.05 -0.0132,0.12437 -0.031,0.19177 -0.0153,0.0674 -0.039,0.14275 -0.0619,0.21912 -0.0203,0.0745 -0.039,0.14275 -0.0619,0.21913 -0.0229,0.0766 -0.0416,0.15174 -0.0619,0.21913 -0.0203,0.0674 -0.0442,0.11273 -0.0619,0.1644 -0.0153,0.0521 -0.0234,0.11232 -0.031,0.13693 l -0.37134,1.14822 h 1.36155 l -0.3403,-1.14802 c -0.0153,-0.0408 -0.0315,-0.12702 -0.0619,-0.21913 -0.0304,-0.0919 -0.0882,-0.19125 -0.12378,-0.30132 -0.033,-0.11233 -0.0624,-0.21638 -0.0928,-0.3287 -0.0304,-0.11232 -0.0492,-0.2227 -0.0619,-0.30132 z m 4.488,0.29888 v 1.0019 h 0.65394 c 0.15535,0 0.28779,-0.0102 0.39236,-0.0255 0.10453,-0.0225 0.16453,-0.0572 0.22888,-0.10006 0.0643,-0.0429 0.13667,-0.0868 0.16348,-0.15031 0.0295,-0.0654 0.0327,-0.16419 0.0327,-0.25048 0,-0.17246 -0.0867,-0.27671 -0.22888,-0.35074 -0.13941,-0.0766 -0.34836,-0.12519 -0.65393,-0.12519 h -0.58855 z m 5e-5,1.99349 v 1.0063 h 0.71933 c 0.1635,0 0.31514,-0.0184 0.42506,-0.0429 0.11261,-0.0245 0.19454,-0.0398 0.26158,-0.0858 0.0697,-0.046 0.13399,-0.1062 0.16348,-0.17124 0.0295,-0.0653 0.0327,-0.13509 0.0327,-0.21413 0,-0.0715 -0.003,-0.13468 -0.0327,-0.19268 -0.0295,-0.0602 -0.0911,-0.12906 -0.16348,-0.17124 -0.0697,-0.0419 -0.17899,-0.0633 -0.29427,-0.0858 -0.11529,-0.0225 -0.25347,-0.0429 -0.42506,-0.0429 h -0.68664 v 6.1e-4 z" />
    <path
       id="cut-sign"
       d="M 5.125 2.03125 L 1.0625 5.8125 L 1.0625 11.21875 L 5.125 15 L 10.1875 15 C 9.5119232 14.37389 9.09375 13.493737 9.09375 12.5 C 9.09375 11.962523 9.2170234 11.452781 9.4375 11 L 9.03125 11 L 9.03125 6.0625 L 10.71875 6.0625 C 11.088743 6.0626021 11.439911 6.0800716 11.71875 6.125 C 11.997578 6.1678862 12.249815 6.2450096 12.4375 6.34375 C 12.625175 6.4407545 12.718657 6.5592542 12.8125 6.71875 C 12.909021 6.8759994 13 7.0499709 13 7.28125 C 12.999996 7.420528 12.946459 7.5662954 12.90625 7.6875 C 12.86603 7.8089088 12.827751 7.9078968 12.75 8 C 12.67226 8.091899 12.581353 8.1871002 12.46875 8.25 C 12.358815 8.3102449 12.207277 8.3230217 12.0625 8.34375 L 12.0625 8.375 C 12.209955 8.4025697 12.373984 8.4789697 12.5 8.53125 C 12.628695 8.5802628 12.718657 8.6291995 12.8125 8.71875 C 12.909021 8.8065646 13.008877 8.9277148 13.0625 9.0625 C 13.070382 9.0813556 13.056364 9.1049546 13.0625 9.125 C 13.811859 9.2502725 14.499141 9.5973614 15 10.125 L 15 5.8125 L 10.9375 2.03125 L 5.125 2.03125 z M 4.84375 6.03125 L 6.28125 6.03125 L 8.09375 11 L 6.90625 11 L 6.53125 10 L 4.59375 10 L 4.21875 11 L 3.03125 11 L 4.84375 6.03125 z M 5.5625 6.71875 C 5.5523509 6.7687839 5.5490685 6.8388574 5.53125 6.90625 C 5.5159949 6.9736426 5.4916221 7.0486217 5.46875 7.125 C 5.4484518 7.1995403 5.4291221 7.2673717 5.40625 7.34375 C 5.3833779 7.4203325 5.3640482 7.4951074 5.34375 7.5625 C 5.3234518 7.6298926 5.2989743 7.6670823 5.28125 7.71875 C 5.2659949 7.7708261 5.2576171 7.8503915 5.25 7.875 L 4.875 9 L 6.25 9 L 5.90625 7.875 C 5.8909949 7.834156 5.874145 7.7483532 5.84375 7.65625 C 5.813355 7.564351 5.7542928 7.4538246 5.71875 7.34375 C 5.6857706 7.231429 5.6554055 7.143571 5.625 7.03125 C 5.594605 6.918929 5.5751707 6.7973747 5.5625 6.71875 z M 10.0625 7 L 10.0625 8 L 10.71875 8 C 10.874105 8 10.989183 8.0153165 11.09375 8 C 11.198275 7.9775358 11.248153 7.9178862 11.3125 7.875 C 11.376847 7.8321138 11.473183 7.8135124 11.5 7.75 C 11.529506 7.6846496 11.53125 7.5862829 11.53125 7.5 C 11.53125 7.3275362 11.42339 7.1990297 11.28125 7.125 C 11.141831 7.0484175 10.930572 7 10.625 7 L 10.0625 7 z M 10.0625 9 L 10.0625 10 L 10.15625 10 C 10.540568 9.6351879 11.010335 9.3748565 11.53125 9.21875 C 11.504628 9.1915692 11.501961 9.1443574 11.46875 9.125 C 11.399066 9.0831349 11.271531 9.0849642 11.15625 9.0625 C 11.040958 9.0400358 10.921593 9 10.75 9 L 10.0625 9 z " />
    <path
       id="dot"
       style="fill-opacity:1;stroke:none"
       transform="matrix(0.93146416,0,0,0.93146416,1.1527126,0.420061)"
       d="m 14.849243,12.928505 a 2.6737475,2.6737475 0 1 1 -5.3474954,0 A 2.6737475,2.6737475 0 1 1 14.849243,12.928505 Z" />

  </defs>

  <g id="default">
    <use xlink:href="#full-sign" class="generic"/>
  </g>
  <g id="default-panel">
    <use xlink:href="#full-sign" class="generic light-theme"/>
  </g>
  <g id="default-bright">
    <use xlink:href="#full-sign" class="white"/>
  </g>
  <g id="default-panel-bright">
    <use xlink:href="#full-sign" class="white dark-theme"/>
  </g>
  <g id="stopped">
    <use xlink:href="#cut-sign" class="generic"/>
    <use xlink:href="#dot" class="green"/>
  </g>
  <g id="stopped-panel">
    <use xlink:href="#cut-sign" class="generic light-theme"/>
    <use xlink:href="#dot" class="green"/>
  </g>
  <g id="stopped-bright">
    <use xlink:href="#cut-sign" class="white"/>
    <use xlink:href="#dot" class="green"/>
  </g>
  <g id="stopped-panel-bright">
    <use xlink:href="#cut-sign" class="white dark-theme"/>
    <use xlink:href="#dot" class="green"/>
  </g>

</svg>
