<?xml version="1.0" encoding="UTF-8" standalone="no"?>
<svg xmlns:dc="http://purl.org/dc/elements/1.1/" xmlns:cc="http://creativecommons.org/ns#" xmlns:rdf="http://www.w3.org/1999/02/22-rdf-syntax-ns#" xmlns:svg="http://www.w3.org/2000/svg" xmlns="http://www.w3.org/2000/svg" xmlns:sodipodi="http://sodipodi.sourceforge.net/DTD/sodipodi-0.dtd" xmlns:inkscape="http://www.inkscape.org/namespaces/inkscape" inkscape:version="0.48+devel r" height="16" width="16" version="1.1" sodipodi:docname="adblock-plus-stopped.svg" id="svg8321">
   <defs id="defs8337" />
   <metadata id="metadata8323">
      <rdf:RDF>
         <cc:Work rdf:about="">
            <dc:format>image/svg+xml</dc:format>
            <dc:type rdf:resource="http://purl.org/dc/dcmitype/StillImage" />
            <dc:title>Gnome Symbolic Icon Theme</dc:title>
         </cc:Work>
      </rdf:RDF>
   </metadata>
   <sodipodi:namedview inkscape:zoom="1" borderopacity="1" inkscape:current-layer="g8331" inkscape:cx="41.813619" inkscape:cy="9.0331143" inkscape:snap-grids="true" inkscape:snap-bbox-midpoints="true" inkscape:object-paths="true" inkscape:window-maximized="1" inkscape:snap-bbox="true" showgrid="false" inkscape:snap-nodes="true" inkscape:guide-bbox="true" inkscape:snap-global="true" showguides="true" bordercolor="#666666" inkscape:window-x="0" guidetolerance="10" objecttolerance="10" inkscape:object-nodes="true" inkscape:window-y="27" inkscape:window-width="1366" inkscape:pageopacity="0" inkscape:pageshadow="2" pagecolor="white" gridtolerance="10" inkscape:bbox-paths="false" inkscape:snap-to-guides="true" inkscape:window-height="712" showborder="true" id="namedview8325" width="0px" height="0px" fit-margin-top="0" fit-margin-left="0" fit-margin-right="0" fit-margin-bottom="0" inkscape:showpageshadow="false">
      <inkscape:grid visible="true" enabled="true" spacingy="1px" spacingx="1px" snapvisiblegridlinesonly="true" type="xygrid" empspacing="2" id="grid8327" />
   </sodipodi:namedview>
   <title id="title8329">Gnome Symbolic Icon Theme</title>
   <g inkscape:label="actions" transform="translate(-220 -606)" inkscape:groupmode="layer" id="g8331">
      <g fill="#2e3436" style="fill-opacity:0.6" transform="matrix(1.0463 0 0 1.0211 276.7 -466.58)" id="g8333">
         <path d="M 5.125 2.03125 L 1.0625 5.8125 L 1.0625 11.21875 L 5.125 15 L 10.1875 15 C 9.5119232 14.37389 9.09375 13.493737 9.09375 12.5 C 9.09375 11.962523 9.2170234 11.452781 9.4375 11 L 9.03125 11 L 9.03125 6.0625 L 10.71875 6.0625 C 11.088743 6.0626021 11.439911 6.0800716 11.71875 6.125 C 11.997578 6.1678862 12.249815 6.2450096 12.4375 6.34375 C 12.625175 6.4407545 12.718657 6.5592542 12.8125 6.71875 C 12.909021 6.8759994 13 7.0499709 13 7.28125 C 12.999996 7.420528 12.946459 7.5662954 12.90625 7.6875 C 12.86603 7.8089088 12.827751 7.9078968 12.75 8 C 12.67226 8.091899 12.581353 8.1871002 12.46875 8.25 C 12.358815 8.3102449 12.207277 8.3230217 12.0625 8.34375 L 12.0625 8.375 C 12.209955 8.4025697 12.373984 8.4789697 12.5 8.53125 C 12.628695 8.5802628 12.718657 8.6291995 12.8125 8.71875 C 12.909021 8.8065646 13.008877 8.9277148 13.0625 9.0625 C 13.070382 9.0813556 13.056364 9.1049546 13.0625 9.125 C 13.811859 9.2502725 14.499141 9.5973614 15 10.125 L 15 5.8125 L 10.9375 2.03125 L 5.125 2.03125 z M 4.84375 6.03125 L 6.28125 6.03125 L 8.09375 11 L 6.90625 11 L 6.53125 10 L 4.59375 10 L 4.21875 11 L 3.03125 11 L 4.84375 6.03125 z M 5.5625 6.71875 C 5.5523509 6.7687839 5.5490685 6.8388574 5.53125 6.90625 C 5.5159949 6.9736426 5.4916221 7.0486217 5.46875 7.125 C 5.4484518 7.1995403 5.4291221 7.2673717 5.40625 7.34375 C 5.3833779 7.4203325 5.3640482 7.4951074 5.34375 7.5625 C 5.3234518 7.6298926 5.2989743 7.6670823 5.28125 7.71875 C 5.2659949 7.7708261 5.2576171 7.8503915 5.25 7.875 L 4.875 9 L 6.25 9 L 5.90625 7.875 C 5.8909949 7.834156 5.874145 7.7483532 5.84375 7.65625 C 5.813355 7.564351 5.7542928 7.4538246 5.71875 7.34375 C 5.6857706 7.231429 5.6554055 7.143571 5.625 7.03125 C 5.594605 6.918929 5.5751707 6.7973747 5.5625 6.71875 z M 10.0625 7 L 10.0625 8 L 10.71875 8 C 10.874105 8 10.989183 8.0153165 11.09375 8 C 11.198275 7.9775358 11.248153 7.9178862 11.3125 7.875 C 11.376847 7.8321138 11.473183 7.8135124 11.5 7.75 C 11.529506 7.6846496 11.53125 7.5862829 11.53125 7.5 C 11.53125 7.3275362 11.42339 7.1990297 11.28125 7.125 C 11.141831 7.0484175 10.930572 7 10.625 7 L 10.0625 7 z M 10.0625 9 L 10.0625 10 L 10.15625 10 C 10.540568 9.6351879 11.010335 9.3748565 11.53125 9.21875 C 11.504628 9.1915692 11.501961 9.1443574 11.46875 9.125 C 11.399066 9.0831349 11.271531 9.0849642 11.15625 9.0625 C 11.040958 9.0400358 10.921593 9 10.75 9 L 10.0625 9 z " transform="matrix(0.95574883,0,0,0.97933601,-54.190959,1050.4162)" id="path8335" />
      </g>
      <path sodipodi:type="arc" style="fill:#55d400;fill-opacity:1;stroke:none" id="path8879" sodipodi:cx="12.175495" sodipodi:cy="12.928505" sodipodi:rx="2.6737475" sodipodi:ry="2.6737475" d="m 14.849243,12.928505 a 2.6737475,2.6737475 0 1 1 -5.3474954,0 A 2.6737475,2.6737475 0 1 1 14.849243,12.928505 Z" transform="matrix(0.9314637,0,0,0.9314637,221.16593,606.4506)" />
   </g>
</svg>
