<?xml version="1.0" encoding="UTF-8" standalone="no"?>
<svg xmlns:inkscape="http://www.inkscape.org/namespaces/inkscape" xmlns:rdf="http://www.w3.org/1999/02/22-rdf-syntax-ns#" xmlns="http://www.w3.org/2000/svg" inkscape:version="0.48.3.1 r9886" height="16" width="16" version="1.1" xmlns:cc="http://creativecommons.org/ns#" xmlns:dc="http://purl.org/dc/elements/1.1/" sodipodi:docname="feedly.svg" xmlns:sodipodi="http://sodipodi.sourceforge.net/DTD/sodipodi-0.dtd">
<metadata>
<rdf:RDF>
<cc:Work rdf:about="">
<dc:format>image/svg+xml</dc:format>
<dc:type rdf:resource="http://purl.org/dc/dcmitype/StillImage"/>
<dc:title>Gnome Symbolic Icon Theme</dc:title>
</cc:Work>
</rdf:RDF>
</metadata>
<sodipodi:namedview inkscape:zoom="1" borderopacity="1" inkscape:current-layer="layer12" inkscape:cx="9.8741138" inkscape:cy="9.4655816" inkscape:snap-grids="true" inkscape:snap-bbox-midpoints="false" inkscape:object-paths="true" inkscape:window-maximized="0" inkscape:snap-bbox="true" showgrid="false" inkscape:snap-nodes="false" inkscape:guide-bbox="true" inkscape:snap-global="true" showguides="true" bordercolor="#666666" inkscape:window-x="0" guidetolerance="10" objecttolerance="10" inkscape:object-nodes="true" inkscape:window-y="27" inkscape:window-width="1278" inkscape:pageopacity="1" inkscape:pageshadow="2" pagecolor="#555753" gridtolerance="10" inkscape:bbox-paths="false" inkscape:snap-to-guides="true" inkscape:window-height="708" showborder="true">
<inkscape:grid visible="true" enabled="true" spacingy="1px" spacingx="1px" snapvisiblegridlinesonly="true" type="xygrid" empspacing="2"/>
</sodipodi:namedview>
<title>Gnome Symbolic Icon Theme</title>
<g inkscape:label="actions" transform="translate(-220 -606)" inkscape:groupmode="layer">
<path d="m228 608c-0.51124 0-1.0145 0.2021-1.4062 0.5938l-4.9688 4.9375c-0.78347 0.7835-0.78347 2.0603 0 2.8437l4.625 4.5938h3.5l4.625-4.5938c0.78347-0.7834 0.78347-2.0602 0-2.8437l-4.9688-4.9375c-0.39174-0.3917-0.89501-0.5938-1.4062-0.5938zm-1.125 2.2813 1.4375 1.4375-4.4375 4.4375-1.4375-1.4375 4.4375-4.4375zm0.25 3.875 1.4375 1.4375-2.625 2.625-1.4375-1.4375 2.625-2.625zm0.90625 3.2812 1.4375 1.4375-1.4375 1.4375-1.4375-1.4375 1.4375-1.4375z" inkscape:connector-curvature="0" fill="ButtonText"/>
</g>
</svg>
