<?xml version="1.0" encoding="UTF-8" standalone="no"?>
<svg xmlns:dc="http://purl.org/dc/elements/1.1/" xmlns:cc="http://creativecommons.org/ns#" xmlns:rdf="http://www.w3.org/1999/02/22-rdf-syntax-ns#" xmlns:svg="http://www.w3.org/2000/svg" xmlns="http://www.w3.org/2000/svg" xmlns:sodipodi="http://sodipodi.sourceforge.net/DTD/sodipodi-0.dtd" xmlns:inkscape="http://www.inkscape.org/namespaces/inkscape" sodipodi:docname="clearly.svg" height="16px" width="16px" version="1.1" inkscape:version="0.48.4 r9939" id="svg6901">
   <defs id="defs6923" />
   <sodipodi:namedview bordercolor="#666666" inkscape:pageshadow="2" inkscape:window-y="27" pagecolor="#ffffff" inkscape:window-height="741" inkscape:grid-bbox="true" inkscape:window-maximized="1" inkscape:zoom="22.627417" inkscape:window-x="0" showgrid="true" borderopacity="1.0" inkscape:current-layer="g6909" inkscape:cx="10.686404" inkscape:cy="7.9978627" inkscape:window-width="1366" inkscape:pageopacity="0.0" inkscape:document-units="px" id="namedview6903" showguides="false" inkscape:object-nodes="true">
      <inkscape:grid type="xygrid" id="grid6905" />
   </sodipodi:namedview>
   <metadata id="metadata6907">
      <rdf:RDF>
         <cc:Work rdf:about="">
            <dc:format>image/svg+xml</dc:format>
            <dc:type rdf:resource="http://purl.org/dc/dcmitype/StillImage" />
            <dc:title></dc:title>
         </cc:Work>
      </rdf:RDF>
   </metadata>
   <g inkscape:label="Layer 1" inkscape:groupmode="layer" id="g6909">
      <g transform="translate(0,-1036.3622)" id="g6925" style="fill:ButtonText;fill-opacity:1">
         <path inkscape:connector-curvature="0" id="rect6629" transform="translate(0,1036.3622)" d="M 3,7 C 2.4459904,7 2,7.4459904 2,8 L 14,8 C 14,7.4459904 13.55401,7 13,7 L 3,7 z M 2,9 2,10 7,10 7,9 2,9 z m 7,0 0,1 5,0 0,-1 -5,0 z m -7,2 0,1 5,0 0,-1 -5,0 z m 7,0 0,1 5,0 0,-1 -5,0 z m -7,2 c 0,0.55401 0.4459904,1 1,1 l 10,0 c 0.55401,0 1,-0.44599 1,-1 l -5,0 -2,0 -5,0 z" style="color:black;fill:ButtonText;fill-opacity:1;fill-rule:nonzero;stroke:none;stroke-width:6;marker:none;visibility:visible;display:inline;overflow:visible;enable-background:accumulate" />
         <path inkscape:connector-curvature="0" id="path6657" d="m 8,1037.3935 c -0.998066,0 -1.8296322,0.4982 -2.4375,1.1562 -0.6078678,0.658 -1.041769,1.4877 -1.375,2.2813 -0.2268534,0.5402 -0.3911201,1.0563 -0.53125,1.5312 l 1.5625,0 c 0.097529,-0.2999 0.2109987,-0.6214 0.34375,-0.9375 0.291769,-0.6948 0.6703678,-1.3855 1.09375,-1.8437 0.4233822,-0.4583 0.841816,-0.6875 1.34375,-0.6875 0.501934,0 0.9203678,0.2292 1.34375,0.6875 0.4233822,0.4582 0.801981,1.1489 1.09375,1.8437 0.132751,0.3161 0.246221,0.6376 0.34375,0.9375 l 1.5625,0 c -0.14013,-0.4749 -0.304397,-0.991 -0.53125,-1.5312 -0.333231,-0.7936 -0.767132,-1.6233 -1.375,-2.2813 -0.6078678,-0.658 -1.439434,-1.1562 -2.4375,-1.1562 z" style="font-size:medium;font-style:normal;font-variant:normal;font-weight:normal;font-stretch:normal;text-indent:0;text-align:start;text-decoration:none;line-height:normal;letter-spacing:normal;word-spacing:normal;text-transform:none;direction:ltr;block-progression:tb;writing-mode:lr-tb;text-anchor:start;baseline-shift:baseline;color:black;fill:ButtonText;fill-opacity:1;stroke:none;stroke-width:1.5;marker:none;visibility:visible;display:inline;overflow:visible;enable-background:accumulate;font-family:Sans;-inkscape-font-specification:Sans" />
      </g>
   </g>
</svg>
