<?xml version="1.0" encoding="UTF-8" standalone="no"?>
<svg xmlns:dc="http://purl.org/dc/elements/1.1/" xmlns:cc="http://creativecommons.org/ns#" xmlns:rdf="http://www.w3.org/1999/02/22-rdf-syntax-ns#" xmlns:svg="http://www.w3.org/2000/svg" xmlns="http://www.w3.org/2000/svg" xmlns:sodipodi="http://sodipodi.sourceforge.net/DTD/sodipodi-0.dtd" xmlns:inkscape="http://www.inkscape.org/namespaces/inkscape" sodipodi:docname="xmarks-sync-syncing.svg" height="16px" width="16px" version="1.1" inkscape:version="0.48+devel r" id="svg7158">
   <defs id="defs7170" />
   <sodipodi:namedview bordercolor="#666666" inkscape:pageshadow="2" inkscape:window-y="27" pagecolor="#ffffff" inkscape:window-height="712" inkscape:grid-bbox="true" inkscape:window-maximized="1" inkscape:zoom="22.627417" inkscape:window-x="0" showgrid="true" borderopacity="1.0" inkscape:current-layer="g7166" inkscape:cx="3.3203216" inkscape:cy="9.5549466" inkscape:window-width="1366" inkscape:pageopacity="0.0" inkscape:document-units="px" id="namedview7160">
      <inkscape:grid type="xygrid" id="grid7162" />
   </sodipodi:namedview>
   <metadata id="metadata7164">
      <rdf:RDF>
         <cc:Work rdf:about="">
            <dc:format>image/svg+xml</dc:format>
            <dc:type rdf:resource="http://purl.org/dc/dcmitype/StillImage" />
            <dc:title></dc:title>
         </cc:Work>
      </rdf:RDF>
   </metadata>
   <g inkscape:label="Layer 1" inkscape:groupmode="layer" id="g7166">
      <g id="g7733" transform="translate(18.348371,0.25483849)">
         <path sodipodi:nodetypes="sssscccccccccccccccccccccccsss" inkscape:connector-curvature="0" id="path6981" d="m -15.366141,0.82257737 c -1.10801,0 -2,0.89200003 -2,2.00000003 l 0,8.9999996 c 0,1.108 0.89199,2 2,2 l 8.0937503,0 -0.375,-1.40625 -2.0625,0.375 -1.8750003,0.375 1.125,-1.53125 1.2500003,-1.7187496 -1.2187503,-1.0625 -3.9375,2.9687496 0,-1 0,-0.9999996 2.84375,-1.90625 -0.46875,-0.40625 -3.375,-1.6875 0,-1 0,-3 5,5.15625 2.2187503,-2.3125 0.75,-0.75 2.03125,-2.09375 -0.04687,3 c -0.01222,0.6146702 0.0337,1.0404705 0,1.34375 l 1.640625,-1.25 0.406245,-0.3125 0,-1.78125 C -3.3661407,1.7145774 -4.2581307,0.82257737 -5.3661407,0.82257737 Z" style="fill:#0086c3;fill-opacity:1;stroke:none" />
         <path inkscape:transform-center-y="0.11810744" inkscape:transform-center-x="-0.11808497" transform="matrix(0.76478668,0,0,0.76478668,74.176329,119.95768)" d="m -100.24286,-139.99286 -3.35872,-1.45739 -1.71729,3.23356 -0.95471,-3.53462 -3.5988,0.67346 2.16822,-2.95021 -2.77035,-2.39377 3.65844,-0.14424 0.14424,-3.65844 2.39377,2.77035 2.95021,-2.16822 -0.67346,3.5988 3.53462,0.95471 L -101.70025,-143.35158 Z" inkscape:randomized="0" inkscape:rounded="0" inkscape:flatsided="false" sodipodi:arg2="1.2341971" sodipodi:arg1="0.78539816" sodipodi:r2="3.098639" sodipodi:r1="6.1972775" sodipodi:cy="-144.375" sodipodi:cx="-104.625" sodipodi:sides="7" id="path6983" style="fill:#fc0;fill-opacity:1;stroke:none" sodipodi:type="star" />
      </g>
   </g>
</svg>
