<?xml version="1.0" encoding="UTF-8" standalone="no"?>
<svg xmlns:inkscape="http://www.inkscape.org/namespaces/inkscape" xmlns:rdf="http://www.w3.org/1999/02/22-rdf-syntax-ns#" xmlns="http://www.w3.org/2000/svg" inkscape:version="0.48.3.1 r9886" height="16" width="16" version="1.1" xmlns:cc="http://creativecommons.org/ns#" xmlns:dc="http://purl.org/dc/elements/1.1/" sodipodi:docname="cut.svg" xmlns:sodipodi="http://sodipodi.sourceforge.net/DTD/sodipodi-0.dtd">
<metadata>
<rdf:RDF>
<cc:Work rdf:about="">
<dc:format>image/svg+xml</dc:format>
<dc:type rdf:resource="http://purl.org/dc/dcmitype/StillImage"/>
<dc:title>Gnome Symbolic Icon Theme</dc:title>
</cc:Work>
</rdf:RDF>
</metadata>
<sodipodi:namedview inkscape:zoom="8" borderopacity="1" inkscape:current-layer="layer12" inkscape:cx="19.441582" guidetolerance="10" inkscape:snap-grids="true" inkscape:window-maximized="0" inkscape:snap-bbox="true" showgrid="false" inkscape:snap-nodes="true" inkscape:snap-global="true" showguides="true" bordercolor="#666666" inkscape:window-x="54" inkscape:guide-bbox="true" objecttolerance="10" inkscape:object-nodes="true" inkscape:window-y="26" inkscape:window-width="1310" inkscape:pageopacity="1" inkscape:snap-to-guides="true" inkscape:pageshadow="2" pagecolor="#555753" gridtolerance="10" inkscape:bbox-paths="false" inkscape:cy="1.2434911" inkscape:window-height="690" showborder="false">
<inkscape:grid visible="true" enabled="true" spacingy="1px" spacingx="1px" snapvisiblegridlinesonly="true" type="xygrid" empspacing="2"/>
</sodipodi:namedview>
<title>Gnome Symbolic Icon Theme</title>
<g inkscape:label="actions" transform="translate(-40,-668)" inkscape:groupmode="layer" fill="#bebebe">
<path style="color:#000000;text-transform:none;text-indent:0" d="m43.5 676.99c-1.9045 0-3.4923 1.5748-3.4923 3.5132 0 1.9383 1.5877 3.5132 3.4923 3.5132 1.9045 0 3.4923-1.5748 3.4923-3.5132 0-1.9383-1.5877-3.5132-3.4923-3.5132zm0 2.0263c0.8569 0 1.5077 0.66373 1.5077 1.4868 0 0.82312-0.65083 1.4868-1.5077 1.4868-0.8569 0-1.5077-0.66372-1.5077-1.4868 0-0.82311 0.65083-1.4868 1.5077-1.4868z"/>
<path style="color:#000000;text-transform:none;text-indent:0" d="m52.5 676.99c-1.9045 0-3.4923 1.5748-3.4923 3.5132 0 1.9383 1.5877 3.5132 3.4923 3.5132 1.9045 0 3.4923-1.5748 3.4923-3.5132 0-1.9383-1.5877-3.5132-3.4923-3.5132zm0 2.0263c0.8569 0 1.5077 0.66373 1.5077 1.4868 0 0.82312-0.65083 1.4868-1.5077 1.4868-0.8569 0-1.5077-0.66373-1.5077-1.4868 0-0.82311 0.65083-1.4868 1.5077-1.4868z"/>
<path sodipodi:nodetypes="ccccccccccccc" d="m43.096 668c-1.0604 0.554-1.4065 1.7592-0.79429 2.7188l4.42 7.28-1.7463 2.368 1.4141 2.0852 1.61-2.4844 1.5787 2.4844 1.4011-1.9968-1.702-2.46 4.42-7.28c0.612-0.96 0.266-2.17-0.794-2.72l-4.904 8-4.904-8z" inkscape:connector-curvature="0"/>
</g>
</svg>
