<?xml version="1.0" encoding="UTF-8" standalone="no"?>
<!-- Created with Inkscape (http://www.inkscape.org/) -->

<svg xmlns:dc="http://purl.org/dc/elements/1.1/" xmlns:cc="http://creativecommons.org/ns#" xmlns:rdf="http://www.w3.org/1999/02/22-rdf-syntax-ns#" xmlns:svg="http://www.w3.org/2000/svg" xmlns="http://www.w3.org/2000/svg" xmlns:sodipodi="http://sodipodi.sourceforge.net/DTD/sodipodi-0.dtd" xmlns:inkscape="http://www.inkscape.org/namespaces/inkscape" id="svg7384" version="1.1" inkscape:version="0.48+devel r" height="16" sodipodi:docname="trash.svg" width="16.000002">
   <metadata id="metadata90">
      <rdf:RDF>
         <cc:Work rdf:about="">
            <dc:format>image/svg+xml</dc:format>
            <dc:type rdf:resource="http://purl.org/dc/dcmitype/StillImage" />
            <dc:title>Gnome Symbolic Icon Theme</dc:title>
         </cc:Work>
      </rdf:RDF>
   </metadata>
   <sodipodi:namedview inkscape:cy="15.619609" inkscape:current-layer="layer1-7" inkscape:window-width="1366" pagecolor="white" showborder="true" showguides="true" inkscape:snap-nodes="true" objecttolerance="10" showgrid="true" inkscape:object-nodes="true" inkscape:pageshadow="2" inkscape:guide-bbox="true" inkscape:window-x="0" inkscape:snap-bbox="true" bordercolor="#666666" id="namedview88" inkscape:window-maximized="1" inkscape:snap-global="true" inkscape:window-y="27" gridtolerance="10" inkscape:zoom="1" inkscape:window-height="714" borderopacity="1" guidetolerance="10" inkscape:cx="-114.60374" inkscape:bbox-paths="false" inkscape:snap-grids="true" inkscape:pageopacity="0" inkscape:snap-to-guides="true" width="0px" height="0px" fit-margin-top="0" fit-margin-left="0" fit-margin-right="0" fit-margin-bottom="0">
      <inkscape:grid visible="true" spacingx="1px" type="xygrid" spacingy="1px" id="grid4866" empspacing="2" enabled="true" snapvisiblegridlinesonly="true" />
   </sodipodi:namedview>
   <title id="title9167">Gnome Symbolic Icon Theme</title>
   <defs id="defs7386" />
   <g transform="translate(-482,-176)" inkscape:groupmode="layer" id="layer9" inkscape:label="status" style="display:inline" />
   <g transform="translate(-482,-176)" inkscape:groupmode="layer" id="layer10" inkscape:label="devices" />
   <g transform="translate(-482,-176)" inkscape:groupmode="layer" id="layer11" inkscape:label="apps" />
   <g transform="translate(-482,-176)" inkscape:groupmode="layer" id="layer12" inkscape:label="actions" />
   <g transform="translate(-482,-176)" inkscape:groupmode="layer" id="layer13" inkscape:label="places">
      <g transform="translate(254.0002,-820)" id="g40072" inkscape:label="folder-remote" />
      <g transform="translate(482,176)" id="layer1-7" inkscape:label="Layer 1" style="display:inline">
         <path inkscape:connector-curvature="0" d="m 4,2 0,-0.96875 7,0 L 11,2 4,2 z M 3.46875,0.03125 C 2.978423,0.03125 2.672682,0.2597 2.4375,0.5 2.202318,0.7403 2,1.05851 2,1.53125 L 2,2 0,2 0,4 15,4 15,2 13,2 13,1.65625 13,1.62495 C 12.97607,1.19435 12.829764,0.87266 12.59375,0.5937 12.370016,0.32926 11.967063,0.06439 11.4375,0.06245 l 0,-0.0313 -0.0625,0 -7.90625,0 0,10e-5 z M 12,5 l 2,0 0,8.78125 C 14,14.98205 13.01762,16 11.8125,16 l -8.625,0 C 1.98238,16 1,14.98205 1,13.78125 L 1,5 l 2,0 0,9 9,0 0,-9 z m -4.96875,1 0,7 L 8,13 8,6 7.03125,6 z M 8.96875,6 8.93755,13 9.9688,13 10,6 8.96875,6 z m -3.9375,0 0,7 L 6,13 6,6 5.03125,6 z" id="path2930-9" style="font-size:medium;font-style:normal;font-variant:normal;font-weight:normal;font-stretch:normal;text-indent:0pt;text-align:start;text-decoration:none;line-height:normal;letter-spacing:normal;word-spacing:normal;text-transform:none;direction:ltr;text-anchor:start;color:#bebebe;fill:#bebebe;fill-opacity:1;stroke:none;stroke-width:2;marker:none;visibility:visible;display:inline;overflow:visible;font-family:Bitstream Vera Sans" />
      </g>
   </g>
   <g transform="translate(-482,-176)" inkscape:groupmode="layer" id="layer14" inkscape:label="mimetypes" />
   <g transform="translate(-482,-176)" inkscape:groupmode="layer" id="layer15" inkscape:label="emblems" style="display:inline" />
</svg>
