<?xml version="1.0" encoding="UTF-8" standalone="no"?>
<svg xmlns:inkscape="http://www.inkscape.org/namespaces/inkscape" xmlns:rdf="http://www.w3.org/1999/02/22-rdf-syntax-ns#" xmlns="http://www.w3.org/2000/svg" sodipodi:docname="refresh.svg" height="16" width="16" version="1.1" xmlns:cc="http://creativecommons.org/ns#" xmlns:dc="http://purl.org/dc/elements/1.1/" inkscape:version="0.48.3.1 r9886" xmlns:sodipodi="http://sodipodi.sourceforge.net/DTD/sodipodi-0.dtd">
<metadata>
<rdf:RDF>
<cc:Work rdf:about="">
<dc:format>image/svg+xml</dc:format>
<dc:type rdf:resource="http://purl.org/dc/dcmitype/StillImage"/>
<dc:title>Gnome Symbolic Icon Theme</dc:title>
</cc:Work>
</rdf:RDF>
</metadata>
<sodipodi:namedview inkscape:zoom="16" borderopacity="1" inkscape:current-layer="layer12" inkscape:cx="13.389467" guidetolerance="10" inkscape:snap-grids="true" inkscape:snap-bbox-midpoints="false" inkscape:object-paths="true" inkscape:window-maximized="0" inkscape:snap-bbox="true" showgrid="false" inkscape:snap-nodes="true" inkscape:snap-global="true" showguides="true" bordercolor="#666666" inkscape:window-x="0" inkscape:guide-bbox="true" objecttolerance="10" inkscape:object-nodes="true" inkscape:window-y="23" inkscape:snap-others="false" inkscape:window-width="682" inkscape:pageopacity="1" inkscape:snap-to-guides="true" inkscape:pageshadow="2" pagecolor="#555753" gridtolerance="10" inkscape:bbox-paths="false" inkscape:cy="5.79046" inkscape:window-height="719" showborder="false">
<inkscape:grid spacingx="1px" enabled="true" spacingy="1px" visible="true" snapvisiblegridlinesonly="true" type="xygrid" empspacing="2"/>
</sodipodi:namedview>
<title>Gnome Symbolic Icon Theme</title>
<g inkscape:label="actions" transform="translate(-241 -627)" inkscape:groupmode="layer" fill="#bebebe">
<path style="color:#bebebe;text-transform:none;text-indent:0" d="m247.16 629.06c-1.5222 0.21741-2.9782 1.023-3.9688 2.3438-1.9812 2.6414-1.4227 6.425 1.2188 8.4062s6.425 1.4227 8.4062-1.2188a1.0063 1.0063 0 1 0 -1.625 -1.1875c-1.3326 1.7767-3.817 2.1139-5.5938 0.78125-1.7767-1.3326-2.1139-3.817-0.78125-5.5938 1.3326-1.7767 3.817-2.1139 5.5938-0.78125 0.7429 0.55721 1.25 1.3475 1.4688 2.25a1.0119 1.0119 0 1 0 1.9688 -0.46875c-0.32806-1.3533-1.136-2.5707-2.25-3.4062-1.3207-0.9906-2.9153-1.3424-4.4375-1.125z" inkscape:connector-curvature="0"/>
<path style="color:#000000;text-transform:none;text-indent:0" d="m253.78 629a1.0001 1.0001 0 0 0 -0.78 1v3h-3a1.0001 1.0001 0 1 0 0 2h5v-5a1.0001 1.0001 0 0 0 -1.2188 -1z" inkscape:connector-curvature="0"/>
<rect y="637" width="1" style="color:#bebebe" x="252" height="1"/>
<rect y="629" width="1" style="color:#bebebe" x="254" height="1"/>
<rect y="634" width="1" style="color:#bebebe" x="249" height="1"/>
</g>
</svg>
