<?xml version="1.0" encoding="UTF-8" standalone="no"?>
<svg xmlns:rdf="http://www.w3.org/1999/02/22-rdf-syntax-ns#" xmlns="http://www.w3.org/2000/svg" height="16" width="16" version="1.1" xmlns:cc="http://creativecommons.org/ns#" xmlns:dc="http://purl.org/dc/elements/1.1/">
<metadata>
<rdf:RDF>
<cc:Work rdf:about="">
<dc:format>image/svg+xml</dc:format>
<dc:type rdf:resource="http://purl.org/dc/dcmitype/StillImage"/>
<dc:title/>
</cc:Work>
</rdf:RDF>
</metadata>
<g transform="translate(-14.37)">
<path fill="#2e3436" d="m17.37 0.99995c-0.55399-0.002756-1 0.446-1 1v1.9688h2v-1.9688h5v2h2v-2c0-0.554-0.321-1-1-1-2.6666 0-4.6834 0.011523-7 0zm-1 3.9688v1.0312h2v-1.0312zm10-2.0156v2.0469l-5-0.00005v2l5 0.00005v2.0468l3.0469-3.0469zm-10 4.0469v1h2v-1zm0 2v5c0 0.554 0.446 1 1 1h7c0.554 0 1-0.446 1-1v-6h-2v2h-5v-1zm1 2h1v1h-1zm2 0h1v1h-1zm2 0h1v1h-1zm2 0h1v1h-1zm-6 2h1v1h-1zm2 0h1v1h-1zm2 0h1v1h-1zm2 0h1v1h-1z"/>
</g>
</svg>
