<?xml version="1.0" encoding="UTF-8" standalone="no"?>
<svg xmlns:inkscape="http://www.inkscape.org/namespaces/inkscape" xmlns:rdf="http://www.w3.org/1999/02/22-rdf-syntax-ns#" xmlns="http://www.w3.org/2000/svg" sodipodi:docname="fox-to-phone.svg" height="16px" width="16px" version="1.1" xmlns:cc="http://creativecommons.org/ns#" xmlns:dc="http://purl.org/dc/elements/1.1/" inkscape:version="0.48.2 r9819" xmlns:sodipodi="http://sodipodi.sourceforge.net/DTD/sodipodi-0.dtd">
<sodipodi:namedview bordercolor="#666666" inkscape:showpageshadow="false" inkscape:pageshadow="2" inkscape:window-y="27" pagecolor="#ffffff" inkscape:window-height="1020" inkscape:grid-bbox="true" inkscape:window-maximized="1" inkscape:zoom="1" inkscape:window-x="1366" showgrid="false" borderopacity="0.4627451" inkscape:current-layer="layer1" inkscape:cx="7.4474796" inkscape:cy="5.0876733" inkscape:snap-global="false" inkscape:window-width="1920" showborder="true" inkscape:pageopacity="0.0" inkscape:document-units="px">
<inkscape:grid enabled="true" visible="true" snapvisiblegridlinesonly="true" type="xygrid" empspacing="5"/>
</sodipodi:namedview>
<metadata>
<rdf:RDF>
<cc:Work rdf:about="">
<dc:format>image/svg+xml</dc:format>
<dc:type rdf:resource="http://purl.org/dc/dcmitype/StillImage"/>
<dc:title/>
</cc:Work>
</rdf:RDF>
</metadata>
<g fill="#2e3436" inkscape:label="Layer 1" inkscape:groupmode="layer">
<path stroke-linejoin="round" d="m4.75 5.25c-1.0414-1.5-0.9998-1.5-0.9998-1.5" inkscape:connector-curvature="0" stroke="#2e3436" stroke-linecap="round" stroke-width="1.5"/>
<path stroke-linejoin="round" d="m11.25 5.25c1.0414-1.5 0.99977-1.5 0.99977-1.5" inkscape:connector-curvature="0" stroke="#2e3436" stroke-linecap="round" stroke-width="1.5"/>
<path style="color:#000000" d="m344.36-43.751c0 3.3195-2.691 6.0104-6.0104 6.0104-3.3195 0-6.0104-2.691-6.0104-6.0104 0-3.3195 2.691-6.0104 6.0104-6.0104s6.0104 2.691 6.0104 6.0104zm18.031 0c0 3.3195 2.691 6.0104 6.0104 6.0104 3.3195 0 6.0104-2.691 6.0104-6.0104 0-3.3195-2.691-6.0104-6.0104-6.0104s-6.0104 2.691-6.0104 6.0104zm-9.0156-26.045c-19.644 0-35.611 21.435-36.062 48.083h72.125c-0.45157-26.648-16.418-48.083-36.062-48.083z" fill-rule="evenodd" transform="matrix(-.16638 0 0 .12478 66.794 12.709)"/>
<path style="color:#000000" d="m14 14v-3h-12v3z" fill-rule="evenodd" sodipodi:nodetypes="ccccc" inkscape:connector-curvature="0"/>
</g>
</svg>
