<?xml version="1.0" encoding="UTF-8" standalone="no"?>
<svg xmlns:inkscape="http://www.inkscape.org/namespaces/inkscape" xmlns:rdf="http://www.w3.org/1999/02/22-rdf-syntax-ns#" xmlns="http://www.w3.org/2000/svg" sodipodi:docname="greasemonkey.svg" height="16px" width="16px" version="1.1" xmlns:cc="http://creativecommons.org/ns#" xmlns:dc="http://purl.org/dc/elements/1.1/" inkscape:version="0.48.4 r9939" xmlns:sodipodi="http://sodipodi.sourceforge.net/DTD/sodipodi-0.dtd">
<sodipodi:namedview bordercolor="#666666" inkscape:pageshadow="2" inkscape:window-y="27" pagecolor="#ffffff" inkscape:window-maximized="1" inkscape:grid-bbox="true" inkscape:zoom="31.392433" inkscape:window-x="0" showgrid="false" borderopacity="1.0" inkscape:current-layer="g10" inkscape:cx="4.5316235" inkscape:cy="8.6647052" inkscape:window-height="965" inkscape:pageopacity="0.0" inkscape:window-width="1280" inkscape:document-units="px">
<inkscape:grid type="xygrid"/>
</sodipodi:namedview>
<metadata>
<rdf:RDF>
<cc:Work rdf:about="">
<dc:format>image/svg+xml</dc:format>
<dc:type rdf:resource="http://purl.org/dc/dcmitype/StillImage"/>
<dc:title/>
</cc:Work>
</rdf:RDF>
</metadata>
<g inkscape:label="Layer 1" inkscape:groupmode="layer">
<g transform="translate(0 .31855)">
<path sodipodi:nodetypes="ccccscssscsccccccssssssssssccccccscccscccscccc" fill="#2e3436" d="m7.0099 1.7908c-2.3043 0.8035-3.8812 1.8742-4.1244 3.6256 0.19474 0.060278 0.38519 0.15381 0.55568 0.39225 0.044241 0.0001358 0.051387-0.056196 0.098062-0.065374-0.085968 0.37287-0.13075 0.77349-0.13075 1.2421v1.1441c-1.1468 0-2.2881-0.0054-2.2881 2.2881 0 2.2936 2.2772 4.6089 6.8643 4.6089s6.897-2.3153 6.897-4.6089-1.174-2.2881-2.3208-2.2881v-1.1441c0-0.41624-0.02937-0.77066-0.09806-1.1114 0.01068-0.00124 0.02119-0.00122 0.03269 0 0.19466-0.28347 0.4098-0.40292 0.62105-0.49031-0.15958-1.1505-0.22657-1.5487-0.90702-2.2139 0 0-0.91248-0.42108 0.15542-2.146-3.2912-0.12183-5.1992 0.7188-5.3551 0.767zm-1.0192 4.0505c0.47499 0 0.84987 0.78243 0.84987 1.7324 0 0.94999-0.37487 1.6997-0.84987 1.6997-0.47499 0-0.88255-0.74975-0.88255-1.6997 0-0.94999 0.40756-1.7324 0.88255-1.7324zm4.0205 0c0.475 0 0.84987 0.7824 0.84987 1.7324 0 0.95002-0.37486 1.6997-0.84987 1.6997-0.47499 0-0.88255-0.74975-0.88255-1.6997 0-0.94999 0.40756-1.7324 0.88255-1.7324zm-6.8314 3.9879c0.021768-0.0013 0.043606-0.0013 0.065374 0 0.032608-0.0028 0.065454-0.0028 0.098062 0 0.32075-0.02686 0.63056 0.26664 0.62106 0.58837 0 0-0.01481 0.05369 0.032687 0.19612 0.047592 0.14266 0.14041 0.30385 0.35956 0.523 0.43818 0.43807 1.4303 1.0133 3.6283 1.0133s3.1902-0.57524 3.6283-1.0133c0.21904-0.21915 0.3114-0.38034 0.35956-0.523 0.04702-0.14243 0.03269-0.19612 0.03269-0.19612-0.02206-0.31293 0.25832-0.61376 0.57203-0.61376s0.59408 0.30083 0.57203 0.61376-0.0022 0.26807-0.09806 0.55568c-0.09584 0.2875-0.29947 0.65895-0.65374 1.0133-0.70871 0.70871-2.024 1.3075-4.4128 1.3075-2.3891 0-3.7042-0.59878-4.4128-1.3075-0.3542-0.355-0.5253-0.727-0.6211-1.014s-0.1307-0.555-0.1307-0.555c-0.0238-0.246 0.1303-0.498 0.3595-0.5888z" inkscape:connector-curvature="0"/>
<path stroke="#2e3436" stroke-width=".95499" fill="none" d="m2.4336 5.0205c-0.626 0.0838-0.979 1.0466-0.7883 2.1463 0.1906 1.0996 0.8431 1.9373 1.4693 1.8535 0.6261-0.0838 0.9791-1.0466 0.7884-2.1462s-0.8433-1.9372-1.4694-1.8536zm11.002 0c-0.55848 0.076483-1.1686 0.82986-1.4335 1.821-0.30275 1.1329-0.04129 2.1371 0.57339 2.2764 0.61467 0.13913 1.3463-0.65577 1.6491-1.7885 0.3016-1.1328 0.07684-2.1696-0.53784-2.3088-0.07684-0.017378-0.17087-0.010822-0.25114 0z" inkscape:connector-curvature="0"/>
</g>
</g>
</svg>
