<?xml version="1.0" encoding="UTF-8" standalone="no"?>
<svg xmlns:inkscape="http://www.inkscape.org/namespaces/inkscape" xmlns:rdf="http://www.w3.org/1999/02/22-rdf-syntax-ns#" xmlns="http://www.w3.org/2000/svg" sodipodi:docname="toomanytabs.svg" xmlns:osb="http://www.openswatchbook.org/uri/2009/osb" height="16" width="16" version="1.1" xmlns:cc="http://creativecommons.org/ns#" xmlns:sodipodi="http://sodipodi.sourceforge.net/DTD/sodipodi-0.dtd" inkscape:version="0.48.3.1 r9886" xmlns:dc="http://purl.org/dc/elements/1.1/">
<sodipodi:namedview bordercolor="#666666" inkscape:pageshadow="2" guidetolerance="10" pagecolor="#ffffff" gridtolerance="10" inkscape:window-maximized="0" inkscape:zoom="22.627417" objecttolerance="10" showgrid="false" borderopacity="1" inkscape:current-layer="svg2" inkscape:cx="2.8372653" inkscape:cy="6.8888049" inkscape:window-y="27" inkscape:window-x="57" inkscape:window-width="1221" inkscape:pageopacity="0" inkscape:window-height="708">
<inkscape:grid type="xygrid"/>
</sodipodi:namedview>
<title>Gnome Symbolic Icon Theme</title>
<metadata>
<rdf:RDF>
<cc:Work rdf:about="">
<dc:format>image/svg+xml</dc:format>
<dc:type rdf:resource="http://purl.org/dc/dcmitype/StillImage"/>
<dc:title>Gnome Symbolic Icon Theme</dc:title>
</cc:Work>
</rdf:RDF>
</metadata>
<g inkscape:label="non-starred" transform="translate(-228 -997)">
<g inkscape:label="folder-remote">
<rect style="color:#2e3436" height="16" width="16" y="996" x="228" fill="none"/>
</g>
</g>
<rect style="color:#2e3436" height="16" width="16" y="-1" x="0" fill="none"/>
<g fill="#2e3436">
<path d="m2 2c-1.001 0-0.9375 0.7109-0.9375 1v10c0 0.976 0.4641 1 1 1h11.938c0.536 0 1-0.074 1-1v-5c0-1-0.414-1-1-1h-10v4c0 0.277 0.0624 1-0.4375 1-0.5 0-0.5-0.723-0.5-1l-0.0625-4c0-1 0.4433-1 1-1h9v-1c0-0.5984 0-1-1-1h-6v-1c0-0.2892-0.0244-1-1-1h-3zm7.1875 5.8125c0.3328-0.0453 0.7419 0.1075 1.1565 0.6875 1.105 1.547 2.468 3.562 2.468 3.562s-0.418 1.676-1.468 0.626c-0.31-0.31-1.4065-2.626-1.4065-2.626s-0.613-1.3512-1.1875 0.063c-0.5745 1.414-1.2812 2.594-1.2812 2.594s-1.1853 1.064-1.4063-0.969l2.1875-3.25s0.3829-0.612 0.9375-0.6875z"/>
<path d="m6.3198 3.8024s0.14055-1.7678-0.35355-1.7678c-0.044194 0 3.1378 0.044195 3.1378 0.044195v1.7236z" sodipodi:nodetypes="csccc" inkscape:connector-curvature="0"/>
<path d="m9.5017 2.123 0.044194 1.591 2.8726 0.044194 0.04419-1.591z" sodipodi:nodetypes="ccccc" inkscape:connector-curvature="0"/>
</g>
</svg>
