<?xml version="1.0" encoding="UTF-8" standalone="no"?>
<!-- Created with Inkscape (http://www.inkscape.org/) -->

<svg xmlns:dc="http://purl.org/dc/elements/1.1/" xmlns:cc="http://creativecommons.org/ns#" xmlns:rdf="http://www.w3.org/1999/02/22-rdf-syntax-ns#" xmlns:svg="http://www.w3.org/2000/svg" xmlns="http://www.w3.org/2000/svg" xmlns:sodipodi="http://sodipodi.sourceforge.net/DTD/sodipodi-0.dtd" xmlns:inkscape="http://www.inkscape.org/namespaces/inkscape" id="svg7384" version="1.1" height="16" width="16" inkscape:version="0.48.3.1 r9886" sodipodi:docname="stop.svg">
   <sodipodi:namedview pagecolor="#ffffff" bordercolor="#666666" borderopacity="1" objecttolerance="10" gridtolerance="10" guidetolerance="10" inkscape:pageopacity="0" inkscape:pageshadow="2" inkscape:window-width="682" inkscape:window-height="719" id="namedview10663" showgrid="false" inkscape:zoom="14.75" inkscape:cx="9.2542373" inkscape:cy="8" inkscape:window-x="0" inkscape:window-y="23" inkscape:window-maximized="0" inkscape:current-layer="svg7384" />
   <title id="title9167">Gnome Symbolic Icon Theme</title>
   <metadata id="metadata90">
      <rdf:RDF>
         <cc:Work rdf:about="">
            <dc:format>image/svg+xml</dc:format>
            <dc:type rdf:resource="http://purl.org/dc/dcmitype/StillImage" />
            <dc:title>Gnome Symbolic Icon Theme</dc:title>
         </cc:Work>
      </rdf:RDF>
   </metadata>
   <defs id="defs7386" />
   <g transform="translate(-260,-518)" id="layer9" style="display:inline" />
   <g transform="translate(-260,-518)" id="layer10" />
   <g transform="translate(-260,-518)" id="layer11" />
   <g transform="translate(-260,-518)" id="layer13" />
   <g transform="translate(-260,-518)" id="layer14" />
   <g transform="translate(-260,-518)" id="layer15" />
   <g style="display:inline" id="g3774" inkscape:label="internet-news-reader">
      <rect width="16" height="16" x="0" y="0" id="rect22" style="fill:none;stroke:none" />
      <path inkscape:connector-curvature="0" style="fill:#f47900;fill-opacity:1;stroke:none" d="M 3.9375,1 C 2.310125,1 1,2.310125 1,3.9375 l 0,8.125 C 1,13.689875 2.310125,15 3.9375,15 l 8.125,0 C 13.689875,15 15,13.689875 15,12.0625 l 0,-8.125 C 15,2.310125 13.689875,1 12.0625,1 L 3.9375,1 z M 3,2 C 5.8797933,2 8.7449282,2.9486486 10.78125,5.03125 12.817571,7.1138514 14,10.054757 14,13 l -2,0 C 12,10.643806 10.847807,8.2910811 9.21875,6.625 7.5896929,4.9589189 5.3038346,4 3,4 L 3,2 z m 0,4 c 3.6955319,2e-7 7,3.3227515 7,7 L 8,13 C 7.9999999,10.400566 5.6123588,8 3,8 L 3,6 z m 1.5,4 C 5.3284271,10 6,10.671573 6,11.5 6,12.328427 5.3284271,13 4.5,13 3.6715729,13 3,12.328427 3,11.5 3,10.671573 3.6715729,10 4.5,10 z" id="rect24" class="warning   " warning="" />
   </g>
</svg>
