<?xml version="1.0" encoding="UTF-8" standalone="no"?>
<!-- Created with Inkscape (http://www.inkscape.org/) -->

<svg
   xmlns:dc="http://purl.org/dc/elements/1.1/"
   xmlns:cc="http://creativecommons.org/ns#"
   xmlns:rdf="http://www.w3.org/1999/02/22-rdf-syntax-ns#"
   xmlns:svg="http://www.w3.org/2000/svg"
   xmlns="http://www.w3.org/2000/svg"
   xmlns:sodipodi="http://sodipodi.sourceforge.net/DTD/sodipodi-0.dtd"
   xmlns:inkscape="http://www.inkscape.org/namespaces/inkscape"
   sodipodi:docname="chat.svg"
   height="16"
   id="svg7384"
   inkscape:version="0.91+devel+osxmenu r12894"
   version="1.1"
   width="16">
  <metadata
     id="metadata90">
    <rdf:RDF>
      <cc:Work
         rdf:about="">
        <dc:format>image/svg+xml</dc:format>
        <dc:type
           rdf:resource="http://purl.org/dc/dcmitype/StillImage" />
        <dc:title>Gnome Symbolic Icon Theme</dc:title>
      </cc:Work>
    </rdf:RDF>
  </metadata>
  <sodipodi:namedview
     inkscape:bbox-paths="false"
     bordercolor="#666666"
     borderopacity="1"
     inkscape:current-layer="g6673"
     inkscape:cx="5.9899982"
     inkscape:cy="7.5034785"
     gridtolerance="10"
     inkscape:guide-bbox="true"
     guidetolerance="10"
     id="namedview88"
     inkscape:object-nodes="true"
     inkscape:object-paths="false"
     objecttolerance="10"
     pagecolor="#ffffff"
     inkscape:pageopacity="1"
     inkscape:pageshadow="2"
     showborder="true"
     showgrid="true"
     showguides="true"
     inkscape:snap-bbox="true"
     inkscape:snap-bbox-midpoints="false"
     inkscape:snap-global="true"
     inkscape:snap-grids="true"
     inkscape:snap-nodes="true"
     inkscape:snap-others="true"
     inkscape:snap-to-guides="true"
     inkscape:window-height="751"
     inkscape:window-maximized="0"
     inkscape:window-width="1280"
     inkscape:window-x="0"
     inkscape:window-y="23"
     inkscape:zoom="22.627417"
     inkscape:bbox-nodes="true">
    <inkscape:grid
       empspacing="2"
       enabled="true"
       id="grid4866"
       snapvisiblegridlinesonly="true"
       spacingx="1px"
       spacingy="1px"
       type="xygrid"
       visible="true" />
  </sodipodi:namedview>
  <title
     id="title9167">Gnome Symbolic Icon Theme</title>
  <defs
     id="defs7386" />
  <g
     inkscape:groupmode="layer"
     id="layer9"
     inkscape:label="status"
     style="display:inline"
     transform="translate(-501.0002,-195)" />
  <g
     inkscape:groupmode="layer"
     id="layer10"
     inkscape:label="devices"
     transform="translate(-501.0002,-195)" />
  <g
     inkscape:groupmode="layer"
     id="layer11"
     inkscape:label="apps"
     transform="translate(-501.0002,-195)" />
  <g
     inkscape:groupmode="layer"
     id="layer13"
     inkscape:label="places"
     transform="translate(-501.0002,-195)">
    <g
       transform="translate(-282.9998,-537.36218)"
       id="g6673"
       style="fill:ButtonText;fill-opacity:1">
      <g
         id="g10266">
        <path
           inkscape:connector-curvature="0"
           style="fill:ButtonText;fill-opacity:1"
           d="m 796.5,733.3622 -9,0 c -1.4,0 -2.5,1.1 -2.5,2.5 l 0,5 c 0,1.4 1.1,2.5 2.5,2.5 l 6.4,0 3.1,4 0,-4.1 c 1.1,-0.2 2,-1.2 2,-2.4 l 0,-5 c 0,-1.4 -1.1,-2.5 -2.5,-2.5 z m -3.5,4 c 0,-0.6 0.4,-1 1,-1 0.6,0 1,0.4 1,1 0,0.6 -0.4,1 -1,1 -0.6,0 -1,-0.4 -1,-1 0,0 0,0 0,0 z m -4,0 c 0,-0.6 0.4,-1 1,-1 0.6,0 1,0.4 1,1 0,0.6 -0.4,1 -1,1 -0.6,0 -1,-0.4 -1,-1 0,0 0,0 0,0 z m 6.8,2.9 c -0.8,0.7 -2.2,1.1 -3.8,1.1 -1.6,0 -3,-0.4 -3.8,-1.1 -0.2,-0.2 -0.3,-0.5 -0.1,-0.7 0.2,-0.2 0.5,-0.2 0.7,-0.1 0.6,0.6 1.9,0.9 3.2,0.9 1.3,0 2.6,-0.3 3.2,-0.9 0.2,-0.1 0.5,-0.1 0.7,0.1 0.2,0.2 0.1,0.5 -0.1,0.7 z"
           id="path6105" />
        <rect
           style="opacity:0;fill:ButtonText;fill-opacity:1;stroke:none;stroke-width:15.11811066;stroke-linecap:round;stroke-linejoin:round;stroke-miterlimit:4;stroke-dasharray:none;stroke-opacity:1"
           id="rect6671"
           width="16"
           height="16"
           x="784"
           y="732.36218" />
      </g>
    </g>
  </g>
  <g
     inkscape:groupmode="layer"
     id="layer14"
     inkscape:label="mimetypes"
     transform="translate(-501.0002,-195)" />
  <g
     inkscape:groupmode="layer"
     id="layer15"
     inkscape:label="emblems"
     style="display:inline"
     transform="translate(-501.0002,-195)" />
  <g
     inkscape:groupmode="layer"
     id="g71291"
     inkscape:label="emotes"
     style="display:inline"
     transform="translate(-501.0002,-195)" />
  <g
     inkscape:groupmode="layer"
     id="g4953"
     inkscape:label="categories"
     style="display:inline"
     transform="translate(-501.0002,-195)" />
  <g
     inkscape:groupmode="layer"
     id="layer12"
     inkscape:label="actions"
     style="display:inline"
     transform="translate(-501.0002,-195)" />
</svg>
