<?xml version="1.0" encoding="UTF-8" standalone="no"?>
<svg xmlns:inkscape="http://www.inkscape.org/namespaces/inkscape" xmlns:rdf="http://www.w3.org/1999/02/22-rdf-syntax-ns#" xmlns="http://www.w3.org/2000/svg" inkscape:version="0.47 r22583" height="16" width="16" version="1.1" xmlns:cc="http://creativecommons.org/ns#" xmlns:sodipodi="http://sodipodi.sourceforge.net/DTD/sodipodi-0.dtd" sodipodi:docname="dialog-warning-symbolic.svg" xmlns:dc="http://purl.org/dc/elements/1.1/">
<metadata>
<rdf:RDF>
<cc:Work rdf:about="">
<dc:format>image/svg+xml</dc:format>
<dc:type rdf:resource="http://purl.org/dc/dcmitype/StillImage"/>
<dc:title>Gnome Symbolic Icon Theme</dc:title>
</cc:Work>
</rdf:RDF>
</metadata>
<sodipodi:namedview inkscape:zoom="1" borderopacity="1" inkscape:current-layer="layer9" inkscape:cx="-6.85259" guidetolerance="10" inkscape:snap-grids="true" inkscape:window-maximized="0" inkscape:snap-bbox="true" showgrid="false" inkscape:snap-nodes="true" inkscape:snap-global="true" showguides="true" bordercolor="#666666" inkscape:window-x="58" inkscape:guide-bbox="true" objecttolerance="10" inkscape:object-nodes="true" inkscape:window-y="353" inkscape:window-width="1310" inkscape:pageopacity="1" inkscape:snap-to-guides="true" inkscape:pageshadow="2" pagecolor="#555753" gridtolerance="10" inkscape:bbox-paths="false" inkscape:cy="-15.45876" inkscape:window-height="690" showborder="false">
<inkscape:grid visible="true" enabled="true" spacingy="1px" spacingx="1px" snapvisiblegridlinesonly="true" type="xygrid" empspacing="2"/>
</sodipodi:namedview>
<title>Gnome Symbolic Icon Theme</title>
<g inkscape:label="status" transform="translate(-301,-257)" inkscape:groupmode="layer">
<path style="color:#2e3436;enable-background:new" d="m308.92 257.09c-0.5255-0.0286-1.0382 0.28305-1.4375 0.96875l-6.25 11.594c-0.53 0.97 0.05 2.35 1.1 2.35h13.156c0.98172 0 1.9031-1.1594 1.2188-2.3438l-6.32-11.54c-0.39872-0.64617-0.94325-1.0026-1.4688-1.0312zm-0.0313 3.9375c0.54448-0.0172 1.0485 0.48677 1.0312 1.0312v3.9375c0.007 0.52831-0.47163 1.0142-1 1.0142-0.52836 0-1.0075-0.48593-1-1.0142v-3.9375c-0.008-0.4666 0.3541-0.91253 0.8125-1 0.0511-0.0145 0.10345-0.025 0.15625-0.0313zm-0.9687 6.9688h2v2h-2v-2z" sodipodi:nodetypes="cccccccccccsccscccccc" inkscape:connector-curvature="0" class="warning" fill="#f57900"/>
</g>
</svg>
