<?xml version="1.0" encoding="UTF-8" standalone="no"?>
<svg xmlns:inkscape="http://www.inkscape.org/namespaces/inkscape" xmlns:rdf="http://www.w3.org/1999/02/22-rdf-syntax-ns#" xmlns="http://www.w3.org/2000/svg" sodipodi:docname="devtools.svg" height="16" width="16" version="1.1" xmlns:cc="http://creativecommons.org/ns#" xmlns:dc="http://purl.org/dc/elements/1.1/" inkscape:version="0.48.4 r9939" xmlns:sodipodi="http://sodipodi.sourceforge.net/DTD/sodipodi-0.dtd">
<metadata>
<rdf:RDF>
<cc:Work rdf:about="">
<dc:format>image/svg+xml</dc:format>
<dc:type rdf:resource="http://purl.org/dc/dcmitype/StillImage"/>
</cc:Work>
</rdf:RDF>
</metadata>
<sodipodi:namedview inkscape:zoom="1" borderopacity="1" inkscape:current-layer="g10" inkscape:cx="-170.36817" guidetolerance="10" inkscape:snap-grids="true" inkscape:snap-bbox-midpoints="false" inkscape:object-paths="true" inkscape:window-maximized="1" inkscape:snap-bbox="true" showgrid="false" inkscape:snap-nodes="true" inkscape:guide-bbox="true" inkscape:snap-global="true" showguides="true" bordercolor="#666666" inkscape:window-x="0" inkscape:window-y="27" objecttolerance="10" inkscape:object-nodes="true" inkscape:snap-others="false" inkscape:window-width="1366" inkscape:pageopacity="1" inkscape:snap-to-guides="true" inkscape:pageshadow="2" pagecolor="#555753" gridtolerance="10" inkscape:bbox-paths="false" inkscape:cy="7.8662795" inkscape:window-height="712" showborder="false">
<inkscape:grid spacingx="1px" enabled="true" spacingy="1px" visible="true" snapvisiblegridlinesonly="true" type="xygrid" empspacing="2"/>
</sodipodi:namedview>
<g inkscape:label="categories" transform="translate(-442 -462)" inkscape:groupmode="layer" fill="#2e3436">
<path d="m453.83 462.62c-1.9114 0-3.4375 1.5314-3.4375 3.4375 0 0.39829 0.0943 0.80038 0.21875 1.1562l-7.3125 7.25c-0.54885 0.55595-0.5262 1.5464 0.0312 2.0938 0.55748 0.54734 1.5448 0.55592 2.0938 0l7.2812-7.25c0.35692 0.12405 0.72567 0.21875 1.125 0.21875 1.9114 0 3.4688-1.5626 3.4688-3.4688 0-0.39829-0.0943-0.76909-0.21875-1.125l-1.875 1.875c-0.3874 0.38628-1.019 0.38628-1.4062 0l-0.6875-0.71875c-0.38735-0.3863-0.38735-0.98873 0-1.375l1.875-1.875c-0.35692-0.12415-0.75697-0.21875-1.1562-0.21875z" sodipodi:nodetypes="sscccccssccccccs" style="block-progression:tb;color:#000000;text-transform:none;text-indent:0" inkscape:connector-curvature="0"/>
</g>
</svg>
