<?xml version="1.0" encoding="UTF-8" standalone="no"?>
<svg xmlns:inkscape="http://www.inkscape.org/namespaces/inkscape" xmlns:rdf="http://www.w3.org/1999/02/22-rdf-syntax-ns#" xmlns="http://www.w3.org/2000/svg" sodipodi:docname="search.svg" height="16" width="16" version="1.1" xmlns:cc="http://creativecommons.org/ns#" xmlns:dc="http://purl.org/dc/elements/1.1/" inkscape:version="0.48.3.1 r9886" xmlns:sodipodi="http://sodipodi.sourceforge.net/DTD/sodipodi-0.dtd">
<metadata>
<rdf:RDF>
<cc:Work rdf:about="">
<dc:format>image/svg+xml</dc:format>
<dc:type rdf:resource="http://purl.org/dc/dcmitype/StillImage"/>
<dc:title>Gnome Symbolic Icon Theme</dc:title>
</cc:Work>
</rdf:RDF>
</metadata>
<sodipodi:namedview inkscape:zoom="32" borderopacity="1" inkscape:current-layer="layer12" inkscape:cx="4.692702" guidetolerance="10" inkscape:snap-grids="true" inkscape:snap-bbox-midpoints="false" inkscape:object-paths="true" inkscape:window-maximized="1" inkscape:snap-bbox="true" showgrid="true" inkscape:snap-nodes="false" inkscape:snap-global="true" showguides="true" bordercolor="#666666" inkscape:window-x="0" inkscape:guide-bbox="true" objecttolerance="10" inkscape:object-nodes="true" inkscape:window-y="27" inkscape:window-width="1366" inkscape:pageopacity="1" inkscape:snap-to-guides="true" inkscape:pageshadow="2" pagecolor="#555753" gridtolerance="10" inkscape:bbox-paths="false" inkscape:cy="6.1661" inkscape:window-height="712" showborder="false">
<inkscape:grid spacingx="1px" enabled="true" spacingy="1px" visible="true" snapvisiblegridlinesonly="true" type="xygrid" empspacing="2"/>
</sodipodi:namedview>
<title>Gnome Symbolic Icon Theme</title>
<g inkscape:label="actions" transform="translate(-140 -645.97)" inkscape:groupmode="layer">
<path style="color:#000000;text-transform:none;text-indent:0" fill="ButtonText" d="m6.5 1.0312c-3.0289 0-5.5 2.4746-5.5 5.5 0 3.0255 2.4711 5.4998 5.5 5.4998 1.152 0 2.2377-0.358 3.125-0.969l3.687 3.688a1.0055 1.0055 0 1 0 1.407 -1.438l-3.688-3.687c0.611-0.8859 1-1.9439 1-3.0938 0-3.0254-2.5022-5.5-5.531-5.5zm0 2c1.9474 0 3.5 1.5549 3.5 3.5 0 1.9452-1.5526 3.4998-3.5 3.4998s-3.5-1.5546-3.5-3.4998c0-1.9451 1.5526-3.5 3.5-3.5z" transform="translate(140 645.97)"/>
</g>
</svg>
