<?xml version="1.0" encoding="UTF-8" standalone="no"?>
<svg xmlns:inkscape="http://www.inkscape.org/namespaces/inkscape" xmlns:rdf="http://www.w3.org/1999/02/22-rdf-syntax-ns#" xmlns="http://www.w3.org/2000/svg" sodipodi:docname="sync.svg" height="16.062" width="16.05" version="1.1" xmlns:cc="http://creativecommons.org/ns#" xmlns:dc="http://purl.org/dc/elements/1.1/" inkscape:version="0.48.3.1 r9886" xmlns:sodipodi="http://sodipodi.sourceforge.net/DTD/sodipodi-0.dtd">
<metadata>
<rdf:RDF>
<cc:Work rdf:about="">
<dc:format>image/svg+xml</dc:format>
<dc:type rdf:resource="http://purl.org/dc/dcmitype/StillImage"/>
<dc:title>Gnome Symbolic Icon Theme</dc:title>
</cc:Work>
</rdf:RDF>
</metadata>
<sodipodi:namedview inkscape:showpageshadow="false" inkscape:zoom="22.627417" borderopacity="1" inkscape:current-layer="layer15" inkscape:cx="7.7951263" guidetolerance="10" inkscape:snap-grids="true" inkscape:snap-bbox-midpoints="false" inkscape:object-paths="true" inkscape:window-maximized="0" inkscape:snap-bbox="true" showgrid="true" inkscape:snap-nodes="false" inkscape:snap-global="true" showguides="true" bordercolor="#666666" inkscape:window-x="0" inkscape:guide-bbox="true" objecttolerance="10" inkscape:object-nodes="true" inkscape:window-y="27" inkscape:window-width="1278" inkscape:pageopacity="1" inkscape:snap-to-guides="true" inkscape:pageshadow="2" pagecolor="#555753" gridtolerance="10" inkscape:bbox-paths="false" inkscape:cy="9.7073082" inkscape:window-height="708" showborder="true">
<inkscape:grid spacingx="1px" enabled="true" spacingy="1px" visible="true" snapvisiblegridlinesonly="true" type="xygrid" empspacing="2"/>
</sodipodi:namedview>
<title>Gnome Symbolic Icon Theme</title>
<g inkscape:label="emblems" transform="translate(-501.95 -381.94)" inkscape:groupmode="layer">
<g transform="translate(425.86 -583.36)" fill="ButtonText">
<path style="block-progression:tb;color:black;text-transform:none;text-indent:0" d="m84.094 967.36c-2.965 0-5.4314 2.1652-5.9062 5h2.0625c0.44228-1.7288 1.9706-3 3.8438-3s3.4015 1.2712 3.8438 3h2.0625c-0.47482-2.8348-2.9413-5-5.9062-5zm-5.9062 7c0.47482 2.8348 2.9413 5 5.9062 5 2.965 0 5.4314-2.1652 5.9062-5h-2.0625c-0.44228 1.7288-1.9706 3-3.8438 3s-3.4015-1.2712-3.8438-3h-2.0625z" inkscape:connector-curvature="0"/>
<path sodipodi:nodetypes="cccc" d="m78.094 974.36h5l-5 5z" inkscape:connector-curvature="0"/>
<path sodipodi:nodetypes="cccc" d="m90.094 972.36h-5l5-5z" inkscape:connector-curvature="0"/>
</g>
</g>
</svg>
