<?xml version="1.0" encoding="UTF-8" standalone="no"?>
<svg xmlns:inkscape="http://www.inkscape.org/namespaces/inkscape" xmlns:rdf="http://www.w3.org/1999/02/22-rdf-syntax-ns#" xmlns="http://www.w3.org/2000/svg" inkscape:version="0.48.3.1 r9886" height="16" width="16" version="1.1" xmlns:cc="http://creativecommons.org/ns#" xmlns:dc="http://purl.org/dc/elements/1.1/" sodipodi:docname="folder.svg" xmlns:sodipodi="http://sodipodi.sourceforge.net/DTD/sodipodi-0.dtd">
<sodipodi:namedview bordercolor="#666666" inkscape:pageshadow="2" guidetolerance="10" pagecolor="#ffffff" gridtolerance="10" inkscape:zoom="22.627417" inkscape:window-maximized="0" objecttolerance="10" showgrid="false" borderopacity="1" inkscape:current-layer="g4958" inkscape:cx="2.7151987" inkscape:cy="8.4137552" inkscape:window-y="27" inkscape:window-x="145" inkscape:window-width="1221" inkscape:pageopacity="0" inkscape:window-height="708">
<inkscape:grid type="xygrid"/>
</sodipodi:namedview>
<title>Gnome Symbolic Icon Theme</title>
<metadata>
<rdf:RDF>
<cc:Work rdf:about="">
<dc:format>image/svg+xml</dc:format>
<dc:type rdf:resource="http://purl.org/dc/dcmitype/StillImage"/>
<dc:title>Gnome Symbolic Icon Theme</dc:title>
</cc:Work>
</rdf:RDF>
</metadata>
<g inkscape:label="non-starred" transform="translate(-228 -997)">
<g inkscape:label="folder-remote">
<rect style="color:ButtonText" height="16" width="16" y="996" x="228" fill="none"/>
</g>
</g>
<g inkscape:label="folder" transform="translate(-208 -997)">
<path sodipodi:nodetypes="ccccccccccsccccccccccc" fill="ButtonText" d="m210 999c-1.001 0-0.94915 0.71087-0.94915 1v10c0 0.9765 0.4641 1 1 1h11.949c0.53589 0 1-0.074 1-1v-5c0-1-0.41426-1-1-1h-10v4c0 0.277 0.0508 1-0.44915 1-0.5 0-0.5-0.723-0.5-1l-0.0508-4c0-1 0.44334-1 1-1h9v-1c0-0.5984 0-1-1-1h-6v-1c0-0.28915-0.0244-1-1-1z" inkscape:connector-curvature="0"/>
<rect style="color:ButtonText" height="16" width="16" y="996" x="208" fill="none"/>
</g>
</svg>
