<?xml version="1.0" encoding="UTF-8" standalone="no"?>
<svg xmlns:inkscape="http://www.inkscape.org/namespaces/inkscape" xmlns:rdf="http://www.w3.org/1999/02/22-rdf-syntax-ns#" xmlns="http://www.w3.org/2000/svg" version="1.1" inkscape:version="0.48.3.1 r9886" xml:space="preserve" height="16" width="16" enable-background="new 0 0 100 100" y="0px" x="0px" xmlns:cc="http://creativecommons.org/ns#" xmlns:dc="http://purl.org/dc/elements/1.1/" sodipodi:docname="earth.svg" viewBox="0 0 16 16" xmlns:sodipodi="http://sodipodi.sourceforge.net/DTD/sodipodi-0.dtd"><metadata><rdf:RDF><cc:Work rdf:about=""><dc:format>image/svg+xml</dc:format><dc:type rdf:resource="http://purl.org/dc/dcmitype/StillImage"/><dc:title/></cc:Work></rdf:RDF></metadata><sodipodi:namedview bordercolor="#666666" inkscape:pageshadow="2" guidetolerance="10" pagecolor="#ffffff" gridtolerance="10" inkscape:zoom="26.700352" inkscape:window-maximized="1" objecttolerance="10" showgrid="true" borderopacity="1" inkscape:current-layer="Globe" inkscape:cx="6.6796006" inkscape:cy="7.3992747" inkscape:window-y="27" inkscape:window-x="0" inkscape:window-width="1366" inkscape:pageopacity="0" inkscape:window-height="712" showguides="false"><inkscape:grid visible="true" empspacing="5" enabled="true" snapvisiblegridlinesonly="true" type="xygrid"/></sodipodi:namedview>
<polygon fill="#2e3436" points="39.888 39.438 42.023 38.316 41.349 37.191 40.562 34.943 41.124 34.27 40.786 32.697 38.764 34.27 39.214 35.619 39.775 37.752 38.764 37.752 38.764 38.763" clip-rule="evenodd" transform="scale(.15)" fill-rule="evenodd"/>
<polygon fill="#2e3436" points="35.955 36.741 36.293 38.316 37.978 37.529 38.426 36.18 37.753 35.507" clip-rule="evenodd" transform="scale(.15)" fill-rule="evenodd"/>
<polygon fill="#2e3436" points="38.09 27.866 38.426 26.967 37.529 26.068 35.73 25.957 35.843 27.303" clip-rule="evenodd" transform="scale(.15)" fill-rule="evenodd"/>
<polygon fill="#2e3436" points="50.338 17.978 50.785 16.855 48.764 17.978 49.55 19.662 50.338 18.989 50.899 19.212 51.011 18.316" clip-rule="evenodd" transform="scale(.15)" fill-rule="evenodd"/>
<polygon fill="#2e3436" points="53.37 15.957 54.831 16.18 55.28 15.73 54.158 15.169" clip-rule="evenodd" transform="scale(.15)" fill-rule="evenodd"/>
<path fill="#2e3436" inkscape:connector-curvature="0" clip-rule="evenodd" d="m8 1c-3.866 0-7 3.134-7 7s3.134 7 7 7 7-3.134 7-7-3.134-7-7-7zm-6.0326 7c0-1.2792 0.39928-2.4644 1.0784-3.4405l0.0779 0.0584-0.0471 0.1888 0.1729 0.0474-0.0315-0.2518 0.1416-0.0156v-0.3304h0.1415s0.02492 0.06412 0.0511 0.13132c0.0287 0.07392 0.05908 0.15176 0.05908 0.15176l0.1572 0.1731s-0.18872 0.0469-0.25158 0.0469-0.0315 0.25172-0.0315 0.25172l0.2201 0.0786 0.1422-0.2627 0.3297-0.3663 0.1573-0.4875 0.2989-0.2834-0.1731-0.1254 0.1889-0.1259 0.0157-0.1732-0.5505 0.1573-0.0174-0.0208c0.2998-0.2546 0.6244-0.4806 0.9704-0.6734l0.25816 0.11242-0.1729 0.3304h-0.3463l-0.063 0.2987h0.2832l0.409-0.2517 0.2832-0.283 0.047-0.2674-0.4089-0.0313 0.2831-0.1889 0.2674 0.0473-0.0471 0.283 0.3618-0.2205 0.063 0.1731 0.0787 0.2518-0.2046 0.2517-0.2202 0.2044-0.3304-0.0473 0.1574 0.3302-0.2989-0.0472-0.5033 0.5192 0.1258 0.1731 0.409-0.0316 0.346-0.1103 0.4406-0.0469 0.2044-0.0472s0-0.12586-0.01582-0.2044c-0.0155-0.0787 0.1574 0.0155 0.1574 0.0155l0.1888-0.1099 0.1416-0.4405 0.5189-0.2362-0.0785-0.1256 0.1259-0.1575-0.409-0.063 0.1101-0.1572-0.5192-0.1732h-0.2674l0.0944-0.2358 0.11-0.1103-0.0088-0.0088c0.4378-0.1009 0.8932-0.1561 1.3618-0.1561 0.73024 0 1.43 0.12978 2.0777 0.3675l-0.016 0.0371-0.2619-0.0175v0.1575l0.1049 0.0699v0.1397l0.0872 0.1222-0.3143-0.1921-0.2096 0.1049 0.10486 0.24486 0.05236 0.27944 0.13972 0.1575 0.3318 0.05236-0.06986 0.13972-0.06986 0.21 0.29722 0.19208-0.018 0.0873-0.5591-0.4719-0.0349 0.175 0.2445 0.2445 0.1395 0.0524-0.3141 0.0699-0.035 0.1575-0.2269-0.2275-0.1402-0.297-0.0523-0.2972-0.1402 0.1747 0.1052 0.4195 0.1747 0.1226-0.0699 0.4017-0.1048-0.0525 0.0175 0.21-0.1575-0.0175-0.15722-0.2275h-0.1921l-0.2798-0.035-0.2798 0.0175-0.262 0.21-0.1748 0.2969-0.3671 0.2797-0.035 0.1572v0.1925l0.0874 0.1921 0.1748-0.1397 0.0524 0.1047 0.0875 0.1572 0.0175 0.0353 0.0873 0.1049 0.1574-0.1047-0.0175-0.3846 0.1921-0.2449s0.0098-0.04144 0.02072-0.08918c0.01484-0.0637 0.03178-0.1379 0.03178-0.1379l0.0697-0.1925 0.1226 0.0175-0.0348 0.1575-0.0703 0.3493 0.3325-0.035 0.1224 0.035-0.2624 0.0702 0.0349 0.1747-0.2973 0.1921 0.0175 0.1925-0.2619 0.07-0.0524 0.1397-0.2098-0.0699h-0.1399v-0.2972l-0.1573 0.0528v0.1572l-0.437 0.3497-0.2447 0.0874-0.1049 0.1222-0.3497-0.0873-0.0175 0.1572 0.2272 0.0876-0.0175 0.3143-0.6293-0.0175-0.0873 0.1397-0.0874 0.2449-0.105 0.21 0.1574 0.1747 0.1748 0.2096 0.5598-0.175 0.035-0.2096 0.1225-0.1051 0.2097-0.0699-0.0175-0.1397 0.1923-0.0525 0.2796-0.0524 0.1749 0.2096 0.3146 0.2275 0.1398 0.227v0.1048l0.1746-0.1048-0.0872-0.1571 0.0348-0.175-0.1572-0.0699-0.1398-0.1921 0.0873-0.2798 0.1571 0.2273 0.2271 0.1748 0.0872 0.3147 0.2274 0.1746 0.0527 0.1925 0.1049-0.2274-0.035-0.1049 0.0524-0.0873 0.3318-0.2797 0.0698-0.3498 0.1402-0.1048 0.1745 0.0175 0.2624-0.2624 0.0175 0.21 0.38416 0.12222v0.1925h-0.3142l-0.472 0.2445-0.3846 0.21 0.1049 0.2271 0.3496 0.0698 0.1925 0.0874 0.2096-0.1397 0.0173 0.5944-0.5944 0.1222-0.6286-0.175-0.2449 0.1925 0.1047 0.1047-0.1925-0.0348-0.6115-0.2274-0.1747 0.0178-0.1399-0.2274v-0.2797h-0.3147l-0.1747-0.035-0.5594 0.1227-0.437-0.0353-0.1922 0.1051-0.1224 0.0175-0.07 0.227-0.4019 0.2798-0.5594 0.4195-0.035 0.54166-0.15736 0.34972 0.0175 0.20944 0.13986 0.24486 0.40208 0.68152 0.41944 0.19236 0.69916 0.0525-0.035-0.29736-0.15736-0.08722 0.06986-0.15722 0.1225 0.13972 0.12222 0.36708 0.52444 0.035 0.20972 0.20944 0.29708 0.12264 0.035 0.5068 0.31472 0.40208 0.29708 0.52416-0.26208 0.31472 0.26768 0.4165c-3.2285-0.117-5.8107-2.77-5.8107-6.027zm8.0997 5.6689 0.72926-0.53018-0.26194-0.64694 0.83902-1.1008 0.26194-0.6993 0.12222-0.38458-0.43652 0.21-0.26236 0.05236l-0.646-0.402-0.192-0.4366-0.245-0.2449-0.3145-0.6988 0.26194 0.20958 0.48972 0.5418 0.17472 0.24486 0.34916 0.17458 0.10514 0.45444 0.41958-0.27944 0.5068-0.62944 0.24472-0.64652-0.19236-0.15708-0.10486-0.1925-0.1225 0.22736-0.24458 0.27944-0.34958-0.38458-0.10472-0.2968 0.24472 0.05236 0.24458 0.12222 0.34958-0.12222 0.21 0.06986 0.55874-0.38458 0.31514 0.175 0.19208-0.10514 0.4179 0.658 0.20706-0.1974 0.0041-0.25074 0.01736-0.75166 0.12852-0.35616c0.03122 0.2485 0.04914 0.5012 0.04914 0.75824 0 2.6053-1.6519 4.825-3.9655 5.6687z" fill-rule="evenodd"/>
</svg>
