<?xml version="1.0" encoding="UTF-8" standalone="no"?>
<svg xmlns:dc="http://purl.org/dc/elements/1.1/" xmlns:cc="http://creativecommons.org/ns#" xmlns:rdf="http://www.w3.org/1999/02/22-rdf-syntax-ns#" xmlns:svg="http://www.w3.org/2000/svg" xmlns="http://www.w3.org/2000/svg" xmlns:sodipodi="http://sodipodi.sourceforge.net/DTD/sodipodi-0.dtd" xmlns:inkscape="http://www.inkscape.org/namespaces/inkscape" sodipodi:docname="identity-icons-brand.svg" height="16px" width="16px" version="1.1" id="svg2">
  <defs id="defs16" />
  <g
     inkscape:label="Layer 1"
     inkscape:groupmode="layer"
     id="g8">
    <g
       transform="matrix(0.11037191,0,0,0.11037191,0.49704186,0.83343444)"
       id="g10"
       style="fill:#2e3436;stroke-opacity:0">
      <g
         transform="matrix(1.0416,0,0,1.0416,2.1122,-2.7011)"
         id="g12"
         style="fill:#2e3436">
        <path
           d="M 10.469,0.8125 C 9.9979,0.79234 9.7465,0.87073 9.75,0.875 c 0.0071,0.00867 1.94,0.3123 2.281,0.7812 0,0 -0.811,0.0156 -1.625,0.25 -0.023,0.0068 1.227,0.1539 2.282,1.0626 0.589,0.5079 1.09,1.258 1.312,2.3437 0,0 -0.339,-0.6948 -0.75,-0.8125 0.27,0.8219 0.226,2.3811 -0.031,3.1562 C 13.186,7.7559 13.132,7.2285 12.625,7 12.787,8.1632 12.62,9.9917 11.812,10.5 11.75,10.54 12.329,8.6868 11.938,9.4062 9.6001,12.99 6.8146,10.854 5.6875,10.094 6.5921,10.315 7.5374,10.161 8.0938,9.7812 8.6552,9.3975 9.0142,9.1212 9.3125,9.1875 9.6106,9.2541 9.794,8.9529 9.5625,8.6875 9.3307,8.4215 8.7615,8.0508 8,8.25 7.463,8.3907 6.7971,8.9766 5.7812,8.375 4.9146,7.8615 4.9375,7.4532 4.9375,7.1875 c 0,-0.2658 0.226,-0.6601 0.6563,-0.5937 0.0963,0.0148 0.1458,0.0102 0.1874,0 0.0092,0.0019 0.0223,-0.0021 0.0313,0 C 6.0219,6.6405 6.2094,6.7115 6.4062,6.8125 6.4156,6.5702 6.4152,6.0783 6.2812,5.6875 6.3247,5.4914 7.5067,4.784 7.5938,4.7188 7.6806,4.6533 7.8997,4.5222 7.875,4.0625 7.867,3.9115 7.8358,3.87 6.5938,3.875 6.0567,3.8772 5.7731,3.3764 5.6875,3.1875 5.8141,2.4841 6.1777,1.9647 6.7812,1.625 6.8403,1.5917 6.5642,1.5933 6.1562,1.6875 6.1267,1.6943 6.0931,1.7109 6.0625,1.7188 5.9468,1.7411 5.8529,1.7714 5.7188,1.8125 5.3191,1.9348 4.881,2.144 4.5625,2.5 3.7772,2.3236 3.1315,2.4128 2.5938,2.625 2.3431,2.3706 1.7168,1.794 1.6875,1.0312 c 0,0 -0.95605,0.7406 -0.8125,2.75 C 0.87311,3.9477 0.85819,4.046 0.84375,4.1562 0.80401,4.2237 0.7767,4.2589 0.75,4.3125 0.73702,4.3348 0.73179,4.3512 0.71875,4.375 0.66688,4.4882 0.63424,4.5525 0.65625,4.5312 0.57375,4.6974 0.48759,4.8923 0.40625,5.125 0.39707,5.1508 0.38344,5.1573 0.375,5.1875 0.35537,5.2589 0.33636,5.3145 0.34375,5.375 0.2242,5.7585 0.10179,6.2079 0,6.7812 0,6.7812 0.17003,6.353 0.4375,5.875 0.23704,6.4744 0.0331,7.3893 0.125,8.8125 c 0,0 0.04092,-0.239 0.09375,-0.5625 0.05377,0.8863 0.2775,1.932 0.93745,3.062 1.6554,2.836 4.43,4.088 7.3126,3.844 C 8.9729,15.123 9.4933,15.06 10,14.938 16.716,13.314 15.969,5.1875 15.969,5.1875 l -0.188,1.2187 c 0,0 -0.265,-2.2307 -0.593,-3.0624 -0.378,-0.9559 -0.601,-1.194 -0.688,-1.25 0.318,0.8289 0.25,1.2812 0.25,1.2812 0,0 -0.609,-1.6074 -2.188,-2.125 C 11.628,0.94366 10.94,0.83266 10.469,0.8125 z"
           transform="matrix(7.6141,0,0,7.6141,2.3471,4.0373)"
           id="path14"
           inkscape:connector-curvature="0" />
      </g>
    </g>
  </g>
</svg>
