<?xml version="1.0" encoding="UTF-8" standalone="no"?>
<svg xmlns:inkscape="http://www.inkscape.org/namespaces/inkscape" xmlns:rdf="http://www.w3.org/1999/02/22-rdf-syntax-ns#" xmlns="http://www.w3.org/2000/svg" sodipodi:docname="emblem-important-symbolic.svg" height="16" width="16" version="1.1" xmlns:cc="http://creativecommons.org/ns#" xmlns:sodipodi="http://sodipodi.sourceforge.net/DTD/sodipodi-0.dtd" inkscape:version="0.48pre1 r9509" xmlns:dc="http://purl.org/dc/elements/1.1/">
<metadata>
<rdf:RDF>
<cc:Work rdf:about="">
<dc:format>image/svg+xml</dc:format>
<dc:type rdf:resource="http://purl.org/dc/dcmitype/StillImage"/>
<dc:title>Gnome Symbolic Icon Theme</dc:title>
</cc:Work>
</rdf:RDF>
</metadata>
<sodipodi:namedview inkscape:zoom="1" borderopacity="1" inkscape:current-layer="layer15" inkscape:cx="-349.84279" guidetolerance="10" inkscape:snap-grids="true" inkscape:window-maximized="0" inkscape:snap-bbox="true" showgrid="false" inkscape:snap-nodes="true" inkscape:snap-global="true" showguides="true" bordercolor="#666666" inkscape:window-x="54" inkscape:guide-bbox="true" objecttolerance="10" inkscape:object-nodes="true" inkscape:window-y="24" inkscape:window-width="1310" inkscape:pageopacity="1" inkscape:snap-to-guides="true" inkscape:pageshadow="2" pagecolor="#555753" gridtolerance="10" inkscape:bbox-paths="false" inkscape:cy="-146.05202" inkscape:window-height="690" showborder="false">
<inkscape:grid spacingx="1px" enabled="true" spacingy="1px" visible="true" snapvisiblegridlinesonly="true" type="xygrid" empspacing="2"/>
</sodipodi:namedview>
<title>Gnome Symbolic Icon Theme</title>
<g inkscape:label="emblems" transform="translate(-462 -382)" inkscape:groupmode="layer">
<g inkscape:label="emblem-important" transform="translate(115.81 -581.18)">
<path inkscape:connector-curvature="0" fill="#2e3436" d="m70 823c-3.866 0-7 3.134-7 7s3.134 7 7 7 7-3.134 7-7-3.134-7-7-7zm-0.09375 1.9688a1.0001 1.0001 0 0 1 1.094 1.03v5a1.0001 1.0001 0 1 1 -2 0v-5a1.0001 1.0001 0 0 1 0.78125 -1 1.0001 1.0001 0 0 1 0.125 -0.0313zm0.094 8.03c0.55228 0 1 0.44772 1 1s-0.44772 1-1 1-1-0.44772-1-1 0.44772-1 1-1z" transform="translate(284.19 141.18)"/>
</g>
</g>
</svg>
