<?xml version="1.0" encoding="UTF-8" standalone="no"?>
<svg xmlns:inkscape="http://www.inkscape.org/namespaces/inkscape" xmlns:rdf="http://www.w3.org/1999/02/22-rdf-syntax-ns#" xmlns="http://www.w3.org/2000/svg" sodipodi:docname="information.svg" height="16" width="16" version="1.1" xmlns:cc="http://creativecommons.org/ns#" xmlns:dc="http://purl.org/dc/elements/1.1/" inkscape:version="0.48.3.1 r9886" xmlns:sodipodi="http://sodipodi.sourceforge.net/DTD/sodipodi-0.dtd">
<metadata>
<rdf:RDF>
<cc:Work rdf:about="">
<dc:format>image/svg+xml</dc:format>
<dc:type rdf:resource="http://purl.org/dc/dcmitype/StillImage"/>
<dc:title>Gnome Symbolic Icon Theme</dc:title>
</cc:Work>
</rdf:RDF>
</metadata>
<sodipodi:namedview inkscape:zoom="1" borderopacity="1" inkscape:current-layer="layer9" inkscape:cx="-164.94057" guidetolerance="10" inkscape:snap-grids="true" inkscape:snap-bbox-midpoints="false" inkscape:object-paths="true" inkscape:window-maximized="1" inkscape:snap-bbox="true" showgrid="false" inkscape:snap-nodes="false" inkscape:snap-global="true" showguides="true" bordercolor="#666666" inkscape:window-x="0" inkscape:guide-bbox="true" objecttolerance="10" inkscape:object-nodes="true" inkscape:window-y="27" inkscape:window-width="1366" inkscape:pageopacity="1" inkscape:snap-to-guides="true" inkscape:pageshadow="2" pagecolor="#555753" gridtolerance="10" inkscape:bbox-paths="false" inkscape:cy="30.533763" inkscape:window-height="712" showborder="false">
<inkscape:grid spacingx="1px" enabled="true" spacingy="1px" visible="true" snapvisiblegridlinesonly="true" type="xygrid" empspacing="2"/>
</sodipodi:namedview>
<title>Gnome Symbolic Icon Theme</title>
<g inkscape:label="status" transform="translate(-261 -257)" inkscape:groupmode="layer" fill="ButtonText">
<path style="block-progression:tb;color:#000000;text-transform:none;text-indent:0" d="m269 257c-2.7496 0-5 2.2504-5 5 0 1.5862 0.84459 2.9034 2 3.8125v3.1875h6v-3.1875c1.1554-0.90914 2-2.2263 2-3.8125 0-2.7496-2.2504-5-5-5zm0 2c1.6687 0 3 1.3313 3 3 0 1.1158-0.59507 2.0379-1.5 2.5625l-0.5 0.3125v2.125h-2v-2.125l-0.5-0.3125c-0.9-0.52-1.5-1.44-1.5-2.56 0-1.6687 1.3313-3 3-3z" inkscape:connector-curvature="0"/>
<path style="block-progression:tb;color:#000000;text-transform:none;text-indent:0" d="m267 272v1h4v-1h-4z" inkscape:connector-curvature="0"/>
<path style="block-progression:tb;color:#000000;text-transform:none;text-indent:0" d="m266 270v1h6v-1h-6z" inkscape:connector-curvature="0"/>
<path opacity=".35" style="block-progression:tb;color:#000000;text-transform:none;text-indent:0" d="m268 262v1h2v-1h-2z" inkscape:connector-curvature="0"/>
</g>
</svg>
