<?xml version="1.0" encoding="UTF-8" standalone="no"?>
<svg xmlns:dc="http://purl.org/dc/elements/1.1/" xmlns:cc="http://creativecommons.org/ns#" xmlns:rdf="http://www.w3.org/1999/02/22-rdf-syntax-ns#" xmlns:svg="http://www.w3.org/2000/svg" xmlns="http://www.w3.org/2000/svg" xmlns:sodipodi="http://sodipodi.sourceforge.net/DTD/sodipodi-0.dtd" xmlns:inkscape="http://www.inkscape.org/namespaces/inkscape" inkscape:version="0.48.4 r9939" height="16px" width="16px" version="1.1" sodipodi:docname="mixed-content-blocked.svg" id="svg6494">
   <defs id="defs6508" />
   <sodipodi:namedview bordercolor="#666666" inkscape:pageshadow="2" inkscape:window-y="27" pagecolor="#ffffff" inkscape:zoom="32" inkscape:grid-bbox="true" inkscape:window-maximized="1" inkscape:window-x="0" showgrid="true" borderopacity="1.0" inkscape:current-layer="g6502" inkscape:cx="8.5430744" inkscape:cy="11.47207" inkscape:window-height="741" inkscape:pageopacity="0.0" inkscape:window-width="1366" inkscape:document-units="px" id="namedview6496" inkscape:object-nodes="true">
      <inkscape:grid type="xygrid" id="grid6498" />
   </sodipodi:namedview>
   <metadata id="metadata6500">
      <rdf:RDF>
         <cc:Work rdf:about="">
            <dc:format>image/svg+xml</dc:format>
            <dc:type rdf:resource="http://purl.org/dc/dcmitype/StillImage" />
            <dc:title />
         </cc:Work>
      </rdf:RDF>
   </metadata>
   <g inkscape:label="Layer 1" inkscape:groupmode="layer" id="g6502">
      <path style="color:black;fill:#2e3436;fill-opacity:1;fill-rule:nonzero;stroke:none;stroke-width:4;marker:none;visibility:visible;display:inline;overflow:visible;enable-background:accumulate" d="m 8,1 3,1 3,1 C 14,3 13.62433,4.11164 13.53125,4.46875 13.02647,6.40526 13.125,10 13.125,10 12.9988,11.00962 12.63066,11.22964 12,11.59375 L 8,14 3.9375,11.5625 C 3.30193,11.19555 2.99653,11.00351 2.875,10.03125 c 0,0 0.10204,-3.61396 -0.40625,-5.5625 C 2.3756,4.11166 2,3 2,3 L 5,2 z m 0,2 0,9 3.13258,-1.86742 c 0.21989,-0.1849 0.52065,-0.533 0.46875,-1 0.11541,-1.84232 0.015,-3.10551 0.41855,-4.59597 C 10.73248,3.8904933 9.3446931,3.5042599 8,3 z" id="rect6693" inkscape:connector-curvature="0" sodipodi:nodetypes="cccscccccsccccccccc" />
   </g>
</svg>
