<?xml version="1.0" encoding="UTF-8" standalone="no"?>
<svg xmlns:rdf="http://www.w3.org/1999/02/22-rdf-syntax-ns#" xmlns="http://www.w3.org/2000/svg" xml:space="preserve" height="128" viewBox="0 0 128 128" width="128" version="1.1" y="0px" x="0px" xmlns:cc="http://creativecommons.org/ns#" xmlns:dc="http://purl.org/dc/elements/1.1/" enable-background="new 0 0 100 100"><metadata><rdf:RDF><cc:Work rdf:about=""><dc:format>image/svg+xml</dc:format><dc:type rdf:resource="http://purl.org/dc/dcmitype/StillImage"/><dc:title/></cc:Work></rdf:RDF></metadata>
<path opacity="0.1" d="M64,0c-35.35,0-64,28.65-64,64s28.65,64,64,64,64-28.65,64-64-28.65-64-64-64zm0,8.857c6.676,0,12.94,1.255,18.86,3.429v0.2857l-2.286-0.2857v1.429l0.8571,0.8571v1.143l0.8571,1.143-2.857-1.714-2,0.8571,0.8571,2.286,0.5714,2.571,1.14,1.42,3.14,0.57-0.57,1.14-0.57,2,2.571,1.714v0.8571l-5.143-4.286-0.2857,1.429,2,2.286,1.429,0.5714-2.857,0.5714-0.2857,1.429-2.286-2-1.13-2.86-0.5714-2.571-1.143,1.429,0.8571,4,1.714,1.143-0.86,3.72-0.8571-0.5714,0.2857,2-1.43-0.29-1.429-2h-2l-2.286-0.2857h-2.571l-2.571,2-1.429,2.571-3.429,2.571-0.28,1.44v2l0.8571,1.714,1.429-1.429,0.5714,1.143,0.8571,1.429v0.2857l0.8571,0.8571,1.42-0.86-0.2857-3.714,2-2s-0.09984-0.4207,0-0.8571c0.14-0.58,0.29-1.43,0.29-1.43l0.5714-1.714,1.143,0.2857-0.28,1.42-0.57,3.14,3.14-0.28,1.143,0.2857-2.571,0.5714,0.2857,1.714-2.571,1.714v1.714l-2.29,0.58-0.5714,1.429-1.714-0.5714h-1.429v-2.857l-1.43,0.57v1.429l-4,3.143-2.286,0.8571-0.8571,1.143-3.143-0.8571-0.2857,1.429,2,0.8571v2.857l-5.71-0.29-0.86,1.43-0.85,2.29-0.86,1.71,1.429,1.714,1.429,2,5.14-1.71,0.2857-2,1.143-0.8571,2-0.5714v-1.429l1.714-0.2857,2.571-0.5714,1.429,2,2.857,2,1.429,2v0.8571l1.429-0.8571-0.5714-1.429,0.2857-1.714-1.429-0.5714-1.429-1.714,0.8571-2.571,1.429,2,1.99,1.71,0.8571,2.857,2,1.714,0.5714,1.714,0.8571-2-0.29-1.14,0.5714-0.8571,3.143-2.571,0.5714-3.143,1.143-0.8571h1.714l2.286-2.286,0.2857,2,3.429,1.143v1.714h-2.857l-4.28,2.3-3.429,1.714,0.8571,2.286,3.143,0.5714,1.72,0.86,2-1.429,0.28,5.43-5.429,1.143-6-1.429-2,1.714,0.86,0.87-1.71-0.29-5.714-2h-1.429l-1.429-2v-2.571h-2.857l-1.714-0.2857-4.857,1.143-4-0.2857-2,0.8571-0.8571,0.2857-0.8571,2-3.714,2.571-4.86,3.72-0.57,5.14-1.43,3.14,0.29,1.72,1.14,2.28,3.71,6.29,4,1.714,6.286,0.5714-0.2857-2.857-1.429-0.5714,0.5714-1.429,1.143,1.143,1.15,3.44,4.857,0.2857,1.714,2,2.86,1.14,0.29,4.57,2.85,3.7,2.86,4.6-2.57,3.1,2.57,3.7c-29.52-1-53.14-25.32-53.14-55.1,0-11.7,3.505-22.5,9.714-31.43l0.8571,0.5714-0.5714,1.714,1.714,0.2857-0.2857-2.286h1.429v-3.143h1.143s0.3321,0.5285,0.5714,1.143c0.27,0.68,0.58,1.44,0.58,1.44l1.43,1.71s-1.711,0.2857-2.286,0.2857c-0.5747,0-0.2857,2.286-0.2857,2.286l2,0.8571,1.15-2.58,3.143-3.143,1.429-4.571,2.571-2.571-1.429-1.143,1.714-1.143v-1.714l-4.857,1.714-0.27-0.3c2.741-2.328,5.694-4.523,8.857-6.286l2.28,1.15-1.43,2.85h-3.143l-0.5714,2.857h2.571l3.714-2.286,2.571-2.571,0.5714-2.571-4-0.2857,2.571-1.714,2.571,0.5714-0.2857,2.571,3.143-2,0.5714,1.429,0.87,2.29-2,2.286-2,2-3.14-0.29,1.714,2.857-2.857-0.2857-4.571,4.571,1.143,1.714,3.714-0.2857,3.143-1.143,4-0.2857,2-0.5714s-0.1411-0.9962-0.2857-1.714c-0.1417-0.7195,1.429,0,1.429,0l1.73-0.85,1.43-4,4.57-2.29-0.57-1.14,1.14-1.43,0.29-0.28,0.57,0.28,0.29-1.14-0.86-0.57,0.57-1.43-2.86,1.43,0.86,1.43-2.57-0.29,0.8571-1.429-4.571-1.714h-2.571l0.8571-2,0.8571-1.143c3.99-0.927,8.28-1.433,12.56-1.433zm1.14,2.853-1.14,1.15l2,0.2857,0.5714-0.5714-1.429-0.8571zm-18.29,24-2.857,2,0.5714,2,0.8571,2.857-1.429,0l0.01,1.43,1.43,0.86,3.14-1.43-1.14-1.43-0.8571-3.143,0.5714-1.143-0.2857-2zm-4.286,3.714-2.286,1.714,0.2857,2.286,2.286-1.143,0.5714-1.714-0.8571-1.143zm76,17.71c0.2854,2.272,0.5714,4.507,0.5714,6.857,0,23.82-15.13,44-36.29,51.71l6.571-4.857-2.286-5.714,7.714-10,2.286-6.571,1.143-3.429-4,2-2.33,0.33-6-3.714-1.714-4-2.286-2-2.857-6.571,2.571,2,4.29,4.85,1.71,2.29,3.15,1.71,0.8571,4,4-2.571,4.571-5.714,2.286-6-1.714-1.429-1.143-1.714-1.143,2.286-2,2.286-3.429-3.429-0.8571-2.571,2.286,0.2857,2.286,1.143,3.09-1.16,2,0.8571,4.857-3.714,3.143,1.714,1.714-1.143,3.714,6.286,2-2v-2.286-6.857l1.143-3.143z"/>
</svg>
