<?xml version="1.0" encoding="UTF-8" standalone="no"?>
<svg xmlns:inkscape="http://www.inkscape.org/namespaces/inkscape" xmlns:rdf="http://www.w3.org/1999/02/22-rdf-syntax-ns#" xmlns="http://www.w3.org/2000/svg" sodipodi:docname="open.svg" height="16" width="16" version="1.1" xmlns:cc="http://creativecommons.org/ns#" xmlns:dc="http://purl.org/dc/elements/1.1/" inkscape:version="0.48.3.1 r9886" xmlns:sodipodi="http://sodipodi.sourceforge.net/DTD/sodipodi-0.dtd">
<metadata>
<rdf:RDF>
<cc:Work rdf:about="">
<dc:format>image/svg+xml</dc:format>
<dc:type rdf:resource="http://purl.org/dc/dcmitype/StillImage"/>
<dc:title>Gnome Symbolic Icon Theme</dc:title>
</cc:Work>
</rdf:RDF>
</metadata>
<sodipodi:namedview inkscape:zoom="11.313708" borderopacity="1" inkscape:current-layer="layer12" inkscape:cx="4.5702385" guidetolerance="10" inkscape:snap-grids="true" inkscape:snap-bbox-midpoints="false" inkscape:object-paths="true" inkscape:window-maximized="1" inkscape:snap-bbox="true" showgrid="false" inkscape:snap-nodes="true" inkscape:snap-global="true" showguides="true" bordercolor="#666666" inkscape:window-x="0" inkscape:guide-bbox="true" objecttolerance="10" inkscape:object-nodes="true" inkscape:window-y="27" inkscape:window-width="1366" inkscape:pageopacity="1" inkscape:snap-to-guides="true" inkscape:pageshadow="2" pagecolor="#ffffff" gridtolerance="10" inkscape:bbox-paths="false" inkscape:cy="1.1293115" inkscape:window-height="712" showborder="true">
<inkscape:grid spacingx="1px" enabled="true" spacingy="1px" visible="true" snapvisiblegridlinesonly="true" type="xygrid" empspacing="2"/>
</sodipodi:namedview>
<title>Gnome Symbolic Icon Theme</title>
<g inkscape:label="actions" transform="translate(-160 -646)" inkscape:groupmode="layer" fill="ButtonText">
<path sodipodi:nodetypes="ccccccccccscccccc" d="m160.53 651c-0.28913 0-0.53125 0.2421-0.53125 0.5313v9.9375c0 0.2985 0.23264 0.5312 0.53125 0.5312h13.812c0.2986 0 0.53125-0.2326 0.53125-0.5312l1.125-4.9159c0-0.2891-0.24212-0.5312-0.53125-0.5312h-11.594l-0.875 3.4783c0 0.277-0.223 0.5-0.5 0.5s-0.5-0.223-0.5-0.5v-4.9966c0-0.277 0.223-0.5 0.5-0.5h0.46615v-3.0034z" inkscape:connector-curvature="0"/>
<path style="block-progression:tb;color:#000000;text-transform:none;text-indent:0" inkscape:connector-curvature="0" d="m164.81 647c-0.4584 0.0875-0.82072 0.5334-0.8125 1v7h2v-6h4v3h3v3h2v-3.4375c0.006-0.2641-0.0976-0.529-0.28125-0.7188l-3.5625-3.5624c-0.18978-0.1837-0.45469-0.28737-0.71875-0.28125h-5.4375c-0.0312-0.001-0.0625-0.001-0.0937 0-0.0312-0.001-0.0625-0.001-0.0937 0z" sodipodi:nodetypes="cccccccccccccccccc"/>
</g>
</svg>
