<?xml version="1.0" encoding="UTF-8" standalone="no"?>
<svg id="preferences-system-symbolic" xmlns:inkscape="http://www.inkscape.org/namespaces/inkscape" xmlns:rdf="http://www.w3.org/1999/02/22-rdf-syntax-ns#" xmlns="http://www.w3.org/2000/svg" sodipodi:docname="preferences-system-symbolic.svg" height="16" width="16" version="1.1" xmlns:cc="http://creativecommons.org/ns#" xmlns:dc="http://purl.org/dc/elements/1.1/" inkscape:version="0.48.3.1 r9886" xmlns:sodipodi="http://sodipodi.sourceforge.net/DTD/sodipodi-0.dtd">
<metadata>
<rdf:RDF>
<cc:Work rdf:about="">
<dc:format>image/svg+xml</dc:format>
<dc:type rdf:resource="http://purl.org/dc/dcmitype/StillImage"/>
<dc:title>Gnome Symbolic Icon Theme</dc:title>
</cc:Work>
</rdf:RDF>
</metadata>
<sodipodi:namedview inkscape:zoom="1" borderopacity="1" inkscape:current-layer="g4953" inkscape:cx="-170.36817" guidetolerance="10" inkscape:snap-grids="true" inkscape:snap-bbox-midpoints="false" inkscape:object-paths="true" inkscape:window-maximized="1" inkscape:snap-bbox="true" showgrid="false" inkscape:snap-nodes="true" inkscape:snap-global="true" showguides="true" bordercolor="#666666" inkscape:window-x="0" inkscape:guide-bbox="true" objecttolerance="10" inkscape:object-nodes="true" inkscape:window-y="27" inkscape:snap-others="false" inkscape:window-width="1366" inkscape:pageopacity="1" inkscape:snap-to-guides="true" inkscape:pageshadow="2" pagecolor="#555753" gridtolerance="10" inkscape:bbox-paths="false" inkscape:cy="7.8662795" inkscape:window-height="712" showborder="false">
<inkscape:grid spacingx="1px" enabled="true" spacingy="1px" visible="true" snapvisiblegridlinesonly="true" type="xygrid" empspacing="2"/>
</sodipodi:namedview>
<title>Gnome Symbolic Icon Theme</title>
<g inkscape:label="categories" transform="translate(-442 -462)" inkscape:groupmode="layer" fill="ButtonText">
<path style="block-progression:tb;color:#000000;text-transform:none;text-indent:0" d="m445.55 462.09c-0.39933 0-0.78638 0.0916-1.1433 0.21572l1.8849 1.8797c0.38735 0.38627 0.38735 1.0004 0 1.3867l-0.71069 0.70874c-0.38735 0.38628-1.0031 0.38628-1.3905 0l-1.8849-1.8797c-0.12444 0.35591-0.2163 0.74191-0.2163 1.1402 0 1.9061 1.5494 3.4513 3.4608 3.4513 0.39933 0 0.78638-0.0916 1.1433-0.2157l1.1742 1.171a2.4722 2.4654 0 0 1 0.0618 0l2.0703-2.0646-1.2051-1.2018c0.12444-0.35592 0.2163-0.74191 0.2163-1.1402 0-1.9061-1.5494-3.4513-3.4608-3.4513zm6.5507 7.8886-2.0703 2.0646a2.4722 2.4654 0 0 1 0.0309 0.0924l1.1433 1.1402c-0.12444 0.35596-0.2163 0.74196-0.2163 1.1402 0 1.9061 1.5494 3.4513 3.4608 3.4513 0.43346 0 0.8536-0.10141 1.236-0.24653l-2.0085-2.003c-0.38735-0.38629-0.38735-1.0312 0-1.4175l0.67979-0.67792c0.19367-0.19315 0.45794-0.30816 0.71069-0.30816 0.25276 0 0.51702 0.11501 0.7107 0.30816l1.9467 1.9413c0.10485-0.32958 0.1854-0.68351 0.1854-1.0477 0-1.9061-1.5494-3.4513-3.4608-3.4513-0.39933 0-0.78639 0.0916-1.1433 0.2157l-1.2051-1.2018z" inkscape:connector-curvature="0"/>
<path style="block-progression:tb;color:#000000;text-transform:none;text-indent:0" d="m455.86 462-1.5425 1.4375c-0.45151 0.42079-0.5292 1.1488-0.2663 1.7065l-5.8882 5.9958a1.4917 1.4876 0 0 0 -0.0311 0.00025 1.4917 1.4876 0 0 0 -0.84016 -0.1484 1.4917 1.4876 0 0 0 -0.86663 0.44059l-3.9462 3.9973a1.4941 1.49 0 1 0 2.1294 2.0907l3.9462-3.9973a1.4917 1.4876 0 0 0 0.29713 -1.7377l5.8885-5.9648c0.55782 0.24837 1.2732 0.14697 1.7068-0.2922l1.41-1.57-2-1.97z" inkscape:connector-curvature="0"/>
</g>
</svg>
