<?xml version="1.0" encoding="UTF-8" standalone="no"?>
<svg
   xmlns:dc="http://purl.org/dc/elements/1.1/"
   xmlns:cc="http://creativecommons.org/ns#"
   xmlns:rdf="http://www.w3.org/1999/02/22-rdf-syntax-ns#"
   xmlns:svg="http://www.w3.org/2000/svg"
   xmlns="http://www.w3.org/2000/svg"
   xmlns:sodipodi="http://sodipodi.sourceforge.net/DTD/sodipodi-0.dtd"
   xmlns:inkscape="http://www.inkscape.org/namespaces/inkscape"
   inkscape:version="0.48.3.1 r9886"
   height="16"
   width="16"
   version="1.1"
   sodipodi:docname="stop.svg"
   id="svg2">
  <defs
     id="defs18" />
  <sodipodi:namedview
     bordercolor="#666666"
     inkscape:pageshadow="2"
     guidetolerance="10"
     pagecolor="#ffffff"
     gridtolerance="10"
     inkscape:zoom="16"
     inkscape:window-maximized="1"
     objecttolerance="10"
     showgrid="false"
     borderopacity="1"
     inkscape:current-layer="g12"
     inkscape:cx="9.8965905"
     inkscape:cy="4.8358003"
     inkscape:window-y="27"
     inkscape:window-x="0"
     inkscape:window-width="1366"
     inkscape:pageopacity="0"
     inkscape:window-height="712"
     id="namedview4">
    <inkscape:grid
       type="xygrid"
       id="grid6" />
  </sodipodi:namedview>
  <title
     id="title8">Gnome Symbolic Icon Theme</title>
  <metadata
     id="metadata10">
    <rdf:RDF>
      <cc:Work
         rdf:about="">
        <dc:format>image/svg+xml</dc:format>
        <dc:type
           rdf:resource="http://purl.org/dc/dcmitype/StillImage" />
        <dc:title>Gnome Symbolic Icon Theme</dc:title>
      </cc:Work>
    </rdf:RDF>
  </metadata>
  <g
     transform="translate(-260.00005,-517.99)"
     id="g12"
     style="fill:ButtonText">
    <path
       style="text-indent:0;text-transform:none;color:ButtonText"
       d="m 265,519 -0.3125,0.28125 -3.4062,3.375 -0.28125,0.3125 v 5 l 0.28125,0.3125 3.4062,3.4375 0.31,0.27 h 5.0313 l 0.28125,-0.28125 3.4062,-3.4375 0.28125,-0.3125 v -5 l -0.28125,-0.3125 -3.4062,-3.375 -0.31,-0.28 h -5.0038 z m 0.8125,2 h 3.375 L 272,523.8125 v 3.3438 l -2.8438,2.8438 h -3.3125 l -2.84,-2.83 v -3.35 l 2.81,-2.81 z"
       inkscape:connector-curvature="0"
       id="path14" />
    <path
       style="color:ButtonText"
       d="m 266.17,522 -2.17,2.15 v 2.6707 l 2.1656,2.1835 h 2.6707 l 2.1636,-2.1835 V 524.15 l -2.1636,-2.1457 h -2.6707 z"
       inkscape:connector-curvature="0"
       id="path16" />
  </g>
</svg>
