<?xml version="1.0" encoding="UTF-8" standalone="no"?>
<svg xmlns:dc="http://purl.org/dc/elements/1.1/" xmlns:cc="http://creativecommons.org/ns#" xmlns:rdf="http://www.w3.org/1999/02/22-rdf-syntax-ns#" xmlns:svg="http://www.w3.org/2000/svg" xmlns="http://www.w3.org/2000/svg" xmlns:sodipodi="http://sodipodi.sourceforge.net/DTD/sodipodi-0.dtd" xmlns:inkscape="http://www.inkscape.org/namespaces/inkscape" inkscape:version="0.48.4 r9939" height="16px" width="16px" version="1.1" sodipodi:docname="pointer-lock.svg" id="svg6494">
   <defs id="defs6508" />
   <sodipodi:namedview bordercolor="#666666" inkscape:pageshadow="2" inkscape:window-y="27" pagecolor="#ffffff" inkscape:zoom="16" inkscape:grid-bbox="true" inkscape:window-maximized="1" inkscape:window-x="0" showgrid="true" borderopacity="1.0" inkscape:current-layer="g6502" inkscape:cx="24.421591" inkscape:cy="3.0728058" inkscape:window-height="741" inkscape:pageopacity="0.0" inkscape:window-width="1366" inkscape:document-units="px" id="namedview6496" inkscape:object-nodes="false" inkscape:snap-bbox="true">
      <inkscape:grid type="xygrid" id="grid6498" />
   </sodipodi:namedview>
   <metadata id="metadata6500">
      <rdf:RDF>
         <cc:Work rdf:about="">
            <dc:format>image/svg+xml</dc:format>
            <dc:type rdf:resource="http://purl.org/dc/dcmitype/StillImage" />
            <dc:title></dc:title>
         </cc:Work>
      </rdf:RDF>
   </metadata>
   <g inkscape:label="Layer 1" inkscape:groupmode="layer" id="g6502">
      <path style="color:black;fill:#2e3436;fill-opacity:1;fill-rule:nonzero;stroke:none;stroke-width:4;marker:none;visibility:visible;display:inline;overflow:visible;enable-background:accumulate" d="M 8,2 C 6.34315,2 5,3.34314 5,5 5,6.65685 6.34315,8 8,8 9.65685,8 11,6.65685 11,5 11,3.34314 9.65685,2 8,2 z M 4,7 C 3.13258,7.73261 2,9.77052 2,11 l 0,4 2,0 0,-3 1,0 0,3 1,0 4,0 1,0 0,-3 1,0 0,3 2,0 0,-4 C 14,9.77052 12.86742,7.73261 12,7 12,9 10.07107,10 8,10 5.92893,10 4,9 4,7 z" id="rect6402" inkscape:connector-curvature="0" sodipodi:nodetypes="ssssscsccccccccccccscsc" />
   </g>
</svg>
