<?xml version="1.0" encoding="UTF-8" standalone="no"?>
<svg xmlns:inkscape="http://www.inkscape.org/namespaces/inkscape" xmlns:rdf="http://www.w3.org/1999/02/22-rdf-syntax-ns#" xmlns="http://www.w3.org/2000/svg" inkscape:version="0.48.3.1 r9886" height="16" width="16" version="1.1" xmlns:cc="http://creativecommons.org/ns#" xmlns:dc="http://purl.org/dc/elements/1.1/" sodipodi:docname="redo-rtl.svg" xmlns:sodipodi="http://sodipodi.sourceforge.net/DTD/sodipodi-0.dtd">
<metadata>
<rdf:RDF>
<cc:Work rdf:about="">
<dc:format>image/svg+xml</dc:format>
<dc:type rdf:resource="http://purl.org/dc/dcmitype/StillImage"/>
<dc:title>Gnome Symbolic Icon Theme</dc:title>
</cc:Work>
</rdf:RDF>
</metadata>
<sodipodi:namedview inkscape:zoom="11.313708" borderopacity="1" inkscape:current-layer="layer12" inkscape:cx="-1.1399915" guidetolerance="10" inkscape:snap-grids="true" inkscape:snap-bbox-midpoints="false" inkscape:object-paths="false" inkscape:window-maximized="1" inkscape:snap-bbox="true" showgrid="false" inkscape:snap-nodes="true" inkscape:snap-global="true" showguides="true" bordercolor="#666666" inkscape:window-x="0" inkscape:guide-bbox="true" objecttolerance="10" inkscape:object-nodes="false" inkscape:window-y="27" inkscape:snap-others="false" inkscape:window-width="1366" inkscape:pageopacity="1" inkscape:snap-to-guides="true" inkscape:pageshadow="2" pagecolor="#ffffff" gridtolerance="10" inkscape:bbox-paths="false" inkscape:cy="4.700015" inkscape:window-height="712" showborder="true">
<inkscape:grid visible="true" enabled="true" spacingy="1px" spacingx="1px" snapvisiblegridlinesonly="true" type="xygrid" empspacing="2"/>
</sodipodi:namedview>
<title>Gnome Symbolic Icon Theme</title>
<g inkscape:label="actions" transform="translate(-321 -667)" inkscape:groupmode="layer" fill="#2e3436">
<path style="block-progression:tb;color:#000000;text-transform:none;text-indent:0" d="m325 673v2h6.5c0.84027 0 1.5 0.65973 1.5 1.5s-0.65973 1.5-1.5 1.5h-0.5v2h0.5c1.9212 0 3.5-1.5788 3.5-3.5s-1.5788-3.5-3.5-3.5h-6.5z" inkscape:connector-curvature="0"/>
<path style="block-progression:tb;color:#2e3436;text-transform:none;text-indent:0" inkscape:connector-curvature="0" d="m328 670.02v1c0 0.25689-0.12983 0.52846-0.3125 0.71875l-2.2812 2.2812 2.2812 2.2812c0.18267 0.19029 0.3125 0.46186 0.3125 0.71875v1h-1c-0.30945 0-0.55232-0.0903-0.75-0.28125l-3.6562-3.7188 3.6562-3.7188c0.19768-0.19095 0.44055-0.28125 0.75-0.28125z" sodipodi:nodetypes="ccccccccccccc"/>
</g>
</svg>
