<?xml version="1.0" encoding="UTF-8" standalone="no"?>
<svg xmlns:inkscape="http://www.inkscape.org/namespaces/inkscape" xmlns:rdf="http://www.w3.org/1999/02/22-rdf-syntax-ns#" xmlns="http://www.w3.org/2000/svg" sodipodi:docname="changes-prevent-symbolic.svg" height="16" width="16" version="1.1" xmlns:cc="http://creativecommons.org/ns#" xmlns:sodipodi="http://sodipodi.sourceforge.net/DTD/sodipodi-0.dtd" inkscape:version="0.48.1 r9760" xmlns:dc="http://purl.org/dc/elements/1.1/">
<metadata>
<rdf:RDF>
<cc:Work rdf:about="">
<dc:format>image/svg+xml</dc:format>
<dc:type rdf:resource="http://purl.org/dc/dcmitype/StillImage"/>
<dc:title>Gnome Symbolic Icon Theme</dc:title>
</cc:Work>
</rdf:RDF>
</metadata>
<sodipodi:namedview inkscape:zoom="1" borderopacity="1" inkscape:current-layer="layer9" inkscape:cx="52.563336" guidetolerance="10" inkscape:snap-grids="true" inkscape:snap-bbox-midpoints="false" inkscape:object-paths="true" inkscape:window-maximized="0" inkscape:snap-bbox="true" showgrid="false" inkscape:snap-nodes="false" inkscape:snap-global="true" showguides="true" bordercolor="#666666" inkscape:window-x="1941" inkscape:guide-bbox="true" objecttolerance="10" inkscape:object-nodes="true" inkscape:window-y="81" inkscape:window-width="1296" inkscape:pageopacity="1" inkscape:snap-to-guides="true" inkscape:pageshadow="2" pagecolor="#555753" gridtolerance="10" inkscape:bbox-paths="false" inkscape:cy="9.416826" inkscape:window-height="1013" showborder="false">
<inkscape:grid spacingx="1px" enabled="true" spacingy="1px" visible="true" snapvisiblegridlinesonly="true" type="xygrid" empspacing="2"/>
</sodipodi:namedview>
<title>Gnome Symbolic Icon Theme</title>
<g inkscape:label="status" transform="translate(-181 -237)" inkscape:groupmode="layer" fill="ButtonText">
<path style="color:ButtonText" inkscape:connector-curvature="0" d="m184 244c-0.554 0-1 0.446-1 1v6h12v-5.9988c0-0.554-0.446-1-1-1h-10z" sodipodi:nodetypes="csccccscc"/>
<path style="block-progression:tb;color:ButtonText;text-transform:none;text-indent:0" d="m188 238c-1.6447 0-3 1.3553-3 3v7c0 1.6447 1.3553 3 3 3h2c1.6447 0 3-1.3553 3-3v-7c0-1.6447-1.3553-3-3-3h-2zm0 2h2c0.5713 0 1 0.4287 1 1v7c0 0.5713-0.4287 1-1 1h-2c-0.5713 0-1-0.4287-1-1v-7c0-0.5713 0.4287-1 1-1z" inkscape:connector-curvature="0"/>
</g>
</svg>
