<svg xmlns:rdf="http://www.w3.org/1999/02/22-rdf-syntax-ns#" xmlns="http://www.w3.org/2000/svg" version="1.1" xmlns:cc="http://creativecommons.org/ns#" xmlns:dc="http://purl.org/dc/elements/1.1/" viewBox="0 0 16 16">
 <defs></defs>
 <title>Gnome Symbolic Icon Theme</title>
 <metadata>
  <rdf:RDF>
   <cc:Work rdf:about="">
    <dc:format>image/svg+xml</dc:format>
    <dc:type rdf:resource="http://purl.org/dc/dcmitype/StillImage"/>
    <dc:title>Gnome Symbolic Icon Theme</dc:title>
   </cc:Work>
  </rdf:RDF>
 </metadata>
 <path fill="ButtonText" d="M 8,0 4.72,3 3,3 C 1.892,3 1,3.892 1,5 l 0,8 c 0,1.108 0.892,2 2,2 l 10,0 c 1.108,0 2,-0.892 2,-2 L 15,5 C 15,3.892 14.108,3 13,3 L 11.28,3 z M 3.375,5 4.625,5 C 4.838077,5 5,5.221729 5,5.5 l 0,1 C 5,6.778271 4.838077,7 4.625,7 L 3.375,7 C 3.161923,7 3,6.778271 3,6.5 l 0,-1 C 3,5.221729 3.161923,5 3.375,5 z m 3,0 6.25,0 C 12.838077,5 13,5.221729 13,5.5 l 0,1 C 13,6.778271 12.838077,7 12.625,7 L 6.375,7 C 6.161923,7 6,6.778271 6,6.5 l 0,-1 C 6,5.221729 6.161923,5 6.375,5 z m -3,3 1.25,0 C 4.838077,8 5,8.221729 5,8.5 l 0,1 C 5,9.778271 4.838077,10 4.625,10 l -1.25,0 C 3.161923,10 3,9.778271 3,9.5 l 0,-1 C 3,8.221729 3.161923,8 3.375,8 z m 3,0 6.25,0 C 12.838077,8 13,8.221729 13,8.5 l 0,1 C 13,9.778271 12.838077,10 12.625,10 l -6.25,0 C 6.161923,10 6,9.778271 6,9.5 l 0,-1 C 6,8.221729 6.161923,8 6.375,8 z m -3,3 1.25,0 C 4.838077,11 5,11.221729 5,11.5 l 0,1 C 5,12.778271 4.838077,13 4.625,13 l -1.25,0 C 3.161923,13 3,12.778271 3,12.5 l 0,-1 C 3,11.221729 3.161923,11 3.375,11 z m 3,0 6.25,0 C 12.838077,11 13,11.221729 13,11.5 l 0,1 c 0,0.278271 -0.161923,0.5 -0.375,0.5 l -6.25,0 C 6.161923,13 6,12.778271 6,12.5 l 0,-1 C 6,11.221729 6.161923,11 6.375,11 z"/>
</svg>
