<?xml version="1.0" encoding="UTF-8" standalone="no"?>
<!-- Created with Inkscape (http://www.inkscape.org/) -->

<svg xmlns:dc="http://purl.org/dc/elements/1.1/" xmlns:cc="http://creativecommons.org/ns#" xmlns:rdf="http://www.w3.org/1999/02/22-rdf-syntax-ns#" xmlns:svg="http://www.w3.org/2000/svg" xmlns="http://www.w3.org/2000/svg" xmlns:xlink="http://www.w3.org/1999/xlink" xmlns:sodipodi="http://sodipodi.sourceforge.net/DTD/sodipodi-0.dtd" xmlns:inkscape="http://www.inkscape.org/namespaces/inkscape" id="svg6200" version="1.1" inkscape:version="0.48.4 r9939" width="1093" height="1186" sodipodi:docname="about-pages.svg">
   <metadata id="metadata6206">
      <rdf:RDF>
         <cc:Work rdf:about="">
            <dc:format>image/svg+xml</dc:format>
            <dc:type rdf:resource="http://purl.org/dc/dcmitype/StillImage" />
            <dc:title />
         </cc:Work>
      </rdf:RDF>
   </metadata>
   <defs id="defs6204">
      <linearGradient inkscape:collect="always" id="linearGradient7019">
         <stop id="stop7023" offset="0" style="stop-color:#faf4fa;stop-opacity:1" />
         <stop id="stop7021" offset="1" style="stop-color:#e2c5e3;stop-opacity:0.24766356" />
      </linearGradient>
      <linearGradient inkscape:collect="always" id="linearGradient7866">
         <stop style="stop-color:white;stop-opacity:1;" offset="0" id="stop7868" />
         <stop style="stop-color:white;stop-opacity:0;" offset="1" id="stop7870" />
      </linearGradient>
      <linearGradient inkscape:collect="always" id="linearGradient7515">
         <stop style="stop-color:white;stop-opacity:1;" offset="0" id="stop7517" />
         <stop style="stop-color:white;stop-opacity:0;" offset="1" id="stop7519" />
      </linearGradient>
      <clipPath clipPathUnits="userSpaceOnUse" id="clipPath7489">
         <path id="path7491" d="m 83.34375,134.3125 c -38.80207,0 -70.4375,31.60418 -70.4375,70.40625 0,38.80207 31.635432,70.4375 70.4375,70.4375 38.80207,0 70.40625,-31.63543 70.40625,-70.4375 0,-38.80207 -31.60418,-70.40625 -70.40625,-70.40625 z m 0,15.96875 c 13.177075,0 25.23367,4.63949 34.625,12.375 l -76.6875,76.65625 c -7.726196,-9.39368 -12.375,-21.42548 -12.375,-34.59375 0,-30.15503 24.282474,-54.4375 54.4375,-54.4375 z m 45.34375,24.28125 c 5.72321,8.62171 9.0625,18.98538 9.0625,30.15625 0,30.15503 -24.25122,54.4375 -54.40625,54.4375 -11.185664,0 -21.558995,-3.35252 -30.1875,-9.09375 l 75.53125,-75.5 z" style="font-size:medium;font-style:normal;font-variant:normal;font-weight:normal;font-stretch:normal;text-indent:0;text-align:start;text-decoration:none;line-height:normal;letter-spacing:normal;word-spacing:normal;text-transform:none;direction:ltr;block-progression:tb;writing-mode:lr-tb;text-anchor:start;baseline-shift:baseline;color:black;fill:#e2c5e3;fill-opacity:0.60747663;stroke:#9200a0;stroke-width:1;stroke-opacity:0.19158882;marker:none;visibility:visible;display:inline;overflow:visible;enable-background:accumulate;font-family:Sans;-inkscape-font-specification:Sans" inkscape:connector-curvature="0" />
      </clipPath>
      <linearGradient inkscape:collect="always" xlink:href="#linearGradient7515" id="linearGradient7521" x1="46.315495" y1="133.02704" x2="102.17693" y2="260.65982" gradientUnits="userSpaceOnUse" />
      <linearGradient inkscape:collect="always" xlink:href="#linearGradient7515" id="linearGradient7536" gradientUnits="userSpaceOnUse" x1="46.315495" y1="133.02704" x2="102.17693" y2="260.65982" />
      <linearGradient inkscape:collect="always" xlink:href="#linearGradient7515" id="linearGradient7548" gradientUnits="userSpaceOnUse" x1="46.315495" y1="133.02704" x2="102.17693" y2="260.65982" />
      <linearGradient inkscape:collect="always" xlink:href="#linearGradient7515" id="linearGradient7568" gradientUnits="userSpaceOnUse" x1="46.315495" y1="133.02704" x2="102.17693" y2="260.65982" />
      <linearGradient inkscape:collect="always" xlink:href="#linearGradient7515" id="linearGradient7578" gradientUnits="userSpaceOnUse" x1="46.315495" y1="133.02704" x2="102.17693" y2="260.65982" />
      <linearGradient inkscape:collect="always" xlink:href="#linearGradient7515" id="linearGradient7587" gradientUnits="userSpaceOnUse" x1="46.315495" y1="133.02704" x2="102.17693" y2="260.65982" gradientTransform="matrix(1.0059862,0,0,1.0059862,188.15212,-23.772197)" />
      <filter inkscape:collect="always" id="filter7720" color-interpolation-filters="sRGB">
         <feGaussianBlur inkscape:collect="always" stdDeviation="2.4647656" id="feGaussianBlur7722" />
      </filter>
      <filter inkscape:collect="always" id="filter7724" color-interpolation-filters="sRGB">
         <feGaussianBlur inkscape:collect="always" stdDeviation="2.5102005" id="feGaussianBlur7726" />
      </filter>
      <linearGradient inkscape:collect="always" xlink:href="#linearGradient7515" id="linearGradient7813" gradientUnits="userSpaceOnUse" gradientTransform="matrix(1.0059862,0,0,1.0059862,188.15212,-23.772197)" x1="39.794983" y1="170.53819" x2="121.26907" y2="245.03435" />
      <filter inkscape:collect="always" id="filter7854" color-interpolation-filters="sRGB">
         <feGaussianBlur inkscape:collect="always" stdDeviation="3" id="feGaussianBlur7856" />
      </filter>
      <clipPath clipPathUnits="userSpaceOnUse" id="clipPath7860">
         <path d="M 98.999996,87.000001 161.1127,87.046679 205,131 204.95332,193.1127 161,237 98.887305,236.95332 55.000001,193 l 0.04668,-62.1127 z" inkscape:randomized="0" inkscape:rounded="0" inkscape:flatsided="true" sodipodi:arg2="-1.5700448" sodipodi:arg1="-1.9627439" sodipodi:r2="74.976685" sodipodi:r1="81.154175" sodipodi:cy="162" sodipodi:cx="130" sodipodi:sides="8" id="path7862" style="color:black;fill:#d8001d;fill-opacity:0.20560746;fill-rule:nonzero;stroke:#d8001d;stroke-width:1;stroke-opacity:1;marker:none;visibility:visible;display:inline;overflow:visible;enable-background:accumulate" sodipodi:type="star" />
      </clipPath>
      <linearGradient inkscape:collect="always" xlink:href="#linearGradient7866" id="linearGradient7872" x1="90.659828" y1="95.327644" x2="160.15457" y2="183.7404" gradientUnits="userSpaceOnUse" />
      <filter inkscape:collect="always" id="filter7894">
         <feGaussianBlur inkscape:collect="always" stdDeviation="2.625" id="feGaussianBlur7896" />
      </filter>
      <radialGradient inkscape:collect="always" xlink:href="#linearGradient7019" id="radialGradient7027" cx="251.35364" cy="130.45561" fx="251.35364" fy="130.45561" r="72.481804" gradientTransform="matrix(0.3036305,1.040892,-1.0715901,0.31258526,314.82994,-171.95484)" gradientUnits="userSpaceOnUse" />
   </defs>
   <sodipodi:namedview pagecolor="#ffffff" bordercolor="#666666" borderopacity="1" objecttolerance="10" gridtolerance="10" guidetolerance="10" inkscape:pageopacity="0" inkscape:pageshadow="2" inkscape:window-width="1366" inkscape:window-height="741" id="namedview6202" showgrid="false" inkscape:snap-page="true" showguides="false" inkscape:guide-bbox="true" inkscape:snap-bbox="true" inkscape:zoom="1" inkscape:cx="517.06524" inkscape:cy="815.87649" inkscape:window-x="0" inkscape:window-y="27" inkscape:window-maximized="1" inkscape:current-layer="svg6200" inkscape:snap-object-midpoints="true" inkscape:snap-center="true" inkscape:object-nodes="true" inkscape:snap-smooth-nodes="true" inkscape:object-paths="true" inkscape:showpageshadow="false" inkscape:snap-global="true" fit-margin-top="0" fit-margin-left="0" fit-margin-right="0" fit-margin-bottom="0">
      <sodipodi:guide orientation="0,1" position="426.21875,1038.9082" id="guide7533" />
      <sodipodi:guide orientation="1,0" position="386.83984,977.52344" id="guide7535" />
      <sodipodi:guide position="150.56641,1186" orientation="593,0" id="guide7543" />
      <sodipodi:guide position="150.56641,593" orientation="0,791.86719" id="guide7545" />
      <sodipodi:guide position="942.43359,593" orientation="-593,0" id="guide7547" />
      <sodipodi:guide position="942.43359,1186" orientation="0,-791.86719" id="guide7549" />
      <inkscape:grid type="xygrid" id="grid7874" empspacing="5" visible="true" enabled="true" snapvisiblegridlinesonly="true" originx="0px" originy="593px" />
      <sodipodi:guide orientation="0,1" position="301.2363,942.90268" id="guide7043" />
   </sodipodi:namedview>
   <path inkscape:connector-curvature="0" id="path6203" d="m -212.35056,177.03801 c -15.34473,0 -27.7745,12.42977 -27.7745,27.77449 0,4.68875 1.17754,9.09063 3.22841,12.96485 l 37.56217,-37.56219 c -3.87533,-2.05238 -8.32547,-3.17715 -13.01608,-3.17715 z m 24.59732,14.80964 -37.56217,37.56219 c 3.87379,2.05027 8.27682,3.17715 12.96485,3.17715 15.34471,0 27.82573,-12.42977 27.82573,-27.77449 0,-4.67436 -1.18927,-9.0992 -3.22841,-12.96485 z" style="opacity:0.2;color:black;fill:#9200a0;fill-opacity:1;stroke:none;stroke-width:6;marker:none;visibility:visible;display:inline;overflow:visible;enable-background:accumulate" />
   <path style="color:black;fill:#9200a0;fill-opacity:1;stroke:none;stroke-width:6;marker:none;visibility:visible;display:inline;overflow:visible;enable-background:accumulate" d="m -214.06913,183.97887 c -10.46149,0 -18.93566,8.47418 -18.93566,18.93566 0,3.19662 0.8028,6.19767 2.20101,8.83897 l 25.60855,-25.60856 c -2.64206,-1.39924 -5.67601,-2.16607 -8.8739,-2.16607 z" id="path6207" inkscape:connector-curvature="0" />
   <path style="color:black;fill:#9200a0;fill-opacity:1;stroke:none;stroke-width:6;marker:none;visibility:visible;display:inline;overflow:visible;enable-background:accumulate" d="m -193.10097,197.19539 -25.60855,25.60856 c 2.64101,1.3978 5.64284,2.16607 8.83897,2.16607 10.46148,0 18.97059,-8.47418 18.97059,-18.93566 0,-3.18681 -0.8108,-6.20351 -2.20101,-8.83897 z" id="path6165" inkscape:connector-curvature="0" />
   <path id="path6192" style="color:black;fill:none;stroke:#9200a0;stroke-width:6;stroke-opacity:1;marker:none;visibility:visible;display:inline;overflow:visible;enable-background:accumulate" d="m -171.83787,175.62832 c 10.91578,7.27674 18.84227,17.43786 22.03125,29.0625 -6.39635,23.36897 -31.91122,40.87497 -62.4375,40.87497 -8.97443,0 -17.5003,-1.551 -25.25,-4.2812 m -15.15625,-7.4688 c -10.93341,-7.2923 -18.84447,-17.48216 -22.03125,-29.12497 6.40744,-23.35672 31.92185,-40.8125 62.4375,-40.8125 8.98203,0 17.52552,1.52003 25.28125,4.25" inkscape:connector-curvature="0" />
   <path id="path7563" style="color:black;fill:none;stroke:#9200a0;stroke-width:2;stroke-opacity:1;marker:none;visibility:visible;display:inline;overflow:visible;enable-background:accumulate" d="m -225.39623,229.50026 c 4.15942,2.38207 7.93168,3.74975 13.07128,3.74975 15.71301,0 28.4375,-12.72449 28.4375,-28.43752 0,-5.13961 -1.56455,-8.715 -3.94662,-12.87442 m -11.58123,-11.63249 c -4.15942,-2.38206 -7.77004,-3.93059 -12.90965,-3.93059 -15.713,0 -28.4375,12.7245 -28.4375,28.4375 0,5.13961 1.40291,8.89589 3.78497,13.05528" inkscape:connector-curvature="0" sodipodi:nodetypes="cssccssc" />
   <path style="color:black;fill:none;stroke:#f6f6f4;stroke-width:2;stroke-opacity:1;marker:none;visibility:visible;display:inline;overflow:visible;enable-background:accumulate" d="m -228.58786,201.60403 c 0,-7.71885 6.25685,-13.9757 13.9757,-13.9757" id="path6172" inkscape:connector-curvature="0" sodipodi:nodetypes="cc" />
   <path style="opacity:0.6;fill:none;stroke:#9200a0;stroke-width:4;stroke-linecap:butt;stroke-linejoin:miter;stroke-opacity:1" d="M -159.57898,152.05693 -265.07844,257.55639" id="path39778" inkscape:connector-curvature="0" sodipodi:nodetypes="cc" />
   <path transform="matrix(0.75563184,0,0,0.75563184,-451.98181,51.040282)" d="m 164.41507,203.38182 a 82.618187,82.618187 0 1 1 -165.23637432,0 82.618187,82.618187 0 1 1 165.23637432,0 z" sodipodi:ry="82.618187" sodipodi:rx="82.618187" sodipodi:cy="203.38182" sodipodi:cx="81.796883" id="path7448" style="color:black;fill:none;stroke:#e2c5e3;stroke-width:21.17433357;stroke-linecap:round;stroke-linejoin:round;stroke-miterlimit:4;stroke-opacity:1;stroke-dasharray:none;stroke-dashoffset:0;marker:none;visibility:visible;display:inline;overflow:visible;enable-background:accumulate" sodipodi:type="arc" />
   <path inkscape:connector-curvature="0" id="path7450" d="m -344.13502,162.55717 -88.20335,88.20335" style="fill:none;stroke:#e2c5e3;stroke-width:16;stroke-linecap:butt;stroke-linejoin:miter;stroke-opacity:1" />
   <rect style="color:black;fill:#f6f6f4;fill-opacity:1;fill-rule:nonzero;stroke:none;stroke-width:1.20000005;marker:none;visibility:visible;display:inline;overflow:visible;enable-background:accumulate" id="rect6210" width="1093" height="593" x="0" y="0" />
   <path sodipodi:type="star" style="color:black;fill:#d8001d;fill-opacity:0.20560746;fill-rule:nonzero;stroke:#d8001d;stroke-width:0.99613214;stroke-opacity:0.45490196;marker:none;visibility:visible;display:inline;overflow:visible;enable-background:accumulate" id="path7846" sodipodi:sides="8" sodipodi:cx="130" sodipodi:cy="162" sodipodi:r1="81.154175" sodipodi:r2="74.976685" sodipodi:arg1="-1.9627439" sodipodi:arg2="-1.5700448" inkscape:flatsided="true" inkscape:rounded="0" inkscape:randomized="0" d="M 98.999996,87.000001 161.1127,87.046679 205,131 204.95332,193.1127 161,237 98.887305,236.95332 55.000001,193 l 0.04668,-62.1127 z" transform="matrix(1.0038829,0,0,1.0038829,142.26471,58.172538)" />
   <path transform="matrix(1.0038829,0,0,1.0038829,142.26471,62.172538)" d="M 98.999996,87.000001 161.1127,87.046679 205,131 204.95332,193.1127 161,237 98.887305,236.95332 55.000001,193 l 0.04668,-62.1127 z" inkscape:randomized="0" inkscape:rounded="0" inkscape:flatsided="true" sodipodi:arg2="-1.5700448" sodipodi:arg1="-1.9627439" sodipodi:r2="74.976685" sodipodi:r1="81.154175" sodipodi:cy="162" sodipodi:cx="130" sodipodi:sides="8" id="path7876" style="opacity:0.1;color:black;fill:none;stroke:#400009;stroke-width:1.99226427;stroke-opacity:1;marker:none;visibility:visible;display:inline;overflow:visible;filter:url(#filter7894);enable-background:accumulate" sodipodi:type="star" />
   <flowRoot xml:space="preserve" id="flowRoot6244" style="font-size:13px;font-style:normal;font-variant:normal;font-weight:bold;font-stretch:normal;text-align:start;writing-mode:lr-tb;text-anchor:start;color:black;fill:#1f1f21;fill-opacity:1;fill-rule:nonzero;stroke:none;stroke-width:1.20000005;marker:none;visibility:visible;display:inline;overflow:visible;enable-background:accumulate;font-family:Cantarell;-inkscape-font-specification:Cantarell Bold" transform="matrix(1.0082987,0,0,1.0082987,275.63503,31.063376)"><flowRegion id="flowRegion6246"><rect id="rect6248" width="570.71216" height="294.89212" x="109.74242" y="109.80576" /></flowRegion><flowPara id="flowPara6250" style="font-size:24px;fill:#d8001d">Reported Web Forgery!</flowPara><flowPara id="flowPara6254" style="font-weight:bold;fill:#3c3c40;fill-opacity:1;-inkscape-font-specification:Cantarell Bold" /><flowPara id="flowPara6266" style="font-weight:500;word-spacing:0px;fill:#3c3c40;fill-opacity:1;-inkscape-font-specification:Cantarell Medium">This web page at www.mozilla.org has been reported as a web forgery and has been blocked based on your security preferences.</flowPara><flowPara style="font-weight:500;word-spacing:0px;fill:#3c3c40;fill-opacity:1;-inkscape-font-specification:Cantarell Medium" id="flowPara6271" /><flowPara style="font-weight:500;word-spacing:0px;fill:#3c3c40;fill-opacity:1;-inkscape-font-specification:Cantarell Medium" id="flowPara6273">Web forgeries are designed to trick you into revealing personal or financial information by imitating sources you may trust.</flowPara><flowPara style="font-weight:500;word-spacing:0px;fill:#3c3c40;fill-opacity:1;-inkscape-font-specification:Cantarell Medium" id="flowPara6275" /><flowPara style="font-weight:500;word-spacing:0px;fill:#3c3c40;fill-opacity:1;-inkscape-font-specification:Cantarell Medium" id="flowPara6277">Entering any information on this web page may result in identity theft or other fraud</flowPara><flowPara style="font-weight:500;word-spacing:0px;fill:#3c3c40;fill-opacity:1;-inkscape-font-specification:Cantarell Medium" id="flowPara6281" /><flowPara id="flowPara6268" style="font-weight:500;fill:#3c3c40;fill-opacity:1;-inkscape-font-specification:Cantarell Medium" /><flowPara id="flowPara6270" style="font-weight:500;fill:#2754d3;fill-opacity:1;-inkscape-font-specification:Cantarell Medium">Learn More</flowPara></flowRoot>   <g id="g7757" transform="translate(0,593)">
      <rect style="color:black;fill:#f6f6f4;fill-opacity:1;fill-rule:nonzero;stroke:none;stroke-width:1.20000005;marker:none;visibility:visible;display:inline;overflow:visible;enable-background:accumulate" id="rect7759" width="1093" height="593" x="0" y="0" />
      <flowRoot xml:space="preserve" id="flowRoot7761" style="font-size:13px;font-style:normal;font-variant:normal;font-weight:bold;font-stretch:normal;text-align:start;writing-mode:lr-tb;text-anchor:start;color:black;fill:#1f1f21;fill-opacity:1;fill-rule:nonzero;stroke:none;stroke-width:1.20000005;marker:none;visibility:visible;display:inline;overflow:visible;enable-background:accumulate;font-family:Cantarell;-inkscape-font-specification:Cantarell Bold" transform="matrix(1.0082987,0,0,1.0082987,275.63503,31.063376)"><flowRegion id="flowRegion7763"><rect id="rect7765" width="570.71216" height="294.89212" x="109.74242" y="109.80576" /></flowRegion><flowPara id="flowPara7767" style="font-size:24px;fill:#9200a0">Private Browsing</flowPara><flowPara id="flowPara7769" /><flowPara id="flowPara7771" style="font-weight:bold;fill:#3c3c40;fill-opacity:1;-inkscape-font-specification:Cantarell Bold">Firefox won't remember any history for this window.</flowPara><flowPara id="flowPara7773" style="font-weight:500;fill:#3c3c40;fill-opacity:1;-inkscape-font-specification:Cantarell Medium" /><flowPara style="font-weight:500;fill:#3c3c40;fill-opacity:1;-inkscape-font-specification:Cantarell Medium" id="flowPara7775" /><flowPara id="flowPara7777" style="font-weight:500;fill:#3c3c40;fill-opacity:1;-inkscape-font-specification:Cantarell Medium">In a Private Browsing window, Firefox won't keep any browser history, search history, download history, web form history, cookies, or temporary internet files. However, files you download and bookmarks you make will be kept.</flowPara><flowPara id="flowPara7779" style="font-weight:500;fill:#3c3c40;fill-opacity:1;-inkscape-font-specification:Cantarell Medium" /><flowPara id="flowPara7781" style="font-weight:500;fill:#3c3c40;fill-opacity:1;-inkscape-font-specification:Cantarell Medium">To stop Private Browsing, you can close this window.</flowPara><flowPara id="flowPara7783" style="font-weight:500;fill:#3c3c40;fill-opacity:1;-inkscape-font-specification:Cantarell Medium" /><flowPara id="flowPara7785" style="font-weight:500;word-spacing:0px;fill:#3c3c40;fill-opacity:1;-inkscape-font-specification:Cantarell Medium">While this computer won't have a record of your browsing history, your internet service provider or employer can still track the pages you visit.</flowPara><flowPara id="flowPara7787" style="font-weight:500;fill:#3c3c40;fill-opacity:1;-inkscape-font-specification:Cantarell Medium" /><flowPara id="flowPara7789" style="font-weight:500;fill:#2754d3;fill-opacity:1;-inkscape-font-specification:Cantarell Medium">Learn More</flowPara></flowRoot>      <g id="g7791" transform="translate(0,26)">
         <path transform="matrix(1.027597,0,0,1.027597,-7.5057934,-1.0278268)" inkscape:connector-curvature="0" clip-path="none" style="font-size:medium;font-style:normal;font-variant:normal;font-weight:normal;font-stretch:normal;text-indent:0;text-align:start;text-decoration:none;line-height:normal;letter-spacing:normal;word-spacing:normal;text-transform:none;direction:ltr;block-progression:tb;writing-mode:lr-tb;text-anchor:start;baseline-shift:baseline;opacity:0.1;color:black;fill:none;stroke:#1f1f21;stroke-width:1.94628823;stroke-opacity:1;marker:none;visibility:visible;display:inline;overflow:visible;filter:url(#filter7724);enable-background:accumulate;font-family:Sans;-inkscape-font-specification:Sans" d="m 271.99479,111.34432 c -39.03434,0 -70.85916,31.79338 -70.85916,70.82773 0,39.03435 31.82482,70.85914 70.85916,70.85914 39.03435,0 70.82772,-31.82479 70.82772,-70.85914 0,-39.03435 -31.79337,-70.82773 -70.82772,-70.82773 z" id="path7793" sodipodi:nodetypes="sssss" />
         <g transform="translate(0.00165,0.0126)" id="g7795">
            <path style="color:black;fill:none;stroke:#9200a0;stroke-width:6.00000048;stroke-opacity:1;marker:none;visibility:visible;display:inline;overflow:visible;enable-background:accumulate" d="m 271.96866,152.26365 c -20.49238,0 -38.08598,12.3207 -45.74119,29.91149 7.65521,17.59078 25.24881,29.91149 45.74119,29.91149 20.49399,0 38.10443,-12.31851 45.75868,-29.91149 -7.65425,-17.59299 -25.26469,-29.91149 -45.75868,-29.91149 z" id="path7797" inkscape:connector-curvature="0" />
            <path sodipodi:type="arc" style="color:black;fill:#e2c5e3;fill-opacity:1;stroke:#9200a0;stroke-width:3.08585143;stroke-linecap:round;stroke-linejoin:round;stroke-miterlimit:4;stroke-opacity:1;stroke-dasharray:none;stroke-dashoffset:0;marker:none;visibility:visible;display:inline;overflow:visible;enable-background:accumulate" id="path7799" sodipodi:cx="81.796875" sodipodi:cy="203.38182" sodipodi:rx="27.804674" sodipodi:ry="27.804674" d="m 109.60155,203.38182 c 0,15.3561 -12.448577,27.80467 -27.804675,27.80467 -15.356098,0 -27.804674,-12.44857 -27.804674,-27.80467 0,-15.3561 12.448576,-27.80467 27.804674,-27.80467 15.356098,0 27.804675,12.44857 27.804675,27.80467 z" transform="matrix(0.64811934,0,0,0.64811934,218.96326,50.359458)" />
            <path d="m 109.60155,203.38182 c 0,15.3561 -12.448577,27.80467 -27.804675,27.80467 -15.356098,0 -27.804674,-12.44857 -27.804674,-27.80467 0,-15.3561 12.448576,-27.80467 27.804674,-27.80467 15.356098,0 27.804675,12.44857 27.804675,27.80467 z" sodipodi:ry="27.804674" sodipodi:rx="27.804674" sodipodi:cy="203.38182" sodipodi:cx="81.796875" id="path7801" style="color:black;fill:#9200a0;fill-opacity:1;stroke:none;stroke-width:2;marker:none;visibility:visible;display:inline;overflow:visible;enable-background:accumulate" sodipodi:type="arc" transform="matrix(0.45948519,0,0,0.45948519,234.39294,88.724211)" />
            <path transform="matrix(0.37790115,0,0,0.37790115,241.06627,105.31691)" sodipodi:type="arc" style="color:black;fill:none;stroke:#f6f6f4;stroke-width:5.29238939;stroke-linecap:round;stroke-opacity:1;marker:none;visibility:visible;display:inline;overflow:visible;enable-background:accumulate" id="path7803" sodipodi:cx="81.796875" sodipodi:cy="203.38182" sodipodi:rx="27.804674" sodipodi:ry="27.804674" d="m 53.992201,203.38182 c 0,-12.28728 8.065093,-23.11766 19.837087,-26.63865" sodipodi:start="3.1415927" sodipodi:end="4.4217592" sodipodi:open="true" />
         </g>
         <g id="g7805">
            <path inkscape:connector-curvature="0" style="font-size:medium;font-style:normal;font-variant:normal;font-weight:normal;font-stretch:normal;text-indent:0;text-align:start;text-decoration:none;line-height:normal;letter-spacing:normal;word-spacing:normal;text-transform:none;direction:ltr;block-progression:tb;writing-mode:lr-tb;text-anchor:start;baseline-shift:baseline;color:black;fill:url(#radialGradient7027);fill-opacity:1;stroke:#9200a0;stroke-width:1;stroke-opacity:0.45327107000000000;marker:none;visibility:visible;display:inline;overflow:visible;enable-background:accumulate;font-family:Sans;-inkscape-font-specification:Sans" d="m 271.99502,110.20594 c -39.66158,0 -71.99777,32.30425 -71.99777,71.96583 0,39.66158 32.33619,71.99777 71.99777,71.99777 39.66159,0 71.96584,-32.33619 71.96584,-71.99777 0,-39.66158 -32.30425,-71.96583 -71.96584,-71.96583 z m 0,16.32247 c 13.46897,0 25.79263,4.74226 35.39199,12.64912 l -78.38622,78.35428 c -7.89734,-9.60176 -12.64912,-21.90008 -12.64912,-35.36004 0,-30.823 24.82036,-55.64336 55.64335,-55.64336 z m 46.34817,24.81911 c 5.84999,8.81269 9.26325,19.40593 9.26325,30.82425 0,30.823 -24.78842,55.64335 -55.61142,55.64335 -11.43344,0 -22.03655,-3.42678 -30.85619,-9.29518 l 77.20436,-77.17242 z" id="path7807" />
            <path inkscape:connector-curvature="0" id="path7809" d="m 83.34375,134.3125 c -38.80207,0 -70.4375,31.60418 -70.4375,70.40625 0,38.80207 31.635432,70.4375 70.4375,70.4375 38.80207,0 70.40625,-31.63543 70.40625,-70.4375 0,-38.80207 -31.60418,-70.40625 -70.40625,-70.40625 z m 0,15.96875 c 13.177075,0 25.23367,4.63949 34.625,12.375 l -76.6875,76.65625 c -7.726196,-9.39368 -12.375,-21.42548 -12.375,-34.59375 0,-30.15503 24.282474,-54.4375 54.4375,-54.4375 z m 45.34375,24.28125 c 5.72321,8.62171 9.0625,18.98538 9.0625,30.15625 0,30.15503 -24.25122,54.4375 -54.40625,54.4375 -11.185664,0 -21.558995,-3.35252 -30.1875,-9.09375 l 75.53125,-75.5 z" style="font-size:medium;font-style:normal;font-variant:normal;font-weight:normal;font-stretch:normal;text-indent:0;text-align:start;text-decoration:none;line-height:normal;letter-spacing:normal;word-spacing:normal;text-transform:none;direction:ltr;block-progression:tb;writing-mode:lr-tb;text-anchor:start;baseline-shift:baseline;color:black;fill:none;stroke:white;stroke-width:2.93498683;stroke-opacity:1;marker:none;visibility:visible;display:inline;overflow:visible;filter:url(#filter7720);enable-background:accumulate;font-family:Sans;-inkscape-font-specification:Sans" clip-path="url(#clipPath7489)" transform="matrix(1.0221512,0,0,1.0221512,186.80511,-27.081748)" />
            <path inkscape:connector-curvature="0" clip-path="none" style="font-size:medium;font-style:normal;font-variant:normal;font-weight:normal;font-stretch:normal;text-indent:0;text-align:start;text-decoration:none;line-height:normal;letter-spacing:normal;word-spacing:normal;text-transform:none;direction:ltr;block-progression:tb;writing-mode:lr-tb;text-anchor:start;baseline-shift:baseline;color:black;fill:none;stroke:url(#linearGradient7813);stroke-width:0.99999994;stroke-opacity:1;marker:none;visibility:visible;display:inline;overflow:visible;enable-background:accumulate;font-family:Sans;-inkscape-font-specification:Sans" d="m 271.99479,111.34432 c -39.03434,0 -70.85916,31.79338 -70.85916,70.82773 0,39.03435 31.82482,70.85914 70.85916,70.85914 39.03435,0 70.82772,-31.82479 70.82772,-70.85914 0,-39.03435 -31.79337,-70.82773 -70.82772,-70.82773 z" id="path7811" sodipodi:nodetypes="sssss" />
         </g>
      </g>
   </g>
   <path transform="matrix(1.0015257,0,0,1.0015257,142.57111,58.554374)" d="M 98.999996,87.000001 161.1127,87.046679 205,131 204.95332,193.1127 161,237 98.887305,236.95332 55.000001,193 l 0.04668,-62.1127 z" inkscape:randomized="0" inkscape:rounded="0" inkscape:flatsided="true" sodipodi:arg2="-1.5700448" sodipodi:arg1="-1.9627439" sodipodi:r2="74.976685" sodipodi:r1="81.154175" sodipodi:cy="162" sodipodi:cx="130" sodipodi:sides="8" id="path7848" style="color:black;fill:none;stroke:white;stroke-width:2.99542952;stroke-opacity:1;marker:none;visibility:visible;display:inline;overflow:visible;filter:url(#filter7854);enable-background:accumulate" sodipodi:type="star" clip-path="url(#clipPath7860)" />
   <path transform="matrix(0.99096403,0,0,0.99096403,143.94413,60.265397)" d="M 98.999996,87.000001 161.1127,87.046679 205,131 204.95332,193.1127 161,237 98.887305,236.95332 55.000001,193 l 0.04668,-62.1127 z" inkscape:randomized="0" inkscape:rounded="0" inkscape:flatsided="true" sodipodi:arg2="-1.5700448" sodipodi:arg1="-1.9627439" sodipodi:r2="74.976685" sodipodi:r1="81.154175" sodipodi:cy="162" sodipodi:cx="130" sodipodi:sides="8" id="path7864" style="color:black;fill:none;stroke:url(#linearGradient7872);stroke-width:1.00911844;stroke-opacity:1;marker:none;visibility:visible;display:inline;overflow:visible;enable-background:accumulate" sodipodi:type="star" />
   <g id="g7004">
      <path sodipodi:nodetypes="ssccccccsscccccsscccccsssccccsssccccss" inkscape:connector-curvature="0" id="rect7898" d="m 271.09619,182.28009 c -2.94799,0 -5.77859,2.66996 -5.77859,5.98645 l 0,2.95165 0,2.36964 0,20.8902 -0.72751,0 0,-21.13964 -0.0208,-2.1202 c -0.91648,-2.12693 -2.76745,-3.61681 -5.23811,-3.61681 -3.31649,0 -5.98644,2.66996 -5.98644,5.98645 l 0,16.69137 0,1.99548 0,21.26435 0,0 0,-21.26435 c -0.71858,-0.30313 -2.22589,-0.83145 -3.05558,-0.83145 -3.31649,0 -5.98645,2.66996 -5.98645,5.98644 l 0,12.03526 0,13.83713 c 15.69634,18.04164 43.92829,17.79557 56.93359,-0.20474 l 0,-4.27858 0,-9.35381 0,-31.88614 c 0,-3.31649 -2.66996,-5.98644 -5.98645,-5.98644 -3.31648,0 -5.98644,2.66995 -5.98644,5.98644 l 0,20.47448 -0.72752,0 0,-21.13964 0.0208,-2.96926 0,-1.06328 c 3e-5,-2.92496 -2.47944,-5.27971 -5.4044,-5.27971 -2.92495,0 -5.86172,2.66996 -5.86172,5.98645 l 0,20.26661 -0.72753,0 0,-21.13963 0.0623,-3.04404 0,-2.06939 c 0,-2.94799 -2.58116,-5.32129 -5.52915,-5.32129 z" style="color:black;fill:none;stroke:#d8001d;stroke-width:6;stroke-linecap:round;stroke-linejoin:round;stroke-opacity:1;marker:none;visibility:visible;display:inline;overflow:visible;enable-background:accumulate" />
      <path sodipodi:nodetypes="cc" inkscape:connector-curvature="0" id="path7002" d="m 272.25,251.01517 c 0.0902,0.54106 13.5507,0.86702 21.19703,-7.77984" style="fill:none;stroke:#d8001d;stroke-width:1px;stroke-linecap:round;stroke-linejoin:miter;stroke-opacity:1" />
   </g>
</svg>
