<?xml version="1.0" encoding="UTF-8" standalone="no"?>
<!-- Created with Inkscape (http://www.inkscape.org/) -->

<svg xmlns:dc="http://purl.org/dc/elements/1.1/" xmlns:cc="http://creativecommons.org/ns#" xmlns:rdf="http://www.w3.org/1999/02/22-rdf-syntax-ns#" xmlns:svg="http://www.w3.org/2000/svg" xmlns="http://www.w3.org/2000/svg" xmlns:sodipodi="http://sodipodi.sourceforge.net/DTD/sodipodi-0.dtd" xmlns:inkscape="http://www.inkscape.org/namespaces/inkscape" width="16" height="16" id="svg2" version="1.1" inkscape:version="0.48.3.1 r9886" sodipodi:docname="extensions.svg">
   <defs id="defs4" />
   <sodipodi:namedview id="base" pagecolor="#454545" bordercolor="#666666" borderopacity="1.0" inkscape:pageopacity="1" inkscape:pageshadow="2" inkscape:zoom="1" inkscape:cx="58.451224" inkscape:cy="107.21506" inkscape:document-units="px" inkscape:current-layer="g4029" showgrid="false" showborder="true" inkscape:showpageshadow="false" inkscape:snap-global="true" inkscape:window-width="1366" inkscape:window-height="741" inkscape:window-x="0" inkscape:window-y="-2" inkscape:window-maximized="1" showguides="false" inkscape:guide-bbox="true" inkscape:object-nodes="true">
      <inkscape:grid type="xygrid" id="grid2985" empspacing="5" visible="true" enabled="true" snapvisiblegridlinesonly="true" />
      <sodipodi:guide orientation="0,1" position="21,15" id="guide3003" />
      <sodipodi:guide orientation="0,1" position="8,2" id="guide3005" />
   </sodipodi:namedview>
   <metadata id="metadata7">
      <rdf:RDF>
         <cc:Work rdf:about="">
            <dc:format>image/svg+xml</dc:format>
            <dc:type rdf:resource="http://purl.org/dc/dcmitype/StillImage" />
            <dc:title />
         </cc:Work>
      </rdf:RDF>
   </metadata>
   <g inkscape:label="Layer 1" inkscape:groupmode="layer" id="layer1" transform="translate(0,-1036.3622)">
      <path style="fill:white;fill-opacity:1;stroke:none" d="m -21.554977,902.41067 c -1.10801,0 -2,0.892 -2,2 l 0,9.00003 c 0,1.108 0.89199,2 2,2 l 10,0 c 1.10801,0 2,-0.892 2,-2 l 0,-9.00003 c 0,-1.108 -0.89199,-2 -2,-2 l -10,0 z m 3.09375,2.03125 2.03125,2.93748 2,-2.93748 1.6875,0.93748 -1.8125,3.0625 3.34375,0 0,1.9688 -3.34375,0 1.8125,3.0312 -1.6875,0.9375 -1.96875,-3 -2.0625,3 -1.65625,-0.9375 1.90625,-3.0312 -3.34375,0 0,-1.9688 3.34375,0 -1.90625,-3.0625 1.65625,-0.93748 z" id="path3254" inkscape:connector-curvature="0" />
      <path style="fill:white;fill-opacity:1;stroke:none" d="m -21.554977,922.1122 c -1.10801,0 -2,0.892 -2,2 l 0,9 c 0,1.108 0.89199,2 2,2 l 10,0 c 1.10801,0 2,-0.892 2,-2 l 0,-9 c 0,-1.108 -0.89199,-2 -2,-2 l -10,0 z m 3.6875,2.0312 2.625,0 -0.40625,3.4375 3.75,-0.9687 0.3125,2.3437 -3.40625,0.2188 2.25,2.7812 -2.28125,1.125 -1.59375,-2.9062 -1.375,2.9062 -2.375,-1.125 2.21875,-2.7812 -3.375,-0.25 0.375,-2.3125 3.6875,0.9687 -0.40625,-3.4375 z" id="path3245" inkscape:connector-curvature="0" />
      <g id="g5781" transform="translate(-3,689)">
         <path sodipodi:nodetypes="sscccsssssssccssscccsccc" inkscape:connector-curvature="0" id="path5648" d="m -167,253.375 c -5.9221,0 -5.26301,6.1979 -6,10 -0.44805,2.31149 -1,3 -1,3 2,-1.01282 4,-1.01282 7,-1.01282 5,2 7,0 7,0 0,0 -1,0.0128 -1,-1.98718 0,-3.36573 -0.3125,-10 -6,-10 z m 1.75,2.98718 c 0.60048,-0.0657 1.15997,0.55148 1.25,1.375 0.09,0.82352 -0.33702,1.5281 -0.9375,1.59375 -0.60048,0.0657 -1.15997,-0.55148 -1.25,-1.375 -0.09,-0.82352 0.33702,-1.5281 0.9375,-1.59375 z m -3.89062,-0.0157 c 0.0817,-0.004 0.16761,0.0142 0.25,0.0313 0.65916,0.13627 1.04272,0.87623 0.875,1.6875 -0.16772,0.81127 -0.84084,1.38627 -1.5,1.25 -0.65916,-0.13627 -1.04272,-0.90748 -0.875,-1.71875 0.14675,-0.70986 0.67782,-1.22546 1.25,-1.25 z m -1.45313,3.99724 c 0,0 6.35696,0.0313 6.8125,0.0313 -0.16133,0.6021 -1.01683,2.96875 -3.46875,2.96875 -2.45192,0 -3.34375,-2.99999 -3.34375,-3 z" style="fill:white;stroke:none" />
         <path style="fill:#2bb2ff;fill-opacity:1;stroke:none" d="m -167,232.875 c -5.9221,0 -5.26301,6.1979 -6,10 -0.44805,2.31149 -1,3 -1,3 2,-1.01282 4,-1.01282 7,-1.01282 5,2 7,0 7,0 0,0 -1,0.0128 -1,-1.98718 0,-3.36573 -0.3125,-10 -6,-10 z m 1.75,2.98718 c 0.60048,-0.0657 1.15997,0.55148 1.25,1.375 0.09,0.82352 -0.33702,1.5281 -0.9375,1.59375 -0.60048,0.0657 -1.15997,-0.55148 -1.25,-1.375 -0.09,-0.82352 0.33702,-1.5281 0.9375,-1.59375 z m -3.89062,-0.0157 c 0.0817,-0.004 0.16761,0.0142 0.25,0.0313 0.65916,0.13627 1.04272,0.87623 0.875,1.6875 -0.16772,0.81127 -0.84084,1.38627 -1.5,1.25 -0.65916,-0.13627 -1.04272,-0.90748 -0.875,-1.71875 0.14675,-0.70986 0.67782,-1.22546 1.25,-1.25 z m -1.45313,3.99724 c 0,0 6.35696,0.0313 6.8125,0.0313 -0.16133,0.6021 -1.01683,2.96875 -3.46875,2.96875 -2.45192,0 -3.34375,-2.99999 -3.34375,-3 z" id="path5740" inkscape:connector-curvature="0" sodipodi:nodetypes="sscccsssssssccssscccsccc" />
         <path style="fill:white;stroke:none" d="m -167,213.3622 c -5.9221,0 -5.26301,6.1979 -6,10 -0.44805,2.31149 -1,3 -1,3 2,-1.01282 4,-1.01282 7,-1.01282 5,2 7,0 7,0 0,0 -1,0.0128 -1,-1.98718 0,-3.36573 -0.3125,-10 -6,-10 z m 1.75,2.98718 c 0.60048,-0.0657 1.15997,0.55148 1.25,1.375 0.09,0.82352 -0.33702,1.5281 -0.9375,1.59375 -0.60048,0.0657 -1.15997,-0.55148 -1.25,-1.375 -0.09,-0.82352 0.33702,-1.5281 0.9375,-1.59375 z m -3.89062,-0.0157 c 0.0817,-0.004 0.16761,0.0142 0.25,0.0313 0.65916,0.13627 1.04272,0.87623 0.875,1.6875 -0.16772,0.81127 -0.84084,1.38627 -1.5,1.25 -0.65916,-0.13627 -1.04272,-0.90748 -0.875,-1.71875 0.14675,-0.70986 0.67782,-1.22546 1.25,-1.25 z M -170,222.3622 c 0,0 1,-2 3,-2 2,0 3,2 3,2 0,0 -1,-1 -3,-1 -2,0 -3,1 -3,1 z" id="path6834" inkscape:connector-curvature="0" sodipodi:nodetypes="sscccsssssssccsssccczczc" />
      </g>
      <path style="fill:white;fill-opacity:1;stroke:none" d="m -144.17897,942.4062 c -0.51124,0 -1.01451,0.2021 -1.40625,0.5938 l -4.96875,4.9375 c -0.78347,0.7835 -0.78347,2.0603 0,2.8437 l 4.625,4.5938 3.5,0 4.625,-4.5938 c 0.78347,-0.7834 0.78347,-2.0602 0,-2.8437 L -142.77272,943 c -0.39174,-0.3917 -0.89501,-0.5938 -1.40625,-0.5938 z m -1.125,2.2813 1.4375,1.4375 -4.4375,4.4375 -1.4375,-1.4375 4.4375,-4.4375 z m 0.25,3.875 1.4375,1.4375 -2.625,2.625 -1.4375,-1.4375 2.625,-2.625 z m 0.90625,3.2812 1.4375,1.4375 -1.4375,1.4375 -1.4375,-1.4375 1.4375,-1.4375 z" id="rect5793" inkscape:connector-curvature="0" />
      <g id="g7678" transform="translate(0.90835461,0.27626194)">
         <path inkscape:connector-curvature="0" id="path5839" d="m -120,952.3622 c -2.20914,0 -4,0.8008 -4,1.7886 0,0.4867 0.44841,0.9158 1.15385,1.2382 l 5.30769,0 c 0.12719,0 0.24023,0.01 0.35897,0.017 0.72386,-0.3236 1.17949,-0.7615 1.17949,-1.2554 0,-0.9878 -1.79086,-1.7886 -4,-1.7886 z" style="fill:white;fill-opacity:1;stroke:none" />
         <path sodipodi:nodetypes="ccc" inkscape:connector-curvature="0" id="path5844" d="m -122,953.3622 -2,-7 4,-1.409" style="fill:none;stroke:#fefefe;stroke-width:1.5;stroke-linecap:round;stroke-linejoin:round;stroke-opacity:1" />
         <path transform="matrix(0.8660254,-0.5,0.5,0.8660254,-147.77394,647.51042)" d="m -119.46875,273.64343 c 0,1.0528 -1.74889,1.90625 -3.90625,1.90625 -2.15736,0 -3.90625,-0.85345 -3.90625,-1.90625 0,-1.05279 1.74889,-1.90625 3.90625,-1.90625 2.15736,0 3.90625,0.85346 3.90625,1.90625 z" sodipodi:ry="1.90625" sodipodi:rx="3.90625" sodipodi:cy="273.64343" sodipodi:cx="-123.375" id="path5860" style="fill:none;stroke:white;stroke-width:1;stroke-linecap:round;stroke-linejoin:round;stroke-miterlimit:3.29999995;stroke-opacity:1;stroke-dasharray:none;stroke-dashoffset:0" sodipodi:type="arc" />
         <path sodipodi:nodetypes="sscszscss" inkscape:connector-curvature="0" id="path5862" d="m -119.41716,943.3758 c -2.12242,1.2254 -3.20569,3.3226 -2.41097,4.6991 0.25953,0.4495 0.69197,0.7525 1.22327,0.9312 -0.058,-0.053 -0.12632,-0.094 -0.16535,-0.1614 -0.46839,-0.8112 -0.0816,-2.5609 2.25357,-3.9092 2.33517,-1.3482 4.04386,-0.8083 4.51225,0 0.039,0.068 0.0398,0.147 0.0571,0.2239 0.11082,-0.5495 0.0647,-1.0754 -0.19486,-1.525 -0.79472,-1.3765 -3.15259,-1.4869 -5.27501,-0.2615 z" style="fill:white;stroke:none" />
         <rect transform="matrix(0.8660254,-0.5,0.5,0.8660254,0,0)" ry="0.70201904" rx="0.70201904" y="755.81342" x="-576.18658" height="2.1245401" width="2.1611516" id="rect5873" style="fill:white;fill-opacity:1;stroke:none" />
      </g>
      <path style="fill:white;fill-opacity:1;stroke:none" d="m -176,968.3622 c -0.554,0 -1,0.446 -1,1 l 0,4 c 0,0.554 0.446,1 1,1 l 6,0 c 0.554,0 1,-0.446 1,-1 l 0,-4 c 0,-0.554 -0.446,-1 -1,-1 l -6,0 z m 10,0 c -0.554,0 -1,0.446 -1,1 l 0,4 c 0,0.554 0.446,1 1,1 l 2,0 c 0.554,0 1,-0.446 1,-1 l 0,-4 c 0,-0.554 -0.446,-1 -1,-1 l -2,0 z m -10,8 c -0.554,0 -1,0.446 -1,1 l 0,3 c 0,0.554 0.446,1 1,1 l 3,0 c 0.554,0 1,-0.446 1,-1 l 0,-3 c 0,-0.554 -0.446,-1 -1,-1 l -3,0 z m 7,0 c -0.554,0 -1,0.446 -1,1 l 0,3 c 0,0.554 0.446,1 1,1 l 5,0 c 0.554,0 1,-0.446 1,-1 l 0,-3 c 0,-0.554 -0.446,-1 -1,-1 l -5,0 z" id="rect5875" inkscape:connector-curvature="0" />
      <g id="g5898" transform="matrix(1.0463216,0,0,1.0211104,-43.866608,-132.19406)">
         <path style="fill:white;fill-opacity:1;stroke:none" d="m -49.28125,1052.375 -3.90625,3.7187 0,5.2813 3.90625,3.7187 5.53125,0 3.90625,-3.7187 0,-5.2813 -3.90625,-3.7187 z m -0.274425,3.9207 1.360494,0 1.74498,4.8556 -1.153462,0 -0.354911,-0.9542 -1.833709,0 -0.354911,0.9542 -1.153462,0 z m 3.993175,0.027 1.625,0 c 0.35362,10e-5 0.671,0.01 0.9375,0.054 0.26649,0.042 0.50812,0.1179 0.6875,0.2146 0.17937,0.095 0.28531,0.2194 0.375,0.3756 0.09225,0.154 0.156246,0.3369 0.15625,0.5634 -4e-6,0.1364 -0.02407,0.2836 -0.0625,0.4023 -0.03844,0.1189 -0.08194,0.205 -0.15625,0.2952 -0.0743,0.09 -0.17363,0.1798 -0.28125,0.2414 -0.10507,0.059 -0.23663,0.087 -0.375,0.1073 l 0,0.027 c 0.14093,0.027 0.28581,0.083 0.40625,0.1342 0.123,0.048 0.22281,0.1 0.3125,0.1877 0.09225,0.086 0.167496,0.2168 0.21875,0.3488 0.05381,0.1319 0.06249,0.2937 0.0625,0.4829 -5e-6,0.2199 -0.03532,0.4164 -0.125,0.5901 -0.08969,0.1716 -0.205881,0.3083 -0.375,0.4293 -0.16657,0.1188 -0.38413,0.2044 -0.625,0.2682 -0.23831,0.064 -0.510135,0.1073 -0.8125,0.1073 l -1.96875,0 0,-4.8287 z m -3.312928,0.6439 c -0.0097,0.049 -0.01259,0.1218 -0.02962,0.1878 -0.01458,0.066 -0.03729,0.1398 -0.05915,0.2146 -0.0194,0.073 -0.03729,0.1398 -0.05915,0.2146 -0.02186,0.075 -0.03975,0.1486 -0.05915,0.2146 -0.0194,0.066 -0.04221,0.1104 -0.05915,0.161 -0.01458,0.051 -0.02234,0.11 -0.02962,0.1341 l -0.354912,1.1245 1.301342,0 -0.325241,-1.1243 c -0.01458,-0.04 -0.0301,-0.1244 -0.05915,-0.2146 -0.02905,-0.09 -0.08433,-0.1873 -0.118304,-0.2951 -0.03152,-0.11 -0.05962,-0.2119 -0.08868,-0.3219 -0.02905,-0.11 -0.04704,-0.2181 -0.05915,-0.2951 z m 4.289442,0.2927 0,0.9812 0.625,0 c 0.148475,0 0.27506,-0.01 0.375,-0.025 0.0999,-0.022 0.15725,-0.056 0.21875,-0.098 0.0615,-0.042 0.13062,-0.085 0.15625,-0.1472 0.0282,-0.064 0.0313,-0.1608 0.0313,-0.2453 0,-0.1689 -0.0829,-0.271 -0.21875,-0.3435 -0.13325,-0.075 -0.33295,-0.1226 -0.625,-0.1226 l -0.5625,0 z m 5e-5,1.9523 c 0,0.3285 0,0.9855 0,0.9855 l 0.6875,0 c 0.156256,0 0.30119,-0.018 0.40625,-0.042 0.10762,-0.024 0.18593,-0.039 0.25,-0.084 0.0666,-0.045 0.12806,-0.104 0.15625,-0.1677 0.0282,-0.064 0.0313,-0.1323 0.0313,-0.2097 0,-0.07 -0.003,-0.1319 -0.0313,-0.1887 -0.0282,-0.059 -0.0871,-0.1264 -0.15625,-0.1677 -0.0666,-0.041 -0.17107,-0.062 -0.28125,-0.084 -0.11019,-0.022 -0.242249,-0.042 -0.40625,-0.042 l -0.65625,0 0,6e-4 z" id="path5906" inkscape:connector-curvature="0" sodipodi:nodetypes="ccccccccccccccccccccccccccccccccccccscccccccccccccsccccccscscscsccccscccscccscac" />
      </g>
      <path style="fill:white;fill-opacity:1;stroke:none" d="m -71.715881,942.3906 c -1.10801,0 -2,0.892 -2,2 l 0,9 c 0,1.108 0.89199,2 2,2 l 10,0 c 1.10801,0 2,-0.892 2,-2 l 0,-9 c 0,-1.108 -0.89199,-2 -2,-2 z m 0,1 5,5.1563 5,-5.1563 0,3 0,1 -4,2 3,2 0,1 0,1 -4,-3 -4,3 0,-1 0,-1 3,-2 -4,-2 0,-1 z" id="rect3011" inkscape:connector-curvature="0" sodipodi:nodetypes="sssssssssccccccccccccccccc" />
      <path style="fill:white;fill-opacity:1;stroke:none" d="m -45.563641,942.3999 c -0.996975,0 -1.793887,0.797 -1.793887,1.794 l 0,9.3934 c 0,0.997 0.796912,1.794 1.793887,1.794 l 8.349726,0 c 0.996976,0 1.793887,-0.797 1.793887,-1.794 l 0,-9.3934 c 0,-0.997 -0.796911,-1.794 -1.793887,-1.794 z m 4.393613,1.6782 c 0.236166,0 0.467854,0 0.71875,0.031 0.244129,0.03 0.46586,0.073 0.6875,0.125 0.256646,0.06 0.478622,0.1479 0.6875,0.2187 0.213633,0.073 0.491631,0.1726 0.75,0.2813 0.03494,0.014 0.06702,0.035 0.09375,0.062 0.03074,0.036 0.05243,0.079 0.0625,0.125 0.01128,0.064 5.6e-5,0.131 -0.03125,0.1876 l -0.65625,1.4374 c -0.05092,0.102 -0.167762,0.1669 -0.28125,0.1563 -0.03273,0 -0.06462,-0.015 -0.09375,-0.031 -0.195811,-0.082 -0.35951,-0.1248 -0.53125,-0.1874 -0.15454,-0.057 -0.332315,-0.1119 -0.5,-0.1563 -0.148168,-0.039 -0.317227,-0.075 -0.46875,-0.094 -0.137694,-0.021 -0.285264,-0.031 -0.4375,-0.031 -0.303046,0 -0.462788,0.071 -0.59375,0.1875 -0.138988,0.124 -0.21875,0.2519 -0.21875,0.4375 0,0.096 0.0238,0.1977 0.0625,0.2813 0.01727,0.033 0.08762,0.079 0.21875,0.1874 0.138911,0.1111 0.253527,0.2302 0.40625,0.3126 0.182411,0.096 0.437788,0.2105 0.71875,0.3437 0.33691,0.1603 0.643174,0.2939 0.9375,0.4687 0.292006,0.1696 0.527294,0.4039 0.75,0.625 0.0056,0.01 0.02575,-0.01 0.03125,0 0.225352,0.2237 0.410595,0.4748 0.53125,0.75 0.130949,0.2991 0.187492,0.6328 0.1875,1 -8e-6,0.4229 -0.07564,0.8262 -0.25,1.1876 -0.165849,0.3493 -0.392091,0.6554 -0.71875,0.9062 -0.324129,0.2486 -0.757334,0.438 -1.1875,0.5625 -0.0093,0 -0.02194,0 -0.03125,0 -0.43298,0.1219 -0.915781,0.1875 -1.46875,0.1875 -0.488732,0 -0.973726,-0.034 -1.4375,-0.125 -0.46382,-0.092 -0.888843,-0.2542 -1.28125,-0.4375 -0.09219,-0.047 -0.15476,-0.1467 -0.15625,-0.25 l 0,-1.7187 c 7.26e-4,-0.043 0.0115,-0.086 0.03125,-0.125 0.0143,-0.035 0.03569,-0.067 0.0625,-0.094 0.03559,-0.031 0.07898,-0.053 0.125,-0.063 0.06359,-0.011 0.130948,-2e-4 0.1875,0.031 0.21853,0.094 0.414546,0.1969 0.625,0.2812 l 0,-0.031 c 0.186226,0.071 0.411095,0.1131 0.65625,0.1874 0.234623,0.07 0.463335,0.1532 0.65625,0.1876 0.217146,0.038 0.389454,0.062 0.59375,0.062 0.213296,0 0.412391,-0.029 0.53125,-0.062 0.112545,-0.032 0.204058,-0.094 0.28125,-0.1563 0.07917,-0.065 0.131715,-0.095 0.15625,-0.1563 -5.63e-4,-0.01 -5.63e-4,-0.021 0,-0.031 0.02771,-0.065 0.03125,-0.1334 0.03125,-0.25 -5e-6,-0.1479 -0.02009,-0.1849 -0.0625,-0.25 -0.05266,-0.088 -0.138155,-0.2283 -0.25,-0.3125 -0.01041,6e-4 -0.02084,6e-4 -0.03125,0 -0.121948,-0.098 -0.287539,-0.2191 -0.46875,-0.3125 -0.183165,-0.097 -0.406191,-0.195 -0.65625,-0.3125 -0.209826,-0.098 -0.428536,-0.2062 -0.6875,-0.3437 -0.266376,-0.1419 -0.560246,-0.3108 -0.8125,-0.5313 -0.254744,-0.2316 -0.434218,-0.5154 -0.59375,-0.8125 -0.180138,-0.34 -0.25,-0.7261 -0.25,-1.1562 0,-0.4273 0.08673,-0.8372 0.25,-1.1876 0.165898,-0.3495 0.386898,-0.6384 0.6875,-0.875 0.287958,-0.2311 0.612488,-0.4395 1.03125,-0.5624 0.422505,-0.1228 0.914752,-0.1563 1.40625,-0.1563 z" id="path3118" inkscape:connector-curvature="0" sodipodi:nodetypes="sssssssssccccccccccccccscccccccccccccccsccccccccccccscccccccccccccsccccc" />
      <g id="g3841" transform="translate(-0.42897,-95)">
         <path id="path3071" d="m -149.37294,1063.8553 c -0.48437,0 -0.87432,0.3727 -0.87432,0.8356 l 0,3.3427 c 0,0.4628 0.38995,0.8355 0.87432,0.8355 l 5.24588,0 c 0.48437,0 0.87431,-0.3727 0.87431,-0.8355 l 0,-3.3427 c 0,-0.4629 -0.38994,-0.8356 -0.87431,-0.8356 l -5.24588,0 z" style="fill:none;stroke:white;stroke-width:1.00000012" inkscape:connector-curvature="0" />
         <path id="path3069" d="m -139.75,1063.3622 c -0.554,0 -1,0.446 -1,1 l 0,4 c 0,0.554 0.446,1 1,1 l 2,0 c 0.554,0 1,-0.446 1,-1 l 0,-4 c 0,-0.554 -0.446,-1 -1,-1 l -2,0 z" style="fill:white;fill-opacity:1;stroke:none" inkscape:connector-curvature="0" />
         <path id="path3067" d="m -149.75,1071.3622 c -0.554,0 -1,0.446 -1,1 l 0,3 c 0,0.554 0.446,1 1,1 l 3,0 c 0.554,0 1,-0.446 1,-1 l 0,-3 c 0,-0.554 -0.446,-1 -1,-1 l -3,0 z" style="fill:white;fill-opacity:1;stroke:none" inkscape:connector-curvature="0" />
         <path id="path3043" d="m -142.75,1071.3622 c -0.554,0 -1,0.446 -1,1 l 0,3 c 0,0.554 0.446,1 1,1 l 5,0 c 0.554,0 1,-0.446 1,-1 l 0,-3 c 0,-0.554 -0.446,-1 -1,-1 l -5,0 z" style="fill:white;fill-opacity:1;stroke:none" inkscape:connector-curvature="0" />
      </g>
      <g id="g7672" transform="translate(1.619959,0)">
         <path id="path3063" d="m -125.60637,968.8704 c -0.48667,0 -0.87846,0.3689 -0.87846,0.827 l 0,3.3076 c 0,0.4581 0.39179,0.8269 0.87846,0.8269 l 5.2708,0 c 0.48667,0 0.87846,-0.3688 0.87846,-0.8269 l 0,-3.3076 c 0,-0.4581 -0.39179,-0.827 -0.87846,-0.827 l -5.2708,0 z" style="fill:none;stroke:white;stroke-width:0.99999994" inkscape:connector-curvature="0" />
         <path id="path3061" d="m -115.71685,968.8925 c -0.41322,0 -0.74589,0.3672 -0.74589,0.8233 l 0,3.2928 c 0,0.4561 0.33267,0.8233 0.74589,0.8233 l 1.49176,0 c 0.41322,0 0.74589,-0.3672 0.74589,-0.8233 l 0,-3.2928 c 0,-0.4561 -0.33267,-0.8233 -0.74589,-0.8233 l -1.49176,0 z" style="fill:none;stroke:white;stroke-width:1" inkscape:connector-curvature="0" />
         <path id="path3059" d="m -125.97097,976.3622 c -0.554,0 -1,0.446 -1,1 l 0,3 c 0,0.554 0.446,1 1,1 l 3,0 c 0.554,0 1,-0.446 1,-1 l 0,-3 c 0,-0.554 -0.446,-1 -1,-1 l -3,0 z" style="fill:white;fill-opacity:1;stroke:none" inkscape:connector-curvature="0" />
         <path id="path3045" d="m -118.97097,976.3622 c -0.554,0 -1,0.446 -1,1 l 0,3 c 0,0.554 0.446,1 1,1 l 5,0 c 0.554,0 1,-0.446 1,-1 l 0,-3 c 0,-0.554 -0.446,-1 -1,-1 l -5,0 z" style="fill:white;fill-opacity:1;stroke:none" inkscape:connector-curvature="0" />
      </g>
      <g id="g3863" transform="translate(2.4311975,-95)">
         <path inkscape:connector-curvature="0" id="path3047" d="m -94.013864,1071.3622 c -0.554,0 -1,0.446 -1,1 l 0,3 c 0,0.554 0.446,1 1,1 l 5,0 c 0.554,0 1,-0.446 1,-1 l 0,-3 c 0,-0.554 -0.446,-1 -1,-1 l -5,0 z" style="fill:white;fill-opacity:1;stroke:none" />
         <path inkscape:connector-curvature="0" style="fill:none;stroke:white;stroke-width:0.99999994" d="m -100.59246,1063.8704 c -0.48667,0 -0.87846,0.3689 -0.87846,0.827 l 0,3.3076 c 0,0.4581 0.39179,0.8269 0.87846,0.8269 l 5.270793,0 c 0.48667,0 0.87846,-0.3688 0.87846,-0.8269 l 0,-3.3076 c 0,-0.4581 -0.39179,-0.827 -0.87846,-0.827 l -5.270793,0 z" id="path3857" />
         <path inkscape:connector-curvature="0" style="fill:none;stroke:white;stroke-width:1" d="m -90.702947,1063.8925 c -0.41322,0 -0.74589,0.3672 -0.74589,0.8233 l 0,3.2928 c 0,0.4561 0.33267,0.8233 0.74589,0.8233 l 1.49176,0 c 0.41322,0 0.74589,-0.3672 0.74589,-0.8233 l 0,-3.2928 c 0,-0.4561 -0.33267,-0.8233 -0.74589,-0.8233 l -1.49176,0 z" id="path3859" />
         <path sodipodi:nodetypes="sssssssss" id="path3861" d="m -100.59246,1071.8973 c -0.48667,0 -0.87846,0.3689 -0.87846,0.827 l 0,2.3076 c 0,0.4581 0.39179,0.8269 0.87846,0.8269 l 2.208293,0 c 0.48667,0 0.87846,-0.3688 0.87846,-0.8269 l 0,-2.3076 c 0,-0.4581 -0.39179,-0.827 -0.87846,-0.827 z" style="fill:none;stroke:white;stroke-width:0.99999994" inkscape:connector-curvature="0" />
      </g>
      <g id="g7806" transform="translate(0.25222714,-95)">
         <path id="path3873" d="m -72.59246,1063.8704 c -0.48667,0 -0.87846,0.3689 -0.87846,0.827 l 0,3.3076 c 0,0.4581 0.39179,0.8269 0.87846,0.8269 l 5.270793,0 c 0.48667,0 0.87846,-0.3688 0.87846,-0.8269 l 0,-3.3076 c 0,-0.4581 -0.39179,-0.827 -0.87846,-0.827 l -5.270793,0 z" style="fill:none;stroke:white;stroke-width:0.99999994" inkscape:connector-curvature="0" />
         <path id="path3875" d="m -62.702947,1063.8925 c -0.41322,0 -0.74589,0.3672 -0.74589,0.8233 l 0,3.2928 c 0,0.4561 0.33267,0.8233 0.74589,0.8233 l 1.49176,0 c 0.41322,0 0.74589,-0.3672 0.74589,-0.8233 l 0,-3.2928 c 0,-0.4561 -0.33267,-0.8233 -0.74589,-0.8233 l -1.49176,0 z" style="fill:none;stroke:white;stroke-width:1" inkscape:connector-curvature="0" />
         <path inkscape:connector-curvature="0" style="fill:none;stroke:white;stroke-width:0.99999994" d="m -72.59246,1071.8973 c -0.48667,0 -0.87846,0.3689 -0.87846,0.827 l 0,2.3076 c 0,0.4581 0.39179,0.8269 0.87846,0.8269 l 2.208293,0 c 0.48667,0 0.87846,-0.3688 0.87846,-0.8269 l 0,-2.3076 c 0,-0.4581 -0.39179,-0.827 -0.87846,-0.827 z" id="path3877" sodipodi:nodetypes="sssssssss" />
         <path inkscape:connector-curvature="0" style="fill:none;stroke:white;stroke-width:0.99999994" d="m -65.59246,1071.8899 c -0.48667,0 -0.87846,0.3689 -0.87846,0.827 l 0,2.3076 c 0,0.4581 0.39179,0.8269 0.87846,0.8269 l 4.208293,0 c 0.48667,0 0.87846,-0.3688 0.87846,-0.8269 l 0,-2.3076 c 0,-0.4581 -0.39179,-0.827 -0.87846,-0.827 z" id="path3879" sodipodi:nodetypes="sssssssss" />
      </g>
      <path style="font-size:medium;font-style:normal;font-variant:normal;font-weight:normal;font-stretch:normal;text-indent:0;text-align:start;text-decoration:none;line-height:normal;letter-spacing:normal;word-spacing:normal;text-transform:none;direction:ltr;block-progression:tb;writing-mode:lr-tb;text-anchor:start;baseline-shift:baseline;color:black;fill:white;fill-opacity:1;stroke:none;stroke-width:2;marker:none;visibility:visible;display:inline;overflow:visible;enable-background:new;font-family:Sans;-inkscape-font-specification:Sans" d="m -38.879935,968.3622 0,2 -2,0 0,2 2,0 0,2 2,0 0,-2 2,0 0,-2 -2,0 0,-2 -2,0 z m -8.21875,4 c -0.447154,0.1001 -0.79228,0.5419 -0.78125,1 l 0,1.71875 c -0.0015,0.031 -0.0015,0.0627 0,0.0937 -0.02358,0.1235 -0.02358,0.2515 0,0.375 l 0,4.8125 c -0.0015,0.031 -0.0015,0.0627 0,0.0937 l 0,0.90625 0.84375,0 0.15625,0 8,0 0.09375,0 0.90625,0 0,-0.84375 c 0.0041,-0.052 0.0041,-0.10425 0,-0.15625 l 0,-4.84375 c 0.0041,-0.052 0.0041,-0.10425 0,-0.15625 l -1.5,0 -0.5,0 0,-0.5 0,-1.5 -1.5,0 -0.5,0 0,-0.5 0,-0.5 -5,0 c -0.07263,-0.01 -0.146125,-0.01 -0.21875,0 z m 1.21875,3 5,0 0,1 1,0 0,3 -6,0 0,-4 z" id="rect13039" inkscape:connector-curvature="0" />
      <path sodipodi:nodetypes="cccccccccccccccccccc" inkscape:connector-curvature="0" id="path3029" d="m -18.999429,942.8906 -2.006324,1.1465 2.43625,3.8535 -4.983594,0 0,1.9985 4.983594,0 -2.43625,3.855 2.006324,1.1465 2.436249,-3.855 2.436249,3.855 2.006324,-1.1465 -2.43625,-3.855 5,0 0,-1.9985 -5,0 2.43625,-3.8535 -2.006324,-1.1465 -2.436249,3.5591 -1.75454,-2.5632 z" style="font-size:medium;font-style:normal;font-variant:normal;font-weight:normal;font-stretch:normal;text-indent:0;text-align:start;text-decoration:none;line-height:normal;letter-spacing:normal;word-spacing:normal;text-transform:none;direction:ltr;block-progression:tb;writing-mode:lr-tb;text-anchor:start;baseline-shift:baseline;color:black;fill:white;fill-opacity:1;stroke:none;stroke-width:2;marker:none;visibility:visible;display:inline;overflow:visible;enable-background:accumulate;font-family:Sans;-inkscape-font-specification:Sans" />
      <path inkscape:connector-curvature="0" id="path3869" d="m 8.7699823,968.4247 c -3.85367,0 -7,3.1464 -7,7 0,3.8537 3.14633,7 7,7 3.8536697,0 6.9999997,-3.1463 6.9999997,-7 0,-3.8536 -3.14633,-7 -6.9999997,-7 z m -1,2.125 0,2.875 2,0 0,-2.875 c 1.9558417,0.3961 3.4788517,1.9191 3.8749997,3.875 l -2.875,0 0,2 2.875,0 c -0.396148,1.9558 -1.919158,3.4788 -3.8749997,3.875 l 0,-2.875 -2,0 0,2.875 c -1.955843,-0.3962 -3.478852,-1.9192 -3.875,-3.875 l 2.875,0 0,-2 -2.875,0 c 0.396148,-1.9559 1.919157,-3.4789 3.875,-3.875 z m 1,3.875 c -0.554,0 -1,0.446 -1,1 0,0.554 0.446,1 1,1 0.554,0 1,-0.446 1,-1 0,-0.554 -0.446,-1 -1,-1 z" style="font-size:medium;font-style:normal;font-variant:normal;font-weight:normal;font-stretch:normal;text-indent:0;text-align:start;text-decoration:none;line-height:normal;letter-spacing:normal;word-spacing:normal;text-transform:none;direction:ltr;block-progression:tb;writing-mode:lr-tb;text-anchor:start;baseline-shift:baseline;color:black;fill:white;fill-opacity:1;fill-rule:nonzero;stroke:none;stroke-width:2.80597591;marker:none;visibility:visible;display:inline;overflow:visible;enable-background:accumulate;font-family:Sans;-inkscape-font-specification:Sans" />
      <path sodipodi:nodetypes="sssssssssccccccccccccccccc" inkscape:connector-curvature="0" id="path5682" d="m -71.715881,902.41066 c -1.10801,0 -2,0.89204 -2,2.00004 l 0,9 c 0,1.108 0.89199,2 2,2 l 10,0 c 1.10801,0 2,-0.892 2,-2 l 0,-9 c 0,-1.108 -0.89199,-2.00004 -2,-2.00004 z m 0,1.00004 5,5.1563 5,-5.1563 0,3 0,1 -4,2 3,2 0,1 0,1 -4,-3 -4,3 0,-1 0,-1 3,-2 -4,-2 0,-1 z" style="fill:#0086c3;fill-opacity:1;stroke:none" />
      <g id="g7685" transform="translate(2.7450737,-1.190243)">
         <g transform="translate(0,-96.414214)" id="g4908">
            <path inkscape:connector-curvature="0" class="warning" style="color:#bebebe;fill:#f57900;fill-opacity:1;fill-rule:nonzero;stroke:none;stroke-width:2;marker:none;visibility:visible;display:inline;overflow:visible" d="m -69.046911,1025.6569 c -0.49245,0 -0.875,0.3826 -0.875,0.875 l 0,6.25 c 0,0.4924 0.38255,0.875 0.875,0.875 l 6.250001,0 c 0.49245,0 0.875,-0.3826 0.875,-0.875 l 0,-6.25 c 0,-0.4924 -0.38255,-0.875 -0.875,-0.875 l -6.250001,0 z m 2.125001,1 2,0 0,4 -2,0 0,-4 z m 0,5 2,0 0,1 -2,0 0,-1 z" id="path10898-2" sodipodi:nodetypes="ccccccccccccccccccc" />
         </g>
         <path inkscape:connector-curvature="0" id="path5684" d="m -75,922.3622 c -1.10801,0 -2,0.892 -2,2 l 0,9 c 0,1.108 0.89199,2 2,2 l 4.0625,0 0,-4.3125 -3.0625,2.3125 0,-1 0,-1 3,-2 -4,-2 0,-1 0,-3 4.8125,4.96875 c 0.115575,-0.0403 0.212338,-0.0937 0.34375,-0.0937 l 0.125,0 4.71875,-4.875 0,3 0,1 -1.75,0.875 3.75,0 0,-3.875 c 0,-1.108 -0.89199,-2 -2,-2 l -10,0 z" style="fill:white;fill-opacity:1;stroke:none" />
      </g>
      <g transform="matrix(1.25,0,0,1.25,16.480478,-258.82844)" id="g5686" />
      <g inkscape:label="software-update-urgent" id="g16905" transform="matrix(0.63673848,0,0,0.63673848,-83.854769,827.56285)" style="display:inline" />
      <path inkscape:connector-curvature="0" id="path5742" d="m -144.17897,922.1278 c -0.51124,0 -1.01451,0.2021 -1.40625,0.5938 l -4.96875,4.9375 c -0.78347,0.7835 -0.78347,2.0603 0,2.8437 l 4.625,4.5938 3.5,0 4.625,-4.5938 c 0.78347,-0.7834 0.78347,-2.0602 0,-2.8437 l -4.96875,-4.9375 c -0.39174,-0.3917 -0.89501,-0.5938 -1.40625,-0.5938 z m -1.125,2.2813 1.4375,1.4375 -4.4375,4.4375 -1.4375,-1.4375 4.4375,-4.4375 z m 0.25,3.875 1.4375,1.4375 -2.625,2.625 -1.4375,-1.4375 2.625,-2.625 z m 0.90625,3.2812 1.4375,1.4375 -1.4375,1.4375 -1.4375,-1.4375 1.4375,-1.4375 z" style="fill:#a9d024;fill-opacity:1;stroke:none" />
      <g id="g6119" transform="translate(25.82103,-95)">
         <path id="path6117" d="m -176,1086.6967 c -0.554,0 -1,0.446 -1,1 l 0,4 c 0,0.554 0.446,1 1,1 l 6,0 c 0.554,0 1,-0.446 1,-1 l 0,-4 c 0,-0.554 -0.446,-1 -1,-1 l -6,0 z" style="opacity:0.35;fill:white;fill-opacity:1;stroke:none" inkscape:connector-curvature="0" />
         <path id="path6115" d="m -166,1086.6967 c -0.554,0 -1,0.446 -1,1 l 0,4 c 0,0.554 0.446,1 1,1 l 2,0 c 0.554,0 1,-0.446 1,-1 l 0,-4 c 0,-0.554 -0.446,-1 -1,-1 l -2,0 z" style="fill:white;fill-opacity:1;stroke:none" inkscape:connector-curvature="0" />
         <path id="path6113" d="m -176,1094.6967 c -0.554,0 -1,0.446 -1,1 l 0,3 c 0,0.554 0.446,1 1,1 l 3,0 c 0.554,0 1,-0.446 1,-1 l 0,-3 c 0,-0.554 -0.446,-1 -1,-1 l -3,0 z" style="fill:white;fill-opacity:1;stroke:none" inkscape:connector-curvature="0" />
         <path id="path6109" d="m -169,1094.6967 c -0.554,0 -1,0.446 -1,1 l 0,3 c 0,0.554 0.446,1 1,1 l 5,0 c 0.554,0 1,-0.446 1,-1 l 0,-3 c 0,-0.554 -0.446,-1 -1,-1 l -5,0 z" style="fill:white;fill-opacity:1;stroke:none" inkscape:connector-curvature="0" />
      </g>
      <path inkscape:connector-curvature="0" id="path6125" d="m -176,991.6967 c -0.554,0 -1,0.446 -1,1 l 0,4 c 0,0.554 0.446,1 1,1 l 6,0 c 0.554,0 1,-0.446 1,-1 l 0,-4 c 0,-0.554 -0.446,-1 -1,-1 l -6,0 z m 10,0 c -0.554,0 -1,0.446 -1,1 l 0,4 c 0,0.554 0.446,1 1,1 l 2,0 c 0.554,0 1,-0.446 1,-1 l 0,-4 c 0,-0.554 -0.446,-1 -1,-1 l -2,0 z m -10,8 c -0.554,0 -1,0.446 -1,1 l 0,3 c 0,0.554 0.446,1 1,1 l 3,0 c 0.554,0 1,-0.446 1,-1 l 0,-3 c 0,-0.554 -0.446,-1 -1,-1 l -3,0 z m 7,0 c -0.554,0 -1,0.446 -1,1 l 0,3 c 0,0.554 0.446,1 1,1 l 5,0 c 0.554,0 1,-0.446 1,-1 l 0,-3 c 0,-0.554 -0.446,-1 -1,-1 l -5,0 z" style="fill:white;fill-opacity:1;stroke:none" />
      <g transform="translate(51.642059,-95)" id="g6127">
         <path inkscape:connector-curvature="0" style="opacity:0.35;fill:white;fill-opacity:1;stroke:none" d="m -176,1086.6967 c -0.554,0 -1,0.446 -1,1 l 0,4 c 0,0.554 0.446,1 1,1 l 6,0 c 0.554,0 1,-0.446 1,-1 l 0,-4 c 0,-0.554 -0.446,-1 -1,-1 l -6,0 z" id="path6129" />
         <path inkscape:connector-curvature="0" style="opacity:0.35;fill:white;fill-opacity:1;stroke:none" d="m -166,1086.6967 c -0.554,0 -1,0.446 -1,1 l 0,4 c 0,0.554 0.446,1 1,1 l 2,0 c 0.554,0 1,-0.446 1,-1 l 0,-4 c 0,-0.554 -0.446,-1 -1,-1 l -2,0 z" id="path6131" />
         <path inkscape:connector-curvature="0" style="fill:white;fill-opacity:1;stroke:none" d="m -176,1094.6967 c -0.554,0 -1,0.446 -1,1 l 0,3 c 0,0.554 0.446,1 1,1 l 3,0 c 0.554,0 1,-0.446 1,-1 l 0,-3 c 0,-0.554 -0.446,-1 -1,-1 l -3,0 z" id="path6133" />
         <path inkscape:connector-curvature="0" style="fill:white;fill-opacity:1;stroke:none" d="m -169,1094.6967 c -0.554,0 -1,0.446 -1,1 l 0,3 c 0,0.554 0.446,1 1,1 l 5,0 c 0.554,0 1,-0.446 1,-1 l 0,-3 c 0,-0.554 -0.446,-1 -1,-1 l -5,0 z" id="path6135" />
      </g>
      <g id="g6137" transform="translate(77.463089,-95)">
         <path id="path6139" d="m -176,1086.6967 c -0.554,0 -1,0.446 -1,1 l 0,4 c 0,0.554 0.446,1 1,1 l 6,0 c 0.554,0 1,-0.446 1,-1 l 0,-4 c 0,-0.554 -0.446,-1 -1,-1 l -6,0 z" style="opacity:0.35;fill:white;fill-opacity:1;stroke:none" inkscape:connector-curvature="0" />
         <path id="path6141" d="m -166,1086.6967 c -0.554,0 -1,0.446 -1,1 l 0,4 c 0,0.554 0.446,1 1,1 l 2,0 c 0.554,0 1,-0.446 1,-1 l 0,-4 c 0,-0.554 -0.446,-1 -1,-1 l -2,0 z" style="opacity:0.35;fill:white;fill-opacity:1;stroke:none" inkscape:connector-curvature="0" />
         <path id="path6143" d="m -176,1094.6967 c -0.554,0 -1,0.446 -1,1 l 0,3 c 0,0.554 0.446,1 1,1 l 3,0 c 0.554,0 1,-0.446 1,-1 l 0,-3 c 0,-0.554 -0.446,-1 -1,-1 l -3,0 z" style="opacity:0.35;fill:white;fill-opacity:1;stroke:none" inkscape:connector-curvature="0" />
         <path id="path6145" d="m -169,1094.6967 c -0.554,0 -1,0.446 -1,1 l 0,3 c 0,0.554 0.446,1 1,1 l 5,0 c 0.554,0 1,-0.446 1,-1 l 0,-3 c 0,-0.554 -0.446,-1 -1,-1 l -5,0 z" style="fill:white;fill-opacity:1;stroke:none" inkscape:connector-curvature="0" />
      </g>
      <g transform="translate(103.28412,-95)" id="g6147">
         <path inkscape:connector-curvature="0" style="opacity:0.35;fill:white;fill-opacity:1;stroke:none" d="m -176,1086.6967 c -0.554,0 -1,0.446 -1,1 l 0,4 c 0,0.554 0.446,1 1,1 l 6,0 c 0.554,0 1,-0.446 1,-1 l 0,-4 c 0,-0.554 -0.446,-1 -1,-1 l -6,0 z" id="path6149" />
         <path inkscape:connector-curvature="0" style="opacity:0.35;fill:white;fill-opacity:1;stroke:none" d="m -166,1086.6967 c -0.554,0 -1,0.446 -1,1 l 0,4 c 0,0.554 0.446,1 1,1 l 2,0 c 0.554,0 1,-0.446 1,-1 l 0,-4 c 0,-0.554 -0.446,-1 -1,-1 l -2,0 z" id="path6151" />
         <path inkscape:connector-curvature="0" style="opacity:0.35;fill:white;fill-opacity:1;stroke:none" d="m -176,1094.6967 c -0.554,0 -1,0.446 -1,1 l 0,3 c 0,0.554 0.446,1 1,1 l 3,0 c 0.554,0 1,-0.446 1,-1 l 0,-3 c 0,-0.554 -0.446,-1 -1,-1 l -3,0 z" id="path6153" />
         <path inkscape:connector-curvature="0" style="opacity:0.35;fill:white;fill-opacity:1;stroke:none" d="m -169,1094.6967 c -0.554,0 -1,0.446 -1,1 l 0,3 c 0,0.554 0.446,1 1,1 l 5,0 c 0.554,0 1,-0.446 1,-1 l 0,-3 c 0,-0.554 -0.446,-1 -1,-1 l -5,0 z" id="path6155" />
      </g>
      <g id="g3257" transform="translate(37.111232,-92.947846)">
         <path style="fill:white;fill-opacity:1;stroke:none" d="m -0.68204588,1061.538 c -1.24125602,0 -2.25001912,0.8826 -2.25000002,1.9688 -1.95e-5,0.7331 0.4764855,1.3493 1.15625,1.6875 l 0.03125,0.1875 -2.5625,0 c -0.7511029,0 -1.34375,0.5614 -1.34375,1.3125 l 0,1.5625 -0.21875,-0.031 c -0.339653,-0.6922 -0.958443,-1.1875 -1.6875,-1.1875 -1.0861447,0 -1.96875,1.0367 -1.96875,2.3125 0,1.2757 0.8826053,2.3125 1.96875,2.3125 0.733148,0 1.349297,-0.4575 1.6875,-1.1562 l 0.21875,-0.031 0,2.5313 c 0,0.751 0.5613971,1.3437 1.3125,1.3437 l 2.6875,0 0,-0.1875 c -0.6146,-0.3011 -1.03125,-0.8473 -1.03125,-1.5 0,-0.9669 0.90915,-1.75 2.03125002,-1.75 1.1222,0 2.03124998,0.7831 2.03124998,1.75 0,0.6491 -0.42234998,1.1976 -1.03124998,1.5 l 0,0.1875 2.62499998,0 c 0.751103,0 1.375,-0.5927 1.375,-1.3437 0,-3.9388 0,-2.7409 0,-6.3125 0,-0.7511 -0.561397,-1.3125 -1.3125,-1.3125 l -2.65624998,0 0.03125,-0.1875 c 0.67347398,-0.3397 1.15624598,-0.9585 1.15624998,-1.6875 -1.9e-5,-1.0862 -1.00860698,-1.9688 -2.24999998,-1.9688 z" id="path3242" inkscape:connector-curvature="0" sodipodi:nodetypes="ccccssccsssccssccsssccsccsccccc" />
      </g>
      <path style="fill:white;fill-opacity:1;stroke:none" d="m 55.275888,969.3622 0,2 4,0 0,-2 -4,0 z m 4,2 0,1 0,1 -1,0 0,-1 -2,0 0,1 -1,0 0,-1 0,-1 -1,0 -1,3 14,0 -1,-3 -1,0 0,1 0,1 -1,0 0,-1 -2,0 0,1 -1,0 0,-1 0,-1 -2,0 z m 2,0 4,0 0,-2 -4,0 0,2 z m -7.9375,4 0,6 14,0 0,-6 -14,0 z" id="path3292" inkscape:connector-curvature="0" />
      <path style="font-size:medium;font-style:normal;font-variant:normal;font-weight:normal;font-stretch:normal;text-indent:0;text-align:start;text-decoration:none;line-height:normal;letter-spacing:normal;word-spacing:normal;text-transform:none;direction:ltr;block-progression:tb;writing-mode:lr-tb;text-anchor:start;baseline-shift:baseline;color:black;fill:white;fill-opacity:1;stroke:none;stroke-width:2;marker:none;visibility:visible;display:inline;overflow:visible;enable-background:new;font-family:Sans;-inkscape-font-specification:Sans" d="m -22.279544,969.3622 c -0.447154,0.1001 -0.79228,0.5419 -0.78125,1 -0.0083,3.0147 0,8 0,8 l 4.09375,0 c -0.0666,-0.3255 -0.09375,-0.6548 -0.09375,-1 0,-0.3452 0.02715,-0.6745 0.09375,-1 l -2.09375,0 0,-4 6,0 0,0.094 c 0.325488,-0.067 0.654822,-0.094 1,-0.094 0.345178,0 0.674512,0.027 1,0.094 -0.0022,-0.7186 0.0075,-1.536 0,-2.0938 0,-0.5523 -0.447715,-1 -1,-1 l -8,0 c -0.07263,-0.01 -0.146125,-0.01 -0.21875,0 z m 8.21875,4 c -1.023689,0 -2.062701,0.3752 -2.84375,1.1563 -1.562097,1.5621 -1.562097,4.1254 0,5.6875 1.562097,1.5621 4.125403,1.5621 5.6875,0 1.5620972,-1.5621 1.5620972,-4.1254 0,-5.6875 -0.781049,-0.7811 -1.820061,-1.1563 -2.84375,-1.1563 z m 0,1.5 c 0.492166,0 0.979704,0.1339 1.40625,0.4063 l -3.5625,3.4375 c -0.657141,-0.9624 -0.532438,-2.2779 0.34375,-3.125 0.500679,-0.4843 1.15628,-0.7188 1.8125,-0.7188 z m 2.125,1.0938 c 0.681253,0.9652 0.573259,2.2686 -0.3125,3.125 -0.881342,0.8524 -2.253129,0.9918 -3.25,0.3437 l 3.5625,-3.4687 z" id="path3287" inkscape:connector-curvature="0" />
      <g style="display:inline" transform="matrix(1,0,0,-1,-18.37583,1252.5098)" inkscape:label="edit-undo" id="g6836">
         <g id="g6840" style="opacity:0.25" />
         <path sodipodi:nodetypes="csssc" inkscape:connector-curvature="0" id="path6842" d="m 23.323024,300.13257 6.5,0 c 1.380711,0 2.5,1.11929 2.5,2.5 0,1.38071 -1.119289,2.5 -2.5,2.5 l -6.5,0" style="color:black;fill:none;stroke:white;stroke-width:2;stroke-linecap:butt;stroke-linejoin:miter;stroke-miterlimit:4;stroke-opacity:1;stroke-dashoffset:0;marker:none;visibility:visible;display:inline;overflow:visible;enable-background:accumulate" />
         <path sodipodi:nodetypes="ccccccccccccc" id="path6844" d="m 26.387712,308.40801 0,-0.8151 c 0,-0.20939 -0.105825,-0.43075 -0.25472,-0.58586 l -1.859453,-1.85945 1.859453,-1.85945 c 0.148895,-0.15511 0.25472,-0.37647 0.25472,-0.58586 l 0,-0.8151 -0.815103,0 c -0.252233,0 -0.450198,0.0736 -0.611327,0.22925 l -2.98022,3.03116 2.98022,3.03116 c 0.161129,0.15565 0.359094,0.22925 0.611327,0.22925 z" style="font-size:medium;font-style:normal;font-variant:normal;font-weight:normal;font-stretch:normal;text-indent:0;text-align:start;text-decoration:none;line-height:normal;letter-spacing:normal;word-spacing:normal;text-transform:none;direction:ltr;block-progression:tb;writing-mode:lr-tb;text-anchor:start;color:#bebebe;fill:white;fill-opacity:1;stroke:none;stroke-width:2;marker:none;visibility:visible;display:inline;overflow:visible;enable-background:accumulate;font-family:Bitstream Vera Sans;-inkscape-font-specification:Bitstream Vera Sans" inkscape:connector-curvature="0" />
      </g>
      <g id="g6891" inkscape:label="edit-undo" transform="matrix(1,0,0,-1,-19.061086,1232.3477)" style="display:inline">
         <g style="opacity:0.25" id="g6895" />
         <path style="color:black;fill:none;stroke:white;stroke-width:2;stroke-linecap:butt;stroke-linejoin:miter;stroke-miterlimit:4;stroke-opacity:1;stroke-dashoffset:0;marker:none;visibility:visible;display:inline;overflow:visible;enable-background:accumulate" d="m 24.939527,300 6.5,0 c 1.380711,0 2.5,1.11929 2.5,2.5 0,1.38071 -1.119289,2.5 -2.5,2.5 l -5.480731,0" id="path6897" inkscape:connector-curvature="0" sodipodi:nodetypes="csssc" />
         <path style="font-size:medium;font-style:normal;font-variant:normal;font-weight:normal;font-stretch:normal;text-indent:0;text-align:start;text-decoration:none;line-height:normal;letter-spacing:normal;word-spacing:normal;text-transform:none;direction:ltr;block-progression:tb;writing-mode:lr-tb;text-anchor:start;color:#bebebe;fill:#ef2929;fill-opacity:1;stroke:none;stroke-width:2;marker:none;visibility:visible;display:inline;overflow:visible;enable-background:accumulate;font-family:Bitstream Vera Sans;-inkscape-font-specification:Bitstream Vera Sans" d="m 21.923397,307.94055 0,-0.73551 c 0,-0.18955 0.09153,-0.36878 0.22631,-0.5092 l 1.669037,-1.69732 -1.669037,-1.69733 c -0.134785,-0.14041 -0.22631,-0.31965 -0.22631,-0.50919 l 0,-0.73551 0.735508,0 c 0.228331,0 0.391626,0.0571 0.537486,0.19802 l 1.867058,1.89535 1.895347,-1.92364 c 0.14586,-0.1409 0.337444,-0.19802 0.565775,-0.19802 l 0.735508,0 0,0.73551 c 0,0.18955 -0.09152,0.39707 -0.22631,0.53748 l -1.697326,1.66904 1.697326,1.69733 c 0.134785,0.14041 0.22631,0.34793 0.22631,0.53748 l 0,0.73551 -0.735508,0 c -0.228331,0 -0.419915,-0.0854 -0.565775,-0.22631 l -1.867058,-1.89535 -1.895347,1.92364 c -0.14586,0.1409 -0.309155,0.19802 -0.537486,0.19802 l -0.735508,0 z" id="path6899" inkscape:connector-curvature="0" />
      </g>
      <g id="g3129" transform="translate(-0.09375,2)">
         <path inkscape:connector-curvature="0" id="path3106" d="m 84.09375,967.3622 c -2.964985,0 -5.431434,2.1652 -5.90625,5 l 2.0625,0 c 0.442278,-1.72878 1.970572,-3 3.84375,-3 1.873178,0 3.401472,1.27122 3.84375,3 l 2.0625,0 c -0.474816,-2.8348 -2.941265,-5 -5.90625,-5 z m -5.90625,7 c 0.474816,2.8348 2.941265,5 5.90625,5 2.964985,0 5.431434,-2.1652 5.90625,-5 l -2.0625,0 c -0.442278,1.72878 -1.970572,3 -3.84375,3 -1.873178,0 -3.401472,-1.27122 -3.84375,-3 l -2.0625,0 z" style="font-size:medium;font-style:normal;font-variant:normal;font-weight:normal;font-stretch:normal;text-indent:0;text-align:start;text-decoration:none;line-height:normal;letter-spacing:normal;word-spacing:normal;text-transform:none;direction:ltr;block-progression:tb;writing-mode:lr-tb;text-anchor:start;baseline-shift:baseline;color:black;fill:white;fill-opacity:1;stroke:none;stroke-width:2;marker:none;visibility:visible;display:inline;overflow:visible;enable-background:accumulate;font-family:Sans;-inkscape-font-specification:Sans" />
         <path sodipodi:nodetypes="cccc" inkscape:connector-curvature="0" id="path3114" d="m 78.09375,974.3622 5,0 -5,5 z" style="fill:white;stroke:none" />
         <path style="fill:white;stroke:none" d="m 90.09375,972.3622 -5,0 5,-5 z" id="path3116" inkscape:connector-curvature="0" sodipodi:nodetypes="cccc" />
      </g>
      <g transform="translate(-0.09375,24.8345)" id="g3134" style="fill:#2a7fff">
         <path style="font-size:medium;font-style:normal;font-variant:normal;font-weight:normal;font-stretch:normal;text-indent:0;text-align:start;text-decoration:none;line-height:normal;letter-spacing:normal;word-spacing:normal;text-transform:none;direction:ltr;block-progression:tb;writing-mode:lr-tb;text-anchor:start;baseline-shift:baseline;color:black;fill:#2a7fff;fill-opacity:1;stroke:none;stroke-width:2;marker:none;visibility:visible;display:inline;overflow:visible;enable-background:accumulate;font-family:Sans;-inkscape-font-specification:Sans" d="m 84.09375,967.3622 c -2.964985,0 -5.431434,2.1652 -5.90625,5 l 2.0625,0 c 0.442278,-1.72878 1.970572,-3 3.84375,-3 1.873178,0 3.401472,1.27122 3.84375,3 l 2.0625,0 c -0.474816,-2.8348 -2.941265,-5 -5.90625,-5 z m -5.90625,7 c 0.474816,2.8348 2.941265,5 5.90625,5 2.964985,0 5.431434,-2.1652 5.90625,-5 l -2.0625,0 c -0.442278,1.72878 -1.970572,3 -3.84375,3 -1.873178,0 -3.401472,-1.27122 -3.84375,-3 l -2.0625,0 z" id="path3136" inkscape:connector-curvature="0" />
         <path style="fill:#2a7fff;stroke:none" d="m 78.09375,974.3622 5,0 -5,5 z" id="path3138" inkscape:connector-curvature="0" sodipodi:nodetypes="cccc" />
         <path sodipodi:nodetypes="cccc" inkscape:connector-curvature="0" id="path3140" d="m 90.09375,972.3622 -5,0 5,-5 z" style="fill:#2a7fff;stroke:none" />
      </g>
      <path style="fill:white;fill-opacity:1;stroke:none" d="m 28.892347,943.37783 c 0,7 2,10 6,10 4,0 6,-3 6,-10 l -6,0 z m 2.625,2.82812 c 0.2512,-0.052 0.524969,0.0194 0.71875,0.1875 l 2.65625,2.0625 2.703125,-2.0625 c 0.09771,-0.0884 0.216556,-0.15319 0.34375,-0.1875 0.733804,-0.17617 1.308116,0.99742 0.71875,1.46875 l -2.921875,2.25 c -0.391281,0.22591 -0.632327,0.41773 -0.851563,0.41407 -0.219236,-0.004 -0.545325,-0.24628 -0.835937,-0.41407 l -2.875,-2.25 c -0.486569,-0.39355 -0.266933,-1.332 0.34375,-1.46875 z" id="path3215" inkscape:connector-curvature="0" sodipodi:nodetypes="cscccccccccczccc" />
      <g transform="matrix(1.0463216,0,0,1.0211104,109.80874,-132.19043)" id="g4029">
         <path style="fill:white;fill-opacity:1;stroke:none" d="m 58.25,-93.96875 -4.09375,3.8125 0,5.375 1.78125,1.65625 C 56.754016,-83.317851 57.488099,-83.704454 58,-84 c 0.631026,-0.364323 1.778314,-1.28376 2.53125,-4.09375 0.857065,-3.198613 2.388246,-4.849204 3.84375,-5.5625 l -0.34375,-0.3125 z m 8.125,2.28125 c -0.204628,0.01205 -0.50601,0.07946 -0.875,0.25 -0.68297,0.315655 -1.645932,1.116342 -2.375,3.4375 l 1.875002,0 0,2 L 62.5,-86 c -0.886571,2.308687 -2.152417,3.566656 -3.53125,4.0625 -0.507217,0.182401 -0.979394,0.247247 -1.4375,0.28125 l 0.71875,0.6875 5.78125,0 4.09375,-3.8125 0,-5.375 -1.625,-1.53125 c -0.05085,-0.0041 -0.04396,-0.0048 -0.125,0 z" transform="matrix(0.9557291,0,0,0.97932604,-104.94741,1144.394)" id="path4031" inkscape:connector-curvature="0" sodipodi:nodetypes="ccccsscccssccccsccccccs" />
      </g>
   </g>
</svg>
