<!-- Created with Inkscape (http://www.inkscape.org/) -->
<svg xmlns:rdf="http://www.w3.org/1999/02/22-rdf-syntax-ns#" xmlns="http://www.w3.org/2000/svg" version="1.1" xmlns:cc="http://creativecommons.org/ns#" xmlns:dc="http://purl.org/dc/elements/1.1/" viewBox="0 0 16 16">
 <defs></defs>
 <metadata>
  <rdf:RDF>
   <cc:Work rdf:about="">
    <dc:format>image/svg+xml</dc:format>
    <dc:type rdf:resource="http://purl.org/dc/dcmitype/StillImage"/>
    <dc:title/>
   </cc:Work>
  </rdf:RDF>
 </metadata>
 <g transform="translate(0,-1036.3622)">
  <g fill="#2e3436" transform="translate(-16.00003,1.9107285e-4)">
   <path d="m11.462,2.5c0,1.6361-1.3263,2.9624-2.9624,2.9624s-2.9624-1.3263-2.9624-2.9624,1.3263-2.9625,2.9624-2.9625,2.9624,1.3263,2.9624,2.9625z" transform="matrix(0,-0.55697142,0.55697142,0,22.6076,1042.7465)"/>
   <path opacity="0.125" d="m11.462,2.5c0,1.6361-1.3263,2.9624-2.9624,2.9624s-2.9624-1.3263-2.9624-2.9624,1.3263-2.9625,2.9624-2.9625,2.9624,1.3263,2.9624,2.9625z" transform="matrix(0.39383827,-0.39383827,0.39383827,0.39383827,24.157922,1042.2351)"/>
   <path opacity="0.25" d="m11.462,2.5c0,1.6361-1.3263,2.9624-2.9624,2.9624s-2.9624-1.3263-2.9624-2.9624,1.3263-2.9625,2.9624-2.9625,2.9624,1.3263,2.9624,2.9625z" transform="matrix(0.55697142,0,0,0.55697142,25.615743,1042.9698)"/>
   <path opacity="0.375" d="m11.462,2.5c0,1.6361-1.3263,2.9624-2.9624,2.9624s-2.9624-1.3263-2.9624-2.9624,1.3263-2.9625,2.9624-2.9625,2.9624,1.3263,2.9624,2.9625z" transform="matrix(0.39383827,0.39383827,-0.39383827,0.39383827,26.127079,1044.5201)"/>
   <path opacity="0.5" d="m11.462,2.5c0,1.6361-1.3263,2.9624-2.9624,2.9624s-2.9624-1.3263-2.9624-2.9624,1.3263-2.9625,2.9624-2.9625,2.9624,1.3263,2.9624,2.9625z" transform="matrix(0,0.55697142,-0.55697142,0,25.3924,1045.9779)"/>
   <path opacity="0.625" d="m11.462,2.5c0,1.6361-1.3263,2.9624-2.9624,2.9624s-2.9624-1.3263-2.9624-2.9624,1.3263-2.9625,2.9624-2.9625,2.9624,1.3263,2.9624,2.9625z" transform="matrix(-0.39383827,0.39383827,-0.39383827,-0.39383827,23.842078,1046.4892)"/>
   <path opacity="0.75" d="m11.462,2.5c0,1.6361-1.3263,2.9624-2.9624,2.9624s-2.9624-1.3263-2.9624-2.9624,1.3263-2.9625,2.9624-2.9625,2.9624,1.3263,2.9624,2.9625z" transform="matrix(-0.55697142,0,0,-0.55697142,22.384257,1045.7546)"/>
   <path opacity="0.875" d="m11.462,2.5c0,1.6361-1.3263,2.9624-2.9624,2.9624s-2.9624-1.3263-2.9624-2.9624,1.3263-2.9625,2.9624-2.9625,2.9624,1.3263,2.9624,2.9625z" transform="matrix(-0.39383827,-0.39383827,0.39383827,-0.39383827,21.872921,1044.2043)"/>
  </g>
 </g>
</svg>
