<?xml version="1.0" encoding="UTF-8" standalone="no"?>
<!-- Created with Inkscape (http://www.inkscape.org/) -->

<svg xmlns:dc="http://purl.org/dc/elements/1.1/" xmlns:cc="http://creativecommons.org/ns#" xmlns:rdf="http://www.w3.org/1999/02/22-rdf-syntax-ns#" xmlns:svg="http://www.w3.org/2000/svg" xmlns="http://www.w3.org/2000/svg" xmlns:xlink="http://www.w3.org/1999/xlink" xmlns:sodipodi="http://sodipodi.sourceforge.net/DTD/sodipodi-0.dtd" xmlns:inkscape="http://www.inkscape.org/namespaces/inkscape" width="159.97009" height="159.97009" id="svg6313" version="1.1" inkscape:version="0.48.4 r9939" sodipodi:docname="private-brosing.svg">
   <defs id="defs6315">
      <filter inkscape:collect="always" id="filter7724" color-interpolation-filters="sRGB">
         <feGaussianBlur inkscape:collect="always" stdDeviation="2.5102005" id="feGaussianBlur7726" />
      </filter>
      <radialGradient inkscape:collect="always" xlink:href="#linearGradient7019" id="radialGradient7027" cx="251.35364" cy="130.45561" fx="251.35364" fy="130.45561" r="72.481804" gradientTransform="matrix(0.3036305,1.040892,-1.0715901,0.31258526,314.82994,-171.95484)" gradientUnits="userSpaceOnUse" />
      <linearGradient inkscape:collect="always" id="linearGradient7019">
         <stop id="stop7023" offset="0" style="stop-color:#faf4fa;stop-opacity:1" />
         <stop id="stop7021" offset="1" style="stop-color:#e2c5e3;stop-opacity:0.24766356" />
      </linearGradient>
      <clipPath clipPathUnits="userSpaceOnUse" id="clipPath7489">
         <path id="path7491" d="m 83.34375,134.3125 c -38.80207,0 -70.4375,31.60418 -70.4375,70.40625 0,38.80207 31.635432,70.4375 70.4375,70.4375 38.80207,0 70.40625,-31.63543 70.40625,-70.4375 0,-38.80207 -31.60418,-70.40625 -70.40625,-70.40625 z m 0,15.96875 c 13.177075,0 25.23367,4.63949 34.625,12.375 l -76.6875,76.65625 c -7.726196,-9.39368 -12.375,-21.42548 -12.375,-34.59375 0,-30.15503 24.282474,-54.4375 54.4375,-54.4375 z m 45.34375,24.28125 c 5.72321,8.62171 9.0625,18.98538 9.0625,30.15625 0,30.15503 -24.25122,54.4375 -54.40625,54.4375 -11.185664,0 -21.558995,-3.35252 -30.1875,-9.09375 l 75.53125,-75.5 z" style="font-size:medium;font-style:normal;font-variant:normal;font-weight:normal;font-stretch:normal;text-indent:0;text-align:start;text-decoration:none;line-height:normal;letter-spacing:normal;word-spacing:normal;text-transform:none;direction:ltr;block-progression:tb;writing-mode:lr-tb;text-anchor:start;baseline-shift:baseline;color:black;fill:#e2c5e3;fill-opacity:0.60747663;stroke:#9200a0;stroke-width:1;stroke-opacity:0.19158882;marker:none;visibility:visible;display:inline;overflow:visible;enable-background:accumulate;font-family:Sans;-inkscape-font-specification:Sans" inkscape:connector-curvature="0" />
      </clipPath>
      <filter inkscape:collect="always" id="filter7720" color-interpolation-filters="sRGB">
         <feGaussianBlur inkscape:collect="always" stdDeviation="2.4647656" id="feGaussianBlur7722" />
      </filter>
      <linearGradient inkscape:collect="always" xlink:href="#linearGradient7515" id="linearGradient7813" gradientUnits="userSpaceOnUse" gradientTransform="matrix(1.0059862,0,0,1.0059862,188.15212,-23.772197)" x1="39.794983" y1="170.53819" x2="121.26907" y2="245.03435" />
      <linearGradient inkscape:collect="always" id="linearGradient7515">
         <stop style="stop-color:white;stop-opacity:1;" offset="0" id="stop7517" />
         <stop style="stop-color:white;stop-opacity:0;" offset="1" id="stop7519" />
      </linearGradient>
      <filter color-interpolation-filters="sRGB" inkscape:collect="always" id="filter7894">
         <feGaussianBlur inkscape:collect="always" stdDeviation="2.625" id="feGaussianBlur7896" />
      </filter>
      <clipPath clipPathUnits="userSpaceOnUse" id="clipPath7860">
         <path d="M 98.999996,87.000001 161.1127,87.046679 205,131 204.95332,193.1127 161,237 98.887305,236.95332 55.000001,193 l 0.04668,-62.1127 z" inkscape:randomized="0" inkscape:rounded="0" inkscape:flatsided="true" sodipodi:arg2="-1.5700448" sodipodi:arg1="-1.9627439" sodipodi:r2="74.976685" sodipodi:r1="81.154175" sodipodi:cy="162" sodipodi:cx="130" sodipodi:sides="8" id="path7862" style="color:black;fill:#d8001d;fill-opacity:0.20560746;fill-rule:nonzero;stroke:#d8001d;stroke-width:1;stroke-opacity:1;marker:none;visibility:visible;display:inline;overflow:visible;enable-background:accumulate" sodipodi:type="star" />
      </clipPath>
      <filter inkscape:collect="always" id="filter7854" color-interpolation-filters="sRGB">
         <feGaussianBlur inkscape:collect="always" stdDeviation="3" id="feGaussianBlur7856" />
      </filter>
      <linearGradient inkscape:collect="always" xlink:href="#linearGradient7866" id="linearGradient7872" x1="90.659828" y1="95.327644" x2="160.15457" y2="183.7404" gradientUnits="userSpaceOnUse" />
      <linearGradient inkscape:collect="always" id="linearGradient7866">
         <stop style="stop-color:white;stop-opacity:1;" offset="0" id="stop7868" />
         <stop style="stop-color:white;stop-opacity:0;" offset="1" id="stop7870" />
      </linearGradient>
   </defs>
   <sodipodi:namedview id="base" pagecolor="#ffffff" bordercolor="#666666" borderopacity="1.0" inkscape:pageopacity="0.0" inkscape:pageshadow="2" inkscape:zoom="1" inkscape:cx="412.84131" inkscape:cy="226.99487" inkscape:document-units="px" inkscape:current-layer="layer1" showgrid="false" fit-margin-top="0" fit-margin-left="0" fit-margin-right="0" fit-margin-bottom="0" inkscape:window-width="1366" inkscape:window-height="741" inkscape:window-x="0" inkscape:window-y="27" inkscape:window-maximized="1">
      <inkscape:grid type="xygrid" id="grid6499" empspacing="5" visible="true" enabled="true" snapvisiblegridlinesonly="true" />
   </sodipodi:namedview>
   <metadata id="metadata6318">
      <rdf:RDF>
         <cc:Work rdf:about="">
            <dc:format>image/svg+xml</dc:format>
            <dc:type rdf:resource="http://purl.org/dc/dcmitype/StillImage" />
            <dc:title></dc:title>
         </cc:Work>
      </rdf:RDF>
   </metadata>
   <g inkscape:label="Layer 1" inkscape:groupmode="layer" id="layer1" transform="translate(-357.1472,-595.23401)">
      <g transform="matrix(0.99705788,0,0,0.99705788,165.17634,451.18937)" id="g6242">
         <path transform="matrix(1.008889,0,0,1.008889,141.61392,57.295069)" d="M 98.999996,87.000001 161.1127,87.046679 205,131 204.95332,193.1127 161,237 98.887305,236.95332 55.000001,193 l 0.04668,-62.1127 z" inkscape:randomized="0" inkscape:rounded="0" inkscape:flatsided="true" sodipodi:arg2="-1.5700448" sodipodi:arg1="-1.9627439" sodipodi:r2="74.976685" sodipodi:r1="81.154175" sodipodi:cy="162" sodipodi:cx="130" sodipodi:sides="8" id="path7846" style="color:black;fill:#d8001d;fill-opacity:0.20560746;fill-rule:nonzero;stroke:#d8001d;stroke-width:0.99411416;stroke-opacity:0.45490196;marker:none;visibility:visible;display:inline;overflow:visible;enable-background:accumulate" sodipodi:type="star" />
         <path sodipodi:type="star" style="opacity:0.1;color:black;fill:none;stroke:#400009;stroke-width:2.01242876;stroke-opacity:1;marker:none;visibility:visible;display:inline;overflow:visible;filter:url(#filter7894);enable-background:accumulate" id="path7876" sodipodi:sides="8" sodipodi:cx="130" sodipodi:cy="162" sodipodi:r1="81.154175" sodipodi:r2="74.976685" sodipodi:arg1="-1.9627439" sodipodi:arg2="-1.5700448" inkscape:flatsided="true" inkscape:rounded="0" inkscape:randomized="0" d="M 98.999996,87.000001 161.1127,87.046679 205,131 204.95332,193.1127 161,237 98.887305,236.95332 55.000001,193 l 0.04668,-62.1127 z" transform="matrix(0.99675661,0,0,0.99675661,143.19113,62.747632)" />
         <path clip-path="url(#clipPath7860)" sodipodi:type="star" style="color:black;fill:none;stroke:white;stroke-width:3.0199945;stroke-opacity:1;marker:none;visibility:visible;display:inline;overflow:visible;filter:url(#filter7854);enable-background:accumulate" id="path7848" sodipodi:sides="8" sodipodi:cx="130" sodipodi:cy="162" sodipodi:r1="81.154175" sodipodi:r2="74.976685" sodipodi:arg1="-1.9627439" sodipodi:arg2="-1.5700448" inkscape:flatsided="true" inkscape:rounded="0" inkscape:randomized="0" d="M 98.999996,87.000001 161.1127,87.046679 205,131 204.95332,193.1127 161,237 98.887305,236.95332 55.000001,193 l 0.04668,-62.1127 z" transform="matrix(0.99631056,0,0,0.99631056,143.24907,59.26625)" />
         <path sodipodi:type="star" style="color:black;fill:none;stroke:url(#linearGradient7872);stroke-width:1.00748312;stroke-opacity:1;marker:none;visibility:visible;display:inline;overflow:visible;enable-background:accumulate" id="path7864" sodipodi:sides="8" sodipodi:cx="130" sodipodi:cy="162" sodipodi:r1="81.154175" sodipodi:r2="74.976685" sodipodi:arg1="-1.9627439" sodipodi:arg2="-1.5700448" inkscape:flatsided="true" inkscape:rounded="0" inkscape:randomized="0" d="M 98.999996,87.000001 161.1127,87.046679 205,131 204.95332,193.1127 161,237 98.887305,236.95332 55.000001,193 l 0.04668,-62.1127 z" transform="matrix(0.99550146,0,0,0.99550146,143.35427,59.463847)" />
         <g id="g7004">
            <path style="color:black;fill:none;stroke:#d8001d;stroke-width:6.01770496;stroke-linecap:round;stroke-linejoin:round;stroke-opacity:1;marker:none;visibility:visible;display:inline;overflow:visible;enable-background:accumulate" d="m 271.09619,182.28009 c -2.94799,0 -5.77859,2.66996 -5.77859,5.98645 l 0,2.95165 0,2.36964 0,20.8902 -0.72751,0 0,-21.13964 -0.0208,-2.1202 c -0.91648,-2.12693 -2.76745,-3.61681 -5.23811,-3.61681 -3.31649,0 -5.98644,2.66996 -5.98644,5.98645 l 0,16.69137 0,1.99548 0,21.26435 0,0 0,-21.26435 c -0.71858,-0.30313 -2.22589,-0.83145 -3.05558,-0.83145 -3.31649,0 -5.98645,2.66996 -5.98645,5.98644 l 0,12.03526 0,13.83713 c 15.69634,18.04164 43.92829,17.79557 56.93359,-0.20474 l 0,-4.27858 0,-9.35381 0,-31.88614 c 0,-3.31649 -2.66996,-5.98644 -5.98645,-5.98644 -3.31648,0 -5.98644,2.66995 -5.98644,5.98644 l 0,20.47448 -0.72752,0 0,-21.13964 0.0208,-2.96926 0,-1.06328 c 3e-5,-2.92496 -2.47944,-5.27971 -5.4044,-5.27971 -2.92495,0 -5.86172,2.66996 -5.86172,5.98645 l 0,20.26661 -0.72753,0 0,-21.13963 0.0623,-3.04404 0,-2.06939 c 0,-2.94799 -2.58116,-5.32129 -5.52915,-5.32129 z" id="rect7898" inkscape:connector-curvature="0" sodipodi:nodetypes="ssccccccsscccccsscccccsssccccsssccccss" />
            <path style="fill:none;stroke:#d8001d;stroke-width:1.00295079px;stroke-linecap:round;stroke-linejoin:miter;stroke-opacity:1" d="m 272.25,251.01517 c 0.0902,0.54106 13.5507,0.86702 21.19703,-7.77984" id="path7002" inkscape:connector-curvature="0" sodipodi:nodetypes="cc" />
         </g>
      </g>
   </g>
</svg>
