<?xml version="1.0" encoding="UTF-8" standalone="no"?>
<!-- Created with Inkscape (http://www.inkscape.org/) -->

<svg xmlns:dc="http://purl.org/dc/elements/1.1/" xmlns:cc="http://creativecommons.org/ns#" xmlns:rdf="http://www.w3.org/1999/02/22-rdf-syntax-ns#" xmlns:svg="http://www.w3.org/2000/svg" xmlns="http://www.w3.org/2000/svg" xmlns:xlink="http://www.w3.org/1999/xlink" xmlns:sodipodi="http://sodipodi.sourceforge.net/DTD/sodipodi-0.dtd" xmlns:inkscape="http://www.inkscape.org/namespaces/inkscape" width="159.97009" height="159.97009" id="svg6313" version="1.1" inkscape:version="0.48.4 r9939" sodipodi:docname="New document 3">
   <defs id="defs6315">
      <filter inkscape:collect="always" id="filter7724" color-interpolation-filters="sRGB">
         <feGaussianBlur inkscape:collect="always" stdDeviation="2.5102005" id="feGaussianBlur7726" />
      </filter>
      <radialGradient inkscape:collect="always" xlink:href="#linearGradient7019" id="radialGradient7027" cx="251.35364" cy="130.45561" fx="251.35364" fy="130.45561" r="72.481804" gradientTransform="matrix(0.3036305,1.040892,-1.0715901,0.31258526,314.82994,-171.95484)" gradientUnits="userSpaceOnUse" />
      <linearGradient inkscape:collect="always" id="linearGradient7019">
         <stop id="stop7023" offset="0" style="stop-color:#faf4fa;stop-opacity:1" />
         <stop id="stop7021" offset="1" style="stop-color:#e2c5e3;stop-opacity:0.24766356" />
      </linearGradient>
      <clipPath clipPathUnits="userSpaceOnUse" id="clipPath7489">
         <path id="path7491" d="m 83.34375,134.3125 c -38.80207,0 -70.4375,31.60418 -70.4375,70.40625 0,38.80207 31.635432,70.4375 70.4375,70.4375 38.80207,0 70.40625,-31.63543 70.40625,-70.4375 0,-38.80207 -31.60418,-70.40625 -70.40625,-70.40625 z m 0,15.96875 c 13.177075,0 25.23367,4.63949 34.625,12.375 l -76.6875,76.65625 c -7.726196,-9.39368 -12.375,-21.42548 -12.375,-34.59375 0,-30.15503 24.282474,-54.4375 54.4375,-54.4375 z m 45.34375,24.28125 c 5.72321,8.62171 9.0625,18.98538 9.0625,30.15625 0,30.15503 -24.25122,54.4375 -54.40625,54.4375 -11.185664,0 -21.558995,-3.35252 -30.1875,-9.09375 l 75.53125,-75.5 z" style="font-size:medium;font-style:normal;font-variant:normal;font-weight:normal;font-stretch:normal;text-indent:0;text-align:start;text-decoration:none;line-height:normal;letter-spacing:normal;word-spacing:normal;text-transform:none;direction:ltr;block-progression:tb;writing-mode:lr-tb;text-anchor:start;baseline-shift:baseline;color:black;fill:#e2c5e3;fill-opacity:0.60747663;stroke:#9200a0;stroke-width:1;stroke-opacity:0.19158882;marker:none;visibility:visible;display:inline;overflow:visible;enable-background:accumulate;font-family:Sans;-inkscape-font-specification:Sans" inkscape:connector-curvature="0" />
      </clipPath>
      <filter inkscape:collect="always" id="filter7720" color-interpolation-filters="sRGB">
         <feGaussianBlur inkscape:collect="always" stdDeviation="2.4647656" id="feGaussianBlur7722" />
      </filter>
      <linearGradient inkscape:collect="always" xlink:href="#linearGradient7515" id="linearGradient7813" gradientUnits="userSpaceOnUse" gradientTransform="matrix(1.0059862,0,0,1.0059862,188.15212,-23.772197)" x1="39.794983" y1="170.53819" x2="121.26907" y2="245.03435" />
      <linearGradient inkscape:collect="always" id="linearGradient7515">
         <stop style="stop-color:white;stop-opacity:1;" offset="0" id="stop7517" />
         <stop style="stop-color:white;stop-opacity:0;" offset="1" id="stop7519" />
      </linearGradient>
   </defs>
   <sodipodi:namedview id="base" pagecolor="#ffffff" bordercolor="#666666" borderopacity="1.0" inkscape:pageopacity="0.0" inkscape:pageshadow="2" inkscape:zoom="1" inkscape:cx="223.93689" inkscape:cy="62.736789" inkscape:document-units="px" inkscape:current-layer="layer1" showgrid="false" fit-margin-top="0" fit-margin-left="0" fit-margin-right="0" fit-margin-bottom="0" inkscape:window-width="1366" inkscape:window-height="741" inkscape:window-x="0" inkscape:window-y="27" inkscape:window-maximized="1" />
   <metadata id="metadata6318">
      <rdf:RDF>
         <cc:Work rdf:about="">
            <dc:format>image/svg+xml</dc:format>
            <dc:type rdf:resource="http://purl.org/dc/dcmitype/StillImage" />
            <dc:title></dc:title>
         </cc:Work>
      </rdf:RDF>
   </metadata>
   <g inkscape:label="Layer 1" inkscape:groupmode="layer" id="layer1" transform="translate(-357.1472,-595.23401)">
      <g transform="translate(165.16377,489.03156)" id="g7791">
         <path sodipodi:nodetypes="sssss" id="path7793" d="m 271.99479,111.34432 c -39.03434,0 -70.85916,31.79338 -70.85916,70.82773 0,39.03435 31.82482,70.85914 70.85916,70.85914 39.03435,0 70.82772,-31.82479 70.82772,-70.85914 0,-39.03435 -31.79337,-70.82773 -70.82772,-70.82773 z" style="font-size:medium;font-style:normal;font-variant:normal;font-weight:normal;font-stretch:normal;text-indent:0;text-align:start;text-decoration:none;line-height:normal;letter-spacing:normal;word-spacing:normal;text-transform:none;direction:ltr;block-progression:tb;writing-mode:lr-tb;text-anchor:start;baseline-shift:baseline;opacity:0.1;color:black;fill:none;stroke:#1f1f21;stroke-width:1.94628823;stroke-opacity:1;marker:none;visibility:visible;display:inline;overflow:visible;filter:url(#filter7724);enable-background:accumulate;font-family:Sans;-inkscape-font-specification:Sans" clip-path="none" inkscape:connector-curvature="0" transform="matrix(1.027597,0,0,1.027597,-7.5057934,-1.0278268)" />
         <g id="g7795" transform="translate(0.00165,0.0126)">
            <path inkscape:connector-curvature="0" id="path7797" d="m 271.96866,152.26365 c -20.49238,0 -38.08598,12.3207 -45.74119,29.91149 7.65521,17.59078 25.24881,29.91149 45.74119,29.91149 20.49399,0 38.10443,-12.31851 45.75868,-29.91149 -7.65425,-17.59299 -25.26469,-29.91149 -45.75868,-29.91149 z" style="color:black;fill:none;stroke:#9200a0;stroke-width:6.00000048;stroke-opacity:1;marker:none;visibility:visible;display:inline;overflow:visible;enable-background:accumulate" />
            <path transform="matrix(0.64811934,0,0,0.64811934,218.96326,50.359458)" d="m 109.60155,203.38182 c 0,15.3561 -12.448577,27.80467 -27.804675,27.80467 -15.356098,0 -27.804674,-12.44857 -27.804674,-27.80467 0,-15.3561 12.448576,-27.80467 27.804674,-27.80467 15.356098,0 27.804675,12.44857 27.804675,27.80467 z" sodipodi:ry="27.804674" sodipodi:rx="27.804674" sodipodi:cy="203.38182" sodipodi:cx="81.796875" id="path7799" style="color:black;fill:#e2c5e3;fill-opacity:1;stroke:#9200a0;stroke-width:3.08585143;stroke-linecap:round;stroke-linejoin:round;stroke-miterlimit:4;stroke-opacity:1;stroke-dasharray:none;stroke-dashoffset:0;marker:none;visibility:visible;display:inline;overflow:visible;enable-background:accumulate" sodipodi:type="arc" />
            <path transform="matrix(0.45948519,0,0,0.45948519,234.39294,88.724211)" sodipodi:type="arc" style="color:black;fill:#9200a0;fill-opacity:1;stroke:none;stroke-width:2;marker:none;visibility:visible;display:inline;overflow:visible;enable-background:accumulate" id="path7801" sodipodi:cx="81.796875" sodipodi:cy="203.38182" sodipodi:rx="27.804674" sodipodi:ry="27.804674" d="m 109.60155,203.38182 c 0,15.3561 -12.448577,27.80467 -27.804675,27.80467 -15.356098,0 -27.804674,-12.44857 -27.804674,-27.80467 0,-15.3561 12.448576,-27.80467 27.804674,-27.80467 15.356098,0 27.804675,12.44857 27.804675,27.80467 z" />
            <path sodipodi:open="true" sodipodi:end="4.4217592" sodipodi:start="3.1415927" d="m 53.992201,203.38182 c 0,-12.28728 8.065093,-23.11766 19.837087,-26.63865" sodipodi:ry="27.804674" sodipodi:rx="27.804674" sodipodi:cy="203.38182" sodipodi:cx="81.796875" id="path7803" style="color:black;fill:none;stroke:#f6f6f4;stroke-width:5.29238939;stroke-linecap:round;stroke-opacity:1;marker:none;visibility:visible;display:inline;overflow:visible;enable-background:accumulate" sodipodi:type="arc" transform="matrix(0.37790115,0,0,0.37790115,241.06627,105.31691)" />
         </g>
         <g id="g7805">
            <path id="path7807" d="m 271.99502,110.20594 c -39.66158,0 -71.99777,32.30425 -71.99777,71.96583 0,39.66158 32.33619,71.99777 71.99777,71.99777 39.66159,0 71.96584,-32.33619 71.96584,-71.99777 0,-39.66158 -32.30425,-71.96583 -71.96584,-71.96583 z m 0,16.32247 c 13.46897,0 25.79263,4.74226 35.39199,12.64912 l -78.38622,78.35428 c -7.89734,-9.60176 -12.64912,-21.90008 -12.64912,-35.36004 0,-30.823 24.82036,-55.64336 55.64335,-55.64336 z m 46.34817,24.81911 c 5.84999,8.81269 9.26325,19.40593 9.26325,30.82425 0,30.823 -24.78842,55.64335 -55.61142,55.64335 -11.43344,0 -22.03655,-3.42678 -30.85619,-9.29518 l 77.20436,-77.17242 z" style="font-size:medium;font-style:normal;font-variant:normal;font-weight:normal;font-stretch:normal;text-indent:0;text-align:start;text-decoration:none;line-height:normal;letter-spacing:normal;word-spacing:normal;text-transform:none;direction:ltr;block-progression:tb;writing-mode:lr-tb;text-anchor:start;baseline-shift:baseline;color:black;fill:url(#radialGradient7027);fill-opacity:1;stroke:#9200a0;stroke-width:1;stroke-opacity:0.45327107;marker:none;visibility:visible;display:inline;overflow:visible;enable-background:accumulate;font-family:Sans;-inkscape-font-specification:Sans" inkscape:connector-curvature="0" />
            <path transform="matrix(1.0221512,0,0,1.0221512,186.80511,-27.081748)" clip-path="url(#clipPath7489)" style="font-size:medium;font-style:normal;font-variant:normal;font-weight:normal;font-stretch:normal;text-indent:0;text-align:start;text-decoration:none;line-height:normal;letter-spacing:normal;word-spacing:normal;text-transform:none;direction:ltr;block-progression:tb;writing-mode:lr-tb;text-anchor:start;baseline-shift:baseline;color:black;fill:none;stroke:white;stroke-width:2.93498683;stroke-opacity:1;marker:none;visibility:visible;display:inline;overflow:visible;filter:url(#filter7720);enable-background:accumulate;font-family:Sans;-inkscape-font-specification:Sans" d="m 83.34375,134.3125 c -38.80207,0 -70.4375,31.60418 -70.4375,70.40625 0,38.80207 31.635432,70.4375 70.4375,70.4375 38.80207,0 70.40625,-31.63543 70.40625,-70.4375 0,-38.80207 -31.60418,-70.40625 -70.40625,-70.40625 z m 0,15.96875 c 13.177075,0 25.23367,4.63949 34.625,12.375 l -76.6875,76.65625 c -7.726196,-9.39368 -12.375,-21.42548 -12.375,-34.59375 0,-30.15503 24.282474,-54.4375 54.4375,-54.4375 z m 45.34375,24.28125 c 5.72321,8.62171 9.0625,18.98538 9.0625,30.15625 0,30.15503 -24.25122,54.4375 -54.40625,54.4375 -11.185664,0 -21.558995,-3.35252 -30.1875,-9.09375 l 75.53125,-75.5 z" id="path7809" inkscape:connector-curvature="0" />
            <path sodipodi:nodetypes="sssss" id="path7811" d="m 271.99479,111.34432 c -39.03434,0 -70.85916,31.79338 -70.85916,70.82773 0,39.03435 31.82482,70.85914 70.85916,70.85914 39.03435,0 70.82772,-31.82479 70.82772,-70.85914 0,-39.03435 -31.79337,-70.82773 -70.82772,-70.82773 z" style="font-size:medium;font-style:normal;font-variant:normal;font-weight:normal;font-stretch:normal;text-indent:0;text-align:start;text-decoration:none;line-height:normal;letter-spacing:normal;word-spacing:normal;text-transform:none;direction:ltr;block-progression:tb;writing-mode:lr-tb;text-anchor:start;baseline-shift:baseline;color:black;fill:none;stroke:url(#linearGradient7813);stroke-width:0.99999994;stroke-opacity:1;marker:none;visibility:visible;display:inline;overflow:visible;enable-background:accumulate;font-family:Sans;-inkscape-font-specification:Sans" clip-path="none" inkscape:connector-curvature="0" />
         </g>
      </g>
   </g>
</svg>
