<?xml version="1.0"?>
<!-- This Source Code Form is subject to the terms of the Mozilla Public
   - License, v. 2.0. If a copy of the MPL was not distributed with this
   - file, You can obtain one at http://mozilla.org/MPL/2.0/. -->
<svg xmlns="http://www.w3.org/2000/svg"
     xmlns:xlink="http://www.w3.org/1999/xlink"
     x="0px" y="0px"
     viewBox="0 0 16 16"
     enable-background="new 0 0 16 16"
     xml:space="preserve">
  <style>
    use:not(:target) {
      display: none;
    }

    use {
      color: MenuText;
      fill: MenuText;
    }

    use[id$="-active"] {
      color: -moz-menuhovertext;
      fill: -moz-menuhovertext;
    }

    use[id$="-disabled"] {
      color: GrayText;
      fill: GrayText;
    }
  </style>
  <defs style="display:none">
    <path id="back-shape" transform="translate(-100,-626)" d="m111 628h-1c-0.0104-0.00012-0.0208-0.00046-0.0313 0-0.25495 0.0112-0.50987 0.12858-0.6875 0.3125l-5.2812 5.2188 5.2812 5.1875c0.18816 0.18819 0.45346 0.28125 0.71875 0.28125h1v-1c0-0.26529-0.0931-0.53058-0.28125-0.71875l-3.8125-3.75 3.8125-3.7812c0.21074-0.19463 0.30316-0.46925 0.28125-0.75v-1z"/>
    <path id="forward-shape" transform="translate(-120,-626)" d="m125.03 628h1c0.0104-0.00012 0.0208-0.00046 0.0313 0 0.25495 0.0112 0.50987 0.12858 0.6875 0.3125l5.2812 5.2188-5.2812 5.1875c-0.19 0.19-0.45 0.28-0.72 0.28h-1v-1c0-0.26529 0.0931-0.53058 0.28125-0.71875l3.8125-3.75-3.8125-3.7812c-0.21074-0.19463-0.30316-0.46925-0.28125-0.75v-1z"/>
    <g id="reload-shape" transform="translate(-241,-627)">
      <path d="m247.16 629.06c-1.5222 0.21741-2.9782 1.023-3.9688 2.3438-1.9812 2.6414-1.4227 6.425 1.2188 8.4062s6.425 1.4227 8.4062-1.2188a1.0063 1.0063 0 1 0 -1.625 -1.1875c-1.3326 1.7767-3.817 2.1139-5.5938 0.78125-1.7767-1.3326-2.1139-3.817-0.78125-5.5938 1.3326-1.7767 3.817-2.1139 5.5938-0.78125 0.7429 0.55721 1.25 1.3475 1.4688 2.25a1.0119 1.0119 0 1 0 1.9688 -0.46875c-0.32806-1.3533-1.136-2.5707-2.25-3.4062-1.3207-0.9906-2.9153-1.3424-4.4375-1.125z"/>
      <path d="m253.78 629a1.0001 1.0001 0 0 0 -0.78 1v3h-3a1.0001 1.0001 0 1 0 0 2h5v-5a1.0001 1.0001 0 0 0 -1.2188 -1z"/>
      <rect y="637" width="1" x="252" height="1"/>
      <rect y="629" width="1" x="254" height="1"/>
      <rect y="634" width="1" x="249" height="1"/>
    </g>
    <g id="stop-shape" transform="translate(-260.00005,-517.99)">
      <path d="m 265,519 -0.3125,0.28125 -3.4062,3.375 -0.28125,0.3125 v 5 l 0.28125,0.3125 3.4062,3.4375 0.31,0.27 h 5.0313 l 0.28125,-0.28125 3.4062,-3.4375 0.28125,-0.3125 v -5 l -0.28125,-0.3125 -3.4062,-3.375 -0.31,-0.28 h -5.0038 z m 0.8125,2 h 3.375 L 272,523.8125 v 3.3438 l -2.8438,2.8438 h -3.3125 l -2.84,-2.83 v -3.35 l 2.81,-2.81 z"/>
      <path d="m 266.17,522 -2.17,2.15 v 2.6707 l 2.1656,2.1835 h 2.6707 l 2.1636,-2.1835 V 524.15 l -2.1636,-2.1457 h -2.6707 z"/>
    </g>
    <path id="bookmark-shape" d="m8,0.690002c-1.000488,-0.004028 -1.56311,3.540222 -2.375,4.125c-0.811554,0.584534 -4.343506,-0.012512 -4.656189,0.9375c-0.312866,0.950378 2.882202,2.578369 3.1875,3.531189c0.305115,0.952454 -1.338104,4.127808 -0.53125,4.718811c0.807159,0.591248 3.343201,-1.941589 4.343781,-1.9375c1.000122,0.004028 3.501099,2.584717 4.3125,2c0.811737,-0.584961 -0.81311,-3.799683 -0.5,-4.75c0.312988,-0.94989 3.524109,-2.547607 3.218811,-3.5c-0.305511,-0.952759 -3.849213,-0.377319 -4.656189,-0.96875c-0.806702,-0.591187 -1.343628,-4.152405 -2.343811,-4.156189l-0.000153,-0.000061zm-1,4.3125l2,0l0,2l2,0l0,2l-2,0l0,2l-2,0l0,-2l-2,0l0,-2l2,0l0,-2z"/>
    <path id="bookmarked-shape" d="m12.283169,14.049303c-0.811398,0.584738 -3.323244,-1.968432 -4.323313,-1.972573c-1.000517,-0.004138 -3.534343,2.528002 -4.341592,1.936825c-0.806865,-0.590988 0.845173,-3.768832 0.540016,-4.721312c-0.305224,-0.952799 -3.496509,-2.580179 -3.183667,-3.530563c0.312782,-0.949968 3.845646,-0.36083 4.65711,-0.945344c0.811909,-0.584742 1.373471,-4.122714 2.373922,-4.118784c1.000132,0.003821 1.531515,3.54588 2.338253,4.137061c0.806996,0.591419 4.345261,0.032214 4.650867,0.984961c0.305348,0.95235 -2.899091,2.55223 -3.212065,3.5022c-0.3131,0.950274 1.312119,4.142566 0.500405,4.727626l0.000064,-0.000096z"/>
  </defs>
  <use id="back"                xlink:href="#back-shape"/>
  <use id="back-active"         xlink:href="#back-shape"/>
  <use id="back-disabled"       xlink:href="#back-shape"/>
  <use id="forward"             xlink:href="#forward-shape"/>
  <use id="forward-active"      xlink:href="#forward-shape"/>
  <use id="forward-disabled"    xlink:href="#forward-shape"/>
  <use id="reload"              xlink:href="#reload-shape"/>
  <use id="reload-active"       xlink:href="#reload-shape"/>
  <use id="reload-disabled"     xlink:href="#reload-shape"/>
  <use id="stop"                xlink:href="#stop-shape"/>
  <use id="stop-active"         xlink:href="#stop-shape"/>
  <use id="stop-disabled"       xlink:href="#stop-shape"/>
  <use id="bookmark"            xlink:href="#bookmark-shape"/>
  <use id="bookmark-active"     xlink:href="#bookmark-shape"/>
  <use id="bookmark-disabled"   xlink:href="#bookmark-shape"/>
  <use id="bookmarked"          xlink:href="#bookmarked-shape"/>
  <use id="bookmarked-active"   xlink:href="#bookmarked-shape"/>
  <use id="bookmarked-disabled" xlink:href="#bookmarked-shape"/>
</svg>
