<?xml version="1.0"?>
<!-- This Source Code Form is subject to the terms of the Mozilla Public
   - License, v. 2.0. If a copy of the MPL was not distributed with this
   - file, You can obtain one at http://mozilla.org/MPL/2.0/. -->
<svg xmlns="http://www.w3.org/2000/svg"
     xmlns:xlink="http://www.w3.org/1999/xlink"
     x="0px" y="0px"
     viewBox="0 0 16 16"
     enable-background="new 0 0 16 16"
     xml:space="preserve">
<style>
use:not(:target) {
  display: none;
}

use {
  color: MenuText;
  fill: MenuText;
}

use[id$="-active"] {
  color: -moz-menuhovertext;
  fill: -moz-menuhovertext;
}

use[id$="-disabled"] {
  color: GrayText;
  fill: GrayText;
}
</style>
<defs style="display:none">
  <path id="back-shape" transform="translate(-100,-626)" d="m111 628h-1c-0.0104-0.00012-0.0208-0.00046-0.0313 0-0.25495 0.0112-0.50987 0.12858-0.6875 0.3125l-5.2812 5.2188 5.2812 5.1875c0.18816 0.18819 0.45346 0.28125 0.71875 0.28125h1v-1c0-0.26529-0.0931-0.53058-0.28125-0.71875l-3.8125-3.75 3.8125-3.7812c0.21074-0.19463 0.30316-0.46925 0.28125-0.75v-1z"/>
  <path id="forward-shape" transform="translate(-120,-626)" d="m125.03 628h1c0.0104-0.00012 0.0208-0.00046 0.0313 0 0.25495 0.0112 0.50987 0.12858 0.6875 0.3125l5.2812 5.2188-5.2812 5.1875c-0.19 0.19-0.45 0.28-0.72 0.28h-1v-1c0-0.26529 0.0931-0.53058 0.28125-0.71875l3.8125-3.75-3.8125-3.7812c-0.21074-0.19463-0.30316-0.46925-0.28125-0.75v-1z"/>
  <g id="reload-shape" transform="translate(-241,-627)">
    <path d="m247.16 629.06c-1.5222 0.21741-2.9782 1.023-3.9688 2.3438-1.9812 2.6414-1.4227 6.425 1.2188 8.4062s6.425 1.4227 8.4062-1.2188a1.0063 1.0063 0 1 0 -1.625 -1.1875c-1.3326 1.7767-3.817 2.1139-5.5938 0.78125-1.7767-1.3326-2.1139-3.817-0.78125-5.5938 1.3326-1.7767 3.817-2.1139 5.5938-0.78125 0.7429 0.55721 1.25 1.3475 1.4688 2.25a1.0119 1.0119 0 1 0 1.9688 -0.46875c-0.32806-1.3533-1.136-2.5707-2.25-3.4062-1.3207-0.9906-2.9153-1.3424-4.4375-1.125z"/>
    <path d="m253.78 629a1.0001 1.0001 0 0 0 -0.78 1v3h-3a1.0001 1.0001 0 1 0 0 2h5v-5a1.0001 1.0001 0 0 0 -1.2188 -1z"/>
    <rect y="637" width="1" x="252" height="1"/>
    <rect y="629" width="1" x="254" height="1"/>
    <rect y="634" width="1" x="249" height="1"/>
  </g>
  <g id="stop-shape" transform="translate(-260.00005,-517.99)">
    <path d="m 265,519 -0.3125,0.28125 -3.4062,3.375 -0.28125,0.3125 v 5 l 0.28125,0.3125 3.4062,3.4375 0.31,0.27 h 5.0313 l 0.28125,-0.28125 3.4062,-3.4375 0.28125,-0.3125 v -5 l -0.28125,-0.3125 -3.4062,-3.375 -0.31,-0.28 h -5.0038 z m 0.8125,2 h 3.375 L 272,523.8125 v 3.3438 l -2.8438,2.8438 h -3.3125 l -2.84,-2.83 v -3.35 l 2.81,-2.81 z"/>
    <path d="m 266.17,522 -2.17,2.15 v 2.6707 l 2.1656,2.1835 h 2.6707 l 2.1636,-2.1835 V 524.15 l -2.1636,-2.1457 h -2.6707 z"/>
  </g>
  <path id="bookmark-shape" transform="translate(-261,-647)" d="m269 647.69c-1.0005-0.004-1.5631 3.5402-2.375 4.125-0.81155 0.58452-4.3435-0.0125-4.6562 0.9375-0.31286 0.95036 2.8822 2.5784 3.1875 3.5312 0.30513 0.95245-1.3381 4.1278-0.53125 4.7188 0.80717 0.59122 3.3432-1.9416 4.3438-1.9375 1.0001 0.004 3.5011 2.5847 4.3125 2 0.81172-0.58496-0.81311-3.7997-0.5-4.75 0.31298-0.9499 3.5241-2.5476 3.2188-3.5-0.3055-0.95275-3.8492-0.37732-4.6562-0.96875-0.8067-0.5912-1.3436-4.1524-2.3438-4.1562zm-1 4.3125h2v2h2v2h-2v2h-2v-2h-2v-2h2z"/>
  <path id="bookmarked-shape" transform="translate(-522,-176)" d="m530.95 186.71c-0.77941 0.55189-3.1576-1.906-4.1125-1.9179-0.95532-0.0119-3.3949 2.3858-4.161 1.8149-0.76573-0.57072 0.83698-3.592 0.55319-4.5039-0.2839-0.91223-3.3182-2.4915-3.0119-3.3965 0.30617-0.90461 3.6749-0.31399 4.4544-0.86567 0.77986-0.5519 1.3442-3.9257 2.2995-3.914 0.95494 0.0116 1.4342 3.398 2.1998 3.9689 0.76588 0.57114 4.1489 0.0653 4.4331 0.97746 0.28402 0.9118-2.7885 2.414-3.0949 3.3186-0.30652 0.90489 1.22 3.966 0.44027 4.5182z"/>
</defs>
<use id="back"                xlink:href="#back-shape"/>
<use id="back-active"         xlink:href="#back-shape"/>
<use id="back-disabled"       xlink:href="#back-shape"/>
<use id="forward"             xlink:href="#forward-shape"/>
<use id="forward-active"      xlink:href="#forward-shape"/>
<use id="forward-disabled"    xlink:href="#forward-shape"/>
<use id="reload"              xlink:href="#reload-shape"/>
<use id="reload-active"       xlink:href="#reload-shape"/>
<use id="reload-disabled"     xlink:href="#reload-shape"/>
<use id="stop"                xlink:href="#stop-shape"/>
<use id="stop-active"         xlink:href="#stop-shape"/>
<use id="stop-disabled"       xlink:href="#stop-shape"/>
<use id="bookmark"            xlink:href="#bookmark-shape"/>
<use id="bookmark-active"     xlink:href="#bookmark-shape"/>
<use id="bookmark-disabled"   xlink:href="#bookmark-shape"/>
<use id="bookmarked"          xlink:href="#bookmarked-shape"/>
<use id="bookmarked-active"   xlink:href="#bookmarked-shape"/>
<use id="bookmarked-disabled" xlink:href="#bookmarked-shape"/>
</svg>
